<?xml version="1.0" encoding="UTF-8"?>
<svg width="9px" height="10px" viewBox="0 0 9 10" version="1.1" xmlns="http://www.w3.org/2000/svg" xmlns:xlink="http://www.w3.org/1999/xlink">
    <!-- Generator: Sketch 51.3 (57544) - http://www.bohemiancoding.com/sketch -->
    <title>Shape</title>
    <desc>Created with Sketch.</desc>
    <defs></defs>
    <g id="Page-1" stroke="none" stroke-width="1" fill="none" fill-rule="evenodd">
        <g id="Explore" transform="translate(-1153.000000, -532.000000)" fill="#FFFFFF" fill-rule="nonzero">
            <path d="M1161.39316,532.718667 C1161.20436,532.274068 1160.81457,532 1160.37302,532 L1154.63586,532 C1154.16386,532 1153.74971,532.31061 1153.57918,532.794797 C1153.42083,533.245486 1153.50305,533.741854 1153.79843,534.085961 L1156.66701,537.460041 C1156.75837,537.566623 1156.86495,537.651888 1156.98371,537.715837 L1156.98371,541.415754 C1156.98371,541.702002 1157.21819,541.933437 1157.50139,541.933437 C1157.78764,541.933437 1158.01908,541.698957 1158.01908,541.415754 L1158.01908,537.721928 C1158.14089,537.657979 1158.25356,537.569668 1158.34491,537.460041 L1161.21349,534.085961 L1161.2683,534.009831 L1161.28658,533.982424 C1161.52715,533.61091 1161.56673,533.126723 1161.39316,532.718667 Z M1160.44915,533.431243 L1160.43697,533.446469 L1157.57752,536.811414 C1157.55925,536.835775 1157.53185,536.847956 1157.50444,536.847956 C1157.47703,536.847956 1157.44963,536.835775 1157.43135,536.811414 L1154.56278,533.434288 C1154.51101,533.373384 1154.4836,533.248531 1154.52624,533.126723 C1154.54755,533.068865 1154.58714,533.004915 1154.63586,533.004915 L1160.37302,533.004915 C1160.38824,533.004915 1160.43392,533.032322 1160.46742,533.111497 C1160.51005,533.211989 1160.50396,533.336842 1160.44915,533.431243 Z" id="Shape"></path>
        </g>
    </g>
</svg>