<?xml version="1.0" encoding="UTF-8"?>
<svg width="132px" height="75px" viewBox="0 0 132 75" version="1.1" xmlns="http://www.w3.org/2000/svg" xmlns:xlink="http://www.w3.org/1999/xlink">
    <!-- Generator: Sketch 51.3 (57544) - http://www.bohemiancoding.com/sketch -->
    <title>Shape</title>
    <desc>Created with Sketch.</desc>
    <defs></defs>
    <g id="Page-1" stroke="none" stroke-width="1" fill="none" fill-rule="evenodd">
        <g id="Explore" transform="translate(-611.000000, -359.000000)" stroke="#B13030" stroke-width="2.66666651">
            <g id="Top" transform="translate(-6.000000, 0.000000)">
                <g id="Base" transform="translate(0.000000, 84.000000)">
                    <path d="M638.2,351.5 C638.2,376.423706 658.257029,396.62724 683,396.62724 C707.742971,396.62724 727.8,376.423706 727.8,351.5 C727.8,326.576294 707.742971,306.37276 683,306.37276 C658.257029,306.37276 638.2,326.576294 638.2,351.5 Z M651.533333,338.17898 C651.533333,355.714728 665.634951,369.924731 683,369.924731 C700.365049,369.924731 714.466667,355.684494 714.466667,338.148746 C714.466667,320.612997 700.394989,306.37276 683,306.37276 C665.634951,306.402994 651.533333,320.612997 651.533333,338.17898 Z M705.119359,312.247312 C715.864202,293.480825 687.539601,281.872069 682.734268,277 C677.899088,281.872069 649.604334,293.480825 660.349177,312.247312 L705.119359,312.247312 Z M660.347308,390.752688 C649.602465,409.519175 677.927066,421.127931 682.732399,426 C687.567578,421.127931 715.862333,409.519175 705.117489,390.752688 L660.347308,390.752688 Z M727.846043,351.767025 C749.424173,351.767025 745.234245,321.107013 747,314.431286 C740.385899,312.649078 716.174101,293.67914 705.4,312.498044 L727.846043,351.767025 Z M638.153957,351.232975 C616.575827,351.232975 620.765755,381.892987 619,388.568714 C625.614101,390.350922 649.825899,409.32086 660.6,390.501956 L638.153957,351.232975 Z M705.4,390.490871 C716.174101,409.334661 740.385899,390.339879 747,388.558175 C745.234245,381.884332 749.394245,351.232975 727.846043,351.232975 L705.4,390.490871 Z M660.6,312.509129 C649.795971,293.665339 625.584173,312.660121 619,314.441825 C620.765755,321.115668 616.605755,351.736827 638.153957,351.767025 L660.6,312.509129 Z" id="Shape"></path>
                </g>
            </g>
        </g>
    </g>
</svg>