<?xml version="1.0" encoding="UTF-8"?>
<svg width="64px" height="64px" viewBox="0 0 64 64" version="1.1" xmlns="http://www.w3.org/2000/svg" xmlns:xlink="http://www.w3.org/1999/xlink">
    <!-- Generator: Sketch 51.3 (57544) - http://www.bohemiancoding.com/sketch -->
    <title>Home</title>
    <desc>Created with Sketch.</desc>
    <defs></defs>
    <g id="Page-1" stroke="none" stroke-width="1" fill="none" fill-rule="evenodd">
        <g id="Accomodations" transform="translate(-751.000000, -327.000000)" fill-rule="nonzero">
            <g id="Box1-WIDE" transform="translate(694.000000, 251.000000)">
                <g id="Home" transform="translate(57.000000, 76.000000)">
                    <path d="M48.8943118,32.553 C48.7243086,32.214 48.3783022,32 47.9992952,32 L15.9987047,32 C15.7146995,32 15.4526946,32.125 15.2656912,32.33 C15.2636912,32.332 15.2626911,32.334 15.2616911,32.335 C15.2216904,32.379 15.1806896,32.423 15.148689,32.474 C15.1396889,32.489 15.1356888,32.506 15.1276887,32.521 C15.1216885,32.532 15.1106883,32.54 15.1056882,32.552 L0.105411442,62.552 C-0.0495914182,62.862 -0.0325911045,63.23 0.149412254,63.525 C0.330415594,63.82 0.651421518,64 0.998427921,64 L7.9985571,64 L23.9988524,64 L30.9989815,64 L62.999572,64 C63.3465784,64 63.6675844,63.82 63.8505877,63.526 C64.0325911,63.231 64.0495914,62.863 63.8945886,62.553 L48.8943118,32.553 Z M9.61658695,62 L15.9987047,49.236 L22.3808225,62 L9.61658695,62 Z M24.6168638,62 L16.8927212,46.553 C16.553715,45.875 15.4426945,45.875 15.1036882,46.553 L7.38054569,62 L2.61645778,62 L15.9987047,35.236 L29.3809517,62 L24.6168638,62 Z M31.6169929,62 L17.6167346,34 L47.3812838,34 L61.3815422,62 L31.6169929,62 Z" id="Shape" fill="#FFFFFF"></path>
                    <path d="M7,9.71428571 L17,9.71428571 C17.551,9.71428571 18,10.1419048 18,10.6666667 C18,11.1914286 17.551,11.6190476 17,11.6190476 L14,11.6190476 C12.346,11.6190476 11,12.9009524 11,14.4761905 C11,16.0514286 12.346,17.3333333 14,17.3333333 L37,17.3333333 C38.654,17.3333333 40,16.0514286 40,14.4761905 C40,12.9009524 38.654,11.6190476 37,11.6190476 L25,11.6190476 C24.449,11.6190476 24,11.1914286 24,10.6666667 C24,10.1419048 24.449,9.71428571 25,9.71428571 L27,9.71428571 C28.654,9.71428571 30,8.43238095 30,6.85714286 C30,5.28190476 28.654,4 27,4 L7,4 C5.346,4 4,5.28190476 4,6.85714286 C4,8.43238095 5.346,9.71428571 7,9.71428571 Z M7,5.9047619 L27,5.9047619 C27.551,5.9047619 28,6.33238095 28,6.85714286 C28,7.38190476 27.551,7.80952381 27,7.80952381 L25,7.80952381 C23.346,7.80952381 22,9.09142857 22,10.6666667 C22,12.2419048 23.346,13.5238095 25,13.5238095 L37,13.5238095 C37.551,13.5238095 38,13.9514286 38,14.4761905 C38,15.0009524 37.551,15.4285714 37,15.4285714 L14,15.4285714 C13.449,15.4285714 13,15.0009524 13,14.4761905 C13,13.9514286 13.449,13.5238095 14,13.5238095 L17,13.5238095 C18.654,13.5238095 20,12.2419048 20,10.6666667 C20,9.09142857 18.654,7.80952381 17,7.80952381 L7,7.80952381 C6.449,7.80952381 6,7.38190476 6,6.85714286 C6,6.33238095 6.449,5.9047619 7,5.9047619 Z" id="Shape" fill="#CAE8FF"></path>
                    <path d="M50.3636364,10 C49.5282828,10 48.8484848,9.327 48.8484848,8.5 C48.8484848,7.673 49.5282828,7 50.3636364,7 L56.4242424,7 C58.3737374,7 59.959596,5.43 59.959596,3.5 C59.959596,1.57 58.3737374,0 56.4242424,0 L30.6666667,0 L30.6666667,2 L56.4242424,2 C57.259596,2 57.9393939,2.673 57.9393939,3.5 C57.9393939,4.327 57.259596,5 56.4242424,5 L50.3636364,5 C48.4141414,5 46.8282828,6.57 46.8282828,8.5 C46.8282828,10.43 48.4141414,12 50.3636364,12 L64,12 L64,10 L50.3636364,10 Z" id="Shape" fill="#CAE8FF"></path>
                    <path d="M42.6666667,24.6666667 L50.6666667,24.6666667 C51.7696667,24.6666667 52.6666667,25.5636667 52.6666667,26.6666667 C52.6666667,28.8726667 54.4606667,30.6666667 56.6666667,30.6666667 L62.6666667,30.6666667 L62.6666667,28.6666667 L56.6666667,28.6666667 C55.5636667,28.6666667 54.6666667,27.7696667 54.6666667,26.6666667 C54.6666667,24.4606667 52.8726667,22.6666667 50.6666667,22.6666667 L42.6666667,22.6666667 L42.6666667,24.6666667 Z" id="Shape" fill="#CAE8FF"></path>
                    <rect id="Rectangle-path" fill="#FFC824" x="48" y="60" width="1.33333333" height="1.33333333"></rect>
                    <rect id="Rectangle-path" fill="#FFC824" x="52" y="60" width="1.33333333" height="1.33333333"></rect>
                    <rect id="Rectangle-path" fill="#FFC824" x="56" y="60" width="1.33333333" height="1.33333333"></rect>
                    <rect id="Rectangle-path" fill="#FFC824" x="48" y="56" width="1.33333333" height="1.33333333"></rect>
                    <rect id="Rectangle-path" fill="#FFC824" x="52" y="56" width="1.33333333" height="1.33333333"></rect>
                    <rect id="Rectangle-path" fill="#FFC824" x="40" y="60" width="1.33333333" height="1.33333333"></rect>
                    <rect id="Rectangle-path" fill="#FFC824" x="44" y="60" width="1.33333333" height="1.33333333"></rect>
                    <rect id="Rectangle-path" fill="#FFC824" x="40" y="56" width="1.33333333" height="1.33333333"></rect>
                    <rect id="Rectangle-path" fill="#FFC824" x="44" y="56" width="1.33333333" height="1.33333333"></rect>
                    <rect id="Rectangle-path" fill="#FFC824" x="57.3333333" y="17.3333333" width="1.33333333" height="1.33333333"></rect>
                    <rect id="Rectangle-path" fill="#FFC824" x="49.3333333" y="17.3333333" width="1.33333333" height="1.33333333"></rect>
                    <rect id="Rectangle-path" fill="#FFC824" x="53.3333333" y="17.3333333" width="1.33333333" height="1.33333333"></rect>
                    <rect id="Rectangle-path" fill="#FFC824" x="8" y="36" width="1.33333333" height="1.33333333"></rect>
                    <rect id="Rectangle-path" fill="#FFC824" x="5.33333333" y="36" width="1.33333333" height="1.33333333"></rect>
                </g>
            </g>
        </g>
    </g>
</svg>