<?xml version="1.0" encoding="UTF-8"?>
<svg width="38px" height="34px" viewBox="0 0 38 34" version="1.1" xmlns="http://www.w3.org/2000/svg" xmlns:xlink="http://www.w3.org/1999/xlink">
    <!-- Generator: Sketch 51.3 (57544) - http://www.bohemiancoding.com/sketch -->
    <title>Season</title>
    <desc>Created with Sketch.</desc>
    <defs></defs>
    <g id="Page-1" stroke="none" stroke-width="1" fill="none" fill-rule="evenodd">
        <g id="Destinations-Page" transform="translate(-1025.000000, -4163.000000)" fill="#FFFFFF" fill-rule="nonzero">
            <g id="BOX4" transform="translate(1005.000000, 4140.000000)">
                <g id="Fall-Season" transform="translate(20.000000, 23.000000)">
                    <g id="Season">
                        <path d="M28.047619,21.5535714 L28.8920635,18.8214286 L25.9666667,19.9446429 L26.3888889,17.6678571 L22.5888889,19.7625 L24.5492063,13.9642857 L21.1714286,15.725 L18.9396825,11.9 L17.1,15.4821429 L14.0539683,13.9946429 L15.531746,19.8232143 L11.6111111,17.6678571 L12.0333333,19.9446429 L9.10793651,18.8214286 L9.95238095,21.5535714 L8.08253968,22.4642857 L15.2904762,27.0482143 L12.6063492,29.5678571 L18.3968254,28.0803571 L18.3968254,30.7517857 L19.6031746,30.7517857 L19.6031746,28.0803571 L25.4238095,29.5982143 L22.7396825,27.0482143 L29.947619,22.4642857 L28.047619,21.5535714 Z M20.7793651,26.8660714 L21.1412698,27.2303571 L19.6031746,26.8357143 L19.6031746,25.5 L22.1666667,24.1035714 L21.5936508,23.0410714 L19.6031746,24.1035714 L19.6031746,21.0375 L18.3968254,21.0375 L18.3968254,24.0732143 L16.6174603,22.9803571 L15.984127,23.9821429 L18.3968254,25.4696429 L18.3968254,26.8357143 L16.8285714,27.2303571 L17.2206349,26.8660714 L10.5253968,22.6160714 L11.4,22.1910714 L10.9777778,20.8857143 L13.5714286,21.8875 L13.2396825,20.0053571 L15.9238095,21.4625 L16.1650794,22.4642857 L17.4015873,20.8857143 L16.9492063,20.6428571 L15.8333333,16.2410714 L17.6126984,17.0910714 L19,14.4196429 L20.6888889,17.3339286 L22.4380952,16.4232143 L20.447619,22.3428571 L24.7603175,19.975 L24.4285714,21.8875 L27.0222222,20.8857143 L26.6,22.1910714 L27.4746032,22.6160714 L20.7793651,26.8660714 Z" id="Shape"></path>
                        <path d="M30.2793651,2.15535714 C30.2793651,1.09285714 29.4349206,0.242857143 28.3793651,0.242857143 C27.3238095,0.242857143 26.4793651,1.09285714 26.4793651,2.15535714 L26.4793651,3.36964286 L11.5206349,3.36964286 L11.5206349,2.15535714 C11.5206349,1.09285714 10.6761905,0.242857143 9.62063492,0.242857143 C8.56507937,0.242857143 7.72063492,1.09285714 7.72063492,2.15535714 L7.72063492,3.36964286 L0.180952381,3.36964286 L0.180952381,33.7875 L37.7888889,33.7875 L37.7888889,3.33928571 L30.2492063,3.33928571 L30.2492063,2.15535714 L30.2793651,2.15535714 Z M27.6857143,2.15535714 C27.6857143,1.76071429 27.9873016,1.45714286 28.3793651,1.45714286 C28.7714286,1.45714286 29.0730159,1.76071429 29.0730159,2.15535714 L29.0730159,5.88928571 C29.0730159,6.28392857 28.7714286,6.5875 28.3793651,6.5875 C27.9873016,6.5875 27.6857143,6.28392857 27.6857143,5.88928571 L27.6857143,2.15535714 Z M8.92698413,2.15535714 C8.92698413,1.76071429 9.22857143,1.45714286 9.62063492,1.45714286 C10.0126984,1.45714286 10.3142857,1.76071429 10.3142857,2.15535714 L10.3142857,5.88928571 C10.3142857,6.28392857 10.0126984,6.5875 9.62063492,6.5875 C9.22857143,6.5875 8.92698413,6.28392857 8.92698413,5.88928571 L8.92698413,2.15535714 Z M1.41746032,32.5428571 L1.41746032,11.8696429 L36.6126984,11.8696429 L36.6126984,32.5732143 L1.41746032,32.5732143 L1.41746032,32.5428571 Z M36.5825397,4.55357143 L36.5825397,10.625 L1.41746032,10.625 L1.41746032,4.55357143 L7.75079365,4.55357143 L7.75079365,5.85892857 C7.75079365,6.92142857 8.5952381,7.77142857 9.65079365,7.77142857 C10.7063492,7.77142857 11.5507937,6.92142857 11.5507937,5.85892857 L11.5507937,4.55357143 L26.5095238,4.55357143 L26.5095238,5.85892857 C26.5095238,6.92142857 27.3539683,7.77142857 28.4095238,7.77142857 C29.4650794,7.77142857 30.3095238,6.92142857 30.3095238,5.85892857 L30.3095238,4.55357143 L36.5825397,4.55357143 Z" id="Shape"></path>
                    </g>
                </g>
            </g>
        </g>
    </g>
</svg>