<?xml version="1.0" encoding="UTF-8"?>
<svg width="32px" height="31px" viewBox="0 0 32 31" version="1.1" xmlns="http://www.w3.org/2000/svg" xmlns:xlink="http://www.w3.org/1999/xlink">
    <!-- Generator: Sketch 51.3 (57544) - http://www.bohemiancoding.com/sketch -->
    <title>Cloud</title>
    <desc>Created with Sketch.</desc>
    <defs></defs>
    <g id="Page-1" stroke="none" stroke-width="1" fill="none" fill-rule="evenodd">
        <g id="Destinations-Page" transform="translate(-1106.000000, -268.000000)" fill="#FFFFFF">
            <g id="Weather-widget" transform="translate(1106.000000, 268.000000)">
                <path d="M26.708129,10.5013658 C26.0092903,6.33513391 22.4619355,3.23223246 18.260129,3.13784168 C17.1540645,1.19579042 15.1308387,0 12.9032258,0 C10.2621935,0 7.92412903,1.70112009 7.06270968,4.19022069 C5.72490323,4.05254573 4.46812903,4.67729799 3.73212903,5.75888078 C1.61806452,5.95965676 0,7.73065731 0,9.90842478 C0,11.2189443 0.608,12.4256862 1.61548387,13.2079302 C0.617290323,14.2420569 0,15.6537467 0,17.2093694 C0,20.3722428 2.54709677,22.9458258 5.67741935,22.9458258 L5.67741935,21.9028337 C3.1163871,21.9028337 1.03225806,19.7975542 1.03225806,17.2093694 C1.03225806,14.6211845 3.1163871,12.515905 5.65729032,12.5153835 L6.01445161,12.517991 L6.1636129,12.2577644 C6.80929032,11.13029 8.00722581,10.4299208 9.29032258,10.4299208 C9.50658065,10.4299208 9.73264516,10.4523451 9.96232258,10.4956293 L10.4412903,10.5868911 L10.5589677,10.1086793 C11.4167742,6.61361279 14.5032258,4.17196833 18.0645161,4.17196833 C21.968,4.17196833 25.2691613,7.12363592 25.7424516,11.0374637 L25.7785806,11.334195 C25.796129,11.5521803 25.8064516,11.7717301 25.8064516,11.9944089 C25.8064516,16.3077027 22.3334194,19.8168496 18.0645161,19.8168496 L18.0645161,20.8598416 C22.9027097,20.8598416 26.8387097,16.8829128 26.8387097,11.9944089 C26.8387097,11.855691 26.8273548,11.7206235 26.8211613,11.5839916 C29.1891613,12.0653324 30.9677419,14.1956437 30.9677419,16.6878733 C30.9677419,19.5634025 28.6523871,21.9028337 25.8064516,21.9028337 L25.8064516,22.9458258 C29.2216774,22.9458258 32,20.1386126 32,16.6878733 C32,13.5870579 29.7073548,10.9467234 26.708129,10.5013658 L26.708129,10.5013658 Z M9.68051613,9.4046596 C7.95664516,9.25290426 6.35767742,10.073739 5.42864516,11.4786494 C4.31432258,11.5271485 3.2836129,11.9036686 2.42477419,12.5122545 C1.56077419,11.9354799 1.03225806,10.9670617 1.03225806,9.90842478 C1.03225806,8.20417572 2.35458065,6.83211963 4.04180645,6.78466349 L4.33032258,6.77631956 L4.47432258,6.52391547 C4.93574194,5.7166396 5.792,5.21496041 6.70967742,5.21496041 C6.90425806,5.21496041 7.09883871,5.23894923 7.30477419,5.28796986 L7.79251613,5.40374198 L7.92154839,4.91457869 C8.52283871,2.6351195 10.5708387,1.04299208 12.9032258,1.04299208 C14.5729032,1.04299208 16.1021935,1.85235394 17.0637419,3.19312026 C13.6129032,3.59050024 10.7024516,6.01076337 9.68051613,9.4046596 Z M8.83439242,22.1933566 L9.75764403,22.6530729 L8.71041279,24.738872 L7.78716118,24.2791556 L8.83439242,22.1933566 Z M7.16424371,27.8696556 L6.24099209,27.4099392 L7.28822334,25.3241402 L8.21147495,25.7838565 L7.16424371,27.8696556 Z M5.61320897,31 L4.68995736,30.5402836 L5.7371886,28.4544846 L6.66044021,28.914201 L5.61320897,31 Z M12.4475155,22.1928758 L13.3707094,22.6525634 L12.3234782,24.7383625 L11.4002843,24.2786748 L12.4475155,22.1928758 Z M10.7774251,27.8697842 L9.85423117,27.4100965 L10.9014624,25.3242975 L11.8246563,25.7839851 L10.7774251,27.8697842 Z M9.22633661,30.9985421 L8.303085,30.5388258 L9.35031624,28.4530267 L10.2735679,28.9127431 L9.22633661,30.9985421 Z M16.0609729,22.1939919 L16.9842245,22.6537083 L15.9369932,24.7395073 L15.0137416,24.2797909 L16.0609729,22.1939919 Z M14.3886119,27.8720755 L13.4653602,27.4123592 L14.5125915,25.3265601 L15.4358431,25.7862765 L14.3886119,27.8720755 Z M12.8394235,30.9992243 L11.9162296,30.5395367 L12.9634609,28.4537376 L13.8866548,28.9134252 L12.8394235,30.9992243 Z M19.6740108,22.1940524 L20.5972048,22.65374 L19.5499735,24.739539 L18.6267796,24.2798514 L19.6740108,22.1940524 Z M18.0018398,27.871686 L17.0785882,27.4119696 L18.1258195,25.3261706 L19.0490711,25.785887 L18.0018398,27.871686 Z M16.4532286,30.9988425 L15.529977,30.5391262 L16.5772082,28.4533272 L17.5004598,28.9130435 L16.4532286,30.9988425 Z M23.1630879,24.7389626 L22.2398363,24.2792462 L23.2870676,22.1934472 L24.2103192,22.6531636 L23.1630879,24.7389626 Z M21.6145296,27.8702756 L20.6913357,27.4105879 L21.738567,25.3247889 L22.6617609,25.7844765 L21.6145296,27.8702756 Z M20.0658795,30.9984648 L19.1426856,30.5387772 L20.1899168,28.4529782 L21.1131107,28.9126658 L20.0658795,30.9984648 Z" id="Cloud"></path>
            </g>
        </g>
    </g>
</svg>