<?xml version="1.0" standalone="no"?>
<!DOCTYPE svg PUBLIC "-//W3C//DTD SVG 1.1//EN" "http://www.w3.org/Graphics/SVG/1.1/DTD/svg11.dtd" >
<svg xmlns="http://www.w3.org/2000/svg" xmlns:xlink="http://www.w3.org/1999/xlink" version="1.1">
<metadata></metadata>
<defs>
<font id="eb_garamondbold" horiz-adv-x="1083" >
<font-face units-per-em="2048" ascent="1638" descent="-410" />
<missing-glyph horiz-adv-x="485" />
<glyph horiz-adv-x="0" />
<glyph horiz-adv-x="682" />
<glyph horiz-adv-x="0" />
<glyph horiz-adv-x="0" />
<glyph unicode="&#xd;" horiz-adv-x="681" />
<glyph unicode=" "  horiz-adv-x="485" />
<glyph unicode="&#x09;" horiz-adv-x="485" />
<glyph unicode="&#xa0;" horiz-adv-x="485" />
<glyph unicode="!" horiz-adv-x="593" d="M141 119q0 61 43 105t105 44q61 0 105 -44t44 -105t-44 -104.5t-105 -43.5t-104.5 43t-43.5 105zM147 1151q0 68 44.5 123t109.5 55q68 0 108 -52t40 -122q0 -61 -9.5 -135t-23 -159t-30.5 -183t-34 -211q-6 -43 -20 -72.5t-39 -29.5t-39 23.5t-25 78.5 q-16 115 -31.5 212t-25.5 182t-16 157t-9 133z" />
<glyph unicode="&#x22;" horiz-adv-x="815" d="M125 1266q0 29 19.5 50t37.5 34q35 25 62.5 37t62.5 12q25 0 38 -22.5t13 -53.5q0 -61 -24.5 -144t-56 -159t-54.5 -121q-12 -23 -31.5 -43t-29.5 -20q-12 0 -17.5 20.5t-5.5 36.5q2 39 0 70.5t-2 62.5q0 47 -3 90t-6 82t-3 68zM455 1266q0 29 19.5 50t37.5 34 q35 25 62.5 37t62.5 12q25 0 38 -22.5t13 -53.5q0 -61 -24.5 -144t-56 -159t-54.5 -121q-12 -23 -31.5 -43t-29.5 -20q-12 0 -17.5 20.5t-5.5 36.5q2 39 0 70.5t-2 62.5q0 47 -3 90t-6 82t-3 68z" />
<glyph unicode="#" horiz-adv-x="991" d="M31 219q0 49 10 80t27.5 46t37.5 15l132 7l57 227l-137 -6q-20 0 -31.5 13t-11.5 28q0 49 9 78.5t26.5 45t37.5 15.5l152 6l74 303q6 33 27.5 43t54.5 10q10 0 17 -11t7 -25q0 -6 -2 -9.5t-2 -7.5l-72 -297l234 11l76 309q6 33 27.5 43t54.5 10q10 0 17 -11.5t7 -25.5 q0 -6 -2 -9t-2 -7l-74 -305l121 6q23 2 36 -10.5t13 -30.5q0 -29 -12 -61.5t-30.5 -54t-39.5 -23.5l-135 -7l-55 -229l139 6q25 2 38 -10t13 -31q0 -31 -12 -62.5t-30.5 -53t-39.5 -23.5l-153 -6l-78 -318q-8 -31 -25.5 -39t-48.5 -8q-12 0 -21 11.5t-9 25.5v10l77 312 l-233 -9l-80 -335q-8 -29 -25.5 -37t-48.5 -8q-14 0 -22 11t-8 25v9l82 329l-119 -4q-20 -2 -32.5 12.5t-12.5 26.5zM342 371l233 8l56 231l-232 -10z" />
<glyph unicode="$" horiz-adv-x="944" d="M49 424q0 25 37 25q18 0 25.5 -6.5t15.5 -18.5q29 -100 81 -172t120 -105q8 -2 13 0.5t7 12.5l41 356q2 10 -2 18.5t-18 16.5q-72 43 -136.5 93t-106.5 120t-42 170q0 98 48 176t134 126t193 60q20 2 20 17l10 106q2 20 24 29.5t50 9.5q18 0 26.5 -15.5t4.5 -37.5 q-2 -12 -4 -28.5t-3 -34t-3 -31.5q0 -14 14 -17q51 -8 94 -22.5t72 -26.5q20 -6 30.5 -18.5t18.5 -38.5q10 -39 16.5 -95.5t6.5 -121.5q0 -10 -9.5 -16.5t-25.5 -6.5q-14 0 -30.5 7.5t-20.5 19.5q-29 86 -69 139t-97 74q-14 2 -17 -12l-37 -318q-2 -16 8.5 -27.5t45.5 -33.5 q102 -59 164.5 -116.5t91 -124.5t28.5 -153q0 -182 -115.5 -276t-301.5 -104q-12 0 -15 -13l-16 -151q-2 -14 -20 -20.5t-38 -6.5q-25 0 -36 17.5t-9 37.5l15 127q2 8 -1 11.5t-12 5.5q-53 10 -103 29.5t-95 48.5q-14 10 -24.5 20t-16.5 25q-18 51 -25.5 123.5t-5.5 146.5z M338 1036q0 -37 21.5 -67.5t60.5 -61.5q12 -12 12 4l31 260q2 23 -12 19q-53 -12 -83 -50t-30 -104zM453 147q-3 -22 20 -22q70 12 103.5 59t33.5 107q0 63 -26.5 104t-79.5 78q-14 8 -17 -10z" />
<glyph unicode="%" horiz-adv-x="1437" d="M55 893q0 111 38 193.5t106.5 129t160.5 46.5q86 0 149.5 -46.5t99.5 -125t36 -179.5q0 -119 -40 -201.5t-108.5 -126.5t-154.5 -44q-84 0 -147.5 46t-101.5 126t-38 182zM248 -16q0 4 2 8l839 1323q16 29 42 37t59 8q16 0 26.5 -11.5t10.5 -23.5q0 -8 -2 -10l-840 -1323 q-12 -25 -38 -32t-54 -7q-16 0 -30.5 9t-14.5 22zM258 911q0 -55 5 -109t17.5 -98.5t30.5 -72t47 -27.5q35 0 53.5 41t25.5 107.5t7 138.5q0 74 -10 143.5t-32.5 114.5t-59.5 45q-33 0 -51.5 -41t-25.5 -105.5t-7 -136.5zM792 320q0 111 38 193.5t106.5 129t160.5 46.5 q86 0 149.5 -46.5t99.5 -125t36 -179.5q0 -119 -40 -201.5t-108.5 -126.5t-154.5 -44q-84 0 -147.5 46t-101.5 126t-38 182zM995 338q0 -55 5 -109t17.5 -98.5t30.5 -72t47 -27.5q35 0 53.5 41t25.5 107.5t7 138.5q0 74 -10 143.5t-32.5 114.5t-59.5 45q-33 0 -51.5 -41 t-25.5 -105.5t-7 -136.5z" />
<glyph unicode="&#x26;" horiz-adv-x="1636" d="M63 266q0 123 85 236.5t239 185.5l41 21l-16 18q-20 23 -53 57.5t-59 82.5t-26 108q0 72 47.5 129t131.5 91t192 34q94 0 166 -30t112 -80t40 -113q0 -92 -58.5 -145.5t-159.5 -90.5l-45 -16l41 -43q57 -57 117 -119t113 -119l37 -41l28 27q41 39 70 81t45 78.5t16 59.5 q0 31 -17 47t-42 23q-14 8 -27.5 15t-13.5 23q0 20 18.5 24.5t40.5 4.5q27 0 60 -4t67.5 -8t69.5 -4q43 0 91 12t95 22.5t80 10.5q14 0 23.5 -8.5t9.5 -18.5q0 -18 -18.5 -34.5t-49.5 -20.5q-66 -10 -110.5 -42t-77.5 -65q-25 -23 -56.5 -52.5t-65.5 -61t-68.5 -62 t-66.5 -58.5t-54 -50l37 -45q66 -80 124 -134.5t119 -54.5q37 0 79 7.5t83 23.5q10 4 22.5 8t24.5 4q16 0 25.5 -5t9.5 -23q0 -29 -44 -72t-120 -77t-172 -34q-80 0 -138 20.5t-105.5 61.5t-100.5 105l-37 43l-12 -13q-59 -70 -128 -119t-142.5 -74.5t-153.5 -25.5 q-84 0 -168 34t-139.5 100.5t-55.5 164.5zM334 420q0 -119 65 -188.5t176 -69.5q51 0 108.5 13t109.5 65l14 14l-31 39q-68 82 -136.5 162t-141.5 163l-25 29l-37 -22q-39 -18 -61.5 -51t-31.5 -72t-9 -82zM535 1047q0 -55 13 -94.5t33.5 -64t36.5 -44.5l41 -41l23 20 q29 23 43 73t14 101q2 61 -22.5 109.5t-81.5 48.5q-37 0 -68.5 -30.5t-31.5 -77.5z" />
<glyph unicode="'" horiz-adv-x="485" d="M125 1266q0 29 19.5 50t37.5 34q35 25 62.5 37t62.5 12q25 0 38 -22.5t13 -53.5q0 -61 -24.5 -144t-56 -159t-54.5 -121q-12 -23 -31.5 -43t-29.5 -20q-12 0 -17.5 20.5t-5.5 36.5q2 39 0 70.5t-2 62.5q0 47 -3 90t-6 82t-3 68z" />
<glyph unicode="(" horiz-adv-x="622" d="M74 547q0 131 32.5 260t86 245.5t113 209t114.5 145.5q14 16 40.5 27.5t51.5 11.5q18 0 47 -16.5t29 -38.5q0 -4 -9.5 -17.5t-19.5 -29t-14 -19.5q-53 -68 -106.5 -180.5t-89.5 -262t-36 -325.5q0 -117 18.5 -244t50.5 -247.5t69.5 -217t78.5 -145.5q4 -4 16.5 -18.5 t24 -28.5t11.5 -18q0 -37 -30 -57.5t-63 -20.5q-35 0 -59 24q-43 43 -91 122t-95 180.5t-86 215t-61.5 228t-22.5 217.5z" />
<glyph unicode=")" horiz-adv-x="622" d="M35 1391q0 -4 9.5 -17.5t19.5 -29t14 -19.5q53 -68 106.5 -180.5t89.5 -262t36 -325.5q0 -117 -18.5 -244t-50.5 -247.5t-69.5 -217t-78.5 -145.5q-4 -4 -16.5 -18.5t-24 -28.5t-11.5 -18q0 -37 30 -57.5t63 -20.5q35 0 59 24q43 43 91 122t95 180.5t86 215t61.5 228 t22.5 217.5q0 131 -32.5 260t-86 245.5t-113 209t-114.5 145.5q-14 16 -40.5 27.5t-51.5 11.5q-18 0 -47 -16.5t-29 -38.5z" />
<glyph unicode="*" horiz-adv-x="731" d="M47 1184q0 35 27.5 48t66.5 -1q35 -12 70 -26.5t68 -26.5q-2 37 -3.5 72.5t-3.5 76.5q0 29 15.5 52.5t48.5 25.5q25 -2 43 -21.5t20 -44.5l19 -147q16 10 53 35.5t72 46.5q10 8 22.5 12t24.5 4q23 0 40 -15t17 -42q0 -33 -29 -57l-112 -97q16 -8 57 -26.5t76 -36.5 q20 -8 33.5 -24.5t13.5 -37.5q0 -37 -26.5 -50t-67.5 -5q-35 12 -70 25.5t-69 23.5q2 -18 5 -65t5 -90q0 -25 -14.5 -48.5t-47.5 -23.5q-25 0 -43 18.5t-20 44.5l-27 150q-18 -8 -57 -32.5t-78 -47.5q-10 -6 -21.5 -9t-23.5 -3q-23 0 -40 14t-17 39q0 37 32 59l115 93 q-14 12 -54 31.5t-77 39.5q-20 8 -31.5 26.5t-11.5 39.5z" />
<glyph unicode="+" horiz-adv-x="1230" d="M70 475q0 16 5 39t18 41t34 18h401q18 0 22.5 7.5t4.5 19.5v369q0 20 17.5 35.5t41 24.5t37.5 9t22.5 -13t8.5 -32v-393q0 -27 23 -27h417q18 0 31.5 -7t13.5 -23q0 -27 -20.5 -59.5t-48.5 -32.5h-391q-25 0 -25 -25v-391q0 -20 -19.5 -33.5t-43 -19t-37.5 -5.5 q-8 0 -17.5 10.5t-9.5 22.5v416q0 25 -25 25h-428q-14 0 -23 8t-9 16z" />
<glyph unicode="," horiz-adv-x="505" d="M45 -303q0 14 12.5 20.5t32.5 12.5q55 14 94 38.5t60.5 60.5t21.5 81q0 39 -24.5 60.5t-59.5 29.5q-37 10 -62.5 40t-25.5 79q0 53 43 89t99 36q92 0 149 -58.5t57 -152.5q0 -84 -30.5 -150.5t-80.5 -117t-111 -76t-124 -25.5q-51 0 -51 33z" />
<glyph unicode="-" horiz-adv-x="647" d="M53 356q0 61 11.5 93t33.5 36q111 16 233 33t232 25q18 2 24.5 -7.5t6.5 -23.5q0 -61 -8 -86t-33 -29q-109 -16 -237.5 -33.5t-241.5 -27.5q-20 -2 -21 20z" />
<glyph unicode="." horiz-adv-x="505" d="M86 102q0 72 49 121t115 49q74 0 122 -49t48 -121q0 -68 -48 -115.5t-122 -47.5q-66 0 -115 48t-49 115z" />
<glyph unicode="/" horiz-adv-x="831" d="M34 -88q-6 -14 6 -26.5t35 -12.5q27 0 53.5 7t38.5 32l635 1411q6 14 -5 28.5t-38 14.5q-33 0 -56.5 -8t-35.5 -35z" />
<glyph unicode="0" d="M53 618q0 117 29 236t90.5 218t157.5 159.5t227 60.5q123 0 214 -57t149.5 -152.5t88.5 -209t30 -224.5q0 -117 -29 -235.5t-89.5 -219t-155.5 -162t-230 -61.5q-123 0 -213 57.5t-150.5 152.5t-89.5 210t-29 227zM346 653q0 -109 13.5 -213t41 -189t68.5 -136.5 t96 -51.5q66 0 106 77t58.5 202t18.5 270q0 109 -14.5 213.5t-43 189.5t-69.5 135t-97 50q-66 0 -104.5 -76.5t-56 -200.5t-17.5 -270z" />
<glyph unicode="1" d="M197 1122q0 27 19.5 38t43.5 14q121 10 217 38.5t191 83.5q4 2 10 4.5t12 2.5q14 0 27.5 -6.5t13.5 -14.5q0 -27 -5 -60.5t-5 -88.5v-932q0 -39 24.5 -63.5t69.5 -40t105 -31.5q16 -6 26 -14.5t10 -26.5q0 -29 -30 -29q-47 0 -111.5 2t-127 4t-107.5 2q-43 0 -104.5 -2 t-125 -5t-110.5 -3q-12 0 -24.5 8t-12.5 21q0 33 39 43q57 14 98 28.5t63.5 40t22.5 68.5v741q0 49 -25.5 74.5t-65.5 38t-85 18.5q-16 4 -34.5 14.5t-18.5 32.5z" />
<glyph unicode="2" d="M123 29q0 16 8 26.5t17 18.5l299 332q109 119 162 238.5t53 260.5q0 86 -44 144.5t-124 58.5q-72 0 -135.5 -41t-108.5 -88q-10 -12 -28.5 -27.5t-36.5 -15.5q-16 0 -22.5 13.5t-6.5 33.5q0 35 33.5 85t94 101.5t139.5 86t167 34.5q106 0 179 -47t112 -125t39 -170 q0 -57 -25.5 -125.5t-62.5 -131t-76 -107.5q-31 -35 -77 -81t-95 -93.5t-94 -88t-72 -67.5t-27 -31q0 -8 31 -12q37 -4 89 -6t95 -2q47 0 92.5 2t90.5 6t78.5 17.5t59.5 39t46 66.5q6 14 21.5 29.5t35.5 15.5q16 0 22.5 -13.5t0.5 -27.5q-18 -53 -37.5 -115.5t-34 -113 t-16.5 -70.5q-2 -25 -20.5 -36t-22.5 -11q-12 0 -60.5 1t-113 3t-132 4t-118.5 2q-47 0 -103.5 -2t-106.5 -3t-84 -2t-40 -1t-23.5 11t-17.5 24z" />
<glyph unicode="3" d="M146 23q0 25 9 54t25.5 49.5t36.5 20.5q18 0 30.5 -8t27.5 -24q29 -31 67.5 -68t87.5 -37q66 0 119 36t85 101.5t32 155.5q0 84 -22.5 149.5t-67.5 102.5t-111 37q-51 0 -83 -17.5t-50 -25.5q-14 -8 -34.5 1t-16.5 28q10 39 34.5 65.5t51.5 40.5q61 31 106 62.5t76 66.5 t46.5 77t15.5 93q0 66 -45.5 114t-114.5 48q-61 0 -103.5 -25.5t-71 -58.5t-46 -57.5t-27.5 -24.5q-14 0 -28.5 16.5t-14.5 32.5q0 18 22.5 61.5t71.5 89.5t127 77.5t191 31.5q82 0 149.5 -30.5t108.5 -86t41 -131.5q0 -47 -28 -106.5t-89.5 -111.5t-159.5 -77q-6 -2 -6 -7 t8 -5q106 0 188.5 -39t130.5 -109.5t48 -170.5q0 -113 -51.5 -203t-137.5 -154.5t-194.5 -99.5t-227.5 -35q-45 0 -93 13.5t-80.5 37t-32.5 50.5z" />
<glyph unicode="4" d="M43 330q0 8 10 22q14 18 23.5 29.5t18.5 25t20 27.5l505 809q16 27 42 49.5t49 22.5h18q16 0 19.5 -15.5t-5.5 -27.5l-481 -764q-8 -16 -2 -22.5t18 -6.5h287q6 0 11.5 4t5.5 11v245q0 37 5 50.5t27 21.5q55 27 119 35t88 8q41 0 48 -40t7 -118v-215q0 -14 11 -14 q27 -2 40 -2h33q31 0 55.5 1t61.5 3q25 0 25 -14q0 -16 -8.5 -47t-19.5 -56.5t-19 -25.5q-25 0 -47.5 1t-49.5 1q-20 0 -29 -1t-24 -3q-8 -2 -18.5 -6.5t-10.5 -6.5v-116q0 -57 27 -82t107 -47q18 -6 33.5 -14.5t15.5 -26.5q0 -12 -13.5 -20.5t-29.5 -8.5q-45 0 -97.5 2 t-101.5 4t-92 2t-91 -2t-97.5 -5t-96.5 -3q-12 0 -28.5 8t-16.5 23q0 20 14.5 28t32.5 13q82 14 111 39.5t29 87.5v116q0 10 -12.5 15.5t-22.5 5.5q-63 0 -145.5 -4t-167.5 -8.5t-160 -4.5q-10 0 -20.5 4.5t-10.5 12.5z" />
<glyph unicode="5" d="M174 -47q0 25 26.5 33t57.5 12q125 12 219 62.5t146 121t52 142.5q0 78 -38.5 135t-123.5 103t-225 87q-63 23 -86.5 45.5t-23.5 61.5q0 29 12 81t27.5 109.5t31 105.5t17.5 64q12 49 39.5 70.5t60.5 30.5q39 10 105.5 21t140.5 22.5t133 19.5t82 8q16 2 24.5 -12 t6.5 -31q-4 -29 -20.5 -64.5t-28.5 -66.5q-14 -41 -49 -66.5t-80 -29.5q-33 -4 -84.5 -5t-102.5 -4t-92 -4t-59 -6q-14 -2 -24.5 -17t-16.5 -32.5t-6 -27.5t6 -17.5t16 -9.5q115 -20 202 -52t161 -69q131 -61 188 -156.5t57 -207.5q0 -113 -69.5 -218.5t-184.5 -168.5 q-41 -23 -105.5 -46.5t-140 -39t-153.5 -15.5q-29 0 -63.5 5t-34.5 26z" />
<glyph unicode="6" d="M135 395q0 113 25.5 205t63.5 164t78 123t64 82q47 57 126 117.5t179.5 115.5t212.5 94q33 12 63.5 12.5t30.5 -14.5q-2 -20 -21.5 -33.5t-51.5 -29.5q-113 -53 -188.5 -122t-141.5 -171q-29 -49 -67.5 -130t-66.5 -184.5t-28 -220.5q0 -113 30 -188.5t74 -114.5t91 -41 q61 0 104 63.5t43 184.5q0 61 -22.5 112.5t-55 83.5t-69.5 32q-27 0 -45.5 -4.5t-36.5 -12.5q-37 -18 -46 3.5t13 45.5q14 14 24.5 23.5t22.5 19.5q33 27 96.5 58.5t114.5 31.5q78 0 143.5 -38.5t106.5 -104t41 -147.5t-34 -160t-96.5 -141.5t-149.5 -100.5t-193 -37 q-143 0 -239.5 53.5t-145.5 148.5t-49 222z" />
<glyph unicode="7" d="M76 872q0 14 10.5 49t12.5 48q12 68 30.5 145.5t18.5 134.5q0 23 16.5 30t26.5 5q25 -2 79 -10t119 -12q49 0 115 -1t128.5 -2.5t103.5 -1.5q76 0 137 1.5t109.5 3.5t78.5 4q8 0 14.5 -14.5t6.5 -28.5q0 -10 -11.5 -29.5t-28 -46.5t-36.5 -60l-614 -1083 q-10 -18 -26 -41.5t-22 -23.5q-25 0 -42 19t-17 46q0 14 20.5 46t34.5 59l494 882q8 16 1 22.5t-24 6.5h-458q-51 0 -82 -17.5t-62 -60.5q-8 -10 -23.5 -35.5t-36 -47t-40.5 -21.5q-12 0 -22.5 10t-10.5 24z" />
<glyph unicode="8" d="M123 293q0 82 47 134t114.5 90t127.5 71q18 10 13 17t-22 18q-61 49 -115.5 102t-89 117.5t-34.5 144.5q0 92 64.5 159.5t164.5 104.5t209 37q94 0 181 -35.5t140.5 -101.5t53.5 -152q0 -80 -38 -130t-85 -72q-23 -12 -46.5 -24.5t-43.5 -24.5q-33 -20 -33 -30.5 t20 -23.5q76 -49 136.5 -97t96.5 -106.5t36 -134.5q0 -117 -65.5 -202.5t-173 -133t-238.5 -47.5q-113 0 -209.5 41t-153.5 113t-57 166zM397 307q0 -61 22.5 -117.5t63.5 -92.5t96 -36q74 0 121 53.5t47 129.5q0 55 -33.5 107t-83 99.5t-96.5 79.5q-10 10 -17 15.5t-15 5.5 q-4 0 -27 -14q-43 -41 -60.5 -94.5t-17.5 -135.5zM426 1044q0 -57 27.5 -102t70.5 -83t92 -77q12 -10 22.5 -11t18.5 7q33 35 46.5 98.5t13.5 131.5q0 78 -32 135t-110 57q-41 0 -73.5 -19.5t-54 -54t-21.5 -82.5z" />
<glyph unicode="9" d="M112 -70q0 23 18.5 35t39.5 12q74 10 150.5 54.5t147 109t123.5 133.5q43 55 88.5 134t78 177.5t32.5 211.5q0 70 -17.5 138.5t-48 124.5t-69.5 90t-80 34q-49 0 -84 -25.5t-52.5 -76t-17.5 -128.5q0 -61 21.5 -118.5t56.5 -94t76 -36.5q29 0 49.5 6t38.5 14 q43 18 49 -4.5t-14 -46.5q-10 -14 -21.5 -25.5t-23.5 -21.5q-14 -14 -46 -33t-71 -33t-76 -14q-78 0 -151.5 40t-122.5 108.5t-49 158.5q0 66 39 141.5t106.5 142t154.5 108.5t185 42q88 0 167 -38t139.5 -104.5t95 -150.5t34.5 -176q0 -129 -46 -243.5t-115.5 -210 t-141.5 -164.5q-49 -45 -123.5 -98.5t-159.5 -99.5t-166.5 -75.5t-140.5 -29.5q-31 0 -42 11t-11 21z" />
<glyph unicode=":" horiz-adv-x="577" d="M106 102q0 72 49 121t115 49q74 0 122 -49t48 -121q0 -68 -48 -115.5t-122 -47.5q-66 0 -115 48t-49 115zM106 667q0 72 49 121t115 49q74 0 122 -49t48 -121q0 -68 -48 -115.5t-122 -47.5q-66 0 -115 48t-49 115z" />
<glyph unicode=";" horiz-adv-x="505" d="M45 -303q0 14 12.5 20.5t32.5 12.5q55 14 94 38.5t60.5 60.5t21.5 81q0 39 -24.5 60.5t-59.5 29.5q-37 10 -62.5 40t-25.5 79q0 53 43 89t99 36q92 0 149 -58.5t57 -152.5q0 -84 -30.5 -150.5t-80.5 -117t-111 -76t-124 -25.5q-51 0 -51 33zM66 669q0 72 49 121t115 49 q74 0 122 -49t48 -121q0 -68 -48 -115.5t-122 -47.5q-66 0 -115 48t-49 115z" />
<glyph unicode="&#x3c;" horiz-adv-x="1107" d="M78 451q0 16 22.5 53t57.5 51l825 403q8 6 14 7q18 0 25.5 -14.5t7.5 -30.5q0 -29 -20.5 -57.5t-53.5 -45.5l-677 -330q-8 -2 -8.5 -8t8.5 -10l679 -328q35 -14 53.5 -43.5t18.5 -58.5q0 -31 -16.5 -39t-30.5 0l-805 387q-33 16 -66.5 34.5t-33.5 29.5z" />
<glyph unicode="=" horiz-adv-x="1288" d="M94 303q0 10 5 32.5t17.5 39t33.5 16.5h1001q18 0 30.5 -8t12.5 -23q0 -25 -19.5 -54.5t-46.5 -29.5h-1001q-14 0 -23.5 9.5t-9.5 17.5zM94 672q0 12 5 34.5t17.5 39t33.5 16.5h1001q18 0 30.5 -8.5t12.5 -22.5q0 -25 -19.5 -54.5t-46.5 -29.5h-1001q-14 0 -23.5 8.5 t-9.5 16.5z" />
<glyph unicode="&#x3e;" horiz-adv-x="1107" d="M78 32q0 29 20.5 57.5t53.5 45.5l677 330q8 2 8.5 8t-8.5 10l-679 328q-35 14 -53.5 43.5t-18.5 58.5q0 31 16.5 39t30.5 0l805 -387q33 -16 66.5 -34.5t33.5 -29.5q0 -16 -22.5 -53t-57.5 -51l-825 -403q-8 -6 -14 -7q-18 0 -25.5 14.5t-7.5 30.5z" />
<glyph unicode="?" horiz-adv-x="808" d="M111 1253q0 37 43 69t98 32q82 0 157.5 -41t143.5 -111q49 -51 83 -110.5t53.5 -123t19.5 -122.5q0 -82 -31 -130t-68 -65q-33 -16 -61.5 -33.5t-59 -35t-63.5 -35.5q-45 -25 -60.5 -54.5t-23.5 -89.5q0 -23 -12.5 -36t-30.5 -13q-14 0 -32.5 16.5t-35.5 45.5 q-16 33 -31.5 78t-15.5 104q0 72 60.5 124t179.5 107q61 29 96 65t35 91q0 61 -46 93t-108 34q-43 0 -65.5 -8t-34.5 -14q-14 -4 -30.5 -8.5t-37.5 -4.5q-29 0 -57.5 30t-46.5 71t-18 75zM150 119q0 61 43 105t104 44t104 -44t43 -105t-43 -104.5t-104 -43.5t-104 43 t-43 105z" />
<glyph unicode="@" horiz-adv-x="1599" d="M70 377q0 178 64.5 313t176 225.5t257 137.5t304.5 47q133 0 251 -45t210 -127t144.5 -191.5t52.5 -240.5q0 -129 -62.5 -228.5t-162 -157t-205.5 -57.5q-57 0 -88 21.5t-45.5 43t-26.5 21.5q-10 0 -48 -23.5t-96.5 -47t-133.5 -23.5q-121 0 -205 67.5t-84 192.5 q0 147 66.5 256t177 167t243.5 58q37 0 80 -8t66 -14q18 -4 34.5 -10t22.5 -6q12 0 21.5 13t18.5 25.5t21 12.5q4 0 20.5 -2t31 -6.5t12.5 -12.5q-16 -45 -32.5 -106.5t-20.5 -91.5l-50 -279q-2 -14 -4 -26.5t-2 -26.5q0 -23 8.5 -41.5t28.5 -18.5q72 0 133.5 33t99 94.5 t37.5 145.5q0 156 -67.5 271.5t-190 181t-286.5 65.5q-125 0 -239 -40t-203 -115.5t-139 -182t-50 -242.5q0 -127 49 -234.5t137 -188t202 -126t241 -45.5q66 0 144.5 18.5t155.5 51.5t132 74q16 10 35.5 21.5t31.5 11.5q51 0 52 -37q0 -25 -55.5 -67t-142.5 -87 t-186.5 -74.5t-191.5 -29.5q-147 0 -282.5 50t-240 142t-163.5 219t-59 279zM582 369q0 -76 24.5 -123t62 -68.5t74.5 -21.5q35 0 61.5 10t55.5 31q18 14 29.5 37.5t19.5 68.5l45 234q2 6 2 12v12q0 59 -44 96t-105 37q-57 0 -108.5 -38t-84 -110.5t-32.5 -176.5z" />
<glyph unicode="A" horiz-adv-x="1474" d="M-8 23q0 20 13 29t36 16q59 16 103 51t67 86q51 115 96 226.5t88 221t86 223t86 230.5q31 84 39 122t12 44q37 10 70 18t70 23q37 14 62.5 36.5t37.5 34.5q8 6 16.5 7.5t16.5 -13.5q6 -12 11 -25.5t9 -29.5q43 -137 88 -279.5t91.5 -284t91.5 -279.5t88 -269 q12 -41 37.5 -69.5t58.5 -45t74 -28.5q23 -6 36 -15.5t13 -27.5q0 -14 -12.5 -22.5t-28.5 -8.5q-41 0 -101.5 3t-122 5t-108.5 2q-39 0 -95 -2t-113.5 -4t-98.5 -2q-18 0 -31.5 7t-13.5 22q0 18 14.5 28t34.5 15q77 16 111 42q26 20 25 54q0 12 -3 26q-8 39 -20.5 82 t-23.5 87t-23 85q-4 16 -10.5 24.5t-24.5 8.5h-363q-14 0 -22 -8t-13 -27q-8 -29 -18 -57.5t-19.5 -57t-17.5 -57t-16 -55.5q-5 -21 -5 -39q0 -34 18 -55q26 -33 114 -53q49 -10 49 -43q0 -14 -11.5 -21.5t-35.5 -7.5q-59 0 -110.5 3t-112.5 3t-117 -6t-119 -6q-23 0 -38 7 t-15 26zM502 606q0 -10 11.5 -14t25.5 -4h266q31 0 31 14q0 6 -1 10t-4 11l-137 462q-6 23 -12 23q-4 0 -14 -23l-162 -462q-4 -8 -4 -17z" />
<glyph unicode="B" horiz-adv-x="1282" d="M35 20q0 31 45 43q70 18 99.5 43t29.5 91v931q0 66 -26.5 95.5t-98.5 44.5q-27 6 -37 17t-10 26q0 12 12 21t31 9q66 0 108.5 -4t80.5 -7t89 -3q47 0 86 5t87.5 9.5t117.5 4.5q244 0 370 -69t126 -237q0 -63 -29 -119.5t-74 -93.5q-33 -29 -68.5 -47t-80.5 -30 q-8 -2 -8 -10.5t8 -10.5q53 -12 110.5 -31.5t107.5 -56.5t80 -95.5t30 -148.5q0 -115 -36 -181t-86 -101t-93 -58q-68 -33 -154 -49t-205 -16q-68 0 -136.5 4t-143.5 4q-43 0 -94.5 -2t-101.5 -5t-95 -3q-18 0 -29.5 9t-11.5 21zM524 236q0 -68 33 -100t92 -32 q61 0 115.5 37t86.5 99.5t32 142.5q0 70 -17.5 117t-41 75.5t-44.5 42.5q-16 14 -58 30t-104 16q-35 0 -64.5 -17.5t-29.5 -50.5v-360zM524 827q0 -41 28.5 -56t53.5 -15q49 0 90 11t84 44q14 14 40 58t26 128q0 86 -22.5 143.5t-68.5 86t-122 28.5q-57 0 -83 -21.5 t-26 -64.5v-342z" />
<glyph unicode="C" horiz-adv-x="1452" d="M59 647q0 141 56.5 269t165 227.5t261 158t345.5 58.5q66 0 132 -9.5t128.5 -25.5t114.5 -35q18 -8 31.5 -21.5t15.5 -37.5q8 -68 12 -131.5t4 -114.5q0 -23 -16.5 -31t-36 -0.5t-27.5 31.5q-14 47 -33.5 94t-58.5 82q-41 41 -113.5 67.5t-175.5 26.5q-104 0 -189 -45 t-145.5 -122.5t-93.5 -176t-33 -204.5q0 -135 29 -251t88.5 -200t145.5 -131t202 -47q152 0 246 64.5t158 197.5q16 37 46 35t30 -35q0 -27 -5.5 -64.5t-15.5 -80.5t-24 -89q-8 -25 -21.5 -38t-34.5 -23q-78 -33 -184.5 -53.5t-233.5 -20.5q-160 0 -299 48.5t-245.5 137.5 t-166 214t-59.5 276z" />
<glyph unicode="D" horiz-adv-x="1568" d="M37 23q0 18 11 28t32 15q78 16 106.5 41.5t28.5 91.5v929q0 66 -26.5 93.5t-108.5 46.5q-20 4 -31.5 14t-11.5 29q0 14 12 22t27 8q47 0 99 -2t102.5 -5t91.5 -3q33 0 86 3t115.5 6t121 6.5t94.5 3.5q156 0 288 -48.5t231.5 -137.5t155 -209.5t55.5 -266.5 q0 -137 -49.5 -263t-143.5 -225.5t-229.5 -156.5t-311.5 -57q-70 0 -152.5 4t-154.5 7t-108 3q-41 0 -90.5 -1t-101.5 -3t-99 -2q-14 0 -26.5 7t-12.5 22zM530 270q0 -68 26 -106.5t76 -56t120 -17.5q139 0 233 68.5t140 190.5t46 284q0 137 -29.5 248.5t-86 191.5t-139 124 t-187.5 44q-66 0 -110 -4t-66.5 -20.5t-22.5 -53.5v-893z" />
<glyph unicode="E" horiz-adv-x="1177" d="M41 20q0 31 45 43q70 18 99.5 43t29.5 91v931q0 66 -26.5 94.5t-100.5 45.5q-27 6 -37 17t-10 26q0 12 12.5 21t32.5 9q51 0 104.5 -2t104.5 -5t98 -3q106 0 227 2t216 4q66 0 108.5 7.5t50.5 7.5q14 0 31.5 -9.5t20.5 -29.5q8 -74 20 -143.5t12 -122.5q0 -18 -8 -28.5 t-18 -10.5t-21.5 8t-17.5 24q-20 51 -36.5 88t-37.5 60q-25 23 -59.5 43t-87.5 20h-154q-45 0 -78 -23.5t-33 -66.5v-387q0 -25 14.5 -37t37.5 -12h180q53 0 76.5 36t42.5 87q14 39 41 39q10 0 18 -11.5t6 -33.5q-2 -25 -4 -53.5t-3 -57.5t-1 -55q0 -25 1 -53.5l2 -57 t3 -55.5q4 -29 -2 -42t-18 -13q-33 0 -48 53q-18 61 -40.5 94t-63.5 33h-190q-25 0 -38.5 -11.5t-13.5 -35.5v-389q0 -61 27 -86t82 -25h176q45 0 86 10.5t70 34.5q35 29 63.5 72t52.5 92q8 14 17.5 19.5t21.5 5.5q10 0 15.5 -12.5t5.5 -26.5q0 -35 -10.5 -78t-25.5 -91 l-30 -96q-4 -14 -17 -20t-28 -6q-27 0 -99.5 1t-170.5 3t-202.5 3t-194.5 1q-41 0 -90.5 -2t-99.5 -5t-93 -3q-20 0 -31.5 9t-11.5 21z" />
<glyph unicode="F" horiz-adv-x="1118" d="M37 23q0 33 43 43q78 16 106.5 41.5t28.5 93.5v917q0 70 -24.5 101.5t-98.5 48.5q-27 6 -37 17t-10 26q0 12 12.5 21t32.5 9q49 0 102.5 -2t104.5 -5t98 -3h175.5h183.5q84 0 152.5 11.5t111.5 11.5q16 0 32.5 -8.5t18.5 -30.5q4 -47 6 -98.5t3 -98.5t1 -80 q0 -41 -24 -41q-10 0 -23.5 8.5t-17.5 24.5q-14 51 -30.5 91t-43.5 67q-27 29 -62.5 41t-84.5 12h-154q-51 0 -80 -25.5t-29 -68.5v-86v-88v-98.5v-98.5q0 -27 12.5 -38t35.5 -11h102h96q53 0 78 32t43 75q8 16 19.5 26t21.5 10t19.5 -12t7.5 -33q-4 -43 -7.5 -80.5 t-3.5 -66.5q0 -39 2 -66.5t7 -74.5q2 -27 -4.5 -40.5t-16.5 -13.5q-16 0 -29.5 15.5t-19.5 33.5q-16 61 -41 83t-61 22h-48.5h-48.5h-60.5t-60.5 -2q-23 0 -34 -12.5t-11 -34.5q0 -92 1 -192.5t3 -192.5q0 -66 35 -92.5t121 -44.5q20 -4 31.5 -13.5t11.5 -27.5 q0 -14 -9 -22.5t-28 -8.5q-45 0 -104.5 3t-116.5 5t-98 2t-92.5 -2t-104.5 -5t-100 -3q-16 0 -28.5 7t-12.5 22z" />
<glyph unicode="G" horiz-adv-x="1472" d="M59 643q0 141 54.5 270t156 229.5t244.5 159t317 58.5q43 0 99.5 -6t116 -16.5t111.5 -24t85 -27.5q18 -6 28.5 -17.5t12.5 -31.5q10 -72 17.5 -135.5t7.5 -106.5q0 -20 -9.5 -30.5t-25.5 -10.5q-25 0 -36 12.5t-19 30.5q-18 39 -42 81t-57 77q-25 25 -58.5 47.5 t-82.5 36.5t-119 14q-111 0 -196.5 -45t-144 -123.5t-88.5 -178t-30 -210.5q0 -137 27 -250.5t78 -195.5t127 -126t176 -44q53 0 87 18.5t54 32.5q20 16 33.5 52t13.5 81q2 18 2 51t1 66t1 51q0 23 -9 42.5t-36 29.5q-18 12 -41.5 20t-47 13.5t-42.5 9.5q-16 2 -32.5 14 t-16.5 31q0 14 14.5 22.5t28.5 8.5q47 0 103.5 -2.5t112 -5.5t98.5 -3q59 0 125.5 4.5t127.5 4.5q14 0 24.5 -7.5t10.5 -23.5q0 -20 -11 -29.5t-30 -13.5q-57 -14 -77.5 -37t-28.5 -64q-8 -45 -11 -78.5t-3 -74.5v-66q0 -10 8 -20t18 -21q8 -10 14.5 -20t6.5 -23 q0 -12 -8.5 -25.5t-30.5 -17.5q-16 -2 -57.5 -21.5t-102.5 -45t-145.5 -44t-186.5 -18.5q-147 0 -277 48.5t-229.5 138.5t-155 213t-55.5 272z" />
<glyph unicode="H" horiz-adv-x="1640" d="M39 23q0 33 43 43q72 16 97.5 41.5t25.5 91.5v929q0 68 -23.5 94.5t-95.5 45.5q-45 10 -45 43q0 14 13.5 22t27.5 8q47 0 96 -2t96.5 -5t87.5 -3q41 0 93.5 2t106.5 4t100 2q37 0 36 -30q0 -18 -11 -26.5t-32 -14.5q-82 -23 -108.5 -51.5t-26.5 -90.5v-368 q0 -16 9.5 -22.5t23.5 -6.5h541q27 0 26 29v368q0 61 -25.5 90t-107.5 52q-23 6 -34 14t-11 27q0 31 39 30q45 0 100.5 -2t108.5 -4t94 -2q39 0 85 3t94 5t96 2q16 0 28 -8t12 -22q0 -33 -43 -43q-74 -18 -97 -46t-23 -94v-927q0 -68 25.5 -93.5t94.5 -41.5q43 -10 43 -43 q0 -14 -12 -21.5t-26 -7.5q-43 0 -92.5 3t-98.5 5t-90 2t-93 -2t-107.5 -5t-100.5 -3q-16 0 -26.5 8t-10.5 23q0 20 11.5 27t31.5 14q78 20 106.5 47.5t28.5 87.5v383q0 16 -5 25t-19 9h-547q-29 0 -29 -32v-383q0 -57 31 -87t108 -50q20 -6 31.5 -13.5t11.5 -27.5 q0 -14 -9 -22.5t-27 -8.5q-45 0 -100.5 3t-109 5t-94.5 2t-91 -2t-100 -5t-91 -3q-14 0 -27.5 7t-13.5 22z" />
<glyph unicode="I" horiz-adv-x="745" d="M33 23q0 33 43 43q78 16 108.5 41.5t30.5 91.5v929q0 66 -26.5 93.5t-108.5 46.5q-43 10 -43 43q0 14 12 22t29 8q47 0 99 -2t102.5 -5t93.5 -3q41 0 93 2t106.5 4t99.5 2q18 0 28.5 -7t10.5 -21q0 -20 -11.5 -28.5t-33.5 -14.5q-82 -23 -109 -50.5t-27 -91.5v-925 q0 -59 30 -87t110 -48q20 -6 31.5 -14.5t11.5 -26.5q0 -14 -9.5 -22.5t-27.5 -8.5q-45 0 -100.5 3t-108.5 5t-94 2q-43 0 -94.5 -2t-104.5 -5t-100 -3q-16 0 -28.5 7t-12.5 22z" />
<glyph unicode="J" horiz-adv-x="757" d="M-168 -291q0 41 35 80t70 39q25 0 45 -12.5t41 -36.5q39 -45 58 -74t44 -29q61 0 94 79t33 259v1114q0 68 -26.5 94.5t-108.5 45.5q-43 10 -43 43q0 14 13 22t28 8q47 0 99 -2t102.5 -5t93.5 -3q41 0 91 2t104 4t100 2q18 0 27 -7t9 -21q0 -20 -11 -28.5t-32 -14.5 q-82 -23 -106.5 -50.5t-24.5 -91.5v-950q0 -55 -21.5 -122.5t-59 -138.5t-83.5 -132q-61 -80 -135.5 -136.5t-150.5 -56.5q-285 0 -285 119z" />
<glyph unicode="K" horiz-adv-x="1562" d="M37 23q0 33 53 43q78 16 102.5 42.5t24.5 92.5v927q0 68 -27.5 94.5t-109.5 45.5q-43 10 -43 43q0 14 13 22t28 8q47 0 99 -2t102.5 -5t91.5 -3t92 2t105.5 4t99.5 2q16 0 26.5 -7t10.5 -21q0 -20 -11.5 -28.5t-34.5 -14.5q-82 -23 -105.5 -51.5t-23.5 -90.5v-415 q0 -16 6.5 -24.5t14.5 -8.5q10 0 22.5 9t28.5 24l393 424q16 18 27.5 33.5t11.5 29.5q0 43 -84 62q-23 6 -34 16t-11 29q0 14 13.5 21t27.5 7h141q70 0 135.5 1t133 3t137.5 2q20 0 36.5 -7t16.5 -21q0 -20 -20.5 -29.5t-40.5 -13.5q-102 -14 -179 -47t-137 -80 q-61 -47 -118.5 -101.5t-114.5 -113t-121 -117.5q-14 -13 -14 -28q0 -16 16 -33l490 -549q29 -31 56.5 -55.5t64 -43t90.5 -34.5q23 -6 43 -14.5t20 -26.5q0 -14 -20.5 -24.5t-57.5 -10.5q-61 0 -121.5 4t-120 7t-124.5 3q-68 0 -126.5 -5t-129.5 -5q-14 0 -27.5 8t-13.5 23 q0 33 41 43q82 16 86 55q0 16 -9.5 31.5t-25.5 35.5l-334 388q-14 16 -26.5 24t-22.5 8q-8 0 -13.5 -9t-5.5 -26q0 -92 1 -182t6 -188q2 -37 10 -63.5t31.5 -43t76.5 -32.5q23 -6 39.5 -14.5t16.5 -26.5q0 -14 -18.5 -23.5t-41.5 -9.5q-63 0 -110 4t-86 8t-78 4 q-43 0 -82 -5t-85 -10t-116 -5q-20 0 -38.5 10t-18.5 25z" />
<glyph unicode="L" horiz-adv-x="1200" d="M39 1311q0 14 12 22t29 8q47 0 99 -2t102.5 -5t91.5 -3q43 0 96 2t109.5 4t101.5 2q18 0 27.5 -7t9.5 -21q0 -20 -11.5 -28.5t-31.5 -14.5q-84 -23 -114 -48.5t-30 -86.5v-922q0 -57 26 -82t85 -25h209q45 0 81 15.5t64 40.5q35 33 61.5 74.5t47.5 87.5q20 41 31.5 53 t23.5 12q16 0 22.5 -14.5t6.5 -26.5q0 -4 -4 -18.5t-4 -22.5q-14 -59 -26.5 -103t-20 -84t-13.5 -89q-2 -14 -9 -26.5t-24 -12.5q-43 0 -124.5 2t-183 3t-207 3t-195.5 2q-43 0 -98.5 -2t-107.5 -5t-85 -3q-20 0 -31.5 9t-11.5 21q0 14 12.5 25.5t30.5 17.5q70 18 99.5 43 t29.5 89v938q0 45 -10 69.5t-39 38.5t-84 27q-43 10 -43 43z" />
<glyph unicode="M" horiz-adv-x="1878" d="M41 23q0 18 17.5 23t39.5 13q47 16 83 57.5t44 104.5q12 94 25.5 232.5t28 296t24.5 311.5q2 12 2 30.5v38.5q0 37 -11 58.5t-38 36.5q-25 16 -53.5 27.5t-61.5 19.5q-25 6 -39 16t-14 27q0 18 16.5 24.5t38.5 6.5q31 0 76 -2.5t99.5 -3.5t110.5 -3t103 -2q16 0 31 -11 t19 -26q14 -39 26.5 -74.5t26.5 -74.5l301 -719q4 -8 11 -9t11 9l293 680q14 72 23.5 117t17.5 71q8 27 33 27h88q86 4 179.5 13.5t146.5 9.5q20 0 35.5 -7.5t15.5 -23.5q0 -18 -13.5 -26.5t-33.5 -14.5q-12 -4 -28.5 -11.5t-28.5 -13.5q-53 -25 -79 -57q-23 -27 -23 -82 q0 -9 1 -18q4 -147 10.5 -258t11.5 -205t12 -195.5t15 -236.5q4 -53 44 -85t106 -48q20 -6 34.5 -14.5t14.5 -26.5q0 -14 -12.5 -22.5t-30.5 -8.5q-45 0 -103.5 3t-114.5 5t-97 2t-91.5 -2t-101.5 -5t-98 -3q-18 0 -32.5 7t-14.5 22q0 18 14 28t35 15q76 14 104 42 q27 26 27 83v8q-6 127 -10 253t-7.5 247.5t-9.5 236.5q0 14 -7 13t-13 -15l-391 -930q-10 -29 -31 -24.5t-29 20.5q-100 238 -209.5 469t-201.5 459q-6 18 -19.5 13t-15.5 -28q-6 -102 -10.5 -224t-4.5 -246v-230q0 -57 37 -93t117 -54q20 -4 38.5 -13.5t18.5 -27.5 q0 -14 -16 -22.5t-35 -8.5q-55 0 -86 3t-55.5 4t-67.5 1q-45 0 -92 -2t-82 -4t-45 -2q-25 0 -37 7t-12 22z" />
<glyph unicode="N" horiz-adv-x="1656" d="M20 1315q0 18 16.5 25.5t37.5 7.5q37 0 83 -2.5t97 -3.5t106.5 -3t110.5 -2q16 0 25.5 -6t17.5 -16l97.5 -110.5t109.5 -124t116.5 -131t118 -134t114.5 -131t109.5 -123t98.5 -110.5q6 -8 15.5 -17.5t17.5 -9.5q16 0 16 31q0 63 1 147t1 178t-1 186.5t-5 170.5 q-2 55 -42 82.5t-110 46.5q-23 4 -39 14t-16 29q0 14 16.5 21t34.5 7q47 0 80 -1t59.5 -1h59.5q41 0 69.5 1t62.5 3t87 2q25 0 38 -8t13 -22q0 -31 -53 -41q-72 -14 -102.5 -41t-32.5 -86q0 -74 -1 -158t-5 -172t-7 -175t-6 -167t-2 -147q0 -47 6.5 -103.5t11.5 -102.5 t5 -65q0 -51 -15 -71.5t-42 -20.5t-86.5 32t-122.5 111q-49 51 -102.5 110.5t-113 123t-120 129t-119.5 130.5t-118.5 128t-113 122.5t-102.5 110.5q-4 8 -13 15.5t-13 7.5q-8 0 -11.5 -14.5t-3.5 -24.5q-1 -47 -1 -102.5t1 -118.5q2 -127 5 -257t3 -237q0 -66 41 -103.5 t121 -57.5q23 -4 40.5 -13.5t17.5 -27.5q0 -14 -16.5 -22.5t-35.5 -8.5q-55 0 -89.5 3t-64.5 4t-73 1q-45 0 -85 -2t-67.5 -4t-37.5 -2q-14 0 -32 7t-18 22q0 18 16.5 26t37.5 17q49 18 74.5 61t29.5 106q8 76 17.5 201t17.5 281.5t8 324.5q0 106 -54 153.5t-132 76.5 q-16 4 -37 15t-21 30z" />
<glyph unicode="O" horiz-adv-x="1556" d="M59 645q0 139 46.5 267t138.5 228.5t228 160t314 59.5q143 0 271.5 -48t226.5 -137.5t155.5 -213t57.5 -275.5q0 -137 -47 -266t-139 -229.5t-228.5 -160t-314.5 -59.5q-141 0 -269 48.5t-227.5 137.5t-156 213t-56.5 275zM397 752q0 -127 24.5 -249t74 -220.5 t126.5 -157.5t183 -59q117 0 195.5 65.5t117.5 182t39 268.5q0 125 -23.5 246.5t-73.5 220t-128 157t-184 58.5q-115 0 -194 -65.5t-118 -180.5t-39 -266z" />
<glyph unicode="P" horiz-adv-x="1243" d="M35 23q0 33 43 43q78 16 107.5 41.5t29.5 93.5v917q0 70 -24.5 101.5t-98.5 48.5q-27 6 -37 17t-10 26q0 12 12.5 21t32.5 9q47 0 95 -2t94.5 -5t87.5 -3q49 0 87 5t84 10.5t111 5.5q250 0 396.5 -105.5t146.5 -290.5q0 -129 -54.5 -237.5t-164 -175t-277.5 -66.5 q-53 0 -80.5 16.5t-27.5 38.5q0 14 13 23.5t24 9.5q23 0 39 -5t45 -5q86 0 130 96.5t44 253.5q0 188 -61.5 272.5t-172.5 84.5q-57 0 -87 -26t-30 -79l-2 -952q0 -66 35 -93.5t121 -45.5q23 -4 34 -13.5t11 -27.5q0 -14 -10 -22.5t-29 -8.5q-45 0 -103.5 3t-115.5 5t-98 2 q-43 0 -94.5 -2t-105.5 -5t-99 -3q-16 0 -28.5 7t-12.5 22z" />
<glyph unicode="Q" horiz-adv-x="1556" d="M59 645q0 139 46.5 267t138.5 228.5t228 160t314 59.5q143 0 271.5 -48t226.5 -137.5t155.5 -213t57.5 -275.5q0 -141 -48 -271t-144.5 -231.5t-237.5 -156.5q-23 -6 -23 -23q0 -10 11 -18q49 -47 97 -90t124 -107q102 -80 188 -114.5t172 -34.5q23 0 41.5 1t30.5 3 q12 4 23.5 5t23.5 1q55 0 55 -41q0 -18 -9 -31.5t-32 -28.5q-43 -29 -114.5 -43t-161.5 -14q-121 0 -251 42t-236 116q-76 55 -138.5 101t-134.5 112q-43 37 -99 84t-134 76q-68 25 -144.5 71.5t-143.5 120.5t-110 180.5t-43 249.5zM397 752q0 -131 24.5 -253t74 -218.5 t126.5 -153.5t183 -57q176 0 264 137t88 375q0 129 -23.5 250.5t-73.5 217t-128 151.5t-184 56q-174 0 -262.5 -136t-88.5 -369z" />
<glyph unicode="R" horiz-adv-x="1556" d="M35 23q0 33 43 43q78 16 107.5 41.5t29.5 93.5v919q0 49 -9 78t-36 44t-78 26q-27 6 -37 17t-10 26q0 12 12.5 21t32.5 9q66 0 108 -4t79.5 -7t89.5 -3q47 0 82.5 5t82 9.5t117.5 4.5q240 0 369 -82t129 -248q0 -92 -40 -154.5t-100.5 -102.5t-121.5 -61q-8 -2 -7 -9 t5 -15q61 -90 119.5 -175t120 -158t126.5 -134q70 -66 142.5 -77t144.5 -11q31 0 31 -37q0 -45 -32 -72.5t-87 -40t-127 -12.5q-104 0 -176 25.5t-122 67.5t-89 95q-45 59 -87 119t-83 129.5t-86 159.5q-20 45 -55 63q-18 12 -37 16.5t-33 4.5q-10 0 -16.5 -11.5t-6.5 -29.5 v-391q0 -63 35 -92t121 -47q23 -4 34 -13.5t11 -27.5q0 -14 -10 -22.5t-29 -8.5q-45 0 -103.5 3t-115.5 5t-98 2q-43 0 -94.5 -2t-105.5 -5t-99 -3q-16 0 -28.5 7t-12.5 22zM530 778q0 -41 21.5 -58.5t56.5 -17.5q78 0 129 35t78 95.5t27 138.5q0 94 -24.5 157.5t-74 95 t-127.5 31.5q-45 0 -64.5 -35.5t-19.5 -152.5q-2 -47 -2 -118.5v-170.5z" />
<glyph unicode="S" horiz-adv-x="1011" d="M49 403q0 14 12.5 20.5t28.5 6.5q20 0 27.5 -5t15.5 -19q45 -154 134 -248.5t208 -94.5q66 0 108 30t64.5 76t22.5 93q0 66 -26 111t-77 82t-131 80q-86 49 -166 103t-131 132t-51 195q0 121 62.5 209t171 137t243.5 49q78 0 148.5 -16.5t113.5 -32.5q25 -10 36 -22.5 t20 -43.5q10 -43 17 -104.5t7 -134.5q0 -27 -37 -27q-18 0 -33.5 9t-19.5 24q-35 123 -102.5 186.5t-165.5 63.5q-61 0 -104.5 -20.5t-65 -61.5t-21.5 -103q0 -49 34 -91t97.5 -85t145.5 -92q111 -66 176.5 -129.5t95 -134t29.5 -162.5q0 -139 -60.5 -231.5t-170 -136.5 t-256.5 -44q-88 0 -170 20.5t-154 65.5q-12 10 -24.5 22.5t-18.5 26.5q-20 56 -28 136q-6 64 -5 127v34z" />
<glyph unicode="T" horiz-adv-x="1423" d="M41 1067q0 25 12 51q39 78 57.5 133.5t24.5 126.5q4 31 18.5 42.5t32.5 11.5q14 0 30.5 -27t35.5 -43q20 -16 68.5 -24.5t78.5 -8.5h770q51 0 87 10.5t55 20.5q33 18 52 40.5t46 22.5q12 0 17.5 -9t5.5 -25q0 -8 -1 -20.5t-4 -22.5q-10 -39 -20 -75t-16.5 -69t-6.5 -67 v-41q0 -33 -7 -53.5t-27 -20.5q-18 0 -30.5 19.5t-27.5 62.5q-23 74 -66.5 108.5t-133.5 34.5h-107q-35 0 -56.5 -15.5t-31.5 -61.5t-10 -140v-825q0 -61 33.5 -89t113.5 -48q20 -6 34.5 -14.5t14.5 -26.5q0 -14 -12 -22.5t-31 -8.5q-45 0 -101 3t-112.5 5t-97.5 2 q-43 0 -97 -2t-108.5 -5t-101.5 -3q-14 0 -30.5 7t-16.5 22q0 18 14 28t35 15q78 16 113.5 42.5t35.5 92.5v846q0 80 -4 117.5t-11 51t-17 17.5q-18 10 -48 11t-49 1h-45q-66 0 -124 -31.5t-93 -78.5q-10 -14 -29.5 -40t-41 -45.5t-41.5 -19.5q-16 0 -22.5 11.5t-6.5 25.5z " />
<glyph unicode="U" horiz-adv-x="1525" d="M23 1311q0 14 15 22t38 8q66 0 135.5 -5t130.5 -5q57 0 138 4t138 4q25 0 40.5 -7t15.5 -23q0 -23 -31 -33t-65 -27q-31 -12 -53.5 -50t-22.5 -107v-537q0 -139 45 -229t119.5 -133t167.5 -43q186 0 277 110.5t91 337.5q0 53 1 119.5t1 137.5t-2 134q-2 92 -13 143.5 t-33.5 80t-61.5 47.5q-23 12 -52.5 21t-29.5 28q0 16 16 22t45 6q74 0 112 -2t85 -2q39 0 64.5 2t53 4t66.5 2q25 0 39 -6t14 -24q0 -27 -55 -43q-68 -18 -95.5 -62.5t-31.5 -118.5q-6 -156 -8 -285.5t-2 -264.5q-2 -166 -75 -294t-197.5 -200t-278.5 -72q-193 0 -322 69 t-193.5 191.5t-64.5 286.5v584q0 57 -26.5 104t-77.5 60q-57 16 -57 45z" />
<glyph unicode="V" horiz-adv-x="1445" d="M0 1311q0 14 13.5 21t29.5 7q41 0 95.5 -2t109.5 -4t94 -2q41 0 100.5 3t119 4t100.5 1q18 0 36.5 -7t18.5 -21q0 -16 -18.5 -27.5t-41.5 -15.5q-59 -14 -87.5 -30.5t-28.5 -51.5q0 -14 4 -29.5t6 -28.5l264 -741q4 -12 9 -14t12 16l239 629q26 65 26 115q1 31 -9 55 q-24 66 -115 78q-23 4 -43.5 15t-20.5 30q0 14 19.5 20t40.5 6q43 0 71.5 -1t56 -2t68.5 -1q59 0 112.5 5t113.5 5q23 0 42 -6t19 -26q0 -18 -17.5 -25.5t-37.5 -15.5q-66 -16 -106 -62.5t-76 -136.5l-312 -745q-33 -76 -58.5 -133.5t-46 -104.5t-42.5 -90 q-6 -18 -16.5 -25.5t-30.5 -7.5q-27 0 -41 33q-14 31 -36 82t-36 96l-403 950q-20 49 -54 87t-94 53q-20 8 -34.5 16t-14.5 29z" />
<glyph unicode="W" horiz-adv-x="2088" d="M0 1311q0 14 18.5 21t34.5 7q61 0 138 -4t135 -4q61 0 124.5 4t124.5 4q27 0 44.5 -7t17.5 -21q0 -18 -16.5 -27.5t-49.5 -15.5q-33 -8 -39 -24.5t-6 -39.5q0 -12 4.5 -32.5t6.5 -26.5q41 -96 81.5 -189.5t79.5 -186.5t80 -186.5t80 -191.5q10 -23 16.5 -24.5t18.5 22.5 l113 213q6 12 9 21.5t3 17.5t-3 17.5t-7 21.5l-211 448q-20 51 -61.5 87t-102.5 51q-20 8 -33.5 16t-13.5 29q0 14 12 21t29 7q41 0 94 -2t105.5 -4t91.5 -2q59 0 121.5 4t123.5 4q31 0 49.5 -7t18.5 -21q0 -12 -10.5 -21.5t-27.5 -15.5t-36 -14q-37 -8 -42 -29t3 -45 q8 -18 19.5 -52t27 -72t28.5 -73t21 -55q14 -31 21.5 -25t15.5 25q14 29 33 75t35 91t24 67q10 16 11 39q0 31 -25.5 44.5t-50.5 24.5t-25 34q0 12 7.5 20t39.5 8q55 0 73 -3t46 -3q33 2 61.5 6t88.5 4q25 0 43 -7t18 -25q0 -20 -17.5 -27.5t-37.5 -13.5q-63 -16 -92 -49 t-53 -80q-20 -39 -45 -88.5t-48.5 -100.5t-46.5 -96q-10 -25 -8 -50.5t12 -51.5l158 -363q6 -18 13.5 -13t11.5 17q78 174 153.5 362.5t134.5 348.5q20 51 23.5 70.5t1.5 29.5q-2 23 -16.5 39.5t-40.5 22.5q-20 6 -42 16t-22 29q0 14 18.5 20t41.5 6q61 0 86.5 -3t56.5 -1 q33 2 67.5 6t92.5 4q29 0 49 -6t20 -26q0 -18 -21.5 -25.5t-41.5 -15.5q-43 -10 -72 -33t-47 -50.5t-33 -60.5l-477 -1118q-6 -16 -16.5 -26.5t-24.5 -10.5q-16 0 -27.5 9.5t-21.5 29.5q-23 51 -55.5 119t-75.5 161t-101 220q-6 14 -14 12t-14 -14q-41 -82 -84 -164 t-86 -165t-86 -165q-8 -20 -17.5 -34.5t-27.5 -14.5q-16 0 -24.5 16.5t-18.5 36.5l-516 1117q-23 49 -51.5 82.5t-88.5 48.5q-20 8 -39.5 16t-19.5 29z" />
<glyph unicode="X" horiz-adv-x="1536" d="M-10 18q0 20 17.5 27.5t37.5 15.5q41 10 81 33t83 62t90 98l248 321q28 34 28 69q0 34 -28 73l-291 409q-25 35 -48.5 63t-53 48t-68.5 31q-20 6 -34.5 14t-14.5 29q0 16 13 22t30 6q92 0 191.5 -6t195.5 -6q66 0 130.5 6t129.5 6q18 0 37.5 -7t19.5 -21 q0 -16 -19.5 -27.5t-39.5 -15.5q-61 -14 -91 -31.5t-30 -50.5q0 -25 33 -72l194 -266q20 -27 36 -29t34 25l170 233q29 37 39 64.5t10 48.5q0 27 -20.5 45t-69.5 31q-20 6 -40.5 16t-20.5 29q0 14 18.5 20t44.5 6q41 0 67.5 -1t53.5 -3t66 -2q59 0 104 7.5t104 7.5 q23 0 44.5 -7.5t21.5 -25.5q0 -20 -19.5 -27.5t-41.5 -13.5q-45 -14 -96.5 -52t-90.5 -85l-280 -347q-23 -29 -25 -51t23 -57l342 -485q33 -45 70.5 -79t76.5 -46q23 -4 48.5 -17.5t25.5 -34.5q0 -14 -14.5 -21t-38.5 -7q-76 0 -143.5 3t-129.5 7q-42 3 -85 3q-22 0 -44 -1 q-61 0 -121.5 -3t-122.5 -3q-18 0 -36.5 8t-18.5 23q0 16 20.5 27.5t38.5 15.5q39 10 78 28.5t39 53.5q0 10 -4 22t-14 25l-223 315q-25 37 -44.5 42t-46.5 -36l-192 -276q-27 -39 -32 -65.5t-3 -39.5q4 -29 27.5 -48t66.5 -25q23 -4 42.5 -15.5t19.5 -30.5q0 -14 -17.5 -20 t-42.5 -6q-59 0 -115.5 2t-93.5 2q-61 0 -111.5 -6t-113.5 -6q-25 0 -43 7t-18 25z" />
<glyph unicode="Y" horiz-adv-x="1339" d="M0 1311q0 14 13.5 21t29.5 7q86 0 165 -6t167 -6q68 0 128 6t128 6q18 0 36.5 -7t18.5 -21q0 -16 -18.5 -27.5t-40.5 -15.5q-55 -14 -80 -29.5t-25 -48.5q0 -31 23 -72l211 -362q18 -37 37 -37q8 0 17 9t19 28q49 84 93.5 167t87.5 177q10 20 17 42.5t7 41.5 q0 39 -35.5 59.5t-74.5 22.5q-20 4 -42 15t-22 30q0 14 19.5 20t40.5 6q59 0 106 -4t102 -4q53 0 102.5 7t106.5 7q23 0 42.5 -6t19.5 -26q0 -18 -20.5 -26.5t-43.5 -16.5q-61 -14 -104 -51t-74 -89q-33 -53 -64.5 -103t-61.5 -99t-60.5 -98.5t-61.5 -102.5 q-16 -29 -29.5 -59.5t-20.5 -63.5t-7 -76v-301q0 -76 30.5 -107.5t110.5 -54.5q25 -6 42.5 -14t17.5 -26q0 -14 -15.5 -23.5t-38.5 -9.5q-45 0 -100 4t-109.5 7t-95.5 3q-43 0 -94 -3t-104.5 -8t-100.5 -5q-27 0 -43 9t-16 23q0 18 18.5 28.5t42.5 14.5q78 16 109 56.5 t31 105.5v283q0 72 -19.5 119t-44.5 88l-264 407q-16 29 -39 57.5t-52.5 52t-68.5 34.5q-20 8 -34.5 16t-14.5 29z" />
<glyph unicode="Z" horiz-adv-x="1220" d="M45 49q16 29 36.5 61.5t42 67.5t40.5 66q74 119 147.5 236.5t147 233t147.5 232.5t148 236q4 10 7 18t3 17q0 8 -6 14t-27 6h-76h-82h-75.5h-69.5q-84 0 -150.5 -46t-113.5 -128q-12 -23 -32.5 -46.5t-51.5 -23.5q-16 0 -22.5 10.5t-6.5 24.5q0 12 4 27.5t11 27.5 q23 49 33 88t16 81t10 98q4 31 13 43t32 12q16 0 46 -22.5t58 -32.5q37 -14 79 -17.5t98 -3.5h118.5h122.5q37 0 98.5 2t132 3t134 3t100.5 2q14 0 26.5 -20.5t6.5 -28.5l-139 -221q-70 -109 -138.5 -222.5t-136 -227t-134.5 -224t-132 -213.5q-20 -33 -21 -53 q0 -12 10.5 -18.5t35.5 -8.5q27 -2 74.5 -4t78.5 -2q86 0 150.5 7.5t117.5 27.5q102 39 166 199q8 14 17.5 20t23.5 6q27 0 27 -28q0 -25 -7 -61t-17.5 -78t-21.5 -82.5t-22 -75.5q-6 -18 -20.5 -28.5t-34.5 -10.5q-23 0 -78 1t-130 2t-162 3t-169 2q-74 -2 -148.5 -3 t-148.5 -3l-157 -4q-18 0 -25.5 26.5t-3.5 32.5z" />
<glyph unicode="[" horiz-adv-x="729" d="M225 -307v1636q0 53 6.5 75.5t24.5 27t53 4.5l350 -2q16 0 32 -5.5t16 -27.5q0 -20 -27 -29.5t-45 -13.5l-164 -23q-20 -2 -29.5 -16t-9.5 -31l-2 -1542q0 -16 9.5 -29.5t27.5 -17.5l158 -27q27 -2 50 -12t23 -29q0 -25 -13 -33t-30 -8l-348 -2q-33 0 -51 5.5t-24.5 26 t-6.5 73.5z" />
<glyph unicode="\" horiz-adv-x="831" d="M29 1323q-6 14 5 28.5t38 14.5q33 0 56.5 -8t35.5 -35l633 -1411q6 -14 -6 -26.5t-35 -12.5q-27 0 -53.5 7t-38.5 32z" />
<glyph unicode="]" horiz-adv-x="729" d="M22 1401q0 -20 27 -29.5t45 -13.5l164 -23q20 -2 29.5 -16t9.5 -31l2 -1542q0 -16 -9.5 -29.5t-27.5 -17.5l-158 -27q-27 -2 -50 -12t-23 -29q0 -25 13 -33t30 -8l348 -2q33 0 51 5.5t24.5 26t6.5 73.5v1636q0 53 -6.5 75.5t-24.5 27t-53 4.5l-350 -2q-16 0 -32 -5.5 t-16 -27.5z" />
<glyph unicode="^" horiz-adv-x="1052" d="M68 543q0 8 4 16l444 686h14l451 -686q8 -16 -1 -31.5t-40 -15.5q-29 0 -54.5 20.5t-43.5 47.5l-307 450q-8 10 -12.5 9t-8.5 -9l-303 -450q-18 -29 -44.5 -48.5t-53.5 -19.5q-18 0 -31.5 7t-13.5 24z" />
<glyph unicode="_" horiz-adv-x="1208" d="M0 -354q0 12 6 34.5t18.5 40t32.5 17.5h1104q20 0 33.5 -8.5t13.5 -22.5q0 -25 -20.5 -57.5t-48.5 -32.5h-1106q-12 0 -22.5 10.5t-10.5 18.5z" />
<glyph unicode="`" horiz-adv-x="485" d="M64 1298q0 -10 4 -23t16 -28q39 -43 83 -94t88 -100t89 -92q33 -33 56 -33q20 0 20 24q0 8 -2 19.5t-8 23.5q-16 39 -42 98.5t-51.5 116t-39.5 86.5q-16 31 -38 41.5t-54 10.5q-49 0 -85 -12.5t-36 -37.5z" />
<glyph unicode="a" horiz-adv-x="897" d="M59 162q0 70 44 117t130 83l183 80q41 18 50 32.5t9 53.5l2 117v9q-1 51 -21 82q-22 34 -67 34q-27 0 -53.5 -11t-40.5 -26q-6 -8 -9 -19.5t-3 -23.5t2 -29.5t2 -29.5t-33 -31.5t-76 -35t-74 -15.5q-14 0 -25 12t-11 31q0 33 22.5 64.5t73.5 72.5q53 45 116.5 80 t126 55.5t105.5 20.5q110 0 176 -71q62 -67 62 -174v-13l-11 -414v-9q1 -41 17 -71q18 -33 45 -33q39 0 67 27q6 6 13 6q10 0 17 -6t7 -16q0 -25 -37 -64q-39 -37 -82 -56.5t-90 -19.5q-115 0 -190 117h-4q-68 -61 -122.5 -89t-115.5 -28q-55 0 -102 27t-75 70t-28 94z M311 207q0 -59 24.5 -81t51.5 -22q23 0 37 7.5t29 23.5q6 8 10 21.5t4 31.5l6 148q0 20 -6 26.5t-14 6.5q-4 0 -10.5 -2t-14.5 -7q-59 -29 -88 -58.5t-29 -94.5z" />
<glyph unicode="b" horiz-adv-x="1110" d="M33 1307q0 10 6 18t16 10q45 8 104.5 27.5t116 41t86.5 32.5q20 8 29 8q12 0 17.5 -7t5.5 -18q0 -12 -5.5 -51t-5.5 -78v-438q0 -27 4.5 -42t14.5 -15q63 43 132 66.5t130 23.5q106 0 192.5 -55.5t136.5 -151.5t50 -217q0 -143 -63.5 -255t-175 -173.5t-261.5 -61.5 q-59 0 -109.5 10.5t-91.5 20.5q-31 10 -56 16.5t-42 6.5q-20 0 -38.5 -7.5t-35.5 -19.5q-18 -14 -28 -14q-18 0 -27.5 8t-9.5 18q0 18 11 72q9 45 9 109v24l-8 911q0 53 -15.5 95.5t-64.5 52.5q-10 2 -17 10t-7 23zM403 287q0 -66 28 -119t73 -82t96 -29q55 0 94 48.5 t60.5 128t21.5 174.5q0 82 -21.5 165.5t-67.5 140t-118 56.5q-37 0 -86 -11t-80 -36v-436z" />
<glyph unicode="c" horiz-adv-x="841" d="M49 412q0 133 61.5 239.5t165 170t230.5 63.5q168 0 278 -111q18 -20 19 -37q0 -12 -18.5 -35.5t-41 -42t-38.5 -18.5q-18 0 -36 11.5t-34 25.5q-53 45 -107.5 72.5t-93.5 27.5q-78 0 -118 -64.5t-40 -209.5q0 -100 32 -173t91.5 -112t143.5 -39q61 0 106 19.5t94 60.5 q10 6 17.5 12.5t17.5 6.5q25 0 25 -33q0 -8 -3 -23.5t-14 -34.5q-18 -41 -70 -92t-124 -88t-160 -37q-109 0 -195.5 58.5t-137 158t-50.5 224.5z" />
<glyph unicode="d" horiz-adv-x="1132" d="M49 399q0 139 61.5 248t172 171.5t256.5 62.5q31 0 64.5 -5.5t62.5 -13.5q29 -6 26 -6q8 0 8 27v243q0 74 -18 107t-61 41q-25 6 -25 31q0 27 22 30q76 16 157 42t132 48q27 12 37 15.5t12 3.5q23 0 23 -25q0 6 -2 -15.5t-4 -56t-4 -69.5l-11 -1032q0 -70 10.5 -100.5 t37.5 -30.5q10 0 21 2t58 4q29 2 29 -21q0 -16 -12 -34.5t-23 -18.5q-74 -8 -154.5 -26.5t-156.5 -47.5q-12 -6 -20.5 -9t-14.5 -3t-17 13.5t-11 21.5q4 31 7 58.5t3 49.5v13q-41 -63 -114 -104.5t-157 -41.5q-115 0 -203.5 57.5t-140 156t-51.5 214.5zM334 455 q0 -84 17.5 -147.5t48 -107.5t69.5 -66.5t80 -22.5q31 0 77 16t74 47l-2 453q0 37 -27.5 72.5t-69.5 60t-83 24.5q-49 0 -91 -39.5t-67.5 -112.5t-25.5 -177z" />
<glyph unicode="e" horiz-adv-x="854" d="M47 420q0 129 59.5 234.5t162 168t225.5 62.5q88 0 157.5 -38t111.5 -101.5t42 -143.5q0 -78 -64 -78h-409q-29 0 -42.5 -16t-13.5 -55q0 -78 35 -142.5t94.5 -101.5t137.5 -37q59 0 109 22.5t100 61.5q8 6 15 11t13 5q20 0 21 -26q0 -23 -17 -62q-20 -51 -68 -101 t-120 -81t-164 -31q-111 0 -198 58.5t-137 160t-50 230.5zM303 639q0 -29 29 -29h123q57 0 79.5 2t40.5 9q10 4 16.5 20t6.5 37q0 55 -38 90t-93 35q-43 0 -81 -23.5t-62 -61.5q-22 -35 -21 -73v-6z" />
<glyph unicode="f" horiz-adv-x="737" d="M33 791q0 8 6 13t12 7q27 10 55.5 22.5t61.5 26.5q8 166 61.5 278.5t132 180t166.5 97.5t166 30q139 0 201.5 -39t62.5 -121q0 -47 -20 -74.5t-59 -27.5q-18 0 -37 16.5t-39 40.5q-35 39 -82 75t-113 36q-84 0 -128 -71t-44 -226v-168q0 -16 10.5 -22.5t22.5 -6.5h231 q16 0 24.5 -10t8.5 -23q0 -18 -4 -38.5t-12 -34.5q-10 -16 -17 -17h-188q-45 0 -60.5 -10t-15.5 -35v-512q0 -53 24.5 -74.5t108.5 -40.5q41 -6 41 -36q0 -12 -10 -22.5t-25 -10.5q-61 0 -138 5t-130 5q-35 0 -70.5 -2t-73.5 -5t-79 -3q-14 0 -27.5 7t-13.5 22q0 16 10 25 t29 15q57 16 71.5 32t14.5 48v584q-20 0 -47 1t-60 3q-12 2 -20 23.5t-8 36.5z" />
<glyph unicode="g" horiz-adv-x="1024" d="M18 -358q0 61 14.5 99t65.5 75q39 29 76 57.5t64 46.5l100 -35q-63 -37 -99 -80t-36 -100q0 -84 70.5 -139t177.5 -55q141 0 200 55q37 37 59.5 83t22.5 93q0 33 -22.5 53.5t-81 34.5t-162.5 25q-213 20 -303 79.5t-90 157.5q0 18 11 38t44 42q33 25 59.5 44.5t45 36.5 t24.5 32l102 -35q-41 -14 -66.5 -39t-25.5 -43q0 -23 27 -37t90.5 -23.5t173.5 -17.5q221 -18 321.5 -68.5t100.5 -146.5q0 -84 -47 -167t-125 -151.5t-173.5 -108.5t-193.5 -40q-201 0 -312.5 62.5t-111.5 171.5zM70 537q0 102 58 182t153.5 124t201.5 44q63 0 119.5 -14.5 t124.5 -24.5q39 -8 78 -12.5t86 -4.5q31 0 61.5 3.5t51.5 3.5q33 0 32 -45q0 -39 -26 -74q-12 -14 -27 -14h-55q-53 0 -72 -17q-4 -4 -6 -9t-3 -22.5t-1 -64.5q0 -106 -55.5 -196.5t-145.5 -144.5t-199 -54q-90 0 -177 44t-143 121.5t-56 174.5zM317 557q0 -76 20.5 -137.5 t55.5 -97t76 -35.5q66 0 103.5 72.5t37.5 191.5q0 76 -19.5 132t-52 88t-77.5 32q-39 0 -72 -33t-52.5 -87t-19.5 -126z" />
<glyph unicode="h" horiz-adv-x="1144" d="M35 23q0 27 47 40q31 10 53.5 22.5t24.5 57.5v983q0 55 -14.5 96.5t-65.5 51.5q-23 4 -23 31t21 30q47 10 107.5 29.5t117.5 41t88 32.5q16 6 27 6q12 0 16 -7t4 -18q0 -10 -3 -29.5t-5 -47t-4 -64.5v-473q0 -20 2 -36.5t10 -23.5q31 27 74 59t99.5 56.5t125.5 24.5 q109 0 182.5 -77t73.5 -214v-447q0 -43 22.5 -58t51.5 -26q23 -6 34 -15t11 -25q0 -29 -45 -29q-49 0 -80 3t-58.5 5t-70.5 2q-45 0 -69.5 -2t-51 -5t-75.5 -3q-51 0 -52 31q0 16 13.5 25t29.5 13q27 10 49.5 26.5t22.5 62.5v403q0 45 -18.5 81t-48 57.5t-64.5 21.5 q-31 0 -68 -10.5t-71 -34.5q-16 -12 -21.5 -27.5t-5.5 -46.5v-449q0 -41 20.5 -56t47.5 -25q18 -6 30.5 -15.5t12.5 -25.5q0 -31 -37 -31q-41 0 -77 3t-67.5 5t-68.5 2q-35 0 -69 -2t-68.5 -5t-75.5 -3t-41 29z" />
<glyph unicode="i" horiz-adv-x="604" d="M43 20q0 16 10 26.5t27 14.5q53 12 74.5 27.5t21.5 48.5v443q0 70 -21.5 99.5t-66.5 35.5q-12 2 -18.5 12t-6.5 25q0 31 23 34q106 20 189 57.5t128 57.5q33 16 41 17q27 0 27 -25q-2 -35 -9 -87t-12.5 -107.5t-5.5 -106.5v-453q0 -29 21.5 -45t77.5 -33q16 -6 26.5 -14 t10.5 -24q0 -27 -31 -27q-39 0 -82 2t-83 4t-77 2q-35 0 -72.5 -2t-77.5 -5t-81 -3q-12 0 -22.5 7t-10.5 19zM141 1169q0 70 48 117t112 47q72 0 119 -47t47 -117q0 -66 -47 -112.5t-119 -46.5q-63 0 -111.5 47t-48.5 112z" />
<glyph unicode="j" horiz-adv-x="544" d="M-74 -555q0 14 10.5 24.5t28.5 18.5q33 14 61.5 37.5t55.5 77.5q20 45 32.5 109.5t19.5 137t9 140t2 116.5v474q0 70 -21.5 98.5t-68.5 36.5q-10 2 -16 12t-6 25q0 31 22 34q104 20 188.5 57.5t127.5 57.5q16 8 27.5 12.5t15.5 4.5q25 0 24 -25q-4 -59 -14 -146.5 t-10 -160.5l2 -400q0 -63 -4 -148t-20.5 -176t-53.5 -173q-29 -70 -85 -133.5t-122 -103.5t-123 -40q-39 0 -60.5 8.5t-21.5 24.5zM111 1169q0 70 48 117t112 47q72 0 119 -47t47 -117q0 -66 -47 -112.5t-119 -46.5q-63 0 -111.5 47t-48.5 112z" />
<glyph unicode="k" horiz-adv-x="1118" d="M33 23q0 16 12 25t35 15q31 10 54.5 22.5t23.5 57.5v983q0 57 -14.5 97.5t-65.5 50.5q-23 4 -23 31t21 30q51 10 111.5 29.5t115.5 41t86 32.5q16 6 27 6q12 0 16 -7t4 -18q0 -16 -5 -55t-7 -86l2 -766q0 -25 18 -25q6 0 15.5 5.5t17.5 11.5q76 66 135.5 133.5t79.5 97.5 q8 12 13.5 20.5t5.5 14.5q0 10 -16.5 21.5t-49.5 15.5q-25 4 -24 22q0 18 15 23.5t30 5.5h100q37 0 96.5 3t116.5 9.5t82 6.5q23 0 22 -23q0 -16 -12 -27.5t-35 -15.5q-35 -8 -82 -28.5t-94 -47.5q-35 -18 -75 -45.5t-77.5 -58.5t-68.5 -60q-10 -10 -10 -22q0 -6 4 -11.5 t8 -11.5q49 -63 94 -124.5t90 -118t93 -111.5q35 -37 84 -67.5t81 -43.5q16 -6 36 -14t20 -24q0 -29 -45 -29q-123 0 -241 3t-220 3q-41 0 -41 29q0 16 12 24t33 17q18 6 25.5 14t9.5 18q0 8 -7.5 19.5t-17.5 25.5l-198 275q-6 4 -11 4q-12 -2 -12 -14v-64v-63v-71v-73 t15.5 -50t45.5 -25q16 -6 29.5 -15.5t13.5 -25.5q0 -14 -11 -22.5t-25 -8.5q-41 0 -75 3t-64.5 5t-67.5 2q-35 0 -69 -2t-68.5 -5t-75.5 -3t-41 29z" />
<glyph unicode="l" horiz-adv-x="583" d="M33 23q0 16 12 25t35 15q31 10 54.5 22.5t23.5 55.5v985q0 55 -15.5 96.5t-66.5 51.5q-20 4 -21 31q0 27 19 30q53 10 114.5 29.5t116.5 41t86 32.5q16 6 27 6q12 0 16 -7t4 -18q0 -14 -5 -53t-7 -88v-1133q0 -45 23.5 -56t54.5 -21q23 -8 35 -16.5t12 -24.5 q0 -14 -11.5 -21.5t-29.5 -7.5q-39 0 -77 2t-73.5 3t-72.5 1q-35 0 -69 -2t-68.5 -5t-75.5 -3q-18 0 -29.5 7t-11.5 22z" />
<glyph unicode="m" horiz-adv-x="1652" d="M43 23q0 16 14.5 25t32.5 15q31 10 54.5 23.5t23.5 54.5v469q0 45 -12.5 77t-51.5 38q-8 2 -15 10t-7 27q0 29 20 35q51 12 107.5 29.5t109 37t91.5 41.5q6 2 12 6t12 4q18 0 19 -22q0 -16 -5.5 -55t-5.5 -68q0 -20 4 -25h5q63 61 137 100.5t168 39.5q63 0 116.5 -44 t79.5 -114h9q61 74 138 116t173 42q63 0 114.5 -36t82 -101.5t30.5 -155.5v-451q0 -41 23.5 -54t54.5 -24q16 -6 28.5 -15t12.5 -25q0 -14 -10.5 -21.5t-24.5 -7.5q-41 0 -77 3t-69.5 5t-70.5 2q-35 0 -65.5 -2t-61.5 -5t-72 -3q-14 0 -24 7t-10 22q0 16 11 26t30 14 q27 8 41 21.5t14 44.5v420q0 51 -14.5 88t-40 58.5t-58.5 21.5q-27 0 -58.5 -11.5t-62.5 -37.5q-29 -25 -28 -86v-441q0 -41 16 -54t47 -24q16 -4 28.5 -14t12.5 -26q0 -14 -11 -21.5t-24 -7.5q-41 0 -73.5 3t-62.5 5t-66 2q-35 0 -65 -2t-61.5 -5t-72.5 -3q-12 0 -22.5 7 t-10.5 22q0 16 11.5 25t27.5 15q29 10 43 22.5t14 43.5v420q0 51 -14 87t-38.5 57.5t-59.5 21.5q-25 0 -56.5 -10.5t-66.5 -34.5q-27 -18 -27 -80v-449q0 -37 13.5 -52t44.5 -26q16 -6 27 -15t11 -25q0 -12 -10 -20.5t-22 -8.5q-41 0 -73 3t-61.5 5t-66.5 2q-35 0 -68.5 -2 t-69.5 -5t-77 -3q-14 0 -27.5 7t-13.5 22z" />
<glyph unicode="n" horiz-adv-x="1159" d="M43 23q0 16 14.5 25t32.5 15q31 10 54.5 23.5t23.5 54.5v469q0 45 -13.5 76t-50.5 39q-8 2 -15 10t-7 27q0 29 20 35q70 16 153 43.5t142 58.5q8 4 18.5 10t18.5 6q12 0 15.5 -7t3.5 -17q0 -16 -5.5 -52t-5.5 -65q0 -8 1 -18.5t3 -12.5q70 68 141.5 105t166.5 37 q106 0 179 -79t73 -214v-451q0 -41 23.5 -54t53.5 -24q16 -6 28.5 -15t12.5 -25q0 -14 -11 -21.5t-23 -7.5q-41 0 -77 3t-70 5t-71 2q-35 0 -69.5 -2t-69.5 -5t-76 -3q-12 0 -23 7t-11 22q0 16 12 25t29 15q31 10 51 23.5t20 54.5v408q0 78 -35.5 122t-95.5 46 q-45 0 -80 -14.5t-71 -38.5q-8 -8 -12.5 -18.5t-4.5 -20.5v-484q0 -41 22.5 -54t51.5 -24q41 -12 41 -40q0 -12 -10.5 -20.5t-24.5 -8.5q-41 0 -75.5 3t-65.5 5t-68 2q-35 0 -70.5 -2t-73.5 -5t-79 -3q-14 0 -27.5 7t-13.5 22z" />
<glyph unicode="o" horiz-adv-x="1030" d="M49 399q0 98 37 186.5t102.5 156t153.5 106.5t188 39q127 0 229.5 -59.5t163 -157t60.5 -211.5q0 -131 -56.5 -243t-166 -178.5t-275.5 -66.5q-123 0 -221 55.5t-156.5 152.5t-58.5 220zM332 451q0 -98 25.5 -187.5t69.5 -146t99 -56.5q43 0 75 17.5t52 52.5 q25 41 34 111.5t9 167.5q0 111 -24.5 197.5t-68.5 138t-103 51.5q-33 0 -59.5 -11.5t-47.5 -31.5q-35 -41 -48 -117t-13 -186z" />
<glyph unicode="p" horiz-adv-x="1128" d="M33 -508q0 16 13 25.5t34 15.5q43 14 60.5 29.5t17.5 48.5v981q0 27 -10.5 51.5t-29 44t-46.5 23.5q-12 4 -18.5 11t-6.5 26q0 16 6 24t17 10q72 16 153.5 43t141.5 56q8 4 17 9t17 5q12 0 15.5 -7t3.5 -18q0 -16 -5 -54t-5 -64q0 -20 4 -25q20 20 72.5 55t120 61.5 t130.5 26.5q111 0 187.5 -58t117.5 -149.5t41 -191.5q0 -96 -35.5 -186t-101 -163t-151.5 -116t-185 -43q-23 0 -54.5 6t-63 16.5t-58.5 20.5q-2 0 -4 -6t-3 -14.5t-1 -16.5v-340q0 -27 13.5 -45t38 -29.5t59.5 -21.5q20 -6 32.5 -15.5t12.5 -25.5q0 -12 -11.5 -20.5 t-23.5 -8.5q-61 0 -128 5.5t-120 5.5q-35 0 -71 -2t-73.5 -5.5t-78.5 -3.5q-14 0 -27.5 7.5t-13.5 21.5zM424 297q0 -47 21.5 -103.5t61.5 -96.5t95 -40q23 0 54.5 17.5t63.5 56.5t53.5 104.5t21.5 161.5q0 113 -22.5 179.5t-55.5 99.5t-67 44t-58 11q-37 0 -76 -16.5 t-63.5 -39t-24.5 -40.5v-63.5t-1 -104.5t-2 -104.5t-1 -65.5z" />
<glyph unicode="q" horiz-adv-x="1097" d="M47 395q0 129 56.5 241t169 181.5t282.5 69.5q70 0 127 -12.5t99 -25.5t67 -13q20 0 38.5 9t35.5 23q8 4 15 8.5t13 4.5q18 0 28.5 -8.5t10.5 -16.5q0 -20 -11 -75.5t-11 -145.5l2 -1073q0 -35 19.5 -50.5t62.5 -27.5q20 -6 33.5 -16.5t13.5 -26.5q0 -14 -12.5 -21.5 t-28.5 -7.5q-61 0 -115.5 5t-107.5 5q-35 0 -76 -2t-83 -5t-83 -3q-12 0 -23.5 8.5t-11.5 20.5q0 16 13.5 25.5t33.5 15.5q51 14 77 33.5t26 64.5l2 451q0 25 -5.5 36t-9.5 11q-4 -2 -9 -3t-9 -5q-27 -18 -68 -42t-87 -40.5t-87 -16.5q-111 0 -197.5 56.5t-138 151.5 t-51.5 216zM336 451q0 -70 14.5 -131.5t42 -109.5t66.5 -74.5t90 -26.5q43 0 88 13t72 44v88v117.5v117v84.5q0 98 -57.5 162t-133.5 64q-53 0 -94 -47t-64.5 -126t-23.5 -175z" />
<glyph unicode="r" horiz-adv-x="847" d="M45 23q0 16 12.5 25t34.5 15q45 14 60.5 31t15.5 47v471q0 43 -11.5 71t-50.5 38q-10 4 -18 11t-8 26q0 29 24 35q66 16 145 42.5t134 53.5q10 8 25.5 15t21.5 7q18 0 19 -22q0 -10 -1.5 -42t-2.5 -64.5t-3 -55.5q0 -18 9 -18q31 43 72.5 84t91 67.5t96.5 26.5 q72 0 101.5 -26.5t29.5 -69.5q0 -31 -17.5 -68t-44 -63.5t-57.5 -26.5q-18 0 -38.5 9t-41.5 20q-20 8 -39.5 17t-36.5 9q-53 0 -92 -39t-39 -155v-334q0 -41 25.5 -60.5t83.5 -36.5q23 -6 34 -15t11 -25q0 -29 -35 -29q-61 0 -127 5t-119 5q-35 0 -70.5 -2t-73.5 -5t-79 -3 q-16 0 -28.5 7t-12.5 22z" />
<glyph unicode="s" horiz-adv-x="737" d="M59 274q0 25 41 25q16 0 28.5 -10t14.5 -21q39 -86 90.5 -146.5t122.5 -60.5q55 0 84 34t29 77q0 53 -42 89t-101 67t-112.5 69.5t-87.5 93t-34 130.5q0 80 44 139t119 93t167 34q68 0 125 -15.5t78 -29.5q16 -20 26.5 -76.5t10.5 -124.5q0 -23 -37 -23q-14 0 -29.5 10.5 t-20.5 20.5q-27 80 -68.5 120t-92.5 40q-45 0 -82 -28.5t-37 -78.5q0 -43 40 -76.5t99 -66.5q133 -70 190.5 -134.5t57.5 -170.5q0 -133 -87 -208t-257 -75q-68 0 -131.5 16.5t-114.5 53.5q-18 31 -26 97q-7 53 -7 109v27z" />
<glyph unicode="t" horiz-adv-x="768" d="M55 807q0 4 3 11t10 9q49 18 105 56.5t108.5 81.5t85.5 71q14 10 24 18.5t27 8.5q18 0 26.5 -7t4.5 -34l-13 -121q-2 -25 11.5 -34t37.5 -9h244q6 0 12.5 -14.5t6.5 -26.5q0 -29 -8.5 -55.5t-18.5 -26.5h-191q-47 0 -64 -11t-17 -40v-387q0 -94 35.5 -140t95.5 -46 q59 0 86.5 12t50.5 20q8 4 12 4q10 0 16.5 -12t6.5 -29q0 -12 -43 -44.5t-111.5 -61.5t-148.5 -29q-135 0 -203 69t-68 193v472q0 18 -13 26t-50 10h-27q-14 0 -23.5 23.5t-9.5 42.5z" />
<glyph unicode="u" horiz-adv-x="1128" d="M37 795q0 14 8 23t23 11q86 4 155.5 17.5t141.5 32.5q10 2 21 5t22 3q29 0 26 -29q-8 -47 -12 -78.5t-4 -79.5v-393q0 -49 16.5 -86t45 -57.5t63.5 -22.5q33 0 64.5 8.5t60.5 36.5q12 10 26.5 42t14.5 85v330q0 37 -14.5 60.5t-39 38t-57.5 16.5q-23 2 -36 11t-13 34 q0 20 14.5 30.5t34.5 10.5q104 6 165.5 11t100.5 11t78 15q6 2 14.5 4t12.5 2q31 0 30 -25q0 -6 -2 -14t-6 -17q-2 -8 -5 -35.5t-6 -58t-3 -49.5v-475q0 -47 11 -62.5t26 -15.5q10 0 30.5 -1t26.5 -1q18 0 28.5 -10t10.5 -27q0 -18 -7 -29.5t-28 -13.5q-98 -8 -177 -33.5 t-136 -48.5q-12 -4 -26.5 -9t-26.5 -5q-16 0 -17 20q0 25 5 66t5 63q0 8 -1 14.5t-3 8.5q-55 -68 -141 -114t-182 -46q-63 0 -114.5 38t-81 103.5t-29.5 147.5v383q0 47 -17.5 75.5t-64.5 39.5q-12 2 -21.5 11t-9.5 28z" />
<glyph unicode="v" horiz-adv-x="989" d="M10 846q0 16 17.5 20t31.5 4q49 0 77 -3t54.5 -6t71.5 -3q43 0 77 3t69.5 6t83.5 3q14 0 31.5 -6t17.5 -20q0 -18 -14.5 -24.5t-32.5 -14.5q-20 -8 -34 -30.5t-14 -57.5v-33.5t9 -32.5l137 -338h3h3l121 324q8 18 10 34.5t2 30.5q0 37 -15.5 63t-49.5 38q-18 6 -31.5 13 t-13.5 26q0 14 16 20t31 6q55 -2 82.5 -4t58.5 -2t59.5 2t81.5 4q14 0 31.5 -4t17.5 -20q0 -29 -38 -43q-37 -12 -69 -46t-52 -81l-160 -402q-4 -14 -13.5 -34.5t-18.5 -42t-17 -40t-17 -32.5q-6 -14 -20 -47t-28.5 -66t-26.5 -53h-47q-12 0 -25.5 26.5t-30.5 63.5 q-16 37 -34.5 83t-34.5 83q-51 121 -106.5 235.5t-108.5 233.5q-18 45 -43 77t-62 44q-20 8 -28.5 17t-8.5 26z" />
<glyph unicode="w" horiz-adv-x="1540" d="M10 846q0 16 17.5 20t31.5 4q47 0 76 -3t55.5 -6t69.5 -3q41 0 70.5 3t60.5 6t78 3q12 0 29.5 -6t17.5 -20q0 -18 -14.5 -24.5t-30.5 -14.5q-23 -8 -33 -26.5t-10 -53.5q0 -37 12 -74l121 -319q0 -4 4 -4q6 0 6 4l136 321q6 12 9 27.5t3 32.5q0 23 -22.5 48t-57.5 40 q-20 8 -29.5 17t-9.5 26q0 16 18.5 20t36.5 4q49 0 98.5 -4t82.5 -4q53 0 99 4t103 4q14 0 31.5 -6t17.5 -20q0 -18 -15 -24.5t-32 -14.5q-23 -8 -37 -22.5t-14 -45.5q0 -25 6 -46t13 -38l120 -319q2 -6 9 -6q4 0 6 4l112 295q8 20 12.5 42.5t2.5 41.5q0 33 -16.5 56 t-43.5 34q-16 6 -30.5 13t-14.5 26q0 16 16.5 21t30.5 5q59 -2 85 -3t57 -1h35.5t38 1t59.5 3q14 0 31.5 -4t17.5 -18q0 -18 -9 -27.5t-30 -17.5q-37 -12 -67.5 -45t-49.5 -80l-288 -713q-8 -18 -35 -18q-20 0 -31 18l-256 588q-2 4 -6 4t-6 -6l-240 -586q-10 -20 -35 -20 q-10 0 -19 4t-13 16l-297 723q-18 47 -43 76.5t-62 44.5q-20 8 -29.5 17t-9.5 26z" />
<glyph unicode="x" horiz-adv-x="1034" d="M12 14q0 18 9.5 27.5t29.5 17.5q23 8 46.5 29t64.5 74l188 258q12 16 12 26.5t-10 26.5l-153 227q-27 41 -47.5 66t-53.5 37q-20 6 -29.5 15t-9.5 28q0 16 18.5 20t31.5 4q51 0 77.5 -3t54 -6t72.5 -3q59 0 99.5 5t107.5 5q12 0 30.5 -5t18.5 -21t-15 -22.5t-32 -14.5 q-20 -8 -38.5 -18.5t-18.5 -30.5q0 -12 8 -28.5t19 -35.5l94 -137q10 -18 18 0l64 109q10 20 19 44.5t7 45.5q0 33 -37 47q-16 8 -29.5 14t-13.5 25q0 16 18.5 21t31.5 5q51 -2 78.5 -3t54.5 -1q31 0 54 3t77 5q14 0 31.5 -4t17.5 -20t-9.5 -25.5t-29.5 -17.5 q-23 -8 -48.5 -28.5t-64.5 -72.5l-147 -196q-12 -18 -11 -28.5t11 -24.5l172 -271q27 -43 61.5 -73.5t71.5 -45.5q20 -6 29.5 -15t9.5 -28q0 -16 -17.5 -20t-31.5 -4q-49 0 -85 3t-71 6t-80 3q-61 0 -111.5 -5t-119.5 -5q-49 0 -49 27q0 18 13 25t34 13q27 8 43 24.5 t16 53.5q0 20 -4 36t-20 38l-105 154q-6 6 -12 0l-96 -170l-17.5 -35t-11.5 -45q0 -20 9 -35.5t28 -26.5q16 -6 30.5 -13t14.5 -24q0 -16 -17.5 -21t-31.5 -5q-53 0 -76 2t-49 2q-31 0 -61 -1t-83 -5q-14 0 -31.5 4t-17.5 18z" />
<glyph unicode="y" horiz-adv-x="985" d="M14 844q0 14 18.5 18t33.5 4q49 0 82.5 -2t60.5 -4t53 -2q45 0 76 2t65.5 4t81.5 2q14 0 30.5 -6t16.5 -20q0 -18 -15 -25.5t-32 -15.5q-23 -8 -35 -24.5t-12 -53.5q0 -16 5.5 -39t17.5 -55l127 -310q2 -6 6 -6q2 0 6 6l105 314q6 16 11 39.5t5 42.5q0 35 -20.5 56.5 t-43.5 29.5q-16 6 -31.5 14t-15.5 27q0 14 16.5 20t30.5 6q55 -2 86 -5t64 -3q20 0 37.5 1t42 3t59.5 4q14 0 31.5 -4t17.5 -18q0 -18 -9 -27.5t-28 -17.5q-39 -12 -69.5 -46t-50.5 -81l-306 -733q-16 -41 -36.5 -89.5t-42 -99.5t-44 -104.5t-44.5 -104.5q-25 -59 -76.5 -90 t-114.5 -31q-53 0 -102 37t-49 92q0 39 20 77t63 38q33 0 67 -11q29 -9 55 -9h10q31 4 43 15t28 42q14 25 27.5 48.5t31 59t44.5 93.5q24 53 24 95q0 34 -9 59.5t-19 49.5l-252 572q-18 47 -41 77.5t-62 43.5q-18 8 -28.5 17t-10.5 28z" />
<glyph unicode="z" horiz-adv-x="894" d="M43 47q0 12 15.5 37t36 52.5t32.5 47.5q49 78 89 138.5t78 119t81 129t102 166.5q4 8 4 16.5t-24 8.5l-113 2q-29 0 -50.5 -8t-41.5 -31q-8 -8 -27.5 -33.5t-40 -56.5t-38 -55.5t-25.5 -32.5q-12 -14 -39 -6t-25 26q6 23 18.5 73t23 106.5t10.5 95.5q0 23 15 38t32 15 q16 0 39 -21q10 -8 37.5 -11t60.5 -3q23 0 46 1t38 1q98 0 213 2t217 6q16 0 26.5 -15t14.5 -33.5t-4 -30.5q-25 -27 -43.5 -52.5t-42.5 -58.5l-340 -549q-8 -14 -3 -22.5t31 -8.5h129q29 0 53.5 10.5t49.5 36.5q33 35 53.5 69t56.5 99q14 25 43 19t29 -31q0 -12 -6 -45 t-16.5 -74t-21.5 -84t-23 -77q-8 -33 -39 -33q-49 0 -174 6t-310 6q-47 0 -99 -6t-81 -6q-8 0 -27.5 19.5t-19.5 37.5z" />
<glyph unicode="{" horiz-adv-x="763" d="M94 573q0 23 21.5 33t40.5 19q41 18 74.5 38.5t53 59.5t19.5 108q0 86 -18.5 163t-24.5 159q-6 96 54.5 166t159.5 106.5t210 36.5q31 0 43 -7t12 -28q0 -20 -25.5 -28t-49.5 -17q-68 -18 -100 -41.5t-40 -59.5t-8 -93q0 -41 11.5 -99.5t22.5 -118t11 -106.5 q0 -70 -45 -129t-112.5 -99t-137.5 -56q-8 -2 -4 -4.5t8 -4.5q68 -23 123.5 -53.5t94 -68t59 -81.5t20.5 -96q0 -45 -12 -105.5t-24.5 -117.5t-12.5 -98q0 -68 12.5 -106t45 -56t94.5 -29q23 -4 45 -12t22 -29q0 -18 -15.5 -24t-35.5 -6q-115 2 -214 28.5t-156.5 87 t-51.5 156.5q6 82 26.5 178.5t20.5 182.5q0 55 -12 92t-46 64.5t-97 49.5q-23 10 -42.5 16.5t-19.5 28.5z" />
<glyph unicode="|" horiz-adv-x="565" d="M172 -541v1872q0 29 21.5 50.5t53.5 36t59.5 20.5t35.5 6q18 0 34.5 -13.5t16.5 -33.5v-1899q0 -31 -22.5 -48t-54 -26.5t-59.5 -12.5t-42 -3q-16 0 -29.5 16.5t-13.5 34.5z" />
<glyph unicode="}" horiz-adv-x="763" d="M25 1427q0 -20 25.5 -28t49.5 -17q68 -18 100 -41.5t40 -59.5t8 -93q0 -41 -11.5 -99.5t-22.5 -118t-11 -106.5q0 -70 45 -129t112.5 -99t137.5 -56q8 -2 4 -4.5t-8 -4.5q-68 -23 -123.5 -53.5t-94 -68t-59 -81.5t-20.5 -96q0 -45 12 -105.5t24.5 -117.5t12.5 -98 q0 -68 -12.5 -106t-45 -56t-94.5 -29q-23 -4 -45 -12t-22 -29q0 -18 15.5 -24t35.5 -6q115 2 214 28.5t156.5 87t51.5 156.5q-6 82 -26.5 178.5t-20.5 182.5q0 55 12 92t46 64.5t97 49.5q23 10 42.5 16.5t19.5 28.5q0 23 -21.5 33t-40.5 19q-41 18 -74.5 38.5t-53 59.5 t-19.5 108q0 86 18.5 163t24.5 159q6 96 -54.5 166t-159.5 106.5t-210 36.5q-31 0 -43 -7t-12 -28z" />
<glyph unicode="~" horiz-adv-x="1116" d="M78 586q0 27 23.5 68.5t63.5 83.5t90 70t103 28q49 0 98.5 -19.5t98.5 -44.5q53 -27 107.5 -48.5t107.5 -21.5q41 0 79 18.5t68.5 42t51 42t24.5 18.5q20 0 32.5 -21.5t12.5 -41.5q0 -29 -25.5 -71t-67.5 -83t-94 -68.5t-103 -27.5q-47 0 -94.5 19.5t-94.5 43.5 q-51 25 -104.5 46.5t-110.5 21.5q-53 0 -102 -28.5t-81 -58.5t-38 -30q-14 0 -29.5 25.5t-15.5 36.5z" />
<glyph unicode="&#xa1;" horiz-adv-x="593" d="M141 864q0 -61 43 -105t105 -44q61 0 105 44t44 105t-44 104.5t-105 43.5t-104.5 -43t-43.5 -105zM147 -168q0 -68 44.5 -123t109.5 -55q68 0 108 52t40 122q0 61 -9.5 135t-23 159t-30.5 183t-34 211q-6 43 -20 72.5t-39 29.5t-39 -23.5t-25 -78.5q-16 -115 -31.5 -212 t-25.5 -182t-16 -157t-9 -133z" />
<glyph unicode="&#xa2;" horiz-adv-x="888" d="M49 446q0 119 55.5 221.5t153.5 170t225 80.5l15 126q2 20 19.5 31.5t37.5 11.5q14 0 24.5 -14t8.5 -29l-15 -126q68 -6 136.5 -34t119.5 -81q18 -16 19 -35q0 -45 -37 -74.5t-80 -27.5q-43 0 -67 30q-29 37 -52.5 60.5t-48.5 36.5l-57 -545q14 -2 27.5 -3t25.5 -1 q76 0 141.5 26.5t94.5 75.5q10 18 28 19q27 0 27 -31q0 -8 -3 -21.5t-7 -25.5q-43 -115 -127 -194t-232 -89l-12 -145q-4 -18 -18.5 -28.5t-30.5 -10.5t-29.5 10t-11.5 29l14 151q-92 16 -171 72.5t-126 150t-47 213.5zM276 541q0 -102 39 -168t105 -99l55 539h-2 q-70 0 -113 -36t-63.5 -97.5t-20.5 -138.5z" />
<glyph unicode="&#xa3;" horiz-adv-x="1163" d="M-16 43q0 47 28.5 93t78.5 79t116 41q16 2 23.5 11t13.5 22q18 49 27.5 128t16.5 168t11 165q8 92 40 186t92.5 174t158.5 129t239 49q123 0 184.5 -57t61.5 -137q0 -43 -25.5 -78t-60.5 -55.5t-65 -20.5q-18 0 -29.5 13.5t-11.5 27.5t3 32.5t3 43.5q0 59 -21.5 104 t-66.5 45q-49 0 -86 -47t-63.5 -153.5t-49.5 -280.5q-10 -92 -34.5 -177t-63.5 -149.5t-96 -99.5q-6 -2 -4 -13.5t10 -11.5q98 0 176 -24.5t139 -56.5q63 -29 113.5 -52.5t93.5 -23.5q39 0 57.5 17.5t18.5 55.5q0 27 -10.5 62t-19.5 67.5t-9 53.5q0 23 14 38t43 15 q53 0 80 -39t27 -96q0 -66 -35 -130.5t-95.5 -117.5t-136 -86t-157.5 -33q-94 0 -164 43t-129 88q-25 18 -57.5 38t-59.5 33t-37 13q-8 0 -28.5 -21.5t-43 -51t-38.5 -56.5q-45 -63 -105 -63q-27 2 -47 25.5t-20 70.5zM70 635q0 16 19.5 35.5t45.5 21.5l742 49q16 2 25 -10 t9 -22q0 -12 -26.5 -34t-57.5 -24l-718 -49q-12 -2 -25.5 8.5t-13.5 24.5z" />
<glyph unicode="&#xa4;" horiz-adv-x="1042" d="M57 166q0 10 9 18l116 117q-37 51 -57.5 113.5t-20.5 130.5q0 72 21.5 134t58.5 116l-118 118q-8 6 -9 17q0 23 26 49.5t50 26.5q12 0 19 -9l118 -114q53 41 120 65.5t142 24.5q70 0 133.5 -21.5t116.5 -60.5l109 106q8 8 18 9q25 0 50.5 -26t25.5 -50q0 -10 -6 -19 l-109 -108q41 -53 63.5 -119t22.5 -139q0 -72 -21.5 -136.5t-60.5 -117.5l107 -105q6 -8 6 -18q0 -25 -26.5 -50.5t-51.5 -25.5q-10 0 -18 8l-105 103q-111 -84 -254 -84q-76 0 -143 23.5t-125 68.5l-112 -111q-7 -8 -19 -8q-25 0 -50.5 25.5t-25.5 48.5zM225 545 q0 -84 41 -153.5t110.5 -110.5t153.5 -41q86 0 155 41t110 110.5t41 153.5q0 86 -41 155.5t-110 110.5t-155 41q-84 0 -153.5 -41t-110.5 -110.5t-41 -155.5z" />
<glyph unicode="&#xa5;" horiz-adv-x="1337" d="M0 1311q0 14 13.5 21t29.5 7q86 0 165 -6t167 -6q68 0 128 6t128 6q18 0 36.5 -7t18.5 -21q0 -16 -18.5 -27.5t-40.5 -15.5q-53 -14 -78 -30.5t-25 -49.5q0 -14 5.5 -32.5t15.5 -37.5l186 -358q20 -35 37 -35q10 0 18.5 9t18.5 26q20 37 42.5 78t48.5 85t49.5 89t47.5 90 q20 37 21 76q0 41 -33 62.5t-74 25.5q-20 4 -40.5 15t-20.5 30q0 14 18.5 20t40.5 6q57 0 106.5 -4t104.5 -4q61 0 111.5 7t105.5 7q25 0 43.5 -6t18.5 -26q0 -18 -17.5 -25.5t-38.5 -15.5q-41 -8 -75.5 -30.5t-61 -51.5t-45.5 -60q-33 -53 -65.5 -107t-65.5 -106.5 t-62.5 -101.5t-56.5 -92q-8 -16 -15 -30.5t-13 -31.5h204q14 0 24.5 -12t8.5 -22q-2 -14 -29.5 -40t-58.5 -26h-176v-84l229 -2q16 0 26.5 -11t8.5 -24q-2 -14 -29.5 -38.5t-58.5 -24.5h-176v-150q0 -76 30.5 -107.5t110.5 -54.5q25 -6 42.5 -14t17.5 -26q0 -14 -15.5 -23.5 t-38.5 -9.5q-45 0 -100 4t-109.5 7t-95.5 3q-43 0 -94 -3t-104.5 -8t-100.5 -5q-27 0 -43 9t-16 23q0 18 18.5 28.5t42.5 14.5q78 16 109 56.5t31 105.5l2 152h-232q-14 0 -26.5 10t-10.5 25q0 16 20.5 40.5t47.5 24.5l201 -2v33q0 16 -1 28.5t-3 24.5h-228 q-14 0 -26.5 11.5t-10.5 23.5q0 18 20.5 42t47.5 24h168l-297 460q-18 29 -41 58.5t-51.5 53t-67.5 32.5q-20 8 -34.5 16t-14.5 29z" />
<glyph unicode="&#xa6;" horiz-adv-x="567" d="M172 580v749q0 31 21.5 52.5t53.5 36t59.5 20.5t35.5 6q18 0 34.5 -14.5t16.5 -34.5v-783q0 -29 -22.5 -46t-54 -26.5t-59.5 -13.5t-42 -4q-16 0 -29.5 18.5t-13.5 39.5zM174 266q0 29 22.5 49.5t54.5 33.5t59.5 20.5t33.5 7.5q20 0 36.5 -15.5t16.5 -35.5v-830 q0 -31 -22.5 -48t-54 -26.5t-60.5 -12.5t-41 -3q-18 0 -31.5 16.5t-13.5 34.5v809z" />
<glyph unicode="&#xa7;" horiz-adv-x="907" d="M59 674q0 92 23.5 155.5t61.5 110.5t81 88q20 78 68.5 142.5t116 102.5t145.5 38q51 0 112.5 -16.5t82.5 -37.5q12 -10 22 -21t10 -28q0 -6 -15 -38.5t-37.5 -62.5t-49.5 -30q-16 0 -33 15q-37 39 -85 65.5t-77 26.5q-66 0 -92 -36t-26 -83q0 -37 33.5 -85t92 -102.5 t121.5 -111.5q68 -57 118 -120.5t78 -144.5t28 -190q0 -133 -47.5 -246.5t-136.5 -199.5t-218 -141q-31 -14 -68.5 -20.5t-72.5 -6.5q-74 0 -120 23.5t-46 58.5q0 16 13.5 58t58.5 75q14 8 32.5 1t26.5 -15q35 -31 86 -47.5t96 -16.5q51 0 78 38t27 103q0 53 -41 107.5 t-104.5 111t-125.5 111.5q-109 96 -163 187.5t-54 181.5zM219 758q0 -80 52.5 -165t136.5 -163q39 -39 94 -95t102.5 -111.5t63.5 -94.5q2 -8 9 -7t9 7q10 33 12 65.5t2 65.5q0 88 -55 174t-139 164q-37 39 -87 92t-92 107.5t-59 91.5q-2 8 -8 6t-10 -6q-18 -25 -24.5 -59.5 t-6.5 -71.5z" />
<glyph unicode="&#xa8;" horiz-adv-x="727" d="M14 1157q0 61 43 104t102 43q66 0 110 -43t44 -104q0 -59 -44 -102t-110 -43q-59 0 -102 43t-43 102zM411 1157q0 61 44 104t104 43q63 0 107 -43t44 -104q0 -59 -44 -102t-107 -43q-59 0 -103.5 43t-44.5 102z" />
<glyph unicode="&#xa9;" horiz-adv-x="1394" d="M66 670q0 133 50 247.5t137 201.5t202.5 136.5t246.5 49.5t247 -49.5t202 -136.5t136 -201.5t50 -247.5q0 -131 -50 -247t-137 -203t-203 -136t-247 -49t-245.5 49t-202.5 136t-137 203t-49 247zM180 670q0 -109 40 -206t111.5 -171t165.5 -116t203 -42t205 42t167 116 t112 171t41 206q0 106 -41 201.5t-113 167t-166 113.5t-203 42t-202.5 -42t-166.5 -113.5t-113 -167t-40 -201.5zM324 659q0 102 52 189.5t150.5 140.5t235.5 53q53 0 109.5 -12t95.5 -33q14 -4 20 -11t8 -21q6 -45 7.5 -79t-1.5 -71q0 -18 -10 -30.5t-26 -10.5 q-10 0 -20.5 8.5t-14.5 24.5q-8 23 -17.5 42t-25.5 36q-20 23 -53 38t-82 15q-102 0 -151.5 -77t-49.5 -183q0 -88 19.5 -153.5t63.5 -103.5t120 -38q70 0 113.5 28.5t72.5 98.5q8 18 20.5 24.5t24.5 2.5q25 -4 25 -39q0 -37 -7.5 -67t-17.5 -69q-4 -16 -11 -17t-22 -7 q-39 -20 -96 -37.5t-127 -17.5q-115 0 -207 49t-145 134t-53 193z" />
<glyph unicode="&#xaa;" horiz-adv-x="716" d="M57 358q0 14 19.5 37t42.5 23h479q12 0 23.5 -8.5t11.5 -22.5q0 -2 -1 -3t-1 -5q-12 -23 -31.5 -38t-46.5 -15h-459q-14 0 -25.5 11t-11.5 21zM80 709q0 45 28.5 76.5t92.5 56.5l123 47q29 12 36 22.5t7 34.5v55q0 39 -12.5 56.5t-41.5 17.5q-16 0 -33.5 -6t-27.5 -16 q-8 -10 -5 -27.5t3 -30.5q0 -10 -26.5 -23.5t-60.5 -24.5t-57 -15q-14 -2 -19 9t1 30q10 25 22.5 46t45.5 50q25 18 65.5 39.5t86.5 37t87 15.5q82 0 138.5 -51t54.5 -139l-8 -224q0 -23 9 -47t29 -24q12 0 22.5 6t16.5 12q4 2 6.5 3t4.5 1q8 0 13 -6t5 -14q0 -12 -11 -26.5 t-20 -20.5q-20 -20 -50 -34.5t-70 -14.5q-57 0 -89 23.5t-55 51.5h-2q-20 -25 -57 -50t-96 -25q-41 0 -77 17t-57.5 47t-21.5 65zM274 739q0 -39 15.5 -48t29.5 -9q10 0 18.5 4t12.5 8q6 4 7 9.5t1 9.5l4 106q0 12 -6 15.5t-18 -0.5q-39 -14 -51.5 -34t-12.5 -61z" />
<glyph unicode="&#xab;" horiz-adv-x="1193" d="M98 446q0 20 21 31q92 55 154.5 94t109.5 74t94 75t111 95q8 8 28.5 25.5t40.5 17.5q14 0 15 -22q0 -8 -4 -16.5t-9 -16.5q-68 -102 -114.5 -161.5t-86.5 -99.5t-87 -81q-14 -10 -14.5 -15.5t14.5 -15.5q47 -43 87 -83t87 -98.5t114 -162.5q4 -6 8.5 -14.5t4.5 -14.5 q-1 -24 -17 -24q-20 0 -40.5 16.5t-30.5 24.5q-61 57 -109.5 98t-95.5 71.5t-99.5 60.5t-123.5 65q-31 14 -44.5 34.5t-13.5 42.5zM530 446q0 20 21 31q92 55 154.5 94t109.5 74t94 75t111 95q8 8 28.5 25.5t40.5 17.5q14 0 15 -22q0 -8 -4 -16.5t-9 -16.5 q-68 -102 -114.5 -161.5t-86.5 -99.5t-87 -81q-14 -10 -14.5 -15.5t14.5 -15.5q47 -43 87 -83t87 -98.5t114 -162.5q4 -6 8.5 -14.5t4.5 -14.5q-1 -24 -17 -24q-20 0 -40.5 16.5t-30.5 24.5q-61 57 -109.5 98t-95.5 71.5t-99.5 60.5t-123.5 65q-31 14 -44.5 34.5t-13.5 42.5 z" />
<glyph unicode="&#xac;" horiz-adv-x="1271" d="M70 678q0 16 6 44t21.5 50.5t39.5 22.5h965q20 0 27.5 -12.5t7.5 -28.5v-602q0 -23 -22.5 -38.5t-50.5 -21.5t-44 -6q-10 0 -20.5 12.5t-10.5 26.5v489q0 33 -28 33h-852q-14 0 -26.5 10.5t-12.5 20.5z" />
<glyph unicode="&#xad;" horiz-adv-x="647" d="M53 356q0 61 11.5 93t33.5 36q111 16 233 33t232 25q18 2 24.5 -7.5t6.5 -23.5q0 -61 -8 -86t-33 -29q-109 -16 -237.5 -33.5t-241.5 -27.5q-20 -2 -21 20z" />
<glyph unicode="&#xae;" horiz-adv-x="1404" d="M72 670q0 133 49 247.5t136 201.5t202.5 136.5t247.5 49.5q133 0 247.5 -49.5t201.5 -136.5t137 -201.5t50 -247.5q0 -131 -50 -247t-138 -203t-202.5 -136t-247.5 -49q-131 0 -246 49t-202 136t-136 203t-49 247zM184 670q0 -109 41 -206t112 -171t166.5 -116t201.5 -42 q111 0 206 42t166.5 116t111.5 171t40 206q0 106 -40 201.5t-112.5 167t-167 112.5t-202.5 41q-106 0 -201.5 -41t-167.5 -112.5t-113 -167t-41 -201.5zM373 373q0 12 8 19t18 9q39 10 53.5 22.5t14.5 43.5v430q0 27 -6 40t-18.5 20.5t-36.5 13.5q-25 2 -25 24q0 16 22 17 q49 -2 79 -6.5t67 -4.5q41 0 70.5 4.5t87.5 6.5q123 0 190.5 -40t67.5 -124q0 -70 -39 -105.5t-86 -56.5q-6 -4 -5 -9t3 -9q33 -82 79 -135.5t90 -78t72 -24.5q6 0 11.5 -3t5.5 -13q0 -27 -31.5 -45.5t-97.5 -18.5q-33 0 -72 23.5t-77 62.5t-71.5 89t-56.5 104q-4 10 -13 16 t-24 6q-6 0 -11 -4t-5 -14l2 -166q0 -31 19.5 -43t60.5 -23q12 -2 20.5 -8t8.5 -20q0 -10 -7.5 -17.5t-17.5 -7.5q-37 0 -87 3t-85 3q-23 0 -49.5 -1t-52 -3t-52.5 -2q-6 0 -15 8.5t-9 16.5zM633 756q0 -16 11.5 -23.5t31.5 -7.5q61 0 93 29.5t32 72.5q0 57 -29 84t-82 27 q-33 0 -45 -10t-12 -31v-141z" />
<glyph unicode="&#xaf;" horiz-adv-x="727" d="M40 1076q0 37 11.5 65.5t29 46t35.5 17.5h529q18 0 28.5 -10.5t10.5 -26.5q0 -49 -25 -88t-59 -39h-519q-18 0 -29.5 11t-11.5 24z" />
<glyph unicode="&#xb0;" horiz-adv-x="710" d="M51 1085q0 80 39 144.5t108.5 103.5t159.5 39q88 0 155 -39t106.5 -103.5t39.5 -144.5q0 -76 -39.5 -146.5t-106.5 -114.5t-155 -44q-90 0 -159.5 44t-108.5 114t-39 147zM186 1075q0 -78 49 -129t121 -51q68 0 118 51t50 129t-50 127t-118 49q-72 0 -121 -49t-49 -127z " />
<glyph unicode="&#xb1;" horiz-adv-x="1228" d="M70 92q0 14 6 37t20.5 41t36.5 18h977q20 0 34.5 -9t14.5 -25q0 -27 -21.5 -59t-52.5 -32h-979q-14 0 -25 10.5t-11 18.5zM70 756q0 20 12 55t45 35h401q18 0 22.5 7t4.5 19v349q0 20 14.5 35.5t35 24.5t36.5 9q14 0 22.5 -13t8.5 -30v-375q0 -14 5 -20t19 -6h416 q18 0 31.5 -7.5t13.5 -23.5q0 -25 -20.5 -55.5t-49.5 -30.5h-391q-25 0 -24 -22v-394q0 -31 -35 -44t-55 -13q-8 0 -17.5 10t-9.5 25v414q0 25 -25 24h-428q-14 0 -23 9.5t-9 17.5z" />
<glyph unicode="&#xb2;" horiz-adv-x="698" d="M53 916q0 8 8 18l78 84q57 68 108.5 125t82 113.5t30.5 118.5q0 41 -26.5 68.5t-71.5 27.5q-43 0 -73.5 -25.5t-51.5 -52.5q-16 -27 -37 -27q-12 0 -17 10.5t-5 26.5q0 31 31.5 76t91 78t143.5 33q100 0 160.5 -54.5t60.5 -128.5q0 -43 -21.5 -87t-60.5 -89 q-16 -16 -51 -46t-72.5 -59.5t-64.5 -52t-31 -24.5q0 -4 6 -6t13 -2h194q37 0 66.5 25.5t50.5 60.5q4 8 11 16t22 8q16 0 20 -10t0 -20q-25 -59 -41 -121t-18 -74t-9.5 -20.5t-15.5 -8.5q-18 0 -60 2t-94.5 3t-105.5 1q-41 0 -92 -1t-90 -3t-45 -2q-8 0 -15.5 6.5t-7.5 12.5 z" />
<glyph unicode="&#xb3;" horiz-adv-x="604" d="M66 953q0 25 11 48t25 23q10 0 16.5 -4t12.5 -12q18 -20 46 -41t54 -21q47 0 79 42t32 116q0 43 -27.5 85t-81.5 42q-43 0 -60 -13t-23 -13q-12 0 -23.5 3t-9.5 15q4 18 18.5 32.5t32.5 24t31 15.5q78 41 101.5 71.5t23.5 69.5q0 25 -24 44t-62 19q-35 0 -67 -16t-50 -39 q-8 -6 -14.5 -13t-10.5 -7q-8 0 -17 11t-9 19q0 12 25.5 44t76.5 61t129 29q70 0 129 -37t59 -101q0 -37 -28.5 -75.5t-98.5 -59.5q-4 -2 -4 -4t4 -2q68 -4 119 -46t51 -120q0 -76 -48 -133t-124.5 -88t-162.5 -31q-49 0 -90 16.5t-41 45.5z" />
<glyph unicode="&#xb4;" horiz-adv-x="485" d="M66 952q0 8 2 19.5t8 23.5q16 39 42 98.5t51.5 116t39.5 86.5q16 31 38 41.5t54 10.5q49 0 85 -12.5t36 -37.5q0 -10 -4 -23t-16 -28q-39 -43 -83 -94t-88 -100t-89 -92q-33 -33 -56 -33q-20 0 -20 24z" />
<glyph unicode="&#xb5;" horiz-adv-x="1144" d="M141 664.5v123.5q0 47 17.5 72t91.5 25q76 0 122 -19.5t46 -68.5q0 -53 -15.5 -128t-35 -152t-35 -135t-15.5 -83q0 -33 13.5 -59.5t36 -41t49.5 -14.5q66 0 120 75t103 243q6 74 8 135t5 111.5t7 85.5q4 29 17.5 40t40.5 11q74 0 122 -15.5t71.5 -41t23.5 -52.5 q0 -90 -38 -198.5t-87 -227.5q0 -39 20.5 -69.5t56.5 -49t79 -18.5q37 0 66.5 15.5t50 30.5t28.5 15t16.5 -7t8.5 -17q0 -90 -35 -153.5t-86 -95.5t-103 -32q-59 2 -104 68.5t-53 157.5q-2 18 -2 34.5t2 34.5h-6q-6 -12 -32 -58t-63 -99.5t-74.5 -93.5t-64.5 -40 q-35 0 -66.5 21.5t-61.5 51.5l-54 54q-16 16 -37 40t-29 24q-27 0 -26 -55q0 -18 2 -59.5t3 -90.5t3 -93t2 -73q0 -39 31.5 -70.5t73.5 -58t74 -49.5t32 -45q0 -31 -29 -66.5t-68.5 -61.5t-74.5 -26q-39 0 -64.5 23.5t-41 58.5t-21.5 66q-2 18 -3 67.5t-2 112.5t-2 131 t-1 125q0 125 -1 223.5t-4.5 176t-5.5 141t-2 124z" />
<glyph unicode="&#xb6;" horiz-adv-x="1286" d="M33 727q0 225 107.5 356t302 187.5t456.5 56.5q63 0 130 -3t117 -7t68 -6q16 -4 25.5 -21.5t9.5 -38.5q0 -18 -9 -46.5t-23 -28.5q-10 0 -81 16t-159 16q-16 0 -28.5 -16t-12.5 -35v-1481q0 -74 -33 -146.5t-100.5 -120.5t-171.5 -48q-84 0 -150.5 34t-104.5 92t-38 132 q0 80 41 135.5t100.5 86t116.5 28.5q66 -2 111 -30.5t45 -90.5q0 -53 -31 -88t-72 -35q-25 0 -44 14.5t-36 30.5q-16 16 -30.5 28.5t-24.5 12.5q-25 0 -48.5 -27.5t-23.5 -80.5q0 -57 49.5 -107.5t149.5 -50.5q47 0 91 22.5t73 73.5t29 131v406q0 16 -5.5 36.5t-25.5 20.5 q-152 0 -289 40t-246.5 118t-172 187.5t-62.5 246.5z" />
<glyph unicode="&#xb7;" horiz-adv-x="522" d="M94 434q0 72 49 121t115 49q74 0 122 -49t48 -121q0 -68 -48 -115.5t-122 -47.5q-66 0 -115 48t-49 115z" />
<glyph unicode="&#xb8;" horiz-adv-x="561" d="M101 -463q0 29 9 39t26 10q25 0 56.5 -16t80.5 -16q31 0 45 21.5t14 59.5q0 43 -37 66t-77 23q-27 0 -40.5 -10.5t-27.5 -10.5q-12 0 -28.5 13.5t-16.5 35.5q0 18 29 51l184 213h90l-74 -88q-10 -14 -10 -20q0 -10 25 -23q51 -23 81.5 -63.5t30.5 -108.5 q0 -53 -27.5 -102t-68.5 -88t-87 -61.5t-87 -22.5q-45 0 -67.5 18.5t-22.5 79.5z" />
<glyph unicode="&#xb9;" horiz-adv-x="509" d="M66 1495q0 31 30 33q78 4 128 17.5t102 46.5q2 2 10 6t12 4q18 0 19 -19q0 -12 -4.5 -31.5t-4.5 -56.5v-485q0 -25 8.5 -35t57.5 -25q10 -2 16 -7t6 -19q0 -8 -4 -14.5t-14 -6.5q-27 0 -58.5 1t-61 2t-50.5 1q-20 0 -48 -1t-56.5 -3t-57.5 -2q-8 0 -15 6.5t-7 14.5 q0 12 6 20t16 8q31 6 45.5 11.5t19.5 16.5t5 32v371q0 43 -25.5 64.5t-52.5 23.5q-10 2 -16 7t-6 19z" />
<glyph unicode="&#xba;" horiz-adv-x="669" d="M33 358q0 14 18.5 37t42.5 23h512q10 0 22.5 -8.5t12.5 -22.5q0 -2 -1 -3t-1 -5q-14 -23 -32.5 -38t-45.5 -15h-493q-12 0 -23.5 11t-11.5 21zM55 850q0 90 45 159.5t124 109.5t175 40q90 0 164 -37t118 -98t44 -135q0 -84 -40 -154.5t-119.5 -112.5t-196.5 -42 q-90 0 -161 34.5t-112 96t-41 139.5zM289 883q0 -57 13 -109.5t37.5 -84.5t55.5 -32q39 0 57.5 30t25.5 76t7 95q0 53 -12 104.5t-35.5 84t-56.5 32.5q-39 0 -58.5 -30.5t-26.5 -75.5t-7 -90z" />
<glyph unicode="&#xbb;" horiz-adv-x="1193" d="M90 57q1 -24 17 -24q20 0 40.5 16.5t30.5 24.5q61 57 109.5 98t95.5 71.5t99.5 60.5t123.5 65q31 14 44.5 34.5t13.5 42.5q0 20 -21 31q-92 55 -154.5 94t-109.5 74t-94 75t-111 95q-8 8 -28.5 25.5t-40.5 17.5q-14 0 -15 -22q0 -8 4 -16.5t9 -16.5q68 -102 114.5 -161.5 t86.5 -99.5t87 -81q14 -10 14.5 -15.5t-14.5 -15.5q-47 -43 -87 -83t-87 -98.5t-114 -162.5q-4 -6 -8.5 -14.5t-4.5 -14.5zM522 57q1 -24 17 -24q20 0 40.5 16.5t30.5 24.5q61 57 109.5 98t95.5 71.5t99.5 60.5t123.5 65q31 14 44.5 34.5t13.5 42.5q0 20 -21 31 q-92 55 -154.5 94t-109.5 74t-94 75t-111 95q-8 8 -28.5 25.5t-40.5 17.5q-14 0 -15 -22q0 -8 4 -16.5t9 -16.5q68 -102 114.5 -161.5t86.5 -99.5t87 -81q14 -10 14.5 -15.5t-14.5 -15.5q-47 -43 -87 -83t-87 -98.5t-114 -162.5q-4 -6 -8.5 -14.5t-4.5 -14.5z" />
<glyph unicode="&#xbc;" horiz-adv-x="1320" d="M66 1163q0 31 30 33q78 4 128 17.5t102 46.5q2 2 10 6t12 4q18 0 19 -19q0 -12 -4.5 -31.5t-4.5 -56.5v-485q0 -25 8.5 -35t57.5 -25q10 -2 16 -7t6 -19q0 -8 -4 -14.5t-14 -6.5q-27 0 -58.5 1t-61 2t-50.5 1q-20 0 -48 -1t-56.5 -3t-57.5 -2q-8 0 -15 6.5t-7 14.5 q0 12 6 20t16 8q31 6 45.5 11.5t19.5 16.5t5 32v371q0 43 -25.5 64.5t-52.5 23.5q-10 2 -16 7t-6 19zM221 -16q0 4 2 8l839 1323q16 29 42 37t59 8q16 0 26.5 -11.5t10.5 -23.5q0 -8 -2 -10l-840 -1323q-12 -25 -38 -32t-54 -7q-16 0 -30.5 9t-14.5 22zM661 191q0 2 2.5 5 t4.5 5q72 88 155.5 178t157.5 178q20 23 56 59.5t77 77.5q12 12 23.5 20.5t19.5 8.5q6 0 8 -6t2 -12l-2 -422q0 -12 13 -13h36q12 0 31 1t33 1t14 -14q0 -18 -12 -43.5t-23 -25.5h-71q-10 0 -15.5 -3.5t-5.5 -9.5v-117q0 -16 -31.5 -34.5t-67.5 -30.5t-46 -12q-23 0 -23 16 v176q0 6 -10 8t-12 2q-76 0 -142.5 -2t-148.5 -2q-4 0 -13.5 2t-9.5 9zM829 281q-3 -9 5 -9h153q4 0 7 3.5t3 5.5v170q0 2 -2 2t-4 -2l-54.5 -54.5t-59 -61.5t-48.5 -54z" />
<glyph unicode="&#xbd;" horiz-adv-x="1472" d="M66 1163q0 31 30 33q78 4 128 17.5t102 46.5q2 2 10 6t12 4q18 0 19 -19q0 -12 -4.5 -31.5t-4.5 -56.5v-485q0 -25 8.5 -35t57.5 -25q10 -2 16 -7t6 -19q0 -8 -4 -14.5t-14 -6.5q-27 0 -58.5 1t-61 2t-50.5 1q-20 0 -48 -1t-56.5 -3t-57.5 -2q-8 0 -15 6.5t-7 14.5 q0 12 6 20t16 8q31 6 45.5 11.5t19.5 16.5t5 32v371q0 43 -25.5 64.5t-52.5 23.5q-10 2 -16 7t-6 19zM221 -16q0 4 2 8l839 1323q16 29 42 37t59 8q16 0 26.5 -11.5t10.5 -23.5q0 -8 -2 -10l-840 -1323q-12 -25 -38 -32t-54 -7q-16 0 -30.5 9t-14.5 22zM827 -14q0 8 8 18 l78 84q57 68 108.5 125t82 113.5t30.5 118.5q0 41 -26.5 68.5t-71.5 27.5q-43 0 -73.5 -25.5t-51.5 -52.5q-16 -27 -37 -27q-12 0 -17 10.5t-5 26.5q0 31 31.5 76t91 78t143.5 33q100 0 160.5 -54.5t60.5 -128.5q0 -43 -21.5 -87t-60.5 -89q-16 -16 -51 -46t-72.5 -59.5 t-64.5 -52t-31 -24.5q0 -4 6 -6t13 -2h194q37 0 66.5 25.5t50.5 60.5q4 8 11 16t22 8q16 0 20 -10t0 -20q-25 -59 -41 -121t-18 -74t-9.5 -20.5t-15.5 -8.5q-18 0 -60 2t-94.5 3t-105.5 1q-41 0 -92 -1t-90 -3t-45 -2q-8 0 -15.5 6.5t-7.5 12.5z" />
<glyph unicode="&#xbe;" horiz-adv-x="1351" d="M66 625q0 25 11 48t25 23q10 0 16.5 -4t12.5 -12q18 -20 46 -41t54 -21q47 0 79 42t32 116q0 43 -27.5 85t-81.5 42q-43 0 -60 -13t-23 -13q-12 0 -23.5 3t-9.5 15q4 18 18.5 32.5t32.5 24t31 15.5q78 41 101.5 71.5t23.5 69.5q0 25 -24 44t-62 19q-35 0 -67 -16t-50 -39 q-8 -6 -14.5 -13t-10.5 -7q-8 0 -17 11t-9 19q0 12 25.5 44t76.5 61t129 29q70 0 129 -37t59 -101q0 -37 -28.5 -75.5t-98.5 -59.5q-4 -2 -4 -4t4 -2q68 -4 119 -46t51 -120q0 -76 -48 -133t-124.5 -88t-162.5 -31q-49 0 -90 16.5t-41 45.5zM246 -16q0 4 2 8l839 1323 q16 29 42 37t59 8q16 0 26.5 -11.5t10.5 -23.5q0 -8 -2 -10l-840 -1323q-12 -25 -38 -32t-54 -7q-16 0 -30.5 9t-14.5 22zM692 191q0 2 2.5 5t4.5 5q72 88 155.5 178t157.5 178q20 23 56 59.5t77 77.5q12 12 23.5 20.5t19.5 8.5q6 0 8 -6t2 -12l-2 -422q0 -12 13 -13h36 q12 0 31 1t33 1t14 -14q0 -18 -12 -43.5t-23 -25.5h-71q-10 0 -15.5 -3.5t-5.5 -9.5v-117q0 -16 -31.5 -34.5t-67.5 -30.5t-46 -12q-23 0 -23 16v176q0 6 -10 8t-12 2q-76 0 -142.5 -2t-148.5 -2q-4 0 -13.5 2t-9.5 9zM860 281q-3 -9 5 -9h153q4 0 7 3.5t3 5.5v170q0 2 -2 2 t-4 -2l-54.5 -54.5t-59 -61.5t-48.5 -54z" />
<glyph unicode="&#xbf;" horiz-adv-x="808" d="M100 137q0 82 31 130t68 65q33 16 61.5 33.5t59 35t63.5 35.5q45 25 60.5 54.5t23.5 89.5q0 23 12.5 36t30.5 13q14 0 32.5 -16.5t35.5 -45.5q16 -33 31.5 -78t15.5 -104q0 -72 -60.5 -124t-179.5 -107q-61 -29 -96 -65t-35 -91q0 -61 46 -93t108 -34q43 0 65.5 8 t34.5 14q14 4 30.5 8.5t37.5 4.5q29 0 57.5 -30t46.5 -71t18 -75q0 -37 -43 -69t-98 -32q-82 0 -157.5 41t-143.5 111q-49 51 -83 110.5t-53.5 123t-19.5 122.5zM365 864q0 61 43 104.5t104 43.5t104 -43t43 -105q0 -61 -43 -105t-104 -44t-104 44t-43 105z" />
<glyph unicode="&#xc0;" horiz-adv-x="1474" d="M-8 23q0 20 13 29t36 16q59 16 103 51t67 86q51 115 96 226.5t88 221t86 223t86 230.5q31 84 39 122t12 44q37 10 70 18t70 23q37 14 62.5 36.5t37.5 34.5q8 6 16.5 7.5t16.5 -13.5q6 -12 11 -25.5t9 -29.5q43 -137 88 -279.5t91.5 -284t91.5 -279.5t88 -269 q12 -41 37.5 -69.5t58.5 -45t74 -28.5q23 -6 36 -15.5t13 -27.5q0 -14 -12.5 -22.5t-28.5 -8.5q-41 0 -101.5 3t-122 5t-108.5 2q-39 0 -95 -2t-113.5 -4t-98.5 -2q-18 0 -31.5 7t-13.5 22q0 18 14.5 28t34.5 15q76 16 110.5 42.5t22.5 79.5q-8 39 -20.5 82t-23.5 87t-23 85 q-4 16 -10.5 24.5t-24.5 8.5h-363q-14 0 -22 -8t-13 -27q-8 -29 -18 -57.5t-19.5 -57t-17.5 -57t-16 -55.5q-14 -61 12.5 -94t114.5 -53q49 -10 49 -43q0 -14 -11.5 -21.5t-35.5 -7.5q-59 0 -110.5 3t-112.5 3t-117 -6t-119 -6q-23 0 -38 7t-15 26zM402 1661q4 -20 39 -45 q78 -51 168 -102.5t170 -100.5q18 -10 32.5 -14t18.5 -2q25 4 24 18q0 14 -22 43q-51 68 -103.5 131.5t-111.5 124.5q-27 29 -70 25q-16 -2 -52 -14.5t-66.5 -29t-26.5 -34.5zM502 606q0 -10 11.5 -14t25.5 -4h266q31 0 31 14q0 6 -1 10t-4 11l-137 462q-6 23 -12 23 q-4 0 -14 -23l-162 -462q-4 -8 -4 -17z" />
<glyph unicode="&#xc1;" horiz-adv-x="1474" d="M-8 23q0 20 13 29t36 16q59 16 103 51t67 86q51 115 96 226.5t88 221t86 223t86 230.5q31 84 39 122t12 44q37 10 70 18t70 23q37 14 62.5 36.5t37.5 34.5q8 6 16.5 7.5t16.5 -13.5q6 -12 11 -25.5t9 -29.5q43 -137 88 -279.5t91.5 -284t91.5 -279.5t88 -269 q12 -41 37.5 -69.5t58.5 -45t74 -28.5q23 -6 36 -15.5t13 -27.5q0 -14 -12.5 -22.5t-28.5 -8.5q-41 0 -101.5 3t-122 5t-108.5 2q-39 0 -95 -2t-113.5 -4t-98.5 -2q-18 0 -31.5 7t-13.5 22q0 18 14.5 28t34.5 15q76 16 110.5 42.5t22.5 79.5q-8 39 -20.5 82t-23.5 87t-23 85 q-4 16 -10.5 24.5t-24.5 8.5h-363q-14 0 -22 -8t-13 -27q-8 -29 -18 -57.5t-19.5 -57t-17.5 -57t-16 -55.5q-14 -61 12.5 -94t114.5 -53q49 -10 49 -43q0 -14 -11.5 -21.5t-35.5 -7.5q-59 0 -110.5 3t-112.5 3t-117 -6t-119 -6q-23 0 -38 7t-15 26zM502 606q0 -10 11.5 -14 t25.5 -4h266q31 0 31 14q0 6 -1 10t-4 11l-137 462q-6 23 -12 23q-4 0 -14 -23l-162 -462q-4 -8 -4 -17zM652 1415q0 14 22 43q51 68 103.5 131.5t111.5 124.5q27 29 70 25q16 -2 52 -14.5t66.5 -29t26.5 -34.5q-4 -20 -39 -45q-78 -51 -168 -102.5t-170 -100.5 q-18 -10 -32.5 -14t-18.5 -2q-25 4 -24 18z" />
<glyph unicode="&#xc2;" horiz-adv-x="1474" d="M-8 23q0 20 13 29t36 16q59 16 103 51t67 86q51 115 96 226.5t88 221t86 223t86 230.5q31 84 39 122t12 44q37 10 70 18t70 23q37 14 62.5 36.5t37.5 34.5q8 6 16.5 7.5t16.5 -13.5q6 -12 11 -25.5t9 -29.5q43 -137 88 -279.5t91.5 -284t91.5 -279.5t88 -269 q12 -41 37.5 -69.5t58.5 -45t74 -28.5q23 -6 36 -15.5t13 -27.5q0 -14 -12.5 -22.5t-28.5 -8.5q-41 0 -101.5 3t-122 5t-108.5 2q-39 0 -95 -2t-113.5 -4t-98.5 -2q-18 0 -31.5 7t-13.5 22q0 18 14.5 28t34.5 15q76 16 110.5 42.5t22.5 79.5q-8 39 -20.5 82t-23.5 87t-23 85 q-4 16 -10.5 24.5t-24.5 8.5h-363q-14 0 -22 -8t-13 -27q-8 -29 -18 -57.5t-19.5 -57t-17.5 -57t-16 -55.5q-14 -61 12.5 -94t114.5 -53q49 -10 49 -43q0 -14 -11.5 -21.5t-35.5 -7.5q-59 0 -110.5 3t-112.5 3t-117 -6t-119 -6q-23 0 -38 7t-15 26zM438 1444q0 18 17 31 l215 192q35 33 55 46t47 13q29 0 49.5 -13t54.5 -46l213 -190q14 -12 15 -33q0 -27 -33 -27q-14 0 -48 10.5t-77 26.5t-83 33.5t-66 32.5q-14 8 -24.5 8t-25.5 -8q-25 -14 -64.5 -30.5t-82.5 -33t-77 -27t-46 -10.5q-39 0 -39 25zM502 606q0 -10 11.5 -14t25.5 -4h266 q31 0 31 14q0 6 -1 10t-4 11l-137 462q-6 23 -12 23q-4 0 -14 -23l-162 -462q-4 -8 -4 -17z" />
<glyph unicode="&#xc3;" horiz-adv-x="1474" d="M-8 23q0 20 13 29t36 16q59 16 103 51t67 86q51 115 96 226.5t88 221t86 223t86 230.5q31 84 39 122t12 44q37 10 70 18t70 23q37 14 62.5 36.5t37.5 34.5q8 6 16.5 7.5t16.5 -13.5q6 -12 11 -25.5t9 -29.5q43 -137 88 -279.5t91.5 -284t91.5 -279.5t88 -269 q12 -41 37.5 -69.5t58.5 -45t74 -28.5q23 -6 36 -15.5t13 -27.5q0 -14 -12.5 -22.5t-28.5 -8.5q-41 0 -101.5 3t-122 5t-108.5 2q-39 0 -95 -2t-113.5 -4t-98.5 -2q-18 0 -31.5 7t-13.5 22q0 18 14.5 28t34.5 15q76 16 110.5 42.5t22.5 79.5q-8 39 -20.5 82t-23.5 87t-23 85 q-4 16 -10.5 24.5t-24.5 8.5h-363q-14 0 -22 -8t-13 -27q-8 -29 -18 -57.5t-19.5 -57t-17.5 -57t-16 -55.5q-14 -61 12.5 -94t114.5 -53q49 -10 49 -43q0 -14 -11.5 -21.5t-35.5 -7.5q-59 0 -110.5 3t-112.5 3t-117 -6t-119 -6q-23 0 -38 7t-15 26zM450 1448q0 12 18.5 45 t46 69.5t54.5 64.5t41 28q39 0 83 -3t87 -5q39 -2 82 -4.5t90 -2.5q23 0 40 12.5t32 26.5q16 16 25.5 30.5t15.5 14.5q12 0 29.5 -13t17.5 -25q0 -6 -9.5 -20.5t-27.5 -37.5q-23 -33 -43.5 -64.5t-38.5 -58.5q-12 -18 -30.5 -23t-32.5 -5q-16 0 -63.5 3t-104 7t-105.5 8 t-70 4q-16 0 -32.5 -12t-28.5 -27q-12 -16 -22.5 -30.5t-14.5 -14.5q-10 0 -24.5 13.5t-14.5 19.5zM502 606q0 -10 11.5 -14t25.5 -4h266q31 0 31 14q0 6 -1 10t-4 11l-137 462q-6 23 -12 23q-4 0 -14 -23l-162 -462q-4 -8 -4 -17z" />
<glyph unicode="&#xc4;" horiz-adv-x="1474" d="M-8 23q0 20 13 29t36 16q59 16 103 51t67 86q51 115 96 226.5t88 221t86 223t86 230.5q31 84 39 122t12 44q37 10 70 18t70 23q37 14 62.5 36.5t37.5 34.5q8 6 16.5 7.5t16.5 -13.5q6 -12 11 -25.5t9 -29.5q43 -137 88 -279.5t91.5 -284t91.5 -279.5t88 -269 q12 -41 37.5 -69.5t58.5 -45t74 -28.5q23 -6 36 -15.5t13 -27.5q0 -14 -12.5 -22.5t-28.5 -8.5q-41 0 -101.5 3t-122 5t-108.5 2q-39 0 -95 -2t-113.5 -4t-98.5 -2q-18 0 -31.5 7t-13.5 22q0 18 14.5 28t34.5 15q76 16 110.5 42.5t22.5 79.5q-8 39 -20.5 82t-23.5 87t-23 85 q-4 16 -10.5 24.5t-24.5 8.5h-363q-14 0 -22 -8t-13 -27q-8 -29 -18 -57.5t-19.5 -57t-17.5 -57t-16 -55.5q-14 -61 12.5 -94t114.5 -53q49 -10 49 -43q0 -14 -11.5 -21.5t-35.5 -7.5q-59 0 -110.5 3t-112.5 3t-117 -6t-119 -6q-23 0 -38 7t-15 26zM422 1554q0 63 44 105.5 t103 42.5q63 0 107.5 -42t44.5 -106q0 -59 -44.5 -102t-107.5 -43q-59 0 -103 43t-44 102zM502 606q0 -10 11.5 -14t25.5 -4h266q31 0 31 14q0 6 -1 10t-4 11l-137 462q-6 23 -12 23q-4 0 -14 -23l-162 -462q-4 -8 -4 -17zM827 1554q0 63 43 105.5t103 42.5q66 0 109.5 -42 t43.5 -106q0 -59 -43.5 -102t-109.5 -43q-59 0 -102.5 43t-43.5 102z" />
<glyph unicode="&#xc5;" horiz-adv-x="1474" d="M-8 23q0 20 13 29t36 16q59 16 103 51t67 86q51 115 96 226.5t88 221t86 223t86 230.5q31 84 39 122t12 44q37 10 70 18t70 23q37 14 62.5 36.5t37.5 34.5q8 6 16.5 7.5t16.5 -13.5q6 -12 11 -25.5t9 -29.5q43 -137 88 -279.5t91.5 -284t91.5 -279.5t88 -269 q12 -41 37.5 -69.5t58.5 -45t74 -28.5q23 -6 36 -15.5t13 -27.5q0 -14 -12.5 -22.5t-28.5 -8.5q-41 0 -101.5 3t-122 5t-108.5 2q-39 0 -95 -2t-113.5 -4t-98.5 -2q-18 0 -31.5 7t-13.5 22q0 18 14.5 28t34.5 15q76 16 110.5 42.5t22.5 79.5q-8 39 -20.5 82t-23.5 87t-23 85 q-4 16 -10.5 24.5t-24.5 8.5h-363q-14 0 -22 -8t-13 -27q-8 -29 -18 -57.5t-19.5 -57t-17.5 -57t-16 -55.5q-14 -61 12.5 -94t114.5 -53q49 -10 49 -43q0 -14 -11.5 -21.5t-35.5 -7.5q-59 0 -110.5 3t-112.5 3t-117 -6t-119 -6q-23 0 -38 7t-15 26zM502 606q0 -10 11.5 -14 t25.5 -4h266q31 0 31 14q0 6 -1 10t-4 11l-137 462q-6 23 -12 23q-4 0 -14 -23l-162 -462q-4 -8 -4 -17zM543 1575q0 53 34.5 93t89 62.5t115.5 22.5q82 0 148.5 -42t66.5 -118q0 -55 -34.5 -96t-88 -63.5t-114.5 -22.5q-84 0 -150.5 43t-66.5 121zM672 1579 q0 -43 31.5 -73.5t76.5 -30.5q43 0 65.5 32.5t22.5 71.5q0 45 -29.5 76t-74.5 31q-43 0 -67.5 -32t-24.5 -75z" />
<glyph unicode="&#xc6;" horiz-adv-x="1861" d="M-10 23q0 18 14 28t35 17q57 18 106.5 57t77.5 86l602 1014q4 10 1 18t-17 10l-68 15q-20 6 -29.5 17t-9.5 24q0 31 39 30q66 0 151 -4t155 -4q90 0 194.5 1t198.5 3t159.5 3t81.5 1q14 0 31 -8t19 -31q14 -72 23 -140t11 -124q0 -18 -9 -27.5t-19 -9.5t-20.5 7.5 t-18.5 23.5q-23 61 -41.5 104.5t-44.5 69.5q-23 25 -56.5 36t-78.5 11h-154q-45 0 -77 -22.5t-32 -65.5v-399q0 -25 13.5 -37t36.5 -12h92t86 2q49 0 72.5 33.5t41.5 76.5q12 20 23.5 33.5t24.5 13.5q10 0 18 -12t6 -33q-2 -43 -5 -82.5t-3 -78.5t2 -79t6 -87q2 -29 -4 -41 t-16 -12q-16 0 -29.5 15t-19.5 34q-18 61 -43 94t-60 33h-99h-97q-23 0 -34.5 -12.5t-11.5 -34.5v-375q0 -57 26 -86t81 -29h186q25 0 51.5 5t50 15.5t42.5 22.5q39 31 66.5 78t49.5 98q6 16 12.5 24.5t18.5 8.5q31 0 31 -29q0 -55 -19.5 -138t-40.5 -155q-4 -14 -17 -20 t-30 -6q-23 0 -95.5 1t-170.5 3t-204.5 3t-198.5 1q-41 0 -91.5 -2t-99.5 -5t-94 -3q-18 0 -29.5 9t-11.5 21q0 31 45 43q70 18 98.5 43t28.5 89v299q0 12 -6 24t-31 12h-289q-16 0 -28.5 -8t-24.5 -28q-33 -66 -63.5 -138.5t-53.5 -130.5q-12 -37 -12 -61q0 -39 32 -60.5 t97 -35.5q49 -10 49 -43q0 -14 -11 -21.5t-36 -7.5q-59 0 -119.5 3t-119.5 3q-61 0 -119 -6t-119 -6q-25 0 -40 7t-15 26zM633 653q2 -6 12.5 -8t20.5 -2h202q12 0 21.5 8t9.5 19v452q0 18 -4 28.5t-21 -17.5l-239 -453q-8 -14 -2 -27z" />
<glyph unicode="&#xc7;" horiz-adv-x="1452" d="M59 647q0 141 56.5 269t165 227.5t261 158t345.5 58.5q66 0 132 -9.5t128.5 -25.5t114.5 -35q18 -8 31.5 -21.5t15.5 -37.5q8 -68 12 -131.5t4 -114.5q0 -23 -16.5 -31t-36 -0.5t-27.5 31.5q-14 47 -33.5 94t-58.5 82q-41 41 -113.5 67.5t-175.5 26.5q-104 0 -189 -45 t-145.5 -122.5t-93.5 -176t-33 -204.5q0 -135 29 -251t88.5 -200t145.5 -131t202 -47q152 0 246 64.5t158 197.5q16 37 46 35t30 -35q0 -27 -5.5 -64.5t-15.5 -80.5t-24 -89q-8 -25 -21.5 -38t-34.5 -23q-78 -33 -184.5 -53.5t-233.5 -20.5q-160 0 -299 48.5t-245.5 137.5 t-166 214t-59.5 276zM561 -475q0 35 13.5 49t27.5 14q12 0 36 -13t89 -13q31 0 60.5 16t29.5 62q0 39 -23.5 60t-76.5 21q-16 0 -25.5 -5t-23.5 -5q-31 0 -45.5 16.5t-14.5 28.5q0 14 3 22.5t12 16.5l188 221h94l-73 -96q-23 -31 10 -43q53 -20 92 -62t39 -108 q0 -72 -50.5 -133t-120.5 -99t-136 -38q-49 0 -77 15.5t-28 72.5z" />
<glyph unicode="&#xc8;" horiz-adv-x="1177" d="M41 20q0 31 45 43q70 18 99.5 43t29.5 91v931q0 66 -26.5 94.5t-100.5 45.5q-27 6 -37 17t-10 26q0 12 12.5 21t32.5 9q51 0 104.5 -2t104.5 -5t98 -3q106 0 227 2t216 4q66 0 108.5 7.5t50.5 7.5q14 0 31.5 -9.5t20.5 -29.5q8 -74 20 -143.5t12 -122.5q0 -18 -8 -28.5 t-18 -10.5t-21.5 8t-17.5 24q-20 51 -36.5 88t-37.5 60q-25 23 -59.5 43t-87.5 20h-154q-45 0 -78 -23.5t-33 -66.5v-387q0 -25 14.5 -37t37.5 -12h180q53 0 76.5 36t42.5 87q14 39 41 39q10 0 18 -11.5t6 -33.5q-2 -25 -4 -53.5t-3 -57.5t-1 -55q0 -25 1 -53.5l2 -57 t3 -55.5q4 -29 -2 -42t-18 -13q-33 0 -48 53q-18 61 -40.5 94t-63.5 33h-190q-25 0 -38.5 -11.5t-13.5 -35.5v-389q0 -61 27 -86t82 -25h176q45 0 86 10.5t70 34.5q35 29 63.5 72t52.5 92q8 14 17.5 19.5t21.5 5.5q10 0 15.5 -12.5t5.5 -26.5q0 -35 -10.5 -78t-25.5 -91 l-30 -96q-4 -14 -17 -20t-28 -6q-27 0 -99.5 1t-170.5 3t-202.5 3t-194.5 1q-41 0 -90.5 -2t-99.5 -5t-93 -3q-20 0 -31.5 9t-11.5 21zM242 1661q4 -20 39 -45q78 -51 168 -102.5t170 -100.5q18 -10 32.5 -14t18.5 -2q25 4 24 18q0 14 -22 43q-51 68 -103.5 131.5 t-111.5 124.5q-27 29 -70 25q-16 -2 -52 -14.5t-66.5 -29t-26.5 -34.5z" />
<glyph unicode="&#xc9;" horiz-adv-x="1177" d="M41 20q0 31 45 43q70 18 99.5 43t29.5 91v931q0 66 -26.5 94.5t-100.5 45.5q-27 6 -37 17t-10 26q0 12 12.5 21t32.5 9q51 0 104.5 -2t104.5 -5t98 -3q106 0 227 2t216 4q66 0 108.5 7.5t50.5 7.5q14 0 31.5 -9.5t20.5 -29.5q8 -74 20 -143.5t12 -122.5q0 -18 -8 -28.5 t-18 -10.5t-21.5 8t-17.5 24q-20 51 -36.5 88t-37.5 60q-25 23 -59.5 43t-87.5 20h-154q-45 0 -78 -23.5t-33 -66.5v-387q0 -25 14.5 -37t37.5 -12h180q53 0 76.5 36t42.5 87q14 39 41 39q10 0 18 -11.5t6 -33.5q-2 -25 -4 -53.5t-3 -57.5t-1 -55q0 -25 1 -53.5l2 -57 t3 -55.5q4 -29 -2 -42t-18 -13q-33 0 -48 53q-18 61 -40.5 94t-63.5 33h-190q-25 0 -38.5 -11.5t-13.5 -35.5v-389q0 -61 27 -86t82 -25h176q45 0 86 10.5t70 34.5q35 29 63.5 72t52.5 92q8 14 17.5 19.5t21.5 5.5q10 0 15.5 -12.5t5.5 -26.5q0 -35 -10.5 -78t-25.5 -91 l-30 -96q-4 -14 -17 -20t-28 -6q-27 0 -99.5 1t-170.5 3t-202.5 3t-194.5 1q-41 0 -90.5 -2t-99.5 -5t-93 -3q-20 0 -31.5 9t-11.5 21zM490 1415q0 14 22 43q51 68 103.5 131.5t111.5 124.5q27 29 70 25q16 -2 52 -14.5t66.5 -29t26.5 -34.5q-4 -20 -39 -45 q-78 -51 -168 -102.5t-170 -100.5q-18 -10 -32.5 -14t-18.5 -2q-25 4 -24 18z" />
<glyph unicode="&#xca;" horiz-adv-x="1177" d="M41 20q0 31 45 43q70 18 99.5 43t29.5 91v931q0 66 -26.5 94.5t-100.5 45.5q-27 6 -37 17t-10 26q0 12 12.5 21t32.5 9q51 0 104.5 -2t104.5 -5t98 -3q106 0 227 2t216 4q66 0 108.5 7.5t50.5 7.5q14 0 31.5 -9.5t20.5 -29.5q8 -74 20 -143.5t12 -122.5q0 -18 -8 -28.5 t-18 -10.5t-21.5 8t-17.5 24q-20 51 -36.5 88t-37.5 60q-25 23 -59.5 43t-87.5 20h-154q-45 0 -78 -23.5t-33 -66.5v-387q0 -25 14.5 -37t37.5 -12h180q53 0 76.5 36t42.5 87q14 39 41 39q10 0 18 -11.5t6 -33.5q-2 -25 -4 -53.5t-3 -57.5t-1 -55q0 -25 1 -53.5l2 -57 t3 -55.5q4 -29 -2 -42t-18 -13q-33 0 -48 53q-18 61 -40.5 94t-63.5 33h-190q-25 0 -38.5 -11.5t-13.5 -35.5v-389q0 -61 27 -86t82 -25h176q45 0 86 10.5t70 34.5q35 29 63.5 72t52.5 92q8 14 17.5 19.5t21.5 5.5q10 0 15.5 -12.5t5.5 -26.5q0 -35 -10.5 -78t-25.5 -91 l-30 -96q-4 -14 -17 -20t-28 -6q-27 0 -99.5 1t-170.5 3t-202.5 3t-194.5 1q-41 0 -90.5 -2t-99.5 -5t-93 -3q-20 0 -31.5 9t-11.5 21zM278 1444q0 18 17 31l215 192q35 33 55 46t47 13q29 0 49.5 -13t54.5 -46l213 -190q14 -12 15 -33q0 -27 -33 -27q-14 0 -48 10.5 t-77 26.5t-83 33.5t-66 32.5q-14 8 -24.5 8t-25.5 -8q-25 -14 -64.5 -30.5t-82.5 -33t-77 -27t-46 -10.5q-39 0 -39 25z" />
<glyph unicode="&#xcb;" horiz-adv-x="1177" d="M41 20q0 31 45 43q70 18 99.5 43t29.5 91v931q0 66 -26.5 94.5t-100.5 45.5q-27 6 -37 17t-10 26q0 12 12.5 21t32.5 9q51 0 104.5 -2t104.5 -5t98 -3q106 0 227 2t216 4q66 0 108.5 7.5t50.5 7.5q14 0 31.5 -9.5t20.5 -29.5q8 -74 20 -143.5t12 -122.5q0 -18 -8 -28.5 t-18 -10.5t-21.5 8t-17.5 24q-20 51 -36.5 88t-37.5 60q-25 23 -59.5 43t-87.5 20h-154q-45 0 -78 -23.5t-33 -66.5v-387q0 -25 14.5 -37t37.5 -12h180q53 0 76.5 36t42.5 87q14 39 41 39q10 0 18 -11.5t6 -33.5q-2 -25 -4 -53.5t-3 -57.5t-1 -55q0 -25 1 -53.5l2 -57 t3 -55.5q4 -29 -2 -42t-18 -13q-33 0 -48 53q-18 61 -40.5 94t-63.5 33h-190q-25 0 -38.5 -11.5t-13.5 -35.5v-389q0 -61 27 -86t82 -25h176q45 0 86 10.5t70 34.5q35 29 63.5 72t52.5 92q8 14 17.5 19.5t21.5 5.5q10 0 15.5 -12.5t5.5 -26.5q0 -35 -10.5 -78t-25.5 -91 l-30 -96q-4 -14 -17 -20t-28 -6q-27 0 -99.5 1t-170.5 3t-202.5 3t-194.5 1q-41 0 -90.5 -2t-99.5 -5t-93 -3q-20 0 -31.5 9t-11.5 21zM262 1554q0 63 44 105.5t103 42.5q63 0 107.5 -42t44.5 -106q0 -59 -44.5 -102t-107.5 -43q-59 0 -103 43t-44 102zM667 1554 q0 63 43 105.5t103 42.5q66 0 109.5 -42t43.5 -106q0 -59 -43.5 -102t-109.5 -43q-59 0 -102.5 43t-43.5 102z" />
<glyph unicode="&#xcc;" horiz-adv-x="745" d="M8 1661q4 -20 39 -45q78 -51 168 -102.5t170 -100.5q18 -10 32.5 -14t18.5 -2q25 4 24 18q0 14 -22 43q-51 68 -103.5 131.5t-111.5 124.5q-27 29 -70 25q-16 -2 -52 -14.5t-66.5 -29t-26.5 -34.5zM33 23q0 33 43 43q78 16 108.5 41.5t30.5 91.5v929q0 66 -26.5 93.5 t-108.5 46.5q-43 10 -43 43q0 14 12 22t29 8q47 0 99 -2t102.5 -5t93.5 -3q41 0 93 2t106.5 4t99.5 2q18 0 28.5 -7t10.5 -21q0 -20 -11.5 -28.5t-33.5 -14.5q-82 -23 -109 -50.5t-27 -91.5v-925q0 -59 30 -87t110 -48q20 -6 31.5 -14.5t11.5 -26.5q0 -14 -9.5 -22.5 t-27.5 -8.5q-45 0 -100.5 3t-108.5 5t-94 2q-43 0 -94.5 -2t-104.5 -5t-100 -3q-16 0 -28.5 7t-12.5 22z" />
<glyph unicode="&#xcd;" horiz-adv-x="745" d="M33 23q0 33 43 43q78 16 108.5 41.5t30.5 91.5v929q0 66 -26.5 93.5t-108.5 46.5q-43 10 -43 43q0 14 12 22t29 8q47 0 99 -2t102.5 -5t93.5 -3q41 0 93 2t106.5 4t99.5 2q18 0 28.5 -7t10.5 -21q0 -20 -11.5 -28.5t-33.5 -14.5q-82 -23 -109 -50.5t-27 -91.5v-925 q0 -59 30 -87t110 -48q20 -6 31.5 -14.5t11.5 -26.5q0 -14 -9.5 -22.5t-27.5 -8.5q-45 0 -100.5 3t-108.5 5t-94 2q-43 0 -94.5 -2t-104.5 -5t-100 -3q-16 0 -28.5 7t-12.5 22zM256 1415q0 14 22 43q51 68 103.5 131.5t111.5 124.5q27 29 70 25q16 -2 52 -14.5t66.5 -29 t26.5 -34.5q-4 -20 -39 -45q-78 -51 -168 -102.5t-170 -100.5q-18 -10 -32.5 -14t-18.5 -2q-25 4 -24 18z" />
<glyph unicode="&#xce;" horiz-adv-x="745" d="M33 23q0 33 43 43q78 16 108.5 41.5t30.5 91.5v929q0 66 -26.5 93.5t-108.5 46.5q-43 10 -43 43q0 14 12 22t29 8q47 0 99 -2t102.5 -5t93.5 -3q41 0 93 2t106.5 4t99.5 2q18 0 28.5 -7t10.5 -21q0 -20 -11.5 -28.5t-33.5 -14.5q-82 -23 -109 -50.5t-27 -91.5v-925 q0 -59 30 -87t110 -48q20 -6 31.5 -14.5t11.5 -26.5q0 -14 -9.5 -22.5t-27.5 -8.5q-45 0 -100.5 3t-108.5 5t-94 2q-43 0 -94.5 -2t-104.5 -5t-100 -3q-16 0 -28.5 7t-12.5 22zM45 1444q0 18 17 31l215 192q35 33 55 46t47 13q29 0 49.5 -13t54.5 -46l213 -190 q14 -12 15 -33q0 -27 -33 -27q-14 0 -48 10.5t-77 26.5t-83 33.5t-66 32.5q-14 8 -24.5 8t-25.5 -8q-25 -14 -64.5 -30.5t-82.5 -33t-77 -27t-46 -10.5q-39 0 -39 25z" />
<glyph unicode="&#xcf;" horiz-adv-x="745" d="M29 1554q0 63 44 105.5t103 42.5q63 0 107.5 -42t44.5 -106q0 -59 -44.5 -102t-107.5 -43q-59 0 -103 43t-44 102zM33 23q0 33 43 43q78 16 108.5 41.5t30.5 91.5v929q0 66 -26.5 93.5t-108.5 46.5q-43 10 -43 43q0 14 12 22t29 8q47 0 99 -2t102.5 -5t93.5 -3q41 0 93 2 t106.5 4t99.5 2q18 0 28.5 -7t10.5 -21q0 -20 -11.5 -28.5t-33.5 -14.5q-82 -23 -109 -50.5t-27 -91.5v-925q0 -59 30 -87t110 -48q20 -6 31.5 -14.5t11.5 -26.5q0 -14 -9.5 -22.5t-27.5 -8.5q-45 0 -100.5 3t-108.5 5t-94 2q-43 0 -94.5 -2t-104.5 -5t-100 -3 q-16 0 -28.5 7t-12.5 22zM434 1554q0 63 43 105.5t103 42.5q66 0 109.5 -42t43.5 -106q0 -59 -43.5 -102t-109.5 -43q-59 0 -102.5 43t-43.5 102z" />
<glyph unicode="&#xd0;" horiz-adv-x="1568" d="M37 23q0 18 11 28t32 15q78 16 106.5 41.5t28.5 91.5v929q0 66 -26.5 93.5t-108.5 46.5q-20 4 -31.5 14t-11.5 29q0 14 12 22t27 8q47 0 99 -2t102.5 -5t91.5 -3q33 0 86 3t115.5 6t121 6.5t94.5 3.5q156 0 288 -48.5t231.5 -137.5t155 -209.5t55.5 -266.5 q0 -137 -49.5 -263t-143.5 -225.5t-229.5 -156.5t-311.5 -57q-70 0 -152.5 4t-154.5 7t-108 3q-41 0 -90.5 -1t-101.5 -3t-99 -2q-14 0 -26.5 7t-12.5 22zM72 686q0 27 16 43t41 16h619q18 0 30.5 -10t12.5 -26q0 -2 -1.5 -4.5t-1.5 -6.5q-6 -25 -27.5 -48t-53.5 -23h-588 q-25 0 -36 20.5t-11 38.5zM530 270q0 -68 26 -106.5t76 -56t120 -17.5q139 0 233 68.5t140 190.5t46 284q0 137 -29.5 248.5t-86 191.5t-139 124t-187.5 44q-66 0 -110 -4t-66.5 -20.5t-22.5 -53.5v-893z" />
<glyph unicode="&#xd1;" horiz-adv-x="1656" d="M20 1315q0 18 16.5 25.5t37.5 7.5q37 0 83 -2.5t97 -3.5t106.5 -3t110.5 -2q16 0 25.5 -6t17.5 -16l97.5 -110.5t109.5 -124t116.5 -131t118 -134t114.5 -131t109.5 -123t98.5 -110.5q6 -8 15.5 -17.5t17.5 -9.5q16 0 16 31q0 63 1 147t1 178t-1 186.5t-5 170.5 q-2 55 -42 82.5t-110 46.5q-23 4 -39 14t-16 29q0 14 16.5 21t34.5 7q47 0 80 -1t59.5 -1h59.5q41 0 69.5 1t62.5 3t87 2q25 0 38 -8t13 -22q0 -31 -53 -41q-72 -14 -102.5 -41t-32.5 -86q0 -74 -1 -158t-5 -172t-7 -175t-5.5 -167t-2.5 -147q0 -47 6.5 -103.5t11.5 -102.5 t5 -65q0 -51 -15 -71.5t-42 -20.5t-86.5 32t-122.5 111q-49 51 -102.5 110.5t-113 123t-120 129t-119.5 130.5t-118.5 128t-113 122.5t-102.5 110.5q-4 8 -13 15.5t-13 7.5q-8 0 -11.5 -14.5t-3.5 -24.5q-2 -94 0 -221t5 -257t3 -237q0 -66 41 -103.5t121 -57.5 q23 -4 40.5 -13.5t17.5 -27.5q0 -14 -16.5 -22.5t-35.5 -8.5q-55 0 -89.5 3t-64.5 4t-73 1q-45 0 -85 -2t-67.5 -4t-37.5 -2q-14 0 -32 7t-18 22q0 18 16.5 26t37.5 17q49 18 74.5 61t29.5 106q8 76 17.5 201t17.5 281.5t8 324.5q0 106 -54 153.5t-132 76.5q-16 4 -37 15 t-21 30zM549 1448q0 12 18.5 45t46 69.5t54.5 64.5t41 28q39 0 83 -3t87 -5q39 -2 82 -4.5t90 -2.5q23 0 40 12.5t32 26.5q16 16 25.5 30.5t15.5 14.5q12 0 29.5 -13t17.5 -25q0 -6 -9.5 -20.5t-27.5 -37.5q-23 -33 -43.5 -64.5t-38.5 -58.5q-12 -18 -30.5 -23t-32.5 -5 q-16 0 -63.5 3t-104 7t-105.5 8t-70 4q-16 0 -32.5 -12t-28.5 -27q-12 -16 -22.5 -30.5t-14.5 -14.5q-10 0 -24.5 13.5t-14.5 19.5z" />
<glyph unicode="&#xd2;" horiz-adv-x="1556" d="M59 645q0 139 46.5 267t138.5 228.5t228 160t314 59.5q143 0 271.5 -48t226.5 -137.5t155.5 -213t57.5 -275.5q0 -137 -47 -266t-139 -229.5t-228.5 -160t-314.5 -59.5q-141 0 -269 48.5t-227.5 137.5t-156 213t-56.5 275zM397 752q0 -127 24.5 -249t74 -220.5 t126.5 -157.5t183 -59q117 0 195.5 65.5t117.5 182t39 268.5q0 125 -23.5 246.5t-73.5 220t-128 157t-184 58.5q-115 0 -194 -65.5t-118 -180.5t-39 -266zM432 1661q4 -20 39 -45q78 -51 168 -102.5t170 -100.5q18 -10 32.5 -14t18.5 -2q25 4 24 18q0 14 -22 43 q-51 68 -103.5 131.5t-111.5 124.5q-27 29 -70 25q-16 -2 -52 -14.5t-66.5 -29t-26.5 -34.5z" />
<glyph unicode="&#xd3;" horiz-adv-x="1556" d="M59 645q0 139 46.5 267t138.5 228.5t228 160t314 59.5q143 0 271.5 -48t226.5 -137.5t155.5 -213t57.5 -275.5q0 -137 -47 -266t-139 -229.5t-228.5 -160t-314.5 -59.5q-141 0 -269 48.5t-227.5 137.5t-156 213t-56.5 275zM397 752q0 -127 24.5 -249t74 -220.5 t126.5 -157.5t183 -59q117 0 195.5 65.5t117.5 182t39 268.5q0 125 -23.5 246.5t-73.5 220t-128 157t-184 58.5q-115 0 -194 -65.5t-118 -180.5t-39 -266zM680 1415q0 14 22 43q51 68 103.5 131.5t111.5 124.5q27 29 70 25q16 -2 52 -14.5t66.5 -29t26.5 -34.5 q-4 -20 -39 -45q-78 -51 -168 -102.5t-170 -100.5q-18 -10 -32.5 -14t-18.5 -2q-25 4 -24 18z" />
<glyph unicode="&#xd4;" horiz-adv-x="1556" d="M59 645q0 139 46.5 267t138.5 228.5t228 160t314 59.5q143 0 271.5 -48t226.5 -137.5t155.5 -213t57.5 -275.5q0 -137 -47 -266t-139 -229.5t-228.5 -160t-314.5 -59.5q-141 0 -269 48.5t-227.5 137.5t-156 213t-56.5 275zM397 752q0 -127 24.5 -249t74 -220.5 t126.5 -157.5t183 -59q117 0 195.5 65.5t117.5 182t39 268.5q0 125 -23.5 246.5t-73.5 220t-128 157t-184 58.5q-115 0 -194 -65.5t-118 -180.5t-39 -266zM469 1444q0 18 17 31l215 192q35 33 55 46t47 13q29 0 49.5 -13t54.5 -46l213 -190q14 -12 15 -33q0 -27 -33 -27 q-14 0 -48 10.5t-77 26.5t-83 33.5t-66 32.5q-14 8 -24.5 8t-25.5 -8q-25 -14 -64.5 -30.5t-82.5 -33t-77 -27t-46 -10.5q-39 0 -39 25z" />
<glyph unicode="&#xd5;" horiz-adv-x="1556" d="M59 645q0 139 46.5 267t138.5 228.5t228 160t314 59.5q143 0 271.5 -48t226.5 -137.5t155.5 -213t57.5 -275.5q0 -137 -47 -266t-139 -229.5t-228.5 -160t-314.5 -59.5q-141 0 -269 48.5t-227.5 137.5t-156 213t-56.5 275zM397 752q0 -127 24.5 -249t74 -220.5 t126.5 -157.5t183 -59q117 0 195.5 65.5t117.5 182t39 268.5q0 125 -23.5 246.5t-73.5 220t-128 157t-184 58.5q-115 0 -194 -65.5t-118 -180.5t-39 -266zM481 1448q0 12 18.5 45t46 69.5t54.5 64.5t41 28q39 0 83 -3t87 -5q39 -2 82 -4.5t90 -2.5q23 0 40 12.5t32 26.5 q16 16 25.5 30.5t15.5 14.5q12 0 29.5 -13t17.5 -25q0 -6 -9.5 -20.5t-27.5 -37.5q-23 -33 -43.5 -64.5t-38.5 -58.5q-12 -18 -30.5 -23t-32.5 -5q-16 0 -63.5 3t-104 7t-105.5 8t-70 4q-16 0 -32.5 -12t-28.5 -27q-12 -16 -22.5 -30.5t-14.5 -14.5q-10 0 -24.5 13.5 t-14.5 19.5z" />
<glyph unicode="&#xd6;" horiz-adv-x="1556" d="M59 645q0 139 46.5 267t138.5 228.5t228 160t314 59.5q143 0 271.5 -48t226.5 -137.5t155.5 -213t57.5 -275.5q0 -137 -47 -266t-139 -229.5t-228.5 -160t-314.5 -59.5q-141 0 -269 48.5t-227.5 137.5t-156 213t-56.5 275zM397 752q0 -127 24.5 -249t74 -220.5 t126.5 -157.5t183 -59q117 0 195.5 65.5t117.5 182t39 268.5q0 125 -23.5 246.5t-73.5 220t-128 157t-184 58.5q-115 0 -194 -65.5t-118 -180.5t-39 -266zM453 1554q0 63 44 105.5t103 42.5q63 0 107.5 -42t44.5 -106q0 -59 -44.5 -102t-107.5 -43q-59 0 -103 43t-44 102z M858 1554q0 63 43 105.5t103 42.5q66 0 109.5 -42t43.5 -106q0 -59 -43.5 -102t-109.5 -43q-59 0 -102.5 43t-43.5 102z" />
<glyph unicode="&#xd7;" horiz-adv-x="1103" d="M162 834q0 25 14 50t25 36q8 8 21.5 7t21.5 -12l288 -290q10 -8 17.5 -9.5t15.5 9.5l291 290q12 12 27 13q12 0 18 -8q10 -14 24.5 -38t14.5 -46q0 -16 -12 -31l-273 -273q-14 -16 0 -32l277 -271q12 -14 12 -36q0 -23 -15 -56t-38 -33q-18 0 -35 17l-291 289 q-16 18 -35 0l-276 -281q-8 -8 -19.5 -12t-19.5 -2q-14 0 -31.5 28.5t-17.5 59.5q0 23 12 35l262 260q12 12 12.5 19t-12.5 18l-268 270q-10 12 -10 29z" />
<glyph unicode="&#xd8;" horiz-adv-x="1560" d="M59 645q0 139 46.5 267t138.5 228.5t228 160t314 59.5q143 0 271.5 -48t226.5 -137.5t155.5 -213t57.5 -275.5q0 -137 -47 -266t-139 -229.5t-228.5 -160t-314.5 -59.5q-141 0 -269 48.5t-227.5 137.5t-156 213t-56.5 275zM61 41q0 39 33 70l1315 1232q16 20 45 16.5 t35 -28.5q4 -12 8 -25.5t4 -27.5q0 -16 -5 -32.5t-19 -31.5l-1289 -1230q-6 -4 -12 -8.5t-18 -4.5q-37 0 -67 22.5t-30 47.5zM397 752q0 -127 24.5 -249t74 -220.5t126.5 -157.5t183 -59q117 0 195.5 65.5t117.5 182t39 268.5q0 125 -23.5 246.5t-73.5 220t-128 157 t-184 58.5q-115 0 -194 -65.5t-118 -180.5t-39 -266z" />
<glyph unicode="&#xd9;" horiz-adv-x="1525" d="M23 1311q0 14 15 22t38 8q66 0 135.5 -5t130.5 -5q57 0 138 4t138 4q25 0 40.5 -7t15.5 -23q0 -23 -31 -33t-65 -27q-31 -12 -53.5 -50t-22.5 -107v-537q0 -139 45 -229t119.5 -133t167.5 -43q186 0 277 110.5t91 337.5q0 53 1 119.5t1 137.5t-2 134q-2 92 -13 143.5 t-33.5 80t-61.5 47.5q-23 12 -52.5 21t-29.5 28q0 16 16 22t45 6q74 0 112 -2t85 -2q39 0 64.5 2t53 4t66.5 2q25 0 39 -6t14 -24q0 -27 -55 -43q-68 -18 -95.5 -62.5t-31.5 -118.5q-6 -156 -8 -285.5t-2 -264.5q-2 -166 -75 -294t-197.5 -200t-278.5 -72q-193 0 -322 69 t-193.5 191.5t-64.5 286.5v584q0 57 -26.5 104t-77.5 60q-57 16 -57 45zM461 1661q4 -20 39 -45q78 -51 168 -102.5t170 -100.5q18 -10 32.5 -14t18.5 -2q25 4 24 18q0 14 -22 43q-51 68 -103.5 131.5t-111.5 124.5q-27 29 -70 25q-16 -2 -52 -14.5t-66.5 -29t-26.5 -34.5z " />
<glyph unicode="&#xda;" horiz-adv-x="1525" d="M23 1311q0 14 15 22t38 8q66 0 135.5 -5t130.5 -5q57 0 138 4t138 4q25 0 40.5 -7t15.5 -23q0 -23 -31 -33t-65 -27q-31 -12 -53.5 -50t-22.5 -107v-537q0 -139 45 -229t119.5 -133t167.5 -43q186 0 277 110.5t91 337.5q0 53 1 119.5t1 137.5t-2 134q-2 92 -13 143.5 t-33.5 80t-61.5 47.5q-23 12 -52.5 21t-29.5 28q0 16 16 22t45 6q74 0 112 -2t85 -2q39 0 64.5 2t53 4t66.5 2q25 0 39 -6t14 -24q0 -27 -55 -43q-68 -18 -95.5 -62.5t-31.5 -118.5q-6 -156 -8 -285.5t-2 -264.5q-2 -166 -75 -294t-197.5 -200t-278.5 -72q-193 0 -322 69 t-193.5 191.5t-64.5 286.5v584q0 57 -26.5 104t-77.5 60q-57 16 -57 45zM711 1415q0 14 22 43q51 68 103.5 131.5t111.5 124.5q27 29 70 25q16 -2 52 -14.5t66.5 -29t26.5 -34.5q-4 -20 -39 -45q-78 -51 -168 -102.5t-170 -100.5q-18 -10 -32.5 -14t-18.5 -2q-25 4 -24 18z " />
<glyph unicode="&#xdb;" horiz-adv-x="1525" d="M23 1311q0 14 15 22t38 8q66 0 135.5 -5t130.5 -5q57 0 138 4t138 4q25 0 40.5 -7t15.5 -23q0 -23 -31 -33t-65 -27q-31 -12 -53.5 -50t-22.5 -107v-537q0 -139 45 -229t119.5 -133t167.5 -43q186 0 277 110.5t91 337.5q0 53 1 119.5t1 137.5t-2 134q-2 92 -13 143.5 t-33.5 80t-61.5 47.5q-23 12 -52.5 21t-29.5 28q0 16 16 22t45 6q74 0 112 -2t85 -2q39 0 64.5 2t53 4t66.5 2q25 0 39 -6t14 -24q0 -27 -55 -43q-68 -18 -95.5 -62.5t-31.5 -118.5q-6 -156 -8 -285.5t-2 -264.5q-2 -166 -75 -294t-197.5 -200t-278.5 -72q-193 0 -322 69 t-193.5 191.5t-64.5 286.5v584q0 57 -26.5 104t-77.5 60q-57 16 -57 45zM497 1444q0 18 17 31l215 192q35 33 55 46t47 13q29 0 49.5 -13t54.5 -46l213 -190q14 -12 15 -33q0 -27 -33 -27q-14 0 -48 10.5t-77 26.5t-83 33.5t-66 32.5q-14 8 -24.5 8t-25.5 -8 q-25 -14 -64.5 -30.5t-82.5 -33t-77 -27t-46 -10.5q-39 0 -39 25z" />
<glyph unicode="&#xdc;" horiz-adv-x="1525" d="M23 1311q0 14 15 22t38 8q66 0 135.5 -5t130.5 -5q57 0 138 4t138 4q25 0 40.5 -7t15.5 -23q0 -23 -31 -33t-65 -27q-31 -12 -53.5 -50t-22.5 -107v-537q0 -139 45 -229t119.5 -133t167.5 -43q186 0 277 110.5t91 337.5q0 53 1 119.5t1 137.5t-2 134q-2 92 -13 143.5 t-33.5 80t-61.5 47.5q-23 12 -52.5 21t-29.5 28q0 16 16 22t45 6q74 0 112 -2t85 -2q39 0 64.5 2t53 4t66.5 2q25 0 39 -6t14 -24q0 -27 -55 -43q-68 -18 -95.5 -62.5t-31.5 -118.5q-6 -156 -8 -285.5t-2 -264.5q-2 -166 -75 -294t-197.5 -200t-278.5 -72q-193 0 -322 69 t-193.5 191.5t-64.5 286.5v584q0 57 -26.5 104t-77.5 60q-57 16 -57 45zM482 1554q0 63 44 105.5t103 42.5q63 0 107.5 -42t44.5 -106q0 -59 -44.5 -102t-107.5 -43q-59 0 -103 43t-44 102zM887 1554q0 63 43 105.5t103 42.5q66 0 109.5 -42t43.5 -106q0 -59 -43.5 -102 t-109.5 -43q-59 0 -102.5 43t-43.5 102z" />
<glyph unicode="&#xdd;" horiz-adv-x="1339" d="M0 1311q0 14 13.5 21t29.5 7q86 0 165 -6t167 -6q68 0 128 6t128 6q18 0 36.5 -7t18.5 -21q0 -16 -18.5 -27.5t-40.5 -15.5q-55 -14 -80 -29.5t-25 -48.5q0 -31 23 -72l211 -362q18 -37 37 -37q8 0 17 9t19 28q49 84 93.5 167t87.5 177q10 20 17 42.5t7 41.5 q0 39 -35.5 59.5t-74.5 22.5q-20 4 -42 15t-22 30q0 14 19.5 20t40.5 6q59 0 106 -4t102 -4q53 0 102.5 7t106.5 7q23 0 42.5 -6t19.5 -26q0 -18 -20.5 -26.5t-43.5 -16.5q-61 -14 -104 -51t-74 -89q-33 -53 -64.5 -103t-61.5 -99t-60.5 -98.5t-61.5 -102.5 q-16 -29 -29.5 -59.5t-20.5 -63.5t-7 -76v-301q0 -76 30.5 -107.5t110.5 -54.5q25 -6 42.5 -14t17.5 -26q0 -14 -15.5 -23.5t-38.5 -9.5q-45 0 -100 4t-109.5 7t-95.5 3q-43 0 -94 -3t-104.5 -8t-100.5 -5q-27 0 -43 9t-16 23q0 18 18.5 28.5t42.5 14.5q78 16 109 56.5 t31 105.5v283q0 72 -19.5 119t-44.5 88l-264 407q-16 29 -39 57.5t-52.5 52t-68.5 34.5q-20 8 -34.5 16t-14.5 29zM641 1415q0 14 22 43q51 68 103.5 131.5t111.5 124.5q27 29 70 25q16 -2 52 -14.5t66.5 -29t26.5 -34.5q-4 -20 -39 -45q-78 -51 -168 -102.5t-170 -100.5 q-18 -10 -32.5 -14t-18.5 -2q-25 4 -24 18z" />
<glyph unicode="&#xde;" horiz-adv-x="1208" d="M33 23q0 33 45 43q78 16 108.5 41.5t30.5 91.5v929q0 63 -25.5 92t-105.5 48q-45 10 -45 43q0 14 13.5 22t27.5 8q47 0 99 -2t101.5 -5t90.5 -3t94 2t108.5 4t100.5 2q18 0 28.5 -7t10.5 -21q0 -20 -11.5 -28.5t-33.5 -14.5q-78 -23 -105.5 -46.5t-32.5 -76.5v-23 q0 -6 2.5 -12t10.5 -6q4 0 16 3t23.5 6t7.5 3q37 10 77 13.5t81 3.5q111 0 205 -46.5t150 -138.5t56 -233q0 -145 -72.5 -246.5t-194.5 -154t-265 -52.5q-20 0 -43 3t-37 3q-16 0 -17 -18v-49q0 -59 30 -87t108 -48q23 -6 34 -14.5t11 -26.5q0 -14 -9.5 -22.5t-27.5 -8.5 q-45 0 -100.5 3t-108.5 5t-96 2q-41 0 -93.5 -2t-105.5 -5t-100 -3q-14 0 -27.5 7t-13.5 22zM532 479q0 -86 27.5 -110.5t52.5 -24.5q125 0 180.5 90t55.5 252q0 109 -22.5 188.5t-65.5 123.5t-103 44q-39 0 -67.5 -13t-43 -47t-14.5 -95v-408z" />
<glyph unicode="&#xdf;" horiz-adv-x="1187" d="M33 791q0 14 18 20q29 10 58.5 20.5t58.5 26.5q8 164 60.5 276.5t131 181t171 99.5t178.5 31t152.5 -32t106.5 -84t40 -111q0 -90 -32 -144.5t-75 -101.5q-35 -39 -57.5 -83t-22.5 -122q0 -31 19.5 -60.5t53.5 -59.5t75 -68q49 -39 88 -80t62.5 -85t23.5 -96 q0 -74 -34 -136t-87 -110t-111.5 -75t-103.5 -27q-98 0 -148.5 36t-50.5 89q0 37 17.5 79t52.5 42q16 0 31.5 -10t40.5 -39q29 -33 57.5 -53.5t75.5 -20.5q29 0 60.5 20.5t31.5 63.5q0 39 -24.5 77t-67.5 76t-95 81q-55 49 -100 92t-72.5 86t-27.5 94q0 49 25.5 85 t62.5 66.5t74 65.5q45 43 73.5 96.5t28.5 120.5q0 106 -48 175t-147 69q-109 0 -165 -90t-56 -305v-815q0 -41 31 -59.5t76 -29.5q16 -4 28.5 -14t12.5 -26q0 -12 -12.5 -20.5t-24.5 -8.5q-39 0 -82 3t-82 5t-76 2q-35 0 -70.5 -2t-73.5 -5t-79 -3q-10 0 -25.5 7t-15.5 22 q0 16 15.5 25t31.5 15q31 10 54.5 24.5t23.5 57.5v582q-20 0 -47 1t-60 3q-12 2 -20 23.5t-8 36.5z" />
<glyph unicode="&#xe0;" horiz-adv-x="897" d="M59 162q0 70 44 117t130 83l183 80q41 18 50 32.5t9 53.5l2 117q2 57 -20.5 91t-67.5 34q-27 0 -53.5 -11t-40.5 -26q-6 -8 -9 -19.5t-3 -23.5t2 -29.5t2 -29.5t-33 -31.5t-76 -35t-74 -15.5q-14 0 -25 12t-11 31q0 33 22.5 64.5t73.5 72.5q53 45 116.5 80t126 55.5 t105.5 20.5q111 0 176.5 -71t61.5 -187l-11 -414q-2 -47 16.5 -80t45.5 -33q39 0 67 27q6 6 13 6q10 0 17 -6t7 -16q0 -25 -37 -64q-39 -37 -82 -56.5t-90 -19.5q-115 0 -190 117h-4q-68 -61 -122.5 -89t-115.5 -28q-55 0 -102 27t-75 70t-28 94zM197 1298q0 -10 4 -23 t16 -28q39 -43 83 -94t88 -100t89 -92q33 -33 56 -33q20 0 20 24q0 8 -2 19.5t-8 23.5q-16 39 -42 98.5t-51.5 116t-39.5 86.5q-16 31 -38 41.5t-54 10.5q-49 0 -85 -12.5t-36 -37.5zM311 207q0 -59 24.5 -81t51.5 -22q23 0 37 7.5t29 23.5q6 8 10 21.5t4 31.5l6 148 q0 20 -6 26.5t-14 6.5q-4 0 -10.5 -2t-14.5 -7q-59 -29 -88 -58.5t-29 -94.5z" />
<glyph unicode="&#xe1;" horiz-adv-x="897" d="M59 162q0 70 44 117t130 83l183 80q41 18 50 32.5t9 53.5l2 117q2 57 -20.5 91t-67.5 34q-27 0 -53.5 -11t-40.5 -26q-6 -8 -9 -19.5t-3 -23.5t2 -29.5t2 -29.5t-33 -31.5t-76 -35t-74 -15.5q-14 0 -25 12t-11 31q0 33 22.5 64.5t73.5 72.5q53 45 116.5 80t126 55.5 t105.5 20.5q111 0 176.5 -71t61.5 -187l-11 -414q-2 -47 16.5 -80t45.5 -33q39 0 67 27q6 6 13 6q10 0 17 -6t7 -16q0 -25 -37 -64q-39 -37 -82 -56.5t-90 -19.5q-115 0 -190 117h-4q-68 -61 -122.5 -89t-115.5 -28q-55 0 -102 27t-75 70t-28 94zM311 207q0 -59 24.5 -81 t51.5 -22q23 0 37 7.5t29 23.5q6 8 10 21.5t4 31.5l6 148q0 20 -6 26.5t-14 6.5q-4 0 -10.5 -2t-14.5 -7q-59 -29 -88 -58.5t-29 -94.5zM379 952q0 8 2 19.5t8 23.5q16 39 42 98.5t51.5 116t39.5 86.5q16 31 38 41.5t54 10.5q49 0 85 -12.5t36 -37.5q0 -10 -4 -23t-16 -28 q-39 -43 -83 -94t-88 -100t-89 -92q-33 -33 -56 -33q-20 0 -20 24z" />
<glyph unicode="&#xe2;" horiz-adv-x="897" d="M59 162q0 70 44 117t130 83l183 80q41 18 50 32.5t9 53.5l2 117q2 57 -20.5 91t-67.5 34q-27 0 -53.5 -11t-40.5 -26q-6 -8 -9 -19.5t-3 -23.5t2 -29.5t2 -29.5t-33 -31.5t-76 -35t-74 -15.5q-14 0 -25 12t-11 31q0 33 22.5 64.5t73.5 72.5q53 45 116.5 80t126 55.5 t105.5 20.5q111 0 176.5 -71t61.5 -187l-11 -414q-2 -47 16.5 -80t45.5 -33q39 0 67 27q6 6 13 6q10 0 17 -6t7 -16q0 -25 -37 -64q-39 -37 -82 -56.5t-90 -19.5q-115 0 -190 117h-4q-68 -61 -122.5 -89t-115.5 -28q-55 0 -102 27t-75 70t-28 94zM207 955.5 q4 -23.5 33 -23.5q16 0 36.5 17.5t47.5 47.5q23 25 53.5 62t67.5 78q10 6 13 6t9 -6q39 -41 71 -78t52 -62q27 -31 48.5 -48t33.5 -17q20 0 28.5 22.5t-7.5 57.5q-14 31 -35 67.5t-43.5 73.5t-45 75t-40.5 70q-20 35 -36 55.5t-36 20.5q-18 0 -33.5 -19.5t-40.5 -60.5 q-18 -33 -40.5 -68.5t-45 -73.5t-42 -74t-36.5 -66q-16 -33 -12 -56.5zM311 207q0 -59 24.5 -81t51.5 -22q23 0 37 7.5t29 23.5q6 8 10 21.5t4 31.5l6 148q0 20 -6 26.5t-14 6.5q-4 0 -10.5 -2t-14.5 -7q-59 -29 -88 -58.5t-29 -94.5z" />
<glyph unicode="&#xe3;" horiz-adv-x="897" d="M59 162q0 70 44 117t130 83l183 80q41 18 50 32.5t9 53.5l2 117q2 57 -20.5 91t-67.5 34q-27 0 -53.5 -11t-40.5 -26q-6 -8 -9 -19.5t-3 -23.5t2 -29.5t2 -29.5t-33 -31.5t-76 -35t-74 -15.5q-14 0 -25 12t-11 31q0 33 22.5 64.5t73.5 72.5q53 45 116.5 80t126 55.5 t105.5 20.5q111 0 176.5 -71t61.5 -187l-11 -414q-2 -47 16.5 -80t45.5 -33q39 0 67 27q6 6 13 6q10 0 17 -6t7 -16q0 -25 -37 -64q-39 -37 -82 -56.5t-90 -19.5q-115 0 -190 117h-4q-68 -61 -122.5 -89t-115.5 -28q-55 0 -102 27t-75 70t-28 94zM150 991q0 12 24.5 48 t58.5 78t65.5 74t45.5 32q23 0 50.5 -6.5t89.5 -10.5q45 -2 81.5 -5t57.5 -3q18 0 37.5 10.5t34.5 30.5q23 25 32 38t17 13q12 0 29.5 -13t17.5 -26q0 -8 -12.5 -23.5t-32.5 -41.5q-23 -31 -45.5 -68t-42.5 -65q-12 -16 -31.5 -22.5t-32.5 -6.5q-16 0 -57 3t-88 6t-90 6 t-62 3q-16 0 -26.5 -7t-20.5 -19q-25 -33 -36 -48.5t-19 -15.5q-10 0 -27.5 15.5t-17.5 23.5zM311 207q0 -59 24.5 -81t51.5 -22q23 0 37 7.5t29 23.5q6 8 10 21.5t4 31.5l6 148q0 20 -6 26.5t-14 6.5q-4 0 -10.5 -2t-14.5 -7q-59 -29 -88 -58.5t-29 -94.5z" />
<glyph unicode="&#xe4;" horiz-adv-x="897" d="M59 162q0 70 44 117t130 83l183 80q41 18 50 32.5t9 53.5l2 117q2 57 -20.5 91t-67.5 34q-27 0 -53.5 -11t-40.5 -26q-6 -8 -9 -19.5t-3 -23.5t2 -29.5t2 -29.5t-33 -31.5t-76 -35t-74 -15.5q-14 0 -25 12t-11 31q0 33 22.5 64.5t73.5 72.5q53 45 116.5 80t126 55.5 t105.5 20.5q111 0 176.5 -71t61.5 -187l-11 -414q-2 -47 16.5 -80t45.5 -33q39 0 67 27q6 6 13 6q10 0 17 -6t7 -16q0 -25 -37 -64q-39 -37 -82 -56.5t-90 -19.5q-115 0 -190 117h-4q-68 -61 -122.5 -89t-115.5 -28q-55 0 -102 27t-75 70t-28 94zM104 1157q0 61 43 104 t102 43q66 0 110 -43t44 -104q0 -59 -44 -102t-110 -43q-59 0 -102 43t-43 102zM311 207q0 -59 24.5 -81t51.5 -22q23 0 37 7.5t29 23.5q6 8 10 21.5t4 31.5l6 148q0 20 -6 26.5t-14 6.5q-4 0 -10.5 -2t-14.5 -7q-59 -29 -88 -58.5t-29 -94.5zM501 1157q0 61 44 104t104 43 q63 0 107 -43t44 -104q0 -59 -44 -102t-107 -43q-59 0 -103.5 43t-44.5 102z" />
<glyph unicode="&#xe5;" horiz-adv-x="897" d="M59 162q0 70 44 117t130 83l183 80q41 18 50 32.5t9 53.5l2 117q2 57 -20.5 91t-67.5 34q-27 0 -53.5 -11t-40.5 -26q-6 -8 -9 -19.5t-3 -23.5t2 -29.5t2 -29.5t-33 -31.5t-76 -35t-74 -15.5q-14 0 -25 12t-11 31q0 33 22.5 64.5t73.5 72.5q53 45 116.5 80t126 55.5 t105.5 20.5q111 0 176.5 -71t61.5 -187l-11 -414q-2 -47 16.5 -80t45.5 -33q39 0 67 27q6 6 13 6q10 0 17 -6t7 -16q0 -25 -37 -64q-39 -37 -82 -56.5t-90 -19.5q-115 0 -190 117h-4q-68 -61 -122.5 -89t-115.5 -28q-55 0 -102 27t-75 70t-28 94zM236 1176q0 59 31.5 105 t84 72.5t111.5 26.5q82 0 144.5 -50t62.5 -136q0 -63 -31.5 -111.5t-84 -74t-111.5 -25.5q-82 0 -144.5 51t-62.5 142zM311 207q0 -59 24.5 -81t51.5 -22q23 0 37 7.5t29 23.5q6 8 10 21.5t4 31.5l6 148q0 20 -6 26.5t-14 6.5q-4 0 -10.5 -2t-14.5 -7q-59 -29 -88 -58.5 t-29 -94.5zM359 1180q0 -49 29.5 -86t74.5 -37q41 0 62.5 38t21.5 83q0 51 -28.5 86.5t-73.5 35.5q-43 0 -64.5 -35.5t-21.5 -84.5z" />
<glyph unicode="&#xe6;" horiz-adv-x="1275" d="M59 158q0 72 43 122t131 82l183 70q41 18 51 32.5t10 51.5l2 125q2 57 -20.5 91t-69.5 34q-27 0 -55.5 -14.5t-40.5 -28.5q-8 -14 -8 -39q0 -12 1 -26.5t1 -26.5q0 -16 -35 -34.5t-78 -33t-70 -14.5q-14 0 -24 12t-10 31q0 66 94 141q37 31 94 67t122.5 61.5t125.5 25.5 q49 0 89 -15.5t75 -46.5q8 -6 14 -6q8 0 16 6q45 27 96.5 44.5t118.5 17.5q88 0 159 -31t113 -85t42 -126q0 -33 -13.5 -49t-35.5 -21q-14 -4 -67.5 -20t-123 -36.5t-132 -41t-91.5 -31.5q-8 -2 -15.5 -12t-7.5 -24v-58q0 -47 27 -90t73 -70.5t101 -27.5q57 0 117.5 25.5 t105.5 82.5q10 12 27 13q23 0 23 -27q0 -8 -2.5 -21.5t-8.5 -23.5q-59 -109 -144 -175.5t-239 -66.5q-82 0 -149.5 26t-128.5 83q-4 4 -9.5 8t-9.5 4q-8 0 -16 -8q-31 -31 -61.5 -56.5t-73 -41t-101.5 -15.5q-57 0 -106 26t-79 69t-30 92zM311 207q0 -59 25.5 -81t50.5 -22 q23 0 38 8.5t28 22.5q8 10 14 23.5t6 31.5v125q0 18 -2 27.5t-10 9.5t-23 -6q-37 -14 -64.5 -34.5t-45 -45t-17.5 -59.5zM748 563q0 -10 6 -14t14 -2q55 16 107.5 30.5t115.5 34.5q18 4 23.5 16.5t5.5 30.5q0 57 -29.5 99.5t-97.5 42.5q-35 0 -67.5 -16.5t-54 -44 t-21.5 -66.5z" />
<glyph unicode="&#xe7;" horiz-adv-x="841" d="M49 412q0 133 61.5 239.5t165 170t230.5 63.5q168 0 278 -111q18 -20 19 -37q0 -12 -18.5 -35.5t-41 -42t-38.5 -18.5q-18 0 -36 11.5t-34 25.5q-53 45 -107.5 72.5t-93.5 27.5q-78 0 -118 -64.5t-40 -209.5q0 -100 32 -173t91.5 -112t143.5 -39q61 0 106 19.5t94 60.5 q10 6 17.5 12.5t17.5 6.5q25 0 25 -33q0 -8 -3 -23.5t-14 -34.5q-18 -41 -70 -92t-124 -88t-160 -37q-109 0 -195.5 58.5t-137 158t-50.5 224.5zM236 -463q0 29 9 39t26 10q25 0 56.5 -16t80.5 -16q31 0 45 21.5t14 59.5q0 43 -37 66t-77 23q-27 0 -40.5 -10.5t-27.5 -10.5 q-12 0 -28.5 13.5t-16.5 35.5q0 18 29 51l184 213h90l-74 -88q-10 -14 -10 -20q0 -10 25 -23q51 -23 81.5 -63.5t30.5 -108.5q0 -53 -27.5 -102t-68.5 -88t-87 -61.5t-87 -22.5q-45 0 -67.5 18.5t-22.5 79.5z" />
<glyph unicode="&#xe8;" horiz-adv-x="854" d="M47 420q0 129 59.5 234.5t162 168t225.5 62.5q88 0 157.5 -38t111.5 -101.5t42 -143.5q0 -78 -64 -78h-409q-29 0 -42.5 -16t-13.5 -55q0 -78 35 -142.5t94.5 -101.5t137.5 -37q59 0 109 22.5t100 61.5q8 6 15 11t13 5q20 0 21 -26q0 -23 -17 -62q-20 -51 -68 -101 t-120 -81t-164 -31q-111 0 -198 58.5t-137 160t-50 230.5zM221 1298q0 -10 4 -23t16 -28q39 -43 83 -94t88 -100t89 -92q33 -33 56 -33q20 0 20 24q0 8 -2 19.5t-8 23.5q-16 39 -42 98.5t-51.5 116t-39.5 86.5q-16 31 -38 41.5t-54 10.5q-49 0 -85 -12.5t-36 -37.5zM303 639 q0 -29 29 -29h123q57 0 79.5 2t40.5 9q10 4 16.5 20t6.5 37q0 55 -38 90t-93 35q-43 0 -81 -23.5t-61.5 -61.5t-21.5 -79z" />
<glyph unicode="&#xe9;" horiz-adv-x="854" d="M47 420q0 129 59.5 234.5t162 168t225.5 62.5q88 0 157.5 -38t111.5 -101.5t42 -143.5q0 -78 -64 -78h-409q-29 0 -42.5 -16t-13.5 -55q0 -78 35 -142.5t94.5 -101.5t137.5 -37q59 0 109 22.5t100 61.5q8 6 15 11t13 5q20 0 21 -26q0 -23 -17 -62q-20 -51 -68 -101 t-120 -81t-164 -31q-111 0 -198 58.5t-137 160t-50 230.5zM303 639q0 -29 29 -29h123q57 0 79.5 2t40.5 9q10 4 16.5 20t6.5 37q0 55 -38 90t-93 35q-43 0 -81 -23.5t-61.5 -61.5t-21.5 -79zM406 952q0 8 2 19.5t8 23.5q16 39 42 98.5t51.5 116t39.5 86.5q16 31 38 41.5 t54 10.5q49 0 85 -12.5t36 -37.5q0 -10 -4 -23t-16 -28q-39 -43 -83 -94t-88 -100t-89 -92q-33 -33 -56 -33q-20 0 -20 24z" />
<glyph unicode="&#xea;" horiz-adv-x="854" d="M47 420q0 129 59.5 234.5t162 168t225.5 62.5q88 0 157.5 -38t111.5 -101.5t42 -143.5q0 -78 -64 -78h-409q-29 0 -42.5 -16t-13.5 -55q0 -78 35 -142.5t94.5 -101.5t137.5 -37q59 0 109 22.5t100 61.5q8 6 15 11t13 5q20 0 21 -26q0 -23 -17 -62q-20 -51 -68 -101 t-120 -81t-164 -31q-111 0 -198 58.5t-137 160t-50 230.5zM233 955.5q4 -23.5 33 -23.5q16 0 36.5 17.5t47.5 47.5q23 25 53.5 62t67.5 78q10 6 13 6t9 -6q39 -41 71 -78t52 -62q27 -31 48.5 -48t33.5 -17q20 0 28.5 22.5t-7.5 57.5q-14 31 -35 67.5t-43.5 73.5t-45 75 t-40.5 70q-20 35 -36 55.5t-36 20.5q-18 0 -33.5 -19.5t-40.5 -60.5q-18 -33 -40.5 -68.5t-45 -73.5t-42 -74t-36.5 -66q-16 -33 -12 -56.5zM303 639q0 -29 29 -29h123q57 0 79.5 2t40.5 9q10 4 16.5 20t6.5 37q0 55 -38 90t-93 35q-43 0 -81 -23.5t-61.5 -61.5t-21.5 -79z " />
<glyph unicode="&#xeb;" horiz-adv-x="854" d="M47 420q0 129 59.5 234.5t162 168t225.5 62.5q88 0 157.5 -38t111.5 -101.5t42 -143.5q0 -78 -64 -78h-409q-29 0 -42.5 -16t-13.5 -55q0 -78 35 -142.5t94.5 -101.5t137.5 -37q59 0 109 22.5t100 61.5q8 6 15 11t13 5q20 0 21 -26q0 -23 -17 -62q-20 -51 -68 -101 t-120 -81t-164 -31q-111 0 -198 58.5t-137 160t-50 230.5zM129 1157q0 61 43 104t102 43q66 0 110 -43t44 -104q0 -59 -44 -102t-110 -43q-59 0 -102 43t-43 102zM303 639q0 -29 29 -29h123q57 0 79.5 2t40.5 9q10 4 16.5 20t6.5 37q0 55 -38 90t-93 35q-43 0 -81 -23.5 t-61.5 -61.5t-21.5 -79zM526 1157q0 61 44 104t104 43q63 0 107 -43t44 -104q0 -59 -44 -102t-107 -43q-59 0 -103.5 43t-44.5 102z" />
<glyph unicode="&#xec;" horiz-adv-x="604" d="M41 1298q0 -10 4 -23t16 -28q39 -43 83 -94t88 -100t89 -92q33 -33 56 -33q20 0 20 24q0 8 -2 19.5t-8 23.5q-16 39 -42 98.5t-51.5 116t-39.5 86.5q-16 31 -38 41.5t-54 10.5q-49 0 -85 -12.5t-36 -37.5zM43 20q0 16 10 26.5t27 14.5q53 12 74.5 27.5t21.5 48.5v443 q0 70 -21.5 99.5t-66.5 35.5q-12 2 -18.5 12t-6.5 25q0 31 23 34q106 20 189 57.5t128 57.5q33 16 41 17q27 0 27 -25q-2 -35 -9 -87t-12.5 -107.5t-5.5 -106.5v-453q0 -29 21.5 -45t77.5 -33q16 -6 26.5 -14t10.5 -24q0 -27 -31 -27q-39 0 -82 2t-83 4t-77 2 q-35 0 -72.5 -2t-77.5 -5t-81 -3q-12 0 -22.5 7t-10.5 19z" />
<glyph unicode="&#xed;" horiz-adv-x="604" d="M43 20q0 16 10 26.5t27 14.5q53 12 74.5 27.5t21.5 48.5v443q0 70 -21.5 99.5t-66.5 35.5q-12 2 -18.5 12t-6.5 25q0 31 23 34q106 20 189 57.5t128 57.5q33 16 41 17q27 0 27 -25q-2 -35 -9 -87t-12.5 -107.5t-5.5 -106.5v-453q0 -29 21.5 -45t77.5 -33q16 -6 26.5 -14 t10.5 -24q0 -27 -31 -27q-39 0 -82 2t-83 4t-77 2q-35 0 -72.5 -2t-77.5 -5t-81 -3q-12 0 -22.5 7t-10.5 19zM225 952q0 8 2 19.5t8 23.5q16 39 42 98.5t51.5 116t39.5 86.5q16 31 38 41.5t54 10.5q49 0 85 -12.5t36 -37.5q0 -10 -4 -23t-16 -28q-39 -43 -83 -94t-88 -100 t-89 -92q-33 -33 -56 -33q-20 0 -20 24z" />
<glyph unicode="&#xee;" horiz-adv-x="604" d="M43 20q0 16 10 26.5t27 14.5q53 12 74.5 27.5t21.5 48.5v443q0 70 -21.5 99.5t-66.5 35.5q-12 2 -18.5 12t-6.5 25q0 31 23 34q106 20 189 57.5t128 57.5q33 16 41 17q27 0 27 -25q-2 -35 -9 -87t-12.5 -107.5t-5.5 -106.5v-453q0 -29 21.5 -45t77.5 -33q16 -6 26.5 -14 t10.5 -24q0 -27 -31 -27q-39 0 -82 2t-83 4t-77 2q-35 0 -72.5 -2t-77.5 -5t-81 -3q-12 0 -22.5 7t-10.5 19zM53 955.5q4 -23.5 33 -23.5q16 0 36.5 17.5t47.5 47.5q23 25 53.5 62t67.5 78q10 6 13 6t9 -6q39 -41 71 -78t52 -62q27 -31 48.5 -48t33.5 -17q20 0 28.5 22.5 t-7.5 57.5q-14 31 -35 67.5t-43.5 73.5t-45 75t-40.5 70q-20 35 -36 55.5t-36 20.5q-18 0 -33.5 -19.5t-40.5 -60.5q-18 -33 -40.5 -68.5t-45 -73.5t-42 -74t-36.5 -66q-16 -33 -12 -56.5z" />
<glyph unicode="&#xef;" horiz-adv-x="604" d="M-52 1157q0 61 43 104t102 43q66 0 110 -43t44 -104q0 -59 -44 -102t-110 -43q-59 0 -102 43t-43 102zM43 20q0 16 10 26.5t27 14.5q53 12 74.5 27.5t21.5 48.5v443q0 70 -21.5 99.5t-66.5 35.5q-12 2 -18.5 12t-6.5 25q0 31 23 34q106 20 189 57.5t128 57.5q33 16 41 17 q27 0 27 -25q-2 -35 -9 -87t-12.5 -107.5t-5.5 -106.5v-453q0 -29 21.5 -45t77.5 -33q16 -6 26.5 -14t10.5 -24q0 -27 -31 -27q-39 0 -82 2t-83 4t-77 2q-35 0 -72.5 -2t-77.5 -5t-81 -3q-12 0 -22.5 7t-10.5 19zM345 1157q0 61 44 104t104 43q63 0 107 -43t44 -104 q0 -59 -44 -102t-107 -43q-59 0 -103.5 43t-44.5 102z" />
<glyph unicode="&#xf0;" horiz-adv-x="1052" d="M43 399q0 133 65.5 244t180 177.5t260.5 66.5q18 0 33.5 -3t27.5 -10q6 -2 9.5 -1t1.5 12q-14 51 -36 115.5t-44 105.5l-256 -135q-20 -10 -37 2t-17 24q0 33 10.5 50.5t30.5 29.5l215 109q-55 70 -124.5 117t-157.5 63q-23 4 -46.5 13.5t-23.5 29.5t26.5 26.5t63.5 6.5 q115 0 227.5 -42t211.5 -122l219 117q16 8 38.5 4t22.5 -25q0 -27 -10 -46t-41 -36l-150 -82q72 -76 128.5 -183t88 -236t31.5 -279q0 -90 -31.5 -184.5t-93 -175t-152.5 -131t-210 -50.5q-123 0 -228.5 54.5t-169 151.5t-63.5 222zM330 451q0 -96 28.5 -184.5t76 -144.5 t102.5 -56t91 39.5t56.5 126.5t20.5 231q0 61 -14.5 132t-33.5 114q-33 43 -67.5 61t-79.5 18q-51 0 -92 -41.5t-64.5 -117.5t-23.5 -178z" />
<glyph unicode="&#xf1;" horiz-adv-x="1159" d="M43 23q0 16 14.5 25t32.5 15q31 10 54.5 23.5t23.5 54.5v469q0 45 -13.5 76t-50.5 39q-8 2 -15 10t-7 27q0 29 20 35q70 16 153 43.5t142 58.5q8 4 18.5 10t18.5 6q12 0 15.5 -7t3.5 -17q0 -16 -5.5 -52t-5.5 -65q0 -8 1 -18.5t3 -12.5q70 68 141.5 105t166.5 37 q106 0 179 -79t73 -214v-451q0 -41 23.5 -54t53.5 -24q16 -6 28.5 -15t12.5 -25q0 -14 -11 -21.5t-23 -7.5q-41 0 -77 3t-70 5t-71 2q-35 0 -69.5 -2t-69.5 -5t-76 -3q-12 0 -23 7t-11 22q0 16 12 25t29 15q31 10 51 23.5t20 54.5v408q0 78 -35.5 122t-95.5 46 q-45 0 -80 -14.5t-71 -38.5q-8 -8 -12.5 -18.5t-4.5 -20.5v-484q0 -41 22.5 -54t51.5 -24q41 -12 41 -40q0 -12 -10.5 -20.5t-24.5 -8.5q-41 0 -75.5 3t-65.5 5t-68 2q-35 0 -70.5 -2t-73.5 -5t-79 -3q-14 0 -27.5 7t-13.5 22zM283 991q0 12 24.5 48t58.5 78t65.5 74 t45.5 32q23 0 50.5 -6.5t89.5 -10.5q45 -2 81.5 -5t57.5 -3q18 0 37.5 10.5t34.5 30.5q23 25 32 38t17 13q12 0 29.5 -13t17.5 -26q0 -8 -12.5 -23.5t-32.5 -41.5q-23 -31 -45.5 -68t-42.5 -65q-12 -16 -31.5 -22.5t-32.5 -6.5q-16 0 -57 3t-88 6t-90 6t-62 3 q-16 0 -26.5 -7t-20.5 -19q-25 -33 -36 -48.5t-19 -15.5q-10 0 -27.5 15.5t-17.5 23.5z" />
<glyph unicode="&#xf2;" horiz-adv-x="1030" d="M49 399q0 98 37 186.5t102.5 156t153.5 106.5t188 39q127 0 229.5 -59.5t163 -157t60.5 -211.5q0 -131 -56.5 -243t-166 -178.5t-275.5 -66.5q-123 0 -221 55.5t-156.5 152.5t-58.5 220zM268 1298q0 -10 4 -23t16 -28q39 -43 83 -94t88 -100t89 -92q33 -33 56 -33 q20 0 20 24q0 8 -2 19.5t-8 23.5q-16 39 -42 98.5t-51.5 116t-39.5 86.5q-16 31 -38 41.5t-54 10.5q-49 0 -85 -12.5t-36 -37.5zM332 451q0 -98 25.5 -187.5t69.5 -146t99 -56.5q43 0 75 17.5t52 52.5q25 41 34 111.5t9 167.5q0 111 -24.5 197.5t-68.5 138t-103 51.5 q-33 0 -59.5 -11.5t-47.5 -31.5q-35 -41 -48 -117t-13 -186z" />
<glyph unicode="&#xf3;" horiz-adv-x="1030" d="M49 399q0 98 37 186.5t102.5 156t153.5 106.5t188 39q127 0 229.5 -59.5t163 -157t60.5 -211.5q0 -131 -56.5 -243t-166 -178.5t-275.5 -66.5q-123 0 -221 55.5t-156.5 152.5t-58.5 220zM332 451q0 -98 25.5 -187.5t69.5 -146t99 -56.5q43 0 75 17.5t52 52.5 q25 41 34 111.5t9 167.5q0 111 -24.5 197.5t-68.5 138t-103 51.5q-33 0 -59.5 -11.5t-47.5 -31.5q-35 -41 -48 -117t-13 -186zM453 952q0 8 2 19.5t8 23.5q16 39 42 98.5t51.5 116t39.5 86.5q16 31 38 41.5t54 10.5q49 0 85 -12.5t36 -37.5q0 -10 -4 -23t-16 -28 q-39 -43 -83 -94t-88 -100t-89 -92q-33 -33 -56 -33q-20 0 -20 24z" />
<glyph unicode="&#xf4;" horiz-adv-x="1030" d="M49 399q0 98 37 186.5t102.5 156t153.5 106.5t188 39q127 0 229.5 -59.5t163 -157t60.5 -211.5q0 -131 -56.5 -243t-166 -178.5t-275.5 -66.5q-123 0 -221 55.5t-156.5 152.5t-58.5 220zM280 955.5q4 -23.5 33 -23.5q16 0 36.5 17.5t47.5 47.5q23 25 53.5 62t67.5 78 q10 6 13 6t9 -6q39 -41 71 -78t52 -62q27 -31 48.5 -48t33.5 -17q20 0 28.5 22.5t-7.5 57.5q-14 31 -35 67.5t-43.5 73.5t-45 75t-40.5 70q-20 35 -36 55.5t-36 20.5q-18 0 -33.5 -19.5t-40.5 -60.5q-18 -33 -40.5 -68.5t-45 -73.5t-42 -74t-36.5 -66q-16 -33 -12 -56.5z M332 451q0 -98 25.5 -187.5t69.5 -146t99 -56.5q43 0 75 17.5t52 52.5q25 41 34 111.5t9 167.5q0 111 -24.5 197.5t-68.5 138t-103 51.5q-33 0 -59.5 -11.5t-47.5 -31.5q-35 -41 -48 -117t-13 -186z" />
<glyph unicode="&#xf5;" horiz-adv-x="1030" d="M49 399q0 98 37 186.5t102.5 156t153.5 106.5t188 39q127 0 229.5 -59.5t163 -157t60.5 -211.5q0 -131 -56.5 -243t-166 -178.5t-275.5 -66.5q-123 0 -221 55.5t-156.5 152.5t-58.5 220zM211 991q0 12 24.5 48t58.5 78t65.5 74t45.5 32q23 0 50.5 -6.5t89.5 -10.5 q45 -2 81.5 -5t57.5 -3q18 0 37.5 10.5t34.5 30.5q23 25 32 38t17 13q12 0 29.5 -13t17.5 -26q0 -8 -12.5 -23.5t-32.5 -41.5q-23 -31 -45.5 -68t-42.5 -65q-12 -16 -31.5 -22.5t-32.5 -6.5q-16 0 -57 3t-88 6t-90 6t-62 3q-16 0 -26.5 -7t-20.5 -19q-25 -33 -36 -48.5 t-19 -15.5q-10 0 -27.5 15.5t-17.5 23.5zM332 451q0 -98 25.5 -187.5t69.5 -146t99 -56.5q43 0 75 17.5t52 52.5q25 41 34 111.5t9 167.5q0 111 -24.5 197.5t-68.5 138t-103 51.5q-33 0 -59.5 -11.5t-47.5 -31.5q-35 -41 -48 -117t-13 -186z" />
<glyph unicode="&#xf6;" horiz-adv-x="1030" d="M49 399q0 98 37 186.5t102.5 156t153.5 106.5t188 39q127 0 229.5 -59.5t163 -157t60.5 -211.5q0 -131 -56.5 -243t-166 -178.5t-275.5 -66.5q-123 0 -221 55.5t-156.5 152.5t-58.5 220zM176 1157q0 61 43 104t102 43q66 0 110 -43t44 -104q0 -59 -44 -102t-110 -43 q-59 0 -102 43t-43 102zM332 451q0 -98 25.5 -187.5t69.5 -146t99 -56.5q43 0 75 17.5t52 52.5q25 41 34 111.5t9 167.5q0 111 -24.5 197.5t-68.5 138t-103 51.5q-33 0 -59.5 -11.5t-47.5 -31.5q-35 -41 -48 -117t-13 -186zM573 1157q0 61 44 104t104 43q63 0 107 -43 t44 -104q0 -59 -44 -102t-107 -43q-59 0 -103.5 43t-44.5 102z" />
<glyph unicode="&#xf7;" horiz-adv-x="1228" d="M76 545q0 12 6 34.5t20.5 40t36.5 17.5h967q18 0 32.5 -9.5t14.5 -19.5q0 -29 -20.5 -58.5t-53.5 -29.5h-966q-12 0 -24.5 8.5t-12.5 16.5zM479 856q0 61 42 103t100 42q61 0 103 -41.5t42 -103.5q0 -57 -42 -98t-103 -41q-57 0 -99.5 41t-42.5 98zM481 272 q0 61 42 103.5t100 42.5q61 0 103 -42t42 -104q0 -57 -42 -98t-103 -41q-57 0 -99.5 41t-42.5 98z" />
<glyph unicode="&#xf8;" horiz-adv-x="1026" d="M45 14q0 43 27 66l833 788q18 18 43 19q35 0 35 -47q0 -14 -7 -36t-22 -36l-798 -778q-10 -8 -21 -14.5t-29 -6.5q-23 0 -42 13.5t-19 31.5zM49 399q0 98 37 186.5t102.5 156t153.5 106.5t188 39q127 0 229.5 -59.5t163 -157t60.5 -211.5q0 -131 -56.5 -243t-166 -178.5 t-275.5 -66.5q-123 0 -221 55.5t-156.5 152.5t-58.5 220zM332 451q0 -98 25.5 -187.5t69.5 -146t99 -56.5q43 0 75 17.5t52 52.5q25 41 34 111.5t9 167.5q0 111 -24.5 197.5t-68.5 138t-103 51.5q-33 0 -59.5 -11.5t-47.5 -31.5q-35 -41 -48 -117t-13 -186z" />
<glyph unicode="&#xf9;" horiz-adv-x="1128" d="M37 795q0 14 8 23t23 11q86 4 155.5 17.5t141.5 32.5q10 2 21 5t22 3q29 0 26 -29q-8 -47 -12 -78.5t-4 -79.5v-393q0 -49 16.5 -86t45 -57.5t63.5 -22.5q33 0 64.5 8.5t60.5 36.5q12 10 26.5 42t14.5 85v330q0 37 -14.5 60.5t-39 38t-57.5 16.5q-23 2 -36 11t-13 34 q0 20 14.5 30.5t34.5 10.5q104 6 165.5 11t100.5 11t78 15q6 2 14.5 4t12.5 2q31 0 30 -25q0 -6 -2 -14t-6 -17q-2 -8 -5 -35.5t-6 -58t-3 -49.5v-475q0 -47 11 -62.5t26 -15.5q10 0 30.5 -1t26.5 -1q18 0 28.5 -10t10.5 -27q0 -18 -7 -29.5t-28 -13.5q-98 -8 -177 -33.5 t-136 -48.5q-12 -4 -26.5 -9t-26.5 -5q-16 0 -17 20q0 25 5 66t5 63q0 8 -1 14.5t-3 8.5q-55 -68 -141 -114t-182 -46q-63 0 -114.5 38t-81 103.5t-29.5 147.5v383q0 47 -17.5 75.5t-64.5 39.5q-12 2 -21.5 11t-9.5 28zM320 1298q0 -10 4 -23t16 -28q39 -43 83 -94t88 -100 t89 -92q33 -33 56 -33q20 0 20 24q0 8 -2 19.5t-8 23.5q-16 39 -42 98.5t-51.5 116t-39.5 86.5q-16 31 -38 41.5t-54 10.5q-49 0 -85 -12.5t-36 -37.5z" />
<glyph unicode="&#xfa;" horiz-adv-x="1128" d="M37 795q0 14 8 23t23 11q86 4 155.5 17.5t141.5 32.5q10 2 21 5t22 3q29 0 26 -29q-8 -47 -12 -78.5t-4 -79.5v-393q0 -49 16.5 -86t45 -57.5t63.5 -22.5q33 0 64.5 8.5t60.5 36.5q12 10 26.5 42t14.5 85v330q0 37 -14.5 60.5t-39 38t-57.5 16.5q-23 2 -36 11t-13 34 q0 20 14.5 30.5t34.5 10.5q104 6 165.5 11t100.5 11t78 15q6 2 14.5 4t12.5 2q31 0 30 -25q0 -6 -2 -14t-6 -17q-2 -8 -5 -35.5t-6 -58t-3 -49.5v-475q0 -47 11 -62.5t26 -15.5q10 0 30.5 -1t26.5 -1q18 0 28.5 -10t10.5 -27q0 -18 -7 -29.5t-28 -13.5q-98 -8 -177 -33.5 t-136 -48.5q-12 -4 -26.5 -9t-26.5 -5q-16 0 -17 20q0 25 5 66t5 63q0 8 -1 14.5t-3 8.5q-55 -68 -141 -114t-182 -46q-63 0 -114.5 38t-81 103.5t-29.5 147.5v383q0 47 -17.5 75.5t-64.5 39.5q-12 2 -21.5 11t-9.5 28zM502 952q0 8 2 19.5t8 23.5q16 39 42 98.5t51.5 116 t39.5 86.5q16 31 38 41.5t54 10.5q49 0 85 -12.5t36 -37.5q0 -10 -4 -23t-16 -28q-39 -43 -83 -94t-88 -100t-89 -92q-33 -33 -56 -33q-20 0 -20 24z" />
<glyph unicode="&#xfb;" horiz-adv-x="1128" d="M37 795q0 14 8 23t23 11q86 4 155.5 17.5t141.5 32.5q10 2 21 5t22 3q29 0 26 -29q-8 -47 -12 -78.5t-4 -79.5v-393q0 -49 16.5 -86t45 -57.5t63.5 -22.5q33 0 64.5 8.5t60.5 36.5q12 10 26.5 42t14.5 85v330q0 37 -14.5 60.5t-39 38t-57.5 16.5q-23 2 -36 11t-13 34 q0 20 14.5 30.5t34.5 10.5q104 6 165.5 11t100.5 11t78 15q6 2 14.5 4t12.5 2q31 0 30 -25q0 -6 -2 -14t-6 -17q-2 -8 -5 -35.5t-6 -58t-3 -49.5v-475q0 -47 11 -62.5t26 -15.5q10 0 30.5 -1t26.5 -1q18 0 28.5 -10t10.5 -27q0 -18 -7 -29.5t-28 -13.5q-98 -8 -177 -33.5 t-136 -48.5q-12 -4 -26.5 -9t-26.5 -5q-16 0 -17 20q0 25 5 66t5 63q0 8 -1 14.5t-3 8.5q-55 -68 -141 -114t-182 -46q-63 0 -114.5 38t-81 103.5t-29.5 147.5v383q0 47 -17.5 75.5t-64.5 39.5q-12 2 -21.5 11t-9.5 28zM330 955.5q4 -23.5 33 -23.5q16 0 36.5 17.5 t47.5 47.5q23 25 53.5 62t67.5 78q10 6 13 6t9 -6q39 -41 71 -78t52 -62q27 -31 48.5 -48t33.5 -17q20 0 28.5 22.5t-7.5 57.5q-14 31 -35 67.5t-43.5 73.5t-45 75t-40.5 70q-20 35 -36 55.5t-36 20.5q-18 0 -33.5 -19.5t-40.5 -60.5q-18 -33 -40.5 -68.5t-45 -73.5t-42 -74 t-36.5 -66q-16 -33 -12 -56.5z" />
<glyph unicode="&#xfc;" horiz-adv-x="1128" d="M37 795q0 14 8 23t23 11q86 4 155.5 17.5t141.5 32.5q10 2 21 5t22 3q29 0 26 -29q-8 -47 -12 -78.5t-4 -79.5v-393q0 -49 16.5 -86t45 -57.5t63.5 -22.5q33 0 64.5 8.5t60.5 36.5q12 10 26.5 42t14.5 85v330q0 37 -14.5 60.5t-39 38t-57.5 16.5q-23 2 -36 11t-13 34 q0 20 14.5 30.5t34.5 10.5q104 6 165.5 11t100.5 11t78 15q6 2 14.5 4t12.5 2q31 0 30 -25q0 -6 -2 -14t-6 -17q-2 -8 -5 -35.5t-6 -58t-3 -49.5v-475q0 -47 11 -62.5t26 -15.5q10 0 30.5 -1t26.5 -1q18 0 28.5 -10t10.5 -27q0 -18 -7 -29.5t-28 -13.5q-98 -8 -177 -33.5 t-136 -48.5q-12 -4 -26.5 -9t-26.5 -5q-16 0 -17 20q0 25 5 66t5 63q0 8 -1 14.5t-3 8.5q-55 -68 -141 -114t-182 -46q-63 0 -114.5 38t-81 103.5t-29.5 147.5v383q0 47 -17.5 75.5t-64.5 39.5q-12 2 -21.5 11t-9.5 28zM227 1157q0 61 43 104t102 43q66 0 110 -43t44 -104 q0 -59 -44 -102t-110 -43q-59 0 -102 43t-43 102zM624 1157q0 61 44 104t104 43q63 0 107 -43t44 -104q0 -59 -44 -102t-107 -43q-59 0 -103.5 43t-44.5 102z" />
<glyph unicode="&#xfd;" horiz-adv-x="985" d="M14 844q0 14 18.5 18t33.5 4q49 0 82.5 -2t60.5 -4t53 -2q45 0 76 2t65.5 4t81.5 2q14 0 30.5 -6t16.5 -20q0 -18 -15 -25.5t-32 -15.5q-23 -8 -35 -24.5t-12 -53.5q0 -16 5.5 -39t17.5 -55l127 -310q2 -6 6 -6q2 0 6 6l105 314q6 16 11 39.5t5 42.5q0 35 -20.5 56.5 t-43.5 29.5q-16 6 -31.5 14t-15.5 27q0 14 16.5 20t30.5 6q55 -2 86 -5t64 -3q20 0 37.5 1t42 3t59.5 4q14 0 31.5 -4t17.5 -18q0 -18 -9 -27.5t-28 -17.5q-39 -12 -69.5 -46t-50.5 -81l-306 -733q-16 -41 -36.5 -89.5t-42 -99.5t-44 -104.5t-44.5 -104.5q-25 -59 -76.5 -90 t-114.5 -31q-53 0 -102 37t-49 92q0 39 20 77t63 38q33 0 67 -11t65 -9q31 4 43 15t28 42q14 25 27.5 48.5t31 59t44.5 93.5q25 55 24 98q0 31 -9 56.5t-19 49.5l-252 572q-18 47 -41 77.5t-62 43.5q-18 8 -28.5 17t-10.5 28zM494 952q0 8 2 19.5t8 23.5q16 39 42 98.5 t51.5 116t39.5 86.5q16 31 38 41.5t54 10.5q49 0 85 -12.5t36 -37.5q0 -10 -4 -23t-16 -28q-39 -43 -83 -94t-88 -100t-89 -92q-33 -33 -56 -33q-20 0 -20 24z" />
<glyph unicode="&#xfe;" horiz-adv-x="1122" d="M31 -508q0 16 14 25.5t33 15.5q45 14 62.5 29.5t17.5 50.5v1513q0 53 -15.5 95.5t-66.5 52.5q-20 4 -21 31q0 27 19 30q53 10 113.5 30.5t116.5 41t87 31.5q8 4 13.5 5t11.5 1q12 0 16 -7t4 -18q0 -14 -5 -53t-7 -88l2 -440v-50.5t2 -44.5q29 23 78 53.5t110.5 52 t118.5 21.5q109 0 186.5 -58t118.5 -149.5t41 -191.5q0 -96 -36.5 -186t-102 -163t-150.5 -116t-186 -43q-35 0 -85 12.5t-89 30.5q-2 0 -4 -6t-3 -14.5t-1 -16.5v-338q0 -45 25.5 -64.5t76.5 -33.5q23 -6 35 -15.5t12 -25.5q0 -12 -11 -20.5t-25 -8.5q-41 0 -83 3.5 t-82 5.5t-77 2q-35 0 -71 -2t-72.5 -5.5t-77.5 -3.5q-14 0 -28.5 7.5t-14.5 21.5zM426 248q0 -27 8 -71t29 -71q16 -18 52 -33.5t85 -15.5q23 0 55.5 17.5t63.5 56.5t52.5 104.5t21.5 161.5q0 113 -22.5 179.5t-54.5 99.5t-66 44t-58 11q-39 0 -69.5 -14.5t-57.5 -42.5 q-16 -14 -27.5 -45t-11.5 -92v-289z" />
<glyph unicode="&#xff;" horiz-adv-x="985" d="M14 844q0 14 18.5 18t33.5 4q49 0 82.5 -2t60.5 -4t53 -2q45 0 76 2t65.5 4t81.5 2q14 0 30.5 -6t16.5 -20q0 -18 -15 -25.5t-32 -15.5q-23 -8 -35 -24.5t-12 -53.5q0 -16 5.5 -39t17.5 -55l127 -310q2 -6 6 -6q2 0 6 6l105 314q6 16 11 39.5t5 42.5q0 35 -20.5 56.5 t-43.5 29.5q-16 6 -31.5 14t-15.5 27q0 14 16.5 20t30.5 6q55 -2 86 -5t64 -3q20 0 37.5 1t42 3t59.5 4q14 0 31.5 -4t17.5 -18q0 -18 -9 -27.5t-28 -17.5q-39 -12 -69.5 -46t-50.5 -81l-306 -733q-16 -41 -36.5 -89.5t-42 -99.5t-44 -104.5t-44.5 -104.5q-25 -59 -76.5 -90 t-114.5 -31q-53 0 -102 37t-49 92q0 39 20 77t63 38q33 0 67 -11t65 -9q31 4 43 15t28 42q14 25 27.5 48.5t31 59t44.5 93.5q25 55 24 98q0 31 -9 56.5t-19 49.5l-252 572q-18 47 -41 77.5t-62 43.5q-18 8 -28.5 17t-10.5 28zM217 1157q0 61 43 104t102 43q66 0 110 -43 t44 -104q0 -59 -44 -102t-110 -43q-59 0 -102 43t-43 102zM614 1157q0 61 44 104t104 43q63 0 107 -43t44 -104q0 -59 -44 -102t-107 -43q-59 0 -103.5 43t-44.5 102z" />
<glyph unicode="&#x152;" horiz-adv-x="2019" d="M59 645q0 139 46.5 267t138.5 228.5t228 160t314 59.5q113 0 217.5 -31t192.5 -86l-137 -270q0 109 -42 168t-109.5 83.5t-147.5 24.5q-178 0 -268.5 -148.5t-90.5 -395.5q0 -186 45.5 -326.5t133.5 -219.5t213 -79q123 0 194.5 39t71.5 166l164 -174 q-86 -63 -201 -101.5t-254 -38.5q-141 0 -269 48.5t-227.5 137.5t-156 213t-56.5 275zM883 20q0 31 47 43q70 18 98.5 43t28.5 91v931q0 66 -25.5 94.5t-99.5 45.5q-27 6 -37 17t-10 26q0 12 12 21t33 9q49 0 103 -2t105.5 -5t96.5 -3q106 0 227 2t215 4q68 0 111 7.5 t51 7.5q14 0 30.5 -9.5t18.5 -29.5q8 -74 21.5 -143.5t13.5 -122.5q0 -18 -8 -28.5t-19 -10.5q-10 0 -21 8t-20 24q-18 51 -34.5 88t-36.5 60q-25 23 -59.5 43t-88.5 20h-155q-45 0 -77 -23.5t-32 -66.5v-387q0 -25 14.5 -37t36.5 -12h179q55 0 78.5 36t39.5 87q16 39 43 39 q10 0 18.5 -11.5t6.5 -33.5q-2 -25 -5 -53.5t-4 -57.5t-1 -55q0 -25 1 -53.5t3 -57t4 -55.5q4 -29 -3 -42t-18 -13q-35 0 -49 53q-16 61 -39.5 94t-62.5 33h-193q-25 0 -37 -11.5t-12 -35.5v-389q0 -61 26.5 -86t80.5 -25h178q45 0 85 10.5t70 34.5q35 29 64 72t53 92 q8 14 16.5 19.5t20.5 5.5t16.5 -12.5t4.5 -26.5q0 -35 -10.5 -78t-26 -91t-27.5 -96q-6 -14 -18.5 -20t-28.5 -6q-25 0 -97.5 1t-171 3t-203 3t-194.5 1q-41 0 -91 -2t-99 -5t-94 -3q-18 0 -30.5 9t-12.5 21z" />
<glyph unicode="&#x153;" horiz-adv-x="1560" d="M49 399q0 98 37 186.5t102.5 156t153.5 106.5t188 39q127 0 229.5 -59.5t163 -157t60.5 -211.5q0 -131 -56.5 -243t-166 -178.5t-275.5 -66.5q-123 0 -221 55.5t-156.5 152.5t-58.5 220zM332 451q0 -98 25.5 -187.5t69.5 -146t99 -56.5q43 0 75 17.5t52 52.5 q25 41 34 111.5t9 167.5q0 111 -24.5 197.5t-68.5 138t-103 51.5q-33 0 -59.5 -11.5t-47.5 -31.5q-35 -41 -48 -117t-13 -186zM754 420q0 129 59.5 234.5t162 168t225.5 62.5q88 0 157.5 -38t111.5 -101.5t42 -143.5q0 -78 -64 -78h-409q-29 0 -42.5 -16t-13.5 -55 q0 -78 35 -142.5t94.5 -101.5t137.5 -37q59 0 109 22.5t100 61.5q8 6 15 11t13 5q20 0 21 -26q0 -23 -17 -62q-20 -51 -68 -101t-120 -81t-164 -31q-111 0 -198 58.5t-137 160t-50 230.5zM1010 639q0 -29 29 -29h123q57 0 79.5 2t40.5 9q10 4 16.5 20t6.5 37q0 55 -38 90 t-93 35q-43 0 -81 -23.5t-61.5 -61.5t-21.5 -79z" />
<glyph unicode="&#x178;" horiz-adv-x="1339" d="M0 1311q0 14 13.5 21t29.5 7q86 0 165 -6t167 -6q68 0 128 6t128 6q18 0 36.5 -7t18.5 -21q0 -16 -18.5 -27.5t-40.5 -15.5q-55 -14 -80 -29.5t-25 -48.5q0 -31 23 -72l211 -362q18 -37 37 -37q8 0 17 9t19 28q49 84 93.5 167t87.5 177q10 20 17 42.5t7 41.5 q0 39 -35.5 59.5t-74.5 22.5q-20 4 -42 15t-22 30q0 14 19.5 20t40.5 6q59 0 106 -4t102 -4q53 0 102.5 7t106.5 7q23 0 42.5 -6t19.5 -26q0 -18 -20.5 -26.5t-43.5 -16.5q-61 -14 -104 -51t-74 -89q-33 -53 -64.5 -103t-61.5 -99t-60.5 -98.5t-61.5 -102.5 q-16 -29 -29.5 -59.5t-20.5 -63.5t-7 -76v-301q0 -76 30.5 -107.5t110.5 -54.5q25 -6 42.5 -14t17.5 -26q0 -14 -15.5 -23.5t-38.5 -9.5q-45 0 -100 4t-109.5 7t-95.5 3q-43 0 -94 -3t-104.5 -8t-100.5 -5q-27 0 -43 9t-16 23q0 18 18.5 28.5t42.5 14.5q78 16 109 56.5 t31 105.5v283q0 72 -19.5 119t-44.5 88l-264 407q-16 29 -39 57.5t-52.5 52t-68.5 34.5q-20 8 -34.5 16t-14.5 29zM412 1554q0 63 44 105.5t103 42.5q63 0 107.5 -42t44.5 -106q0 -59 -44.5 -102t-107.5 -43q-59 0 -103 43t-44 102zM817 1554q0 63 43 105.5t103 42.5 q66 0 109.5 -42t43.5 -106q0 -59 -43.5 -102t-109.5 -43q-59 0 -102.5 43t-43.5 102z" />
<glyph unicode="&#x2c6;" horiz-adv-x="598" d="M51 955.5q4 -23.5 33 -23.5q16 0 36.5 17.5t47.5 47.5q23 25 53.5 62t67.5 78q10 6 13 6t9 -6q39 -41 71 -78t52 -62q27 -31 48.5 -48t33.5 -17q20 0 28.5 22.5t-7.5 57.5q-14 31 -35 67.5t-43.5 73.5t-45 75t-40.5 70q-20 35 -36 55.5t-36 20.5q-18 0 -33.5 -19.5 t-40.5 -60.5q-18 -33 -40.5 -68.5t-45 -73.5t-42 -74t-36.5 -66q-16 -33 -12 -56.5z" />
<glyph unicode="&#x2dc;" horiz-adv-x="727" d="M43 991q0 12 24.5 48t58.5 78t65.5 74t45.5 32q23 0 50.5 -6.5t89.5 -10.5q45 -2 81.5 -5t57.5 -3q18 0 37.5 10.5t34.5 30.5q23 25 32 38t17 13q12 0 29.5 -13t17.5 -26q0 -8 -12.5 -23.5t-32.5 -41.5q-23 -31 -45.5 -68t-42.5 -65q-12 -16 -31.5 -22.5t-32.5 -6.5 q-16 0 -57 3t-88 6t-90 6t-62 3q-16 0 -26.5 -7t-20.5 -19q-25 -33 -36 -48.5t-19 -15.5q-10 0 -27.5 15.5t-17.5 23.5z" />
<glyph unicode="&#x2000;" horiz-adv-x="876" />
<glyph unicode="&#x2001;" horiz-adv-x="1753" />
<glyph unicode="&#x2002;" horiz-adv-x="876" />
<glyph unicode="&#x2003;" horiz-adv-x="1753" />
<glyph unicode="&#x2004;" horiz-adv-x="584" />
<glyph unicode="&#x2005;" horiz-adv-x="438" />
<glyph unicode="&#x2006;" horiz-adv-x="292" />
<glyph unicode="&#x2007;" horiz-adv-x="292" />
<glyph unicode="&#x2008;" horiz-adv-x="219" />
<glyph unicode="&#x2009;" horiz-adv-x="350" />
<glyph unicode="&#x200a;" horiz-adv-x="97" />
<glyph unicode="&#x2010;" horiz-adv-x="647" d="M53 356q0 61 11.5 93t33.5 36q111 16 233 33t232 25q18 2 24.5 -7.5t6.5 -23.5q0 -61 -8 -86t-33 -29q-109 -16 -237.5 -33.5t-241.5 -27.5q-20 -2 -21 20z" />
<glyph unicode="&#x2011;" horiz-adv-x="647" d="M53 356q0 61 11.5 93t33.5 36q111 16 233 33t232 25q18 2 24.5 -7.5t6.5 -23.5q0 -61 -8 -86t-33 -29q-109 -16 -237.5 -33.5t-241.5 -27.5q-20 -2 -21 20z" />
<glyph unicode="&#x2012;" horiz-adv-x="647" d="M53 356q0 61 11.5 93t33.5 36q111 16 233 33t232 25q18 2 24.5 -7.5t6.5 -23.5q0 -61 -8 -86t-33 -29q-109 -16 -237.5 -33.5t-241.5 -27.5q-20 -2 -21 20z" />
<glyph unicode="&#x2013;" horiz-adv-x="1294" d="M78 399q0 12 5 36t18.5 41.5t33.5 17.5h1036q20 0 33 -8.5t13 -22.5q0 -27 -20.5 -58.5t-47.5 -31.5h-1038q-12 0 -22.5 9t-10.5 17z" />
<glyph unicode="&#x2014;" horiz-adv-x="1966" d="M51 399q0 12 6 36t19.5 41.5t32.5 17.5h1759q20 0 32.5 -8.5t12.5 -22.5q0 -27 -19.5 -58.5t-48.5 -31.5h-1759q-14 0 -24.5 9t-10.5 17z" />
<glyph unicode="&#x2018;" horiz-adv-x="489" d="M39 1061q0 84 30.5 150.5t80.5 117t111 76t124 25.5q51 0 51 -33q0 -14 -12.5 -20.5t-32.5 -12.5q-55 -14 -94 -38.5t-60.5 -60.5t-21.5 -81q0 -39 24.5 -60.5t59.5 -29.5q37 -10 62.5 -40t25.5 -79q0 -53 -43 -89t-99 -36q-92 0 -149 58.5t-57 152.5z" />
<glyph unicode="&#x2019;" horiz-adv-x="489" d="M53 871q0 14 12.5 20.5t32.5 12.5q55 14 94 38.5t60.5 60.5t21.5 81q0 39 -24.5 60.5t-59.5 29.5q-37 10 -62.5 40t-25.5 79q0 53 43 89t99 36q92 0 149 -58.5t57 -152.5q0 -84 -30.5 -150.5t-80.5 -117t-111 -76t-124 -25.5q-51 0 -51 33z" />
<glyph unicode="&#x201a;" horiz-adv-x="489" d="M53 -303q0 14 12.5 20.5t32.5 12.5q55 14 94 38.5t60.5 60.5t21.5 81q0 39 -24.5 60.5t-59.5 29.5q-37 10 -62.5 40t-25.5 79q0 53 43 89t99 36q92 0 149 -58.5t57 -152.5q0 -84 -30.5 -150.5t-80.5 -117t-111 -76t-124 -25.5q-51 0 -51 33z" />
<glyph unicode="&#x201c;" horiz-adv-x="899" d="M53 1063q0 84 30.5 150.5t80.5 117t111 76t124 25.5q51 0 51 -33q0 -14 -12.5 -20.5t-32.5 -12.5q-55 -14 -94 -38.5t-60.5 -60.5t-21.5 -81q0 -39 24.5 -60.5t59.5 -29.5q37 -10 62.5 -40t25.5 -79q0 -53 -43 -89t-99 -36q-92 0 -149 58.5t-57 152.5zM463 1063 q0 84 30.5 150.5t80.5 117t111 76t124 25.5q51 0 51 -33q0 -14 -12.5 -20.5t-32.5 -12.5q-55 -14 -94 -38.5t-60.5 -60.5t-21.5 -81q0 -39 24.5 -60.5t59.5 -29.5q37 -10 62.5 -40t25.5 -79q0 -53 -43 -89t-99 -36q-92 0 -149 58.5t-57 152.5z" />
<glyph unicode="&#x201d;" horiz-adv-x="899" d="M53 871q0 14 12.5 20.5t32.5 12.5q55 14 94 38.5t60.5 60.5t21.5 81q0 39 -24.5 60.5t-59.5 29.5q-37 10 -62.5 40t-25.5 79q0 53 43 89t99 36q92 0 149 -58.5t57 -152.5q0 -84 -30.5 -150.5t-80.5 -117t-111 -76t-124 -25.5q-51 0 -51 33zM463 871q0 14 12.5 20.5 t32.5 12.5q55 14 94 38.5t60.5 60.5t21.5 81q0 39 -24.5 60.5t-59.5 29.5q-37 10 -62.5 40t-25.5 79q0 53 43 89t99 36q92 0 149 -58.5t57 -152.5q0 -84 -30.5 -150.5t-80.5 -117t-111 -76t-124 -25.5q-51 0 -51 33z" />
<glyph unicode="&#x201e;" horiz-adv-x="899" d="M53 -303q0 14 12.5 20.5t32.5 12.5q55 14 94 38.5t60.5 60.5t21.5 81q0 39 -24.5 60.5t-59.5 29.5q-37 10 -62.5 40t-25.5 79q0 53 43 89t99 36q92 0 149 -58.5t57 -152.5q0 -84 -30.5 -150.5t-80.5 -117t-111 -76t-124 -25.5q-51 0 -51 33zM463 -303q0 14 12.5 20.5 t32.5 12.5q55 14 94 38.5t60.5 60.5t21.5 81q0 39 -24.5 60.5t-59.5 29.5q-37 10 -62.5 40t-25.5 79q0 53 43 89t99 36q92 0 149 -58.5t57 -152.5q0 -84 -30.5 -150.5t-80.5 -117t-111 -76t-124 -25.5q-51 0 -51 33z" />
<glyph unicode="&#x2022;" horiz-adv-x="763" d="M76 725q0 88 41 157.5t110.5 110.5t155.5 41t154.5 -41t110.5 -110.5t42 -157.5q0 -84 -42 -153.5t-110.5 -110.5t-154.5 -41t-155.5 41t-110.5 110.5t-41 153.5z" />
<glyph unicode="&#x2026;" horiz-adv-x="1527" d="M86 102q0 72 49 121t115 49q74 0 122 -49t48 -121q0 -68 -48 -115.5t-122 -47.5q-66 0 -115 48t-49 115zM596 102q0 72 49 121t115 49q74 0 122 -49t48 -121q0 -68 -48 -115.5t-122 -47.5q-66 0 -115 48t-49 115zM1108 102q0 72 49 121t115 49q74 0 122 -49t48 -121 q0 -68 -48 -115.5t-122 -47.5q-66 0 -115 48t-49 115z" />
<glyph unicode="&#x202f;" horiz-adv-x="350" />
<glyph unicode="&#x2039;" horiz-adv-x="761" d="M98 446q0 20 21 31q92 55 154.5 94t109.5 74t94 75t111 95q8 8 28.5 25.5t40.5 17.5q14 0 15 -22q0 -8 -4 -16.5t-9 -16.5q-68 -102 -114.5 -161.5t-86.5 -99.5t-87 -81q-14 -10 -14.5 -15.5t14.5 -15.5q47 -43 87 -83t87 -98.5t114 -162.5q4 -6 8.5 -14.5t4.5 -14.5 q-1 -24 -17 -24q-20 0 -40.5 16.5t-30.5 24.5q-61 57 -109.5 98t-95.5 71.5t-99.5 60.5t-123.5 65q-31 14 -44.5 34.5t-13.5 42.5z" />
<glyph unicode="&#x203a;" horiz-adv-x="761" d="M90 57q1 -24 17 -24q20 0 40.5 16.5t30.5 24.5q61 57 109.5 98t95.5 71.5t99.5 60.5t123.5 65q31 14 44.5 34.5t13.5 42.5q0 20 -21 31q-92 55 -154.5 94t-109.5 74t-94 75t-111 95q-8 8 -28.5 25.5t-40.5 17.5q-14 0 -15 -22q0 -8 4 -16.5t9 -16.5q68 -102 114.5 -161.5 t86.5 -99.5t87 -81q14 -10 14.5 -15.5t-14.5 -15.5q-47 -43 -87 -83t-87 -98.5t-114 -162.5q-4 -6 -8.5 -14.5t-4.5 -14.5z" />
<glyph unicode="&#x205f;" horiz-adv-x="438" />
<glyph unicode="&#x20ac;" horiz-adv-x="1511" d="M0 526q0 18 19.5 42t46.5 26l147 4q-2 10 -2 22.5v22.5v31.5t2 32.5l-109 -5q-14 0 -27.5 11.5t-10.5 23.5q0 18 19 44t46 26l100 2q39 152 143.5 276.5t268.5 199.5t379 75q90 0 189.5 -20.5t170.5 -51.5q16 -6 29.5 -19.5t15.5 -37.5q8 -68 11.5 -129.5t5.5 -112.5 q0 -18 -10.5 -29.5t-26.5 -9.5q-14 0 -28.5 10.5t-22.5 30.5q-12 45 -30.5 90t-47.5 76q-23 25 -60.5 47.5t-93 36.5t-127.5 14q-121 0 -212 -59t-147 -157.5t-77 -219.5l653 21q14 0 24.5 -12.5t10.5 -22.5q-4 -16 -28.5 -42t-57.5 -28l-610 -18v-24.5v-22.5v-32.5t2 -27.5 l594 19q14 0 24.5 -13.5t10.5 -23.5q-4 -16 -29 -41t-57 -27l-529 -16q23 -127 77 -224.5t143.5 -151.5t211.5 -54q94 0 166 28.5t124 87t87 146.5q8 18 20.5 27.5t28.5 9.5q14 0 24.5 -11.5t10.5 -29.5q-2 -43 -12 -105.5t-33 -130.5q-10 -37 -49 -55q-49 -23 -113.5 -40 t-139.5 -25.5t-157 -8.5q-182 0 -334.5 65.5t-257 184.5t-141.5 277l-186 -6q-14 0 -26.5 10t-12.5 24z" />
<glyph unicode="&#x2122;" horiz-adv-x="2410" d="M43 1206q0 8 3 18.5t7 18.5q29 59 43.5 108.5t18.5 108.5q4 20 17 32.5t30 12.5q16 0 26.5 -18.5t24.5 -34.5q18 -16 55 -20.5t78 -4.5l467 3q39 0 69.5 8t45.5 16q29 16 45 33.5t37 17.5q14 0 19 -6t5 -16v-18.5t-4 -20.5q-18 -66 -25.5 -116t-7.5 -99q0 -29 -5 -39 t-19 -10t-25.5 11t-21.5 36q-12 41 -29.5 65.5t-44.5 36.5t-68 12h-33.5h-27.5q-27 0 -37 -17t-10 -40v-586q0 -33 22.5 -47t77.5 -30q12 -4 20.5 -10.5t8.5 -20.5q0 -10 -7 -15.5t-18 -5.5q-27 0 -74 1t-94 1h-75h-69t-83 -2t-72 -2q-14 0 -24 6.5t-10 14.5q0 14 9 22 t25 11q57 6 77 21t20 54v607q0 16 -10.5 27t-37.5 11h-40q-49 0 -95.5 -25.5t-70.5 -60.5q-12 -16 -38 -45.5t-48 -29.5q-14 0 -20.5 8t-6.5 18zM1077 588q0 14 13.5 18t25.5 8q35 8 54.5 33t27.5 92l58 502q8 63 -14.5 91t-88.5 46q-20 4 -30.5 11.5t-10.5 21.5q0 23 41 23 l262 -4q31 0 44.5 -13.5t15.5 -27.5q10 -31 21.5 -58.5t25.5 -52.5q45 -84 90 -174t96 -172q6 -8 13.5 -9t11.5 9l217 450q8 18 19.5 27.5t23.5 9.5l295 -2q16 0 27.5 -5t11.5 -19t-14.5 -19.5t-28.5 -9.5q-53 -16 -77 -50t-20 -100l29 -516q4 -31 29.5 -46t64.5 -29 q16 -2 27.5 -10.5t11.5 -22.5q0 -10 -8 -15.5t-16 -5.5q-27 0 -75 1t-95 1h-74h-71t-85 -2t-71 -2q-29 0 -29 21q0 14 9 22t20 11q57 16 79.5 27t18.5 48l-14 418q0 18 -5.5 16t-11.5 -16l-239 -536q-8 -23 -29 -23t-33 18q-33 61 -65.5 128t-65.5 135.5t-66.5 136 t-66.5 133.5q-6 16 -14.5 10t-10.5 -26l-22 -353q-2 -49 23.5 -73.5t86.5 -42.5q12 -2 25.5 -9.5t13.5 -21.5q0 -10 -11 -15.5t-23 -5.5h-59.5h-42h-48.5q-51 0 -97 -1t-67 -1q-33 0 -33 21z" />
<glyph unicode="&#x25fc;" horiz-adv-x="870" d="M0 0v870h870v-870h-870z" />
<glyph unicode="&#xfb01;" horiz-adv-x="1210" />
<glyph unicode="&#xfb02;" horiz-adv-x="1232" />
<glyph unicode="&#xfb03;" horiz-adv-x="1832" />
<glyph unicode="&#xfb04;" horiz-adv-x="1853" d="M33 791q0 8 6 13t12 7q29 10 58.5 20.5t58.5 26.5q8 141 61.5 239.5t132 160t166.5 90t166 28.5q135 0 212 -42t77 -103q0 -45 -34 -82t-72 -37q-18 0 -35 17.5t-37 44.5q-27 33 -70 63.5t-114 30.5q-80 0 -132.5 -81t-52.5 -249v-35q0 -27 15.5 -36t35.5 -9h392 q8 0 8 -22q0 -18 -4 -44t-9.5 -45.5t-13.5 -19.5h-342q-55 0 -68.5 -15.5t-13.5 -31.5v-528q0 -41 31 -59.5t76 -29.5q18 -4 29.5 -14t11.5 -26q0 -12 -10.5 -20.5t-24.5 -8.5q-41 0 -83 3t-82 5t-77 2q-35 0 -70.5 -2t-73.5 -5t-79 -3q-14 0 -27.5 7t-13.5 22q0 16 14.5 25 t32.5 15q31 10 54.5 24.5t23.5 55.5v584q-20 0 -47 1t-60 3q-12 2 -20 23.5t-8 36.5zM653 793q0 12 19 18q29 10 59.5 20.5t59.5 26.5q8 168 61 280.5t131 180t165 97.5t165 30q61 0 105 -10.5t77 -28.5q20 -12 38.5 -10t37.5 8q35 12 53 19.5t37 13.5q14 6 25 6q12 0 16 -7 t4 -18q0 -14 -4 -53t-6 -88l2 -1131q0 -45 23.5 -57t54.5 -22q20 -8 33.5 -16.5t13.5 -24.5q0 -14 -11.5 -21.5t-29.5 -7.5q-41 0 -79 2t-74 3t-73 1q-35 0 -68.5 -2t-68.5 -5t-76 -3q-18 0 -29 7t-11 22q0 16 12 25t35 15q31 10 54 22.5t23 57.5v547q0 16 -10 30.5 t-45 14.5h-231q-55 0 -68.5 -16.5t-13.5 -32.5v-534q0 -43 30.5 -60.5t75.5 -28.5q16 -4 28.5 -14t12.5 -26q0 -12 -11 -20.5t-24 -8.5q-41 0 -84 3t-81.5 5t-75.5 2q-35 0 -71 -2t-73.5 -5t-78.5 -3q-12 0 -26.5 7t-14.5 22q0 16 15 25t32 15q31 10 54.5 24.5t23.5 55.5 v584q-20 0 -49 1t-62 3q-10 2 -18.5 23.5t-8.5 38.5zM1059 903q0 -27 15.5 -36t35.5 -9h272q18 0 31.5 8t13.5 33v254q0 51 -10 93t-37.5 66.5t-83.5 24.5q-63 0 -117.5 -35.5t-87 -113.5t-32.5 -203v-82z" />
</font>
</defs>
</svg>
