<?xml version="1.0" standalone="no"?>
<!DOCTYPE svg PUBLIC "-//W3C//DTD SVG 1.1//EN" "http://www.w3.org/Graphics/SVG/1.1/DTD/svg11.dtd" >
<svg xmlns="http://www.w3.org/2000/svg" xmlns:xlink="http://www.w3.org/1999/xlink" version="1.1">
<metadata></metadata>
<defs>
<font id="madguescript" horiz-adv-x="948" >
<font-face units-per-em="2048" ascent="1638" descent="-410" />
<missing-glyph horiz-adv-x="698" />
<glyph horiz-adv-x="0" />
<glyph unicode="&#xd;" horiz-adv-x="698" />
<glyph horiz-adv-x="0" />
<glyph horiz-adv-x="0" />
<glyph unicode=" "  horiz-adv-x="698" />
<glyph unicode="&#x09;" horiz-adv-x="698" />
<glyph unicode="&#xa0;" horiz-adv-x="698" />
<glyph unicode="!" horiz-adv-x="864" d="M-63 -80q0 35 25.5 60.5t60.5 25.5t60.5 -25.5t25.5 -60.5t-26 -60.5t-60 -25.5q-35 0 -60.5 25.5t-25.5 60.5zM53 123l641 1110l94 -55l-638 -1110z" />
<glyph unicode="&#x22;" horiz-adv-x="587" d="M66 979l112 293l125 -58l-135 -280zM309 979l113 293l125 -58l-135 -280z" />
<glyph unicode="#" horiz-adv-x="1409" d="M0 -78l260 352h-154v111h236l152 205h-177v110h258l265 353l88 -66l-213 -287h340l262 353l90 -66l-215 -287h139v-110h-221l-152 -205h162v-111h-243l-310 -417l-88 65l260 352h-342l-309 -417zM479 385h342l152 205h-342z" />
<glyph unicode="$" horiz-adv-x="905" d="M6.5 162q-14.5 74 3.5 151l2 9q29 98 107 158.5t188 68.5l8 -111q-72 -4 -125 -44t-71 -103l-2 -6q-12 -51 -3 -99.5t38 -83.5q16 -20 48.5 -39.5t86.5 -15.5q39 2 79 15.5t74.5 38t59 57t35.5 73.5q31 137 -66 318q-23 41 -42 85t-30.5 90t-11.5 94t16 97 q29 88 92.5 140.5t143.5 52.5q29 0 57 -6l76 131l96 -55l-69 -121q53 -45 71 -115q8 -41 3 -84t-22.5 -82t-47 -69.5t-66.5 -49.5l-47 99q41 20 61.5 67t10.5 95q-18 80 -123 79q-53 0 -85 -37.5t-46 -78.5q-20 -66 -2 -132.5t61 -146.5q117 -215 76 -395 q-14 -61 -50 -110.5t-85 -84.5t-105.5 -54t-109.5 -21q-4 0 -7 -1.5t-8 -1.5q-63 0 -114 25l-56 -96l-96 55l64 107q-2 2 -4 3t-4 5q-45 55 -59.5 129z" />
<glyph unicode="%" horiz-adv-x="1374" d="M49 -43l1194 1204l80 -78l-1196 -1204zM338 899q-16 88 29 178q45 88 127 125q43 20 88 20.5t82 -20.5q39 -20 63.5 -55t33.5 -78t3 -90t-29 -92q-45 -90 -129 -125q-41 -20 -86 -21q-45 1 -84 21q-37 18 -62.5 54t-35.5 83zM446 920q4 -12 11.5 -31t29.5 -29 q23 -10 42.5 -7t31.5 9q23 10 42.5 29.5t33.5 46.5q27 49 19.5 98t-42.5 68q-16 8 -32 8q-12 0 -23.5 -3t-17.5 -7q-23 -10 -43.5 -29.5t-32.5 -46.5q-29 -53 -19 -106zM688 59q-16 88 29 179q45 88 127 124q43 20 88 20.5t82 -20.5q39 -20 63.5 -55t33.5 -78t3 -90t-29 -92 q-45 -90 -129 -125q-41 -20 -86 -20t-84 20q-37 18 -62.5 54t-35.5 83zM797 80q4 -12 11 -30.5t30 -29.5q23 -10 42 -7t31 10q23 10 42.5 29.5t33.5 45.5q27 49 19.5 98.5t-41.5 67.5q-16 8 -33 8q-12 0 -23.5 -3t-17.5 -7q-23 -10 -43.5 -29.5t-32.5 -46.5 q-29 -53 -18 -106z" />
<glyph unicode="&#x26;" horiz-adv-x="1398" d="M10 328q16 98 60.5 168.5t102.5 120t127 79t134 43.5q-41 92 -39 184.5t54 172.5q55 90 151 134t201 27q90 -12 146.5 -54t87 -94t40.5 -106.5t8 -93.5l-110 9q0 8 -2 40.5t-19.5 71.5t-55.5 74t-112 45q-72 10 -138 -20.5t-103 -92.5q-18 -29 -28.5 -78t-5.5 -95 t30.5 -77.5t78.5 -27.5l-6 -111q-4 0 -37.5 -1t-83 -9t-107.5 -27.5t-112.5 -57.5t-95.5 -97.5t-57 -147.5q-14 -78 14.5 -147.5t95.5 -118.5q78 -57 171.5 -67.5t172.5 30.5q96 47 150.5 156.5t64.5 269.5q-94 -25 -147 -69t-81 -87t-36 -76.5t-8 -37.5l-110 8l4 28 q4 27 20 67t48 88t85 91t133 75t193 42q78 6 136 25.5t99 46t68 58.5t43 61q41 72 42 145.5t-22 116.5l99 51q16 -31 25.5 -73t8 -90t-14.5 -100t-42 -104q-59 -109 -169.5 -172t-260.5 -75q-6 -135 -35.5 -229.5t-70.5 -158t-87 -101.5t-83 -56q-90 -43 -189 -43 q-72 0 -142.5 22.5t-129.5 69.5q-92 68 -133 167t-21 208z" />
<glyph unicode="'" horiz-adv-x="296" d="M66 979l112 293l125 -58l-135 -280z" />
<glyph unicode="(" horiz-adv-x="442" d="M1 190.5q5 100.5 36 215t102 239.5q111 190 220.5 309t198.5 185.5t146.5 91t61.5 26.5l33 -106q-2 0 -52.5 -22.5t-130 -84t-180 -171t-200.5 -283.5q-63 -111 -91 -212.5t-32 -190.5t8 -161.5t29.5 -125t33.5 -80.5l15 -29l-95 -59q-2 4 -20 38.5t-38.5 94t-35 142.5 t-9.5 183.5z" />
<glyph unicode=")" horiz-adv-x="516" d="M-281 -162q2 0 52.5 21.5t130.5 83t180 171t201 285.5q63 111 90.5 212.5t32 190.5t-8 161.5t-30 125t-33.5 81.5l-15 28l95 59q2 -4 20.5 -38.5t39 -94t34.5 -142.5t9 -183.5t-35.5 -215t-102.5 -239.5q-111 -190 -220.5 -309t-198.5 -185.5t-146.5 -91t-61.5 -26.5z " />
<glyph unicode="*" horiz-adv-x="587" d="M0 870l182 78l-121 158l89 68l98 -130l49 156l106 -35l-45 -139l136 57l43 -100l-181 -80l121 -155l-88 -68l-100 129l-49 -156l-105 33l43 141l-135 -59z" />
<glyph unicode="+" horiz-adv-x="827" d="M63 430v111h302v301h110v-301h301v-111h-301v-301h-110v301h-302z" />
<glyph unicode="," horiz-adv-x="169" d="M-2 -61q4 4 20.5 22.5t34.5 40.5q-20 8 -39 33q-18 29 -12 65q6 35 35.5 54.5t64.5 11.5q35 -6 56 -37q18 -29 12 -66q-2 -16 -16 -32q-23 -35 -45.5 -63.5t-38.5 -45.5z" />
<glyph unicode="-" horiz-adv-x="724" d="M166 430v111h512v-111h-512z" />
<glyph unicode="." horiz-adv-x="227" d="M18 84q0 35 25.5 60.5t60.5 25.5t60.5 -25.5t25.5 -60.5t-25.5 -60.5t-60.5 -25.5t-60.5 25.5t-25.5 60.5z" />
<glyph unicode="/" horiz-adv-x="970" d="M-35 -43l1194 1204l80 -78l-1196 -1204z" />
<glyph unicode="0" horiz-adv-x="925" d="M0 207q-6 96 39 186l332 668q45 88 126 142t179 59q98 6 185 -37t140 -127q55 -84 61.5 -180.5t-38.5 -186.5l-330 -665q-45 -88 -127 -142.5t-180 -60.5h-22q-92 0 -171 43t-133 121q-55 84 -61 180zM110.5 215q4.5 -68 43.5 -127t98 -89t129 -26t126 42t87 100l332 665 q31 63 27.5 131t-44.5 127q-35 53 -90 84t-121 31q-10 0 -16 -2q-68 -4 -125 -41t-88 -98l-332 -668q-31 -61 -26.5 -129z" />
<glyph unicode="1" horiz-adv-x="651" d="M0 -74l651 1129l-200 -121l-58 94l385 234l76 -76l-758 -1315z" />
<glyph unicode="2" horiz-adv-x="952" d="M18 -156l7 101q0 2 59 47t150.5 114.5t201 152.5t213 163t185 145.5t116.5 100.5q35 33 61.5 82t40 103t11.5 109.5t-27 102.5q-29 55 -69.5 72.5t-75.5 19.5q-66 4 -130.5 -29.5t-98.5 -89.5q-33 -53 -46.5 -96t-16.5 -73.5t-1 -48t2 -19.5l-106 -31q0 2 -4.5 27.5 t-1 68.5t19.5 102.5t59 129.5q51 80 140.5 127t187.5 43q78 -4 141.5 -43t98.5 -109q33 -66 37 -140.5t-12.5 -145t-51.5 -134t-80 -106.5q-29 -27 -83 -73t-123.5 -101.5t-150.5 -117.5t-161 -123.5t-154.5 -119t-132.5 -100.5h551v-111h-756z" />
<glyph unicode="3" horiz-adv-x="1036" d="M2 197.5q16 128.5 127 244.5l80 -75q-31 -33 -56.5 -74t-36 -84t-3 -87t40.5 -85q76 -92 206 -82q82 6 153 52t114 118q35 59 38 131t-26 133q-23 51 -65 83t-97 42q-23 4 -36 22.5t-9 41.5t22.5 36t41.5 9q143 -23 260.5 19t189.5 144q35 51 42 117t-17 125 q-6 14 -18.5 33.5t-32 37t-47 32t-64.5 20.5q-29 4 -66.5 4t-75.5 -9t-73 -34t-59 -70q-29 -57 -37.5 -100t-3.5 -72q4 -35 16 -57l-88 -68q-2 2 -15.5 27t-21.5 69t0 108.5t51 144.5q53 100 153.5 143t235.5 23q84 -12 147.5 -61.5t98.5 -127.5q37 -86 28 -179t-63 -169 q-61 -88 -148 -141.5t-196 -69.5q31 -37 47 -76q41 -86 36 -184t-54 -184q-55 -94 -149.5 -153.5t-202.5 -68.5q-10 -2 -31 -2q-82 0 -151.5 32t-118.5 91q-82 102 -66 230.5z" />
<glyph unicode="4" horiz-adv-x="839" d="M8 469q-16 27 0 55l418 715l96 -55l-370 -633h440l405 688l95 -55l-770 -1313l-97 57l303 512h-473q-35 0 -47 29z" />
<glyph unicode="5" horiz-adv-x="901" d="M2 189.5q4 46.5 15.5 88t27.5 76.5l100 -45q-29 -66 -34 -136.5t18 -121.5q25 -59 90 -82q57 -20 119.5 -13t120 32.5t105.5 66.5t79 90q43 68 52.5 146t-17.5 143q-45 102 -160 127q-76 18 -170 10h-14q-39 0 -47 -2q-29 -14 -56 0q-20 10 -25 32t5 42v4q2 4 15.5 25.5 t49 85t100 178.5t173.5 303q16 27 49 27h532v-111h-501l-269 -471q105 4 183 -14q84 -18 144.5 -68.5t92.5 -126.5q37 -90 26 -193.5t-69 -195.5q-31 -49 -77 -93t-103 -77t-120.5 -52.5t-129.5 -19.5t-125 21q-109 37 -155 143q-18 43 -23.5 89t-1.5 92.5z" />
<glyph unicode="6" horiz-adv-x="827" d="M0 137q-2 41 3 84t20 92q41 150 112.5 285t149.5 264l37 60q33 57 74.5 115.5t93 106.5t114 82t137.5 42q47 6 103 -4q84 -12 149.5 -60.5t98.5 -118.5q63 -143 -45 -335l-97 55q82 141 41 233q-23 47 -65.5 77t-98.5 40q-35 6 -73 2q-57 -6 -106.5 -33.5t-91.5 -69.5 t-77 -91.5t-63 -98.5l-35 -59q-25 -41 -49.5 -82t-46.5 -82q88 23 181 19.5t171 -44.5q135 -76 147 -237q8 -131 -75 -295q-47 -92 -103.5 -146.5t-122.5 -76.5q-53 -16 -106 -17q-39 0 -78 6q-133 20 -211 95t-88 192zM111 145q4 -51 25.5 -84.5t52 -55t64.5 -32t62 -14.5 q80 -12 134 6q90 31 161 170q37 70 52.5 126t11.5 108q-10 108 -90 149q-39 20 -87 27.5t-99.5 3.5t-100.5 -18.5t-88 -34.5q-49 -106 -80 -211q-20 -82 -18 -140z" />
<glyph unicode="7" horiz-adv-x="806" d="M0 -66l983 1225h-614v111h729q35 0 49 -31t-6 -59l-1055 -1315z" />
<glyph unicode="8" horiz-adv-x="970" d="M1 168.5q-3 62.5 12.5 123t43.5 111.5q37 63 86.5 113.5t101.5 88.5t102 63.5t91 42.5q-43 57 -55 133t35 184q49 115 141 178.5t207 63.5q63 0 119.5 -21.5t100.5 -58.5t71 -88.5t33 -110.5q8 -84 -13.5 -159.5t-61.5 -137t-92.5 -108.5t-105.5 -74q43 -63 53.5 -147 t-43.5 -207q-100 -233 -301 -291q-74 -23 -153 -23q-72 0 -142.5 22.5t-130.5 76.5q-49 45 -72.5 104t-26.5 121.5zM110 179q1 -44 16 -85t50 -71q33 -31 73 -46.5t83 -19.5t86 0t78 14q149 46 231 230q33 76 33 131t-22.5 98t-62.5 77t-89 71l-62 47q-29 -10 -77 -32 t-102 -55.5t-105.5 -80.5t-85.5 -109q-23 -37 -34 -81t-10 -88zM490 882q-1 -42 17.5 -78t56.5 -67.5t89 -70.5q20 -16 42 -33t42 -35q39 12 84 46t83 83t59.5 113.5t15.5 142.5q-4 31 -19.5 62.5t-42 57t-64.5 41t-87 15.5q-80 0 -146.5 -46t-101.5 -130q-27 -59 -28 -101z " />
<glyph unicode="9" horiz-adv-x="907" d="M25 29q-63 143 45 336l96 -56q-82 -143 -41 -235q20 -45 64 -76t100 -39q18 -4 36.5 -5t36.5 3q57 6 106.5 33.5t90.5 69.5t76 91.5t63 98.5l37 59l96 164q-90 -23 -183 -19.5t-169 44.5q-66 35 -103.5 96t-43.5 141q-4 68 13 138.5t63 156.5q94 178 223 223 q25 8 51.5 12.5t56.5 4.5q35 0 78 -6q133 -20 211 -96t86 -193q6 -78 -20 -176q-41 -147 -114 -282.5t-151 -264.5l-34 -59q-35 -57 -76 -116t-93.5 -108t-114.5 -82.5t-138 -40.5q-25 -4 -50.5 -3t-52.5 5q-82 14 -147.5 62.5t-97.5 118.5zM442 745q6 -106 90 -149 q37 -20 85.5 -27.5t99.5 -3.5t100 18.5t90 34.5q23 53 43.5 105.5t34.5 105.5q25 80 19 140q-4 51 -26 84.5t-52.5 54t-64.5 31t-60 14.5q-86 12 -133 -4q-90 -31 -162 -172q-72 -133 -64 -232z" />
<glyph unicode=":" horiz-adv-x="581" d="M164 84q0 35 25.5 60.5t60.5 25.5t60.5 -25.5t25.5 -60.5t-25.5 -60.5t-60.5 -25.5t-60.5 25.5t-25.5 60.5zM326 754q0 35 25.5 60.5t60.5 25.5t60.5 -26t25.5 -60q0 -35 -26 -60.5t-60 -25.5q-35 0 -60.5 25.5t-25.5 60.5z" />
<glyph unicode=";" horiz-adv-x="528" d="M88 -61q4 4 20.5 22.5t34.5 40.5q-20 8 -39 33q-18 29 -12 65q6 35 36 54.5t65 11.5q35 -6 55 -37q18 -29 12 -66q-2 -16 -16 -32q-23 -35 -45.5 -63.5t-38.5 -45.5zM326 754q0 35 25.5 60.5t60.5 25.5t60.5 -26t25.5 -60q0 -35 -26 -60.5t-60 -25.5q-35 0 -60.5 25.5 t-25.5 60.5z" />
<glyph unicode="&#x3c;" horiz-adv-x="630" d="M92 455q-25 35 2 67l420 522l86 -67l-393 -492l330 -444l-88 -66z" />
<glyph unicode="=" horiz-adv-x="944" d="M233 340v111h605v-111h-605zM233 553v111h605v-111h-605z" />
<glyph unicode="&#x3e;" horiz-adv-x="671" d="M78 43l393 492l-330 444l88 65l357 -479q25 -35 -2 -67l-420 -523z" />
<glyph unicode="?" horiz-adv-x="960" d="M-61 -80q0 35 25.5 60.5t60.5 25.5t60.5 -25.5t25.5 -60.5t-26 -60.5t-60 -25.5q-35 0 -60.5 25.5t-25.5 60.5zM49 80q2 2 16.5 29.5t39 69.5t57.5 92.5t71 97.5q41 49 102.5 91t133.5 85q86 53 166 108.5t121 124.5q31 55 36 114.5t-20 113.5q-23 49 -57.5 65t-65.5 19 q-63 4 -127.5 -28t-97.5 -85l-94 59q25 39 61.5 71t79.5 53.5t90 31.5t94 8q76 -4 133 -43.5t86 -105.5q35 -78 29 -163t-51 -165q-25 -43 -62.5 -81t-80.5 -71.5t-90.5 -63.5t-92.5 -56q-66 -39 -121 -76t-86 -76q-35 -43 -66.5 -90t-54 -87t-36.5 -66l-15 -25z" />
<glyph unicode="@" horiz-adv-x="1251" d="M2 214q-8 103 16.5 213t76.5 215.5t120 193.5q78 100 151.5 157.5t139 86t125 34.5t108.5 6q131 -4 222.5 -62t138.5 -124q31 -35 52.5 -88t31.5 -115.5t5 -132.5t-26 -139q-8 -25 -29.5 -67t-54 -88t-73.5 -90t-86.5 -71.5t-94.5 -34t-96 24.5q-23 12 -35 28.5t-20 35.5 q-39 -35 -86 -60.5t-103 -25.5q-16 0 -30.5 2t-30.5 6q-68 20 -98.5 79.5t-18.5 147.5q8 61 39 131t77 129.5t105.5 99t126.5 39.5q70 0 109 -23.5t57 -49.5q4 -4 7 -9.5t6 -11.5l38 66l97 -55l-164 -283q-4 -4 -4 -8l-2 -2q-8 -16 -15.5 -38t-10.5 -42.5t-1 -38t14 -23.5 q14 -6 29 -4q43 12 86 48t79 88.5t60.5 116t31.5 131t-6 135t-56 128.5q-35 49 -104.5 92.5t-168.5 47.5q-41 2 -89 -3.5t-102 -30t-115.5 -73.5t-129.5 -135q-68 -88 -113 -183.5t-63.5 -186.5t-11 -173t44.5 -139q59 -92 185 -117.5t314 15.5l23 -109q-127 -27 -231 -27 q-82 0 -144.5 15.5t-108.5 41t-79 57.5t-54 65q-53 84 -61 187zM416 330q-12 -91 37 -105q47 -12 89 11.5t74.5 59.5t54 71.5t27.5 46.5q4 6 9 18l34 60q4 18 6.5 55t-14.5 59q-23 29 -78 29q-37 0 -76.5 -30t-73.5 -74t-58.5 -98t-30.5 -103z" />
<glyph unicode="A" horiz-adv-x="1730" d="M12 -47q-13 37 -13 77q1 60 31 128q50 112 173 223q61 55 131 81q69 26 143 30q20 1 40 1q55 1 113 -9q79 -12 158 -33q115 209 225.5 351t212 233t191.5 138.5t164 67.5q66 16 119 16t93 -11t64.5 -30.5t34.5 -39.5l-417 -723q0 -2 -25 -48.5t-49 -113.5h20 q79 -1 143 27q70 32 124 116l43 78l96 -53l-45 -82q-78 -123 -184 -164q-86 -33 -182 -33q-23 0 -48 2q-11 -49 -10 -96q0 -24 2 -46q8 -68 61 -106l-67 -90q-43 31 -66.5 72t-33.5 87q-8 38 -7 78v17q2 49 13 99q-76 16 -152 38.5t-150 45.5q-29 10 -57.5 19t-56.5 17 l-10 -18q-70 -137 -147 -231.5t-154.5 -152.5t-152.5 -84t-138 -26q-6 0 -11.5 1t-11.5 1q-76 4 -130 43t-77 103zM117 -10q23 -66 110 -72q8 -1 16 -1q43 -1 95 17q62 20 129.5 70.5t136 134.5t131.5 209v2q-57 14 -111.5 23.5t-105.5 9.5q-70 0 -129 -19.5t-113 -64.5 q-112 -102 -144 -182q-20 -52 -21 -90q0 -21 6 -37zM897 418l96 -31q84 -29 157 -49.5t138 -34.5q14 41 29.5 77t29 63.5t22.5 44t11 20.5l367 637q-27 4 -61.5 2t-75.5 -14q-53 -14 -130 -52.5t-169 -119t-197.5 -212t-216.5 -331.5z" />
<glyph unicode="B" horiz-adv-x="1255" d="M2 215q14 117 83 201t173 112q46 13 88 13q54 0 103 -21l264 459l96 -55l-137 -236l57 -20q41 -7 78 -7q15 0 29 1q50 4 88.5 16t68 30.5t49.5 34.5q68 53 102 130q24 53 24 104q0 23 -5 45q-14 78 -64 135t-128 84q-53 18 -107 18q-36 -1 -74 -9q-92 -22 -167 -87 q-33 -29 -58.5 -67.5t-45 -80.5t-30 -84t-12.5 -75q-2 -25 2 -36t6 -15l-73 -82q-45 39 -45 125q0 43 12 96t35.5 107.5t57.5 104.5t77 89q98 88 219 115q48 11 95 10q72 0 143 -24q106 -35 175.5 -115t90.5 -189q6 -31 7 -63q0 -69 -31 -141q-44 -104 -136 -181 q-94 -78 -219 -100q10 -10 20.5 -21.5t20.5 -23.5q80 -107 80 -250q0 -86 -29 -186q-25 -84 -76 -145.5t-117.5 -101.5t-144.5 -59.5t-158 -19.5q-66 0 -127 12q-92 18 -162.5 59.5t-117.5 100.5q-46 60 -68 134q-15 51 -15 107q0 25 3 52zM113 203q-2 -21 -2 -41 q0 -48 14 -90q20 -58 60 -99t92.5 -66.5t107.5 -35.5q51 -11 105 -11q22 0 46 2q78 7 147 36.5t121 82t75 128.5q24 82 24 152q0 99 -49 173q-33 47 -76 78t-84 49q-23 4 -42 9t-40 14l-75 -131q18 -23 34.5 -55.5t26.5 -80.5l-106 -22q-6 27 -19 49l-180 -313l-96 55 l194 338q-22 6 -46 6q-28 0 -58 -8q-70 -18 -117 -77.5t-57 -141.5z" />
<glyph unicode="C" horiz-adv-x="1015" d="M8 165q-7 41 -8 85q0 60 14 129q24 119 101 254q90 156 170 272.5t151.5 196.5t137 126t128.5 62q35 9 69 8q81 0 159 -47q60 -37 86 -98q18 -42 17 -91q0 -22 -3 -46q-8 -47 -28.5 -88t-50 -75t-66.5 -57.5t-78 -31.5l-25 106q47 10 88 58.5t52 105.5q1 10 1 21 q-1 20 -5 43q-8 35 -46 59q-51 30 -101 30q-21 0 -42 -5q-102 -25 -228 -172.5t-290 -431.5q-63 -110 -85 -206q-15 -65 -15 -121q-1 -27 3 -51q10 -76 46.5 -132t87.5 -84q61 -37 144 -37t175 46t189.5 141t187.5 251l72 127l96 -53l-72 -129q-78 -133 -160.5 -226.5 t-167.5 -153t-167 -87t-158 -27.5q-109 0 -194 51q-68 39 -117.5 111t-67.5 167z" />
<glyph unicode="D" horiz-adv-x="1376" d="M4 233q12 117 82 201t174 113q45 12 86.5 12t79.5 -12l250 432l96 -55l-252 -435q25 -25 46.5 -61.5t33.5 -91.5l-108 -25q-8 41 -29 76l-209 -360l-94 55l209 364q-18 2 -38 1t-42 -7q-72 -18 -119 -78.5t-57 -140.5q-3 -26 -3 -51q0 -80 30 -140q40 -78 128 -118 q62 -27 144 -28h5q80 0 164 26q87 27 175 84t162 149q100 119 152 250t74 245q20 104 19 183v14q-2 83 -10 107q0 2 -1 3t-1 3q-20 102 -83.5 177t-158.5 106q-54 18 -106 18q-32 -1 -64 -7q-84 -18 -151 -79q-33 -29 -59.5 -67.5t-45 -80.5t-30 -84t-13.5 -75q0 -25 3 -36 t6 -15l-74 -82q-45 41 -45 125q0 43 12 96t36.5 107.5t58.5 104.5t77 89q90 81 204 105q44 9 87 9q70 0 139 -24q121 -41 205 -137t111 -225q14 -47 15 -147v-8q-1 -98 -25 -219q-26 -126 -85 -264t-164 -261q-57 -72 -126.5 -127.5t-146.5 -93t-156.5 -58t-155.5 -20.5 q-102 0 -191 37q-123 50 -180 160q-45 86 -45 197q0 31 4 64z" />
<glyph unicode="E" horiz-adv-x="1042" d="M6 252q22 133 121 272q70 96 165 139.5t179 53.5q-43 100 -48 180q-1 20 -1 38q0 57 12 101q16 58 42 96.5t48 59.5q43 41 98.5 65.5t113.5 32.5q28 4 55 4q31 0 61 -5q57 -9 104 -38q59 -37 86 -98q19 -42 18 -92q0 -22 -3 -45q-8 -47 -28.5 -88t-50.5 -75t-67 -57.5 t-77 -31.5l-25 106q47 10 88 58.5t51 105.5q1 11 1 22q0 20 -4 42q-7 35 -46 59q-29 15 -65 23q-22 4 -46 5q-16 0 -32 -2q-41 -5 -82 -22.5t-74 -48.5q-68 -66 -70 -167v-6q0 -99 64 -224q10 -2 16 -4t13 -4l-41 -103q-16 6 -59.5 5t-97.5 -14t-110.5 -45t-95.5 -89 q-79 -113 -101 -219q-8 -37 -8 -71q0 -62 25 -112q31 -59 89.5 -93t135.5 -38h10q75 0 152 28q82 30 160 88t151.5 144t137.5 197l71 127l97 -53l-72 -129q-72 -121 -154 -216.5t-171 -161t-183 -100t-186 -34.5h-17q-109 4 -192.5 54t-126.5 136q-37 78 -37 167q-1 37 6 77 z" />
<glyph unicode="F" horiz-adv-x="1079" d="M4 122q14 74 62 130q48 54 114 72q32 9 66 8q37 0 76 -10l-27 -107q-26 7 -49 7q-57 0 -96 -44q-30 -31 -38 -75q-3 -15 -3 -29q0 -29 12 -56q10 -23 32.5 -46t73.5 -27q9 -1 18 -1q41 0 81 24q48 28 88.5 71t71 89t44.5 75l154 266l-2 2q-33 8 -59 8q-9 0 -15 -1 q-30 -3 -49.5 -11t-30.5 -17l-10 -8l-84 72q2 2 19.5 18.5t51.5 33t85 23.5q14 2 30 2q40 0 89 -13q14 -2 32 -11l242 418q-109 -29 -209 -47t-186 -18t-151.5 24.5t-106.5 87.5q-29 43 -31 86v14q0 35 8 66q10 37 29.5 66.5t38.5 46.5l78 -78q-2 -2 -13.5 -14.5t-20.5 -32 t-11 -44t14 -48.5q29 -46 90 -58q37 -8 83 -7q29 0 61 3q83 8 180.5 30.5t195.5 47.5q113 29 225.5 54.5t216.5 33.5q36 3 70 3q64 0 121 -10q88 -15 154 -71l-72 -84q-43 38 -111 48q-42 6 -88 6q-29 0 -61 -2q-82 -6 -173 -25t-181 -41l-281 -483q74 -15 144 -17q2 0 4 -1 q67 0 118 44l70 -86q-47 -39 -100.5 -54t-106.5 -15q-47 0 -94 9t-92 21l-166 -290q-2 -4 -32 -54.5t-81 -109t-120.5 -106.5t-153.5 -48q-6 0 -12.5 1t-12.5 1q-72 8 -124 46t-77 100q-18 44 -18 91q1 25 6 51z" />
<glyph unicode="G" horiz-adv-x="972" d="M1 436q3 70 31.5 159t98.5 200q78 123 161 233.5t171 181t184 88.5q21 3 42 3q77 0 159 -50q61 -37 88 -98q18 -41 18 -89q0 -23 -4 -48q-8 -47 -28.5 -88t-50 -75t-67.5 -57.5t-79 -31.5l-23 106q25 6 47.5 21.5t41 38t32 49.5t17.5 55q2 11 2 23q0 19 -4 41 q-7 35 -47 59q-51 31 -105 34h-7q-50 0 -111 -40q-66 -43 -149 -142.5t-194 -273.5q-86 -135 -109 -251q-7 -38 -7 -72q0 -72 32 -127q31 -57 91 -89q56 -30 124 -30h9q86 2 159.5 45t126.5 119l107 184l49 -27l47 -28l-72 -127q-10 -16 -19 -32.5t-22 -33.5l-231 -401 q-4 -10 -24.5 -47t-54.5 -77t-82 -70.5t-109 -30.5q-23 0 -47 6l24 106q12 -3 24 -3q27 0 52 17q35 23 61.5 56t41.5 62l14 28l4 4l94 166q-63 -23 -141 -27h-9q-102 0 -184 46t-129 128q-18 33 -33 85q-12 42 -12 98q0 11 1 24z" />
<glyph unicode="H" horiz-adv-x="1669" d="M0 57v10q0 72 26 155q28 89 88 170t150 143.5t211 85.5q35 4 69 4q32 1 62 -3q64 -8 123 -24l365 633l96 -55l-354 -615q68 -29 131 -65.5t123 -73.5l104 -62l408 707q18 33 54 76t88 75t120 46q28 6 57 5q43 0 90 -12l-29 -106q-34 9 -64 9t-57 -9q-53 -18 -88.5 -47 t-54 -58.5t-20.5 -31.5l-406 -703q50 -23 94 -29q13 -2 27 -2q29 0 57 10q40 14 77.5 48.5t76.5 95.5l45 78l96 -53l-47 -82q-57 -90 -116 -136q-58 -47 -118 -61q-34 -8 -70 -8q-28 0 -54 5q-62 11 -123 38l-203 -354l-96 55l201 348l-107 64q-61 37 -123.5 72.5 t-128.5 64.5l-182 -315q-2 -4 -31.5 -54.5t-81 -109t-121 -106.5t-153.5 -48q-6 0 -12 1t-13 1q-84 10 -133 68.5t-53 154.5zM111 61q2 -37 18 -74.5t68 -41.5q9 -1 18 -1q42 0 81 24q48 28 88 71t70.5 89t45.5 75l172 297q-55 14 -119 14q-16 0 -30.5 -1t-30.5 -3 q-96 -16 -168 -66.5t-120 -116t-72 -137.5q-22 -66 -21 -120v-9z" />
<glyph unicode="I" horiz-adv-x="792" d="M0 -166l10 111q9 -1 18 -1q42 0 82 24q48 28 88 71t70.5 89t44.5 75l523 903q-34 18 -88 36q-35 11 -73 11q-22 0 -46 -4q-160 -25 -271 -227q-35 -62 -45 -118q-8 -43 -8 -79q0 -11 1 -21q3 -44 14.5 -73t21.5 -35l-45 -100q-55 27 -84 108q-20 59 -20 123q1 31 5 61 q14 98 62 189q141 250 352 280q30 4 60 4q28 0 56 -4q56 -8 101 -25.5t76 -36.5t43 -32l-6 -6l39 -20l-569 -987q-2 -4 -32 -54.5t-81 -109t-120.5 -106.5t-153.5 -48q-6 0 -12.5 1t-12.5 1z" />
<glyph unicode="J" horiz-adv-x="1173" d="M-1 -36q3 59 22.5 117t56.5 113.5t86 100.5q104 92 228 109q28 4 56 4q97 0 195 -46l-47 -100q-66 31 -121 34q-11 1 -22 1q-42 0 -78 -9q-45 -12 -80 -33.5t-57 -41.5q-37 -35 -66 -76t-44 -85t-18 -86q-1 -9 -1 -18q0 -32 10 -61q33 -98 172 -110q9 -1 18 -1 q40 0 74 16q41 18 77 51.5t67.5 78.5t64.5 94q8 14 16 26.5t19 27.5l547 958q-59 -29 -142.5 -57.5t-193.5 -57.5q-109 -29 -172.5 -87t-97 -118.5t-43 -108.5t-9.5 -52l-110 10l4 29q4 28 19 72t42 96.5t72 103.5t110.5 94t157.5 68q141 37 234.5 75t147.5 68.5t75 50.5 l22 19l43 -35l49 -27l-661 -1159l-2 -4q-10 -12 -17.5 -25.5t-17.5 -27.5q-35 -51 -72 -102.5t-81 -93.5t-98 -67.5t-124 -25.5h-28q-68 6 -116 27.5t-79 49.5t-47 57.5t-25 52.5q-15 44 -15 94v17z" />
<glyph unicode="K" horiz-adv-x="1271" d="M4 122q14 74 62 130q48 54 114 72q32 9 66 8q37 0 76 -10l-27 -107q-27 7 -50 7q-58 0 -95 -44q-30 -31 -38 -75q-3 -15 -3 -29q0 -29 12 -56q10 -23 32.5 -46t73.5 -27q9 -1 18 -1q41 0 81 24q48 28 88.5 71t71 89t44.5 75l476 823q-59 -29 -139.5 -56.5t-188.5 -56.5 q-109 -29 -173.5 -89t-98 -121.5t-42.5 -108.5l-10 -47l-110 10l5 29q5 28 19.5 72t42 96.5t72.5 103.5t109.5 94t156.5 68q119 31 202 61.5t138 58t87 49t44 34.5l4 8h4l2 2l13 -12l78 -45l-7 -11l3 -2l-9 -10l-233 -401q96 88 208.5 177t232.5 155q120 64 241 96 q71 19 140 19q48 0 95 -9l-22 -109q-36 7 -74 7q-48 0 -98 -11q-90 -20 -182.5 -66t-183.5 -110.5t-174 -135.5t-156.5 -142.5t-129.5 -130.5q56 -34 98 -100q41 -64 40 -169v-10q-1 -27 -1 -51q0 -89 17 -138q22 -62 47 -87q10 -10 28.5 -15.5t35.5 -9.5q20 -4 43 -4v-111 h-50q-16 0 -53 9.5t-78 46.5q-101 95 -101 312q0 25 1 52v15q0 36 -8 63q-10 33 -25.5 55.5t-34 35.5t-34.5 20l-64 -74l-104 -182q-2 -4 -32 -54.5t-81 -109t-120.5 -106.5t-153.5 -48q-6 0 -12.5 1t-12.5 1q-72 8 -124 46t-77 100q-18 44 -18 91q1 25 6 51z" />
<glyph unicode="L" horiz-adv-x="1359" d="M0 18q-1 10 -1 21q0 23 6 48q9 36 30.5 68.5t56.5 60.5t86 44q48 16 96 16q39 0 79 -10q89 -24 157 -90q4 8 7 14.5t7 12.5l465 807q6 8 29.5 44t61.5 76.5t87.5 78.5t104.5 51q23 5 45 5q58 0 108 -34q72 -49 78 -135q1 -7 1 -15q0 -79 -58 -168q-33 -51 -79 -93 t-97 -66q-52 -25 -104 -26h-3q-51 0 -96 28l57 94q25 -14 55.5 -10t62.5 22.5t60.5 47t51.5 63.5q4 8 15 28.5t18.5 46t4.5 50t-28 41.5q-22 15 -51 15q-8 0 -17 -1q-33 -8 -66.5 -33.5t-62 -57.5t-50 -62.5t-32.5 -47.5l-464 -802q0 -2 -27 -50q104 -78 208 -77l38 2 q84 10 159.5 59t137 111.5t107.5 128t71 108.5l45 80l96 -53l-47 -82q-35 -59 -89 -135t-125 -144.5t-157 -120t-184 -63.5q-23 -2 -46 -2q-144 0 -280 98q-51 -63 -125.5 -119.5t-169.5 -58.5q-6 0 -12 1t-12 1q-86 10 -142.5 59.5t-66.5 124.5zM111 31q10 -76 110 -86 q8 -1 15 -1q54 0 106 39q58 44 104 101q-6 4 -10 10q-70 70 -164 70q-35 0 -59 -8q-59 -18 -83 -56q-20 -31 -20 -58q0 -5 1 -11z" />
<glyph unicode="M" horiz-adv-x="1880" d="M0 -84l260 453l76 129l160 278q71 138 71 225q0 90 -35 123q-20 23 -48.5 25t-59.5 -14q-94 -47 -180 -203q-52 -96 -62 -173q-4 -29 -4 -53q0 -41 10 -71q12 -41 35 -49l-47 -101q-66 31 -94 117q-15 47 -15 102q-1 38 7 80q18 102 73 203q104 186 226 246q50 26 101 26 q12 1 26 -1q64 -8 110 -56q42 -44 58 -106q9 -35 10 -75q0 -31 -6 -65q76 78 152.5 136.5t154.5 78.5q36 9 69 9q71 0 134 -39q59 -39 75 -117q6 -32 6 -67t-6 -74q80 98 167 174t178 104q45 14 86 14q63 0 118 -32q69 -37 92 -117q8 -30 8 -61q0 -27 -6 -57 q-12 -62 -39.5 -128.5t-66.5 -135.5t-78 -134q-12 -16 -21 -30.5t-14 -24.5q0 -2 -16 -32t-36.5 -78t-40 -106.5t-24.5 -115.5q-1 -17 -1 -33q0 -38 8 -74q12 -50 55 -82l-67 -90q-63 47 -87 114q-22 62 -22 128v10q2 72 22.5 143.5t44 130t44 96.5t24.5 42q4 10 14.5 25.5 t22.5 35.5q25 39 57.5 95.5t60.5 115.5q28 60 44 118q9 35 10 64q0 19 -4 35q-6 33 -37 50q-30 18 -67 18q-24 0 -52 -8q-70 -23 -144.5 -88.5t-145 -152.5t-135 -184t-113.5 -183q-41 -78 -81 -149t-75 -128t-60.5 -96t-33.5 -51l-92 61q31 43 71.5 109.5t85.5 146.5 q4 6 23.5 44t52.5 97q39 74 73 149t56.5 142.5t32.5 125.5q6 32 6 60q0 22 -4 41q-6 23 -14.5 33t-16.5 15q-32 21 -69 21q-21 0 -43 -7q-72 -18 -152 -85t-156.5 -156t-145.5 -189.5t-120 -183.5l-338 -588z" />
<glyph unicode="N" horiz-adv-x="1343" d="M0 -84l254 442h2l240 418q71 138 71 225q0 90 -35 123q-20 23 -48.5 25t-59.5 -14q-94 -47 -180 -203q-52 -96 -62 -173q-4 -29 -4 -53q0 -41 10 -71q12 -41 35 -49l-47 -101q-66 31 -94 117q-15 47 -15 102q-1 38 7 80q18 102 73 203q104 186 226 246q50 26 101 26 q12 1 26 -1q64 -8 110 -56q44 -46 60 -112q8 -33 9 -69q0 -38 -9 -81q74 84 152.5 154.5t156.5 114.5q79 45 155 55q17 2 33 2q58 0 111 -29q68 -39 88 -115q9 -35 9 -75q0 -30 -5 -63q-12 -77 -43 -161t-75 -170t-87 -166l-20 -32q0 -2 -16.5 -32t-37 -78t-39 -106.5 t-24.5 -115.5q-2 -18 -2 -36q0 -37 8 -71q12 -50 56 -82l-66 -90q-63 47 -87 114q-22 61 -22 125q1 7 1 13q2 72 22 143.5t44 130t44.5 96.5t22.5 42l20 35q14 25 35.5 65.5t46.5 90t48.5 104.5t39.5 107q15 53 23 101q3 21 4 39q0 24 -6 44q-8 31 -37 47t-63 16 q-28 0 -60 -11q-70 -24 -148 -84.5t-160.5 -150.5t-161.5 -193.5t-151.5 -212t-128.5 -204.5v2l-254 -442z" />
<glyph unicode="O" horiz-adv-x="1290" d="M0 326q0 129 66 245l73 129q31 53 66 113.5t63 108.5q12 23 25.5 47t30.5 47q66 113 179 178.5t245 65.5q135 0 247.5 -65t178.5 -181t66 -244q0 -130 -66 -248l-175 -301q147 59 246 213l45 78l96 -53l-47 -82q-80 -123 -186 -197t-231 -94l-4 -6 q-66 -115 -180.5 -180.5t-245.5 -65.5q-135 0 -247 64.5t-179 181.5q-66 117 -66 246zM111 325.5q0 -100.5 51 -190.5q53 -90 139.5 -140t190.5 -50q86 0 161.5 35.5t128.5 99.5q-84 6 -161.5 34.5t-145 73.5t-123 106.5t-90.5 135.5q-20 41 -33.5 83t-17.5 87 q-10 -18 -19.5 -34.5t-15.5 -26.5q-8 -12 -14 -23q-51 -90 -51 -190.5zM320 714q-3 -25 -2 -50q0 -96 42 -187q31 -59 77 -110.5t103.5 -89t124 -60t134.5 -27.5h55l223 388q53 90 53 190t-53 190t-139 140.5t-190 50.5q-102 0 -190.5 -51t-139.5 -140l-2 -4 q-82 -118 -96 -240z" />
<glyph unicode="P" horiz-adv-x="1386" d="M-214 120q14 75 62 130q47 54 114 72q34 9 70 9q35 0 72 -9l-26 -109q-26 7 -49 7q-57 0 -97 -44q-29 -31 -37 -75q-3 -14 -2 -28q0 -29 11 -55q10 -23 32.5 -47t73.5 -28q9 -1 17 -1q43 0 83 24q48 30 88 72t70.5 88t44.5 75l451 776l96 -55l-282 -488q37 -37 90 -49 q35 -8 73 -8q19 0 39 2q58 6 118 28.5t114 55.5q80 47 147.5 115.5t107.5 150.5t45 173v18q0 82 -40 165q-31 66 -100.5 113t-161.5 64q-55 11 -108 11q-60 0 -118 -14q-108 -26 -186 -98q-33 -29 -58.5 -67.5t-45 -80.5t-29.5 -84t-12 -75q-2 -25 2 -36t6 -13l-74 -84 q-45 39 -45 125q0 43 12.5 96t36 107.5t57 105.5t76.5 88q98 88 232 122q72 18 146 19q63 0 128 -14q117 -23 208 -85t134 -150q52 -108 52 -211v-18q-5 -112 -52 -213t-128 -184t-175 -140q-86 -51 -169 -76t-161 -25q-131 0 -219 70l-108 -191q-2 -4 -32 -53t-81 -107.5 t-120.5 -106.5t-153.5 -48h-25q-72 8 -124 46t-75 99q-19 45 -19 94q-1 24 4 49z" />
<glyph unicode="Q" horiz-adv-x="1146" d="M8 59q-9 40 -9 77q0 48 15 92q25 79 90 132q66 55 155 66q19 2 38 2q69 0 137 -31q80 -35 143.5 -104.5t122.5 -147.5l60 103l129 225q78 133 89 263q2 20 2 40q0 107 -50 197q-47 80 -123 126t-174 50h-15q-98 0 -182 -47q-92 -51 -145 -144q0 -2 -1 -2t-1 -2 q-18 -25 -29.5 -61.5t-15.5 -76.5q-2 -18 -2 -35q0 -22 3 -44q5 -39 21 -67q30 -50 96 -50q7 0 15 1l10 -111q-13 -1 -26 -1q-56 0 -102 21q-56 27 -89 86q-25 43 -33 98q-5 35 -5 69q0 21 2 43q5 55 21.5 105t41.5 85q70 117 187 182q111 62 238 62h15q127 -4 228.5 -64.5 t160.5 -169.5q63 -116 63 -251q0 -19 -1 -39q-11 -158 -103 -318l-129 -225l-63 -109q-9 -19 -23 -35q41 -55 83 -105t88 -84t97 -48q26 -8 53 -8q28 0 58 8l27 -109q-51 -10 -86 -10q-66 0 -120.5 22.5t-102.5 60.5t-90 87t-81 100q-70 -61 -156 -96q-80 -33 -172 -33h-10 q-102 0 -167.5 26.5t-104.5 61.5t-55.5 74t-22.5 63zM117 84q14 -66 76.5 -101.5t166.5 -37.5h10q71 0 137 27q71 28 124 81q-59 80 -117.5 147.5t-124.5 96.5q-51 20 -94 20q-70 0 -121 -43q-41 -33 -56 -82q-8 -25 -8 -52t7 -56z" />
<glyph unicode="R" horiz-adv-x="1583" d="M2 121q14 76 64 129q48 54 114 72q34 9 69 9t73 -9l-27 -107q-26 6 -49 6q-60 0 -99 -43q-29 -33 -36 -77q-2 -14 -2 -27q0 -29 10 -56q10 -23 33.5 -46t74.5 -29h13q44 1 86 25q48 28 88.5 71t71 88t44.5 74l451 778l96 -55l-231 -398l33 -16q12 0 34.5 -4t51.5 -14 q4 0 8 -1.5t8 -1.5q15 -1 30 -1q47 0 95 10q64 12 122 38.5t110.5 64.5t91.5 85q52 61 74 144q16 57 15 114q0 25 -3 51q-6 47 -31 104.5t-86 100.5q-61 42 -138 62q-59 15 -120 15q-19 0 -37 -1q-80 -6 -156 -35t-133 -80q-33 -29 -59.5 -67.5t-45 -80.5t-29.5 -84t-11 -75 q-2 -25 1 -36t5 -13l-74 -82q-43 39 -43 123q0 43 12.5 97t36 108.5t57 104.5t76.5 89q72 63 165 99q94 36 192 42q21 1 42 1q77 1 151 -17q95 -24 173 -80q66 -47 108 -119.5t52 -160.5q5 -33 4 -67q0 -71 -20 -143q-30 -106 -95 -186q-78 -94 -190.5 -154.5t-237.5 -76.5 q36 -63 36 -145q0 -12 -1 -25q-1 -19 -1 -37q-1 -100 19 -154q22 -64 46 -88q10 -10 29.5 -16t37.5 -10q23 -4 45 -6l9 -105q-16 -1 -31 -1q-36 0 -70 6q-48 10 -94 51q-101 96 -101 319q0 22 1 45q1 11 1 21q0 79 -42 120q-14 14 -35 25q-76 12 -143 47l-164 -283 q-2 -4 -31 -53t-80 -107.5t-120.5 -106.5t-153.5 -48q-16 0 -27 2q-72 6 -123 44t-76 99q-18 45 -18 94q0 25 4 50z" />
<glyph unicode="S" horiz-adv-x="1034" d="M8 72q-8 42 -8 84q0 55 14 110l2 10q35 125 136.5 204t242.5 89l8 -110q-104 -8 -178.5 -64.5t-101.5 -148.5l-2 -8q-10 -42 -11 -83q0 -31 6 -59q13 -70 54 -121q27 -31 73 -59q40 -25 105 -25h19q55 2 111.5 22.5t105.5 54.5t86 81t49 107q11 48 11 98q0 157 -101 344 q-29 51 -54.5 106.5t-40.5 115.5q-16 60 -17 124v5q0 62 22 126q35 113 116.5 179.5t182.5 66.5h2q115 0 191 -54.5t99 -152.5q8 -33 7 -68q0 -20 -2 -40q-7 -56 -29.5 -105t-58 -89t-82.5 -62l-50 100q31 14 54.5 41t38 59.5t18.5 68.5q1 12 1 24q0 24 -5 47 q-12 59 -59.5 89.5t-122.5 30.5h-2q-39 0 -70 -15t-55.5 -40t-42 -54.5t-25.5 -58.5q-17 -51 -17 -101q0 -44 13 -87q27 -92 86 -205q113 -211 114 -394q0 -63 -14 -122q-18 -82 -65 -145.5t-110.5 -108.5t-136.5 -69.5t-142 -28.5h-21q-80 0 -148.5 31.5t-117.5 91.5 q-60 72 -78 168z" />
<glyph unicode="T" horiz-adv-x="1015" d="M2 124q14 74 61 130q47 54 114 72q34 9 70 9q35 0 72 -9l-26 -109q-26 7 -49 7q-57 0 -97 -44q-29 -31 -37 -75q-3 -14 -3 -28q0 -29 12 -57q10 -23 33.5 -46t72.5 -27q9 -1 18 -1q41 0 81 24q48 28 89.5 71t71 89t43.5 75l498 854q-86 -20 -167 -33.5t-154 -13.5 q-98 0 -180.5 30.5t-147.5 114.5l88 68q45 -59 109 -82q61 -22 135 -22h7q79 1 168 19.5t187 43.5q113 27 231 50q117 22 234 24h10q112 0 220 -30q114 -32 216 -118l-69 -84q-80 66 -168 94q-89 27 -183 29h-19q-85 1 -173 -15q-98 -18 -196 -40l-547 -942q-2 -4 -32 -53.5 t-81 -108t-120.5 -106.5t-153.5 -48h-25q-72 8 -123 46t-76 100q-18 45 -18 94q0 23 4 48z" />
<glyph unicode="U" horiz-adv-x="1206" d="M7 784q18 102 73 203q104 186 225 246q50 26 101 26q13 1 27 -1q65 -8 110 -56q67 -67 67 -181v-17q-6 -126 -86 -281l-151 -266q-23 -37 -51.5 -96.5t-50 -126t-28.5 -128.5q-2 -16 -2 -32q0 -43 15 -74q6 -14 23.5 -31.5t62.5 -23.5q8 -1 17 -1q47 0 103 36 q66 43 140 120.5t149.5 180t145.5 211.5q4 10 10 16l418 723l94 -55l-231 -400q-6 -14 -23.5 -46t-42 -77t-57.5 -99.5t-70 -113.5q-10 -16 -27.5 -53t-36 -83t-31.5 -99t-16 -105q-1 -10 0 -19q0 -41 10 -75q13 -43 52 -72l-65 -90q-73 53 -93 129q-15 55 -14 112 q0 23 2 46q-51 -61 -105.5 -116.5t-107.5 -95.5t-106.5 -63.5t-102.5 -23.5q-8 0 -15 1t-15 1q-76 12 -114 49t-54 72q-25 49 -25 110.5t13.5 123t36 120t43 103.5t36.5 72.5t16 29.5l152 262q71 139 71 226q0 89 -34 122q-20 23 -49 25t-60 -14q-94 -47 -180 -203 q-52 -96 -62 -173q-3 -28 -4 -51q0 -42 11 -73q12 -41 35 -49l-47 -101q-66 31 -95 117q-15 47 -15 100q0 40 8 82z" />
<glyph unicode="V" horiz-adv-x="1179" d="M7 784q18 102 73 203q104 186 225 246q54 29 108 29h15q62 -4 109 -45q20 -16 43 -49q22 -34 34 -88q9 -40 10 -93q0 -19 -2 -40q-4 -79 -36 -187q-18 -57 -47 -127q-18 -45 -39 -105.5t-40.5 -127t-33.5 -134.5q-14 -66 -22 -126q-6 -47 -5 -87v-20q2 -47 19 -72 q10 -16 31 -16q37 0 91 58t115.5 147.5t125 195t118.5 201.5q76 131 149.5 255t145.5 222t141.5 165t137.5 83q22 5 42 5q48 0 91 -26l-60 -94q-20 12 -47 6q-51 -12 -112.5 -78.5t-128 -163t-135 -210t-130.5 -219.5q-88 -154 -162.5 -276t-140 -207t-125 -130t-116.5 -45 h-5q-80 4 -118 68q-31 46 -35 122q-1 19 -1 39q0 59 9 123q12 86 34.5 172t45 157t40 115t17.5 46q16 35 25.5 62.5t17.5 52.5q27 93 32 155q2 26 2 47q0 31 -4 53q-7 38 -20.5 59t-21.5 28q-24 19 -53 19q-27 0 -58 -17q-94 -47 -180 -203q-52 -96 -62 -173q-3 -28 -4 -51 q0 -42 11 -73q12 -41 35 -49l-47 -101q-66 31 -95 117q-15 47 -15 100q0 40 8 82z" />
<glyph unicode="W" horiz-adv-x="1705" d="M7 784q18 102 73 203q104 186 225 246q54 29 108 29h15q62 -4 109 -45q20 -16 43 -49q22 -34 34 -88q9 -40 10 -93q0 -19 -2 -40q-4 -79 -36 -187q-18 -57 -47 -127q-18 -45 -39 -105.5t-40.5 -127t-33.5 -134.5q-14 -66 -22 -126q-6 -47 -5 -87v-20q2 -47 19 -72 q10 -16 31 -16q37 0 91 58t115.5 147.5t125 195t118.5 201.5q41 72 83 144.5t85 139.5l94 -57q-16 -33 -29.5 -67.5t-29.5 -73.5q-29 -68 -59.5 -167t-52.5 -200q-20 -100 -26 -184q-1 -15 -1 -29q0 -62 20 -92q8 -16 29 -16q37 0 91 58t115.5 147.5t125 195t118.5 201.5 q76 131 150 255t145.5 222t142 164.5t138.5 83.5q22 5 42 5q48 0 89 -26l-60 -94q-20 12 -45 6q-51 -12 -113.5 -78.5t-129 -163t-134 -210t-128.5 -219.5q-88 -154 -163 -276t-140.5 -207t-125 -130t-116.5 -45h-4q-78 4 -121 68q-21 33 -29 78q-8 40 -7 87v11 q1 53 10 111.5t22 117.5q-133 -223 -235.5 -348t-200.5 -125h-5q-80 4 -118 68q-31 46 -35 122q-1 19 -1 39q0 59 9 123q12 86 34.5 172t45 157t40 115t17.5 46q16 35 25.5 62.5t17.5 52.5q27 93 32 155q2 26 2 47q0 31 -4 53q-7 38 -20.5 59t-21.5 28q-24 19 -53 19 q-27 0 -58 -17q-94 -47 -180 -203q-52 -96 -62 -173q-3 -28 -4 -51q0 -42 11 -73q12 -41 35 -49l-47 -101q-66 31 -95 117q-15 47 -15 100q0 40 8 82z" />
<glyph unicode="X" horiz-adv-x="1060" d="M7 784q18 102 73 203q47 82 101.5 152.5t131.5 97.5q49 17 94 17q71 0 130 -42q158 -111 170 -512q96 156 190 258.5t180 164t160 91.5t130 40q42 8 71 7q10 -1 18 -1q33 -4 37 -3l-18 -108q-2 0 -30 1h-4q-27 0 -74 -12q-50 -12 -117.5 -42.5t-145.5 -93t-165 -165 t-175 -255.5l-39 -74q16 -109 50 -221.5t95.5 -204.5t153.5 -151.5t225 -59.5v-111q-227 0 -380.5 151.5t-225.5 438.5q-47 -92 -96 -181t-102.5 -162t-109.5 -120t-118 -53l-12 111q43 4 92 57t98 129t95.5 164t82.5 162l37 71q-4 35 -7 69t-7 69q-2 123 -15.5 204.5 t-32 134t-39 79t-36.5 38.5q-29 21 -68 21q-26 0 -57 -10q-25 -8 -48.5 -29t-45 -48.5t-40.5 -59t-38 -64.5q-52 -96 -62 -173q-3 -28 -4 -51q0 -42 11 -73q12 -41 35 -49l-47 -101q-66 31 -95 117q-15 47 -15 100q0 40 8 82z" />
<glyph unicode="Y" horiz-adv-x="1232" d="M7 784q18 101 73 203q104 186 225 246q50 26 101 26q14 0 27 -1q65 -9 110 -56q67 -67 67 -181v-17q-6 -127 -86 -281l-151 -266q-29 -45 -47 -105q-10 -30 -10 -56q0 -27 10 -50q23 -53 102 -74q16 -4 34 -4q49 0 108 34q79 46 160 129t158 187.5t138 206.5l293 506 l96 -55l-233 -402q-6 -10 -20.5 -36.5t-37.5 -61.5l-467 -811q-6 -10 -26.5 -47t-54 -77t-82 -70.5t-107.5 -30.5q-25 0 -49 6l27 106q12 -3 24 -3q27 0 51 17q35 23 61.5 56t40.5 62l15 28q0 2 2 4l137 238q-59 -45 -117.5 -71t-117.5 -26q-35 0 -60 9q-137 33 -178 139 q-17 43 -17 86q0 47 13 93q12 42 28.5 76t28.5 54l152 262q71 139 71 226q0 89 -34 122q-20 23 -49 25t-60 -14q-94 -47 -180 -203q-53 -96 -62 -173q-4 -28 -4 -51q0 -43 11 -73q12 -41 35 -49l-47 -101q-66 31 -95 117q-15 47 -15 100q0 39 8 82z" />
<glyph unicode="Z" horiz-adv-x="1120" d="M0 -41l1133 1108q-117 -25 -223.5 -25t-200.5 5q-63 3 -118 3q-28 0 -53 -1q-77 -2 -128 -33q-82 -49 -114 -105.5t-37 -104.5q-2 -16 -2 -30q0 -29 7 -52q10 -34 15 -42l-99 -49q-18 37 -28 94q-5 25 -5 52q-1 35 7 72q14 67 59 134.5t139 124.5q72 43 163 47 q46 2 95.5 2t102.5 -2q69 -4 143 -5h17q65 0 133 7q76 8 156.5 29.5t162.5 64.5l27 -49l39 -39l-1084 -1059q68 12 151 14q11 0 22 1q74 0 159 -15q92 -16 161 -49.5t132 -72.5q39 -25 78 -45.5t81 -35t90 -20.5q24 -3 50.5 -3t56.5 3l12 -110q-18 -2 -35.5 -3t-33.5 -1 q-117 0 -200 37.5t-157 82.5q-59 35 -117.5 65t-135.5 44q-80 14 -149 14q-22 0 -44 -2q-88 -6 -152.5 -23.5t-103.5 -36t-49 -24.5l-45 -45z" />
<glyph unicode="[" horiz-adv-x="806" d="M8 -211l834 1444q12 27 47 27h237l-49 -111h-155l-770 -1333h151l-59 -111h-189q-35 0 -47 29q-16 27 0 55z" />
<glyph unicode="\" horiz-adv-x="1273" d="M-35 1083l80 78l1194 -1204l-78 -78z" />
<glyph unicode="]" horiz-adv-x="827" d="M-291 -295l49 111h156l770 1333h-152l60 111h188q35 0 47 -29q16 -27 0 -55l-833 -1444q-14 -27 -47 -27h-238z" />
<glyph unicode="^" horiz-adv-x="720" d="M-6 844l393 383q20 20 49 14q27 -6 41 -33l172 -446l-102 -41l-144 369l-333 -326z" />
<glyph unicode="_" horiz-adv-x="1040" d="M2 0h959v-111h-959v111z" />
<glyph unicode="`" horiz-adv-x="331" d="M0 1233l88 65l215 -290l-90 -66z" />
<glyph unicode="a" d="M-66 305q12 94 57.5 191.5t110 177.5t144.5 131t162 51q150 0 221 -92q10 -16 19 -33.5t14 -36.5l77 135l97 -55l-234 -405l-6 -13v-2l-2 -4q-10 -23 -21.5 -55.5t-17.5 -66t-1 -63.5t30 -44t59 -8q25 6 69 34.5t93 112.5q31 53 56.5 98t45.5 80q23 39 41 74l96 -53 q-18 -35 -40 -74q-20 -35 -46 -81t-57 -99q-61 -104 -123.5 -147.5t-109.5 -53.5q-10 -2 -21.5 -3t-21.5 -1q-57 0 -99 27q-35 23 -53 51t-27 63q-53 -57 -123.5 -100t-156.5 -43q-39 0 -82 12q-86 24 -126 102q-29 55 -29 130q0 30 5 63zM41 238.5q0 -27.5 7 -52t22.5 -43 t44.5 -26.5q26 -8 52 -8q22 0 42 6q45 12 85 38.5t73.5 63.5t59.5 73t42 65.5t23 41.5l14 25l51 88q2 14 6 37.5t3 50.5t-7 52.5t-20 45.5q-37 49 -131 49q-57 0 -118 -43t-112 -109.5t-87 -147t-46 -154.5q-4 -25 -4 -52.5z" />
<glyph unicode="b" horiz-adv-x="858" d="M-248 84l795 1372l94 -55l-338 -586q41 20 86 31.5t96 11.5q78 0 119 -28.5t58 -57.5q26 -45 26 -110q0 -132 -108 -345q30 -30 70 -30h3q20 0 54 11t63 62l10 19q47 78 61.5 105.5t16.5 27.5l96 -51q0 -2 -15 -30t-62 -109l-11 -19q-37 -61 -91 -94t-118 -33h-10 q-68 2 -121 41q0 -2 -1 -2t-1 -2q-70 -119 -154.5 -166t-162.5 -47q-16 0 -32.5 2t-33.5 6q-68 16 -120 62.5t-82 113.5l-91 -155zM16 319q8 -78 49 -133t103 -71q20 -5 40 -5q50 0 100 30q70 40 120 128l25 45q-14 35 -14 71q-1 34 13 70q26 72 97 113l14 8q14 52 14 88 q0 34 -12 54q-4 6 -18.5 18.5t-61.5 12.5q-86 0 -157.5 -44.5t-121.5 -97.5t-79 -98t-29 -47z" />
<glyph unicode="c" horiz-adv-x="671" d="M-59 296q4 60 18 108.5t28.5 79t16.5 34.5l111 191q29 49 85 92t128 49q7 1 14 1q38 -1 86 -19q57 -22 115 -95l-88 -67q-53 69 -114 69h-5q-41 -4 -75 -30.5t-50 -55.5l-111 -190q-20 -41 -32 -84q-10 -37 -16 -80q-2 -12 -1 -24q0 -30 10 -60q20 -68 97 -100l41 -7 q15 -3 33 -3q30 1 69 9q61 14 134 62.5t138 161.5l23 39q23 39 37 64.5t24 41.5l15 29l98 -53q-6 -10 -16 -29q-10 -16 -24.5 -42t-37.5 -66l-24 -39q-51 -88 -108.5 -144.5t-115 -88.5t-113 -44t-100.5 -12q-41 0 -71.5 6t-46.5 14q-121 55 -158 166q-15 47 -15 95 q0 10 1 21z" />
<glyph unicode="d" d="M-66 305q12 94 57.5 191.5t110 177.5t144.5 131t162 51q150 0 221 -92q10 -16 19 -33.5t14 -36.5l440 762l96 -55l-596 -1032q-8 -16 -21.5 -50t-21.5 -73q-6 -28 -6 -55q0 -10 1 -19q3 -35 30 -51q29 -18 59 -8q25 6 69 34.5t93 112.5q31 53 56.5 98t45.5 80 q23 39 41 74l96 -53q-18 -35 -40 -74q-20 -35 -46 -81t-57 -99q-61 -104 -123.5 -147.5t-109.5 -53.5q-10 -2 -21.5 -3t-21.5 -1q-57 0 -99 27q-35 23 -53 51t-27 63q-53 -57 -123.5 -100t-156.5 -43q-39 0 -82 12q-86 24 -126 102q-29 55 -29 130q0 30 5 63zM41 238.5 q0 -27.5 7 -52t22.5 -43t44.5 -26.5q27 -8 53 -8q24 0 48 7q48 15 90 47t77 72.5t58.5 77.5t38.5 63l14 25h2q2 8 10 21l49 88q4 14 7 37.5t3 50.5t-6 52.5t-20 45.5q-37 49 -131 49q-57 0 -118 -43t-112 -109.5t-87 -147t-46 -154.5q-4 -25 -4 -52.5z" />
<glyph unicode="e" horiz-adv-x="669" d="M-61 296q4 60 18 108.5t28.5 79t16.5 34.5l86 150q51 86 117.5 135t132.5 51h7q36 0 82 -18q50 -20 99 -93q23 -39 30 -82q3 -19 3 -38q0 -24 -5 -48q-9 -43 -32.5 -81.5t-60.5 -71.5q-31 -27 -74 -46.5t-93 -25.5q-17 -2 -35 -2q-33 0 -71 8q-56 12 -116 45 q-14 -39 -22 -89q-2 -16 -2 -32q0 -33 11 -65q20 -68 97 -100l41 -7q15 -3 33 -3q30 1 69 9q61 14 134 62.5t138 161.5q31 53 50.5 87t31 53.5t14.5 26.5l3 7l98 -53l-100 -176q-51 -88 -109.5 -144.5t-116 -88.5t-113 -44t-100.5 -12q-41 0 -71.5 6t-46.5 14 q-121 55 -158 166q-15 47 -15 95q0 10 1 21zM121 502q72 -45 133 -45q10 0 20 1q70 9 113 48q37 31 55 81q7 19 8 38q0 30 -18 59q-39 59 -90 59q-37 0 -80 -35.5t-78 -95.5z" />
<glyph unicode="f" horiz-adv-x="387" d="M-362 -339q-3 17 -3 37q0 23 5 50q16 104 47.5 190.5t85.5 180.5l571 991l96 -55l-327 -570q2 -16 6 -63t6 -115q6 -6 8 -6q26 -14 56 -14q14 0 29 3q48 9 83 68l10 19q47 78 61.5 105.5t14.5 29.5l98 -53q-6 -10 -16 -29q-10 -16 -24.5 -42t-36.5 -66l-13 -19 q-39 -68 -94 -97.5t-113 -29.5q-29 0 -65 10q-4 -113 -24.5 -240.5t-73.5 -248.5q-39 -92 -102.5 -134t-125.5 -42q-29 0 -47 8q-25 6 -48.5 22.5t-39.5 44t-24 65.5zM-253 -290.5q-1 -14.5 1 -30t9 -28.5t24 -18q7 -2 15 -2q23 0 54 17q43 24 74 94q55 127 72.5 266 t17.5 252l-18 25l-129 -222q-49 -86 -77 -162.5t-42 -170.5q0 -6 -1 -20.5z" />
<glyph unicode="g" horiz-adv-x="913" d="M-184 -469q-6 21 -6 43q0 37 18 78q27 63 92 117q72 59 149.5 96t155.5 65l51 90q-53 -22 -105 -22h-5q-41 0 -80 12q-88 25 -128 102q-29 56 -29 130q0 30 5 63q12 94 57.5 191.5t111 177.5t144.5 131t163 51q147 0 219 -92q12 -16 20 -34.5t15 -37.5l79 137l97 -55 l-244 -422q-4 -6 -16.5 -28.5t-34.5 -57.5l-158 -276q59 25 116.5 53.5t113 71.5t108.5 101t102 142l11 19q47 78 61 105.5t14 29.5l99 -53q-6 -10 -17 -29q-10 -16 -24.5 -42t-36.5 -66l-12 -19q-68 -115 -140.5 -189.5t-149.5 -123.5t-155 -82t-155 -60q-4 -2 -10.5 -3 t-10.5 -5l-145 -250q-31 -51 -60.5 -81.5t-58.5 -47t-52.5 -21.5t-41.5 -5h-17q-41 4 -70.5 29.5t-39.5 66.5zM-78 -438q4 -10 9.5 -13.5t9.5 -3.5q16 -2 49 16.5t69 84.5l74 127q-37 -18 -72.5 -40t-70.5 -50q-43 -35 -58.5 -68t-9.5 -53zM45 291q-3 -21 -3 -42 q0 -31 6 -63q12 -53 67 -69q26 -8 51 -8q28 0 56 10q52 18 96 54t80 80t59 81l100 172q4 14 7 37.5t3 51.5t-7 54.5t-21 46.5q-37 49 -129 49q-59 0 -120 -43t-112 -109.5t-87 -147t-46 -154.5z" />
<glyph unicode="h" horiz-adv-x="868" d="M-246 82l793 1374l96 -55l-332 -576q47 23 99 30q14 2 28 2q37 0 76 -13q53 -20 77.5 -51t35.5 -58q12 -32 11 -71q0 -43 -14 -95q-28 -98 -114 -241q-33 -54 -43 -108q-4 -21 -4 -38q0 -28 10 -45q4 -6 15.5 -16t46.5 -10q31 0 67.5 27.5t70.5 65.5t63.5 81t45.5 73 l11 19q23 39 37 64.5t24 41.5l14 29l99 -53q-6 -10 -17 -29q-10 -16 -24.5 -42t-36.5 -66l-10 -19q-6 -12 -37 -60t-77 -102.5t-106.5 -97.5t-123.5 -43q-72 0 -109 29.5t-49 52.5q-19 33 -23 72q-2 15 -1 29q1 25 5 51q8 40 22.5 79t35.5 72q112 192 112 282q0 18 -4 31 q-4 10 -13 20.5t-34 20.5q-21 7 -43 7q-32 0 -68 -16q-58 -28 -110.5 -77t-94.5 -104t-63 -92l-248 -430z" />
<glyph unicode="i" horiz-adv-x="458" d="M-104 234q2 52 17 102.5t34 85.5l235 405l97 -55l-234 -403q-25 -49 -33 -93q-6 -27 -6 -54q0 -10 1 -20q3 -38 36 -61q10 -7 41 -21q19 -8 41 -9q15 0 31 4q86 18 159 145q10 16 18.5 30.5t16.5 31.5l8 12q23 39 40.5 72.5t31.5 56.5q16 27 29 49l96 -53 q-12 -23 -29 -51q-14 -25 -32.5 -58t-40.5 -71l-7 -13l-34 -61q-102 -170 -234 -197q-25 -6 -49 -6q-57 0 -97 18.5t-55 28.5q-49 35 -66 84q-15 44 -15 90v11zM238 946q0 33 22 55.5t55 22.5q31 0 53.5 -22.5t22.5 -55.5q0 -31 -22.5 -53.5t-53.5 -22.5q-33 0 -55 22.5 t-22 53.5z" />
<glyph unicode="j" horiz-adv-x="354" d="M-743 -469q-6 21 -6 43q0 38 17 78q27 63 93 117q72 59 149.5 96t155.5 65l518 899l97 -55l-453 -784q59 25 116.5 53.5t113 71.5t108.5 101t102 142l11 19q23 39 37 64.5t24 41.5l14 29l99 -53q-6 -10 -17 -29q-10 -16 -24.5 -42t-36.5 -66l-13 -19 q-68 -115 -140 -189.5t-149 -123.5t-155 -82t-156 -60q-4 -2 -10 -3t-10 -5l-145 -250q-31 -51 -61 -81.5t-58.5 -47t-52 -21.5t-41.5 -5h-17q-41 4 -70.5 29.5t-39.5 66.5zM-637 -438q4 -10 9 -13.5t10 -3.5q16 -4 48.5 15.5t69.5 85.5l74 127q-37 -18 -73 -40t-70 -50 q-43 -35 -58.5 -68t-9.5 -53zM238 946q0 33 22 55.5t55 22.5q31 0 53.5 -22.5t22.5 -55.5q0 -31 -22.5 -53.5t-53.5 -22.5q-33 0 -55 22.5t-22 53.5z" />
<glyph unicode="k" horiz-adv-x="704" d="M-248 82l793 1374l96 -55l-362 -631q53 40 109 64q52 23 98 22h8q70 -2 114 -63q32 -46 32 -97q0 -8 -1 -17q-6 -61 -53 -118q-55 -68 -152.5 -113t-206.5 -49q16 -39 21.5 -78.5t7.5 -74.5q4 -41 8 -67.5t15.5 -42t32 -20.5t55.5 -5q39 2 77.5 31.5t72.5 69.5t59.5 80 t37.5 64l15 21q23 39 36 64.5t23 41.5q10 18 17 29l96 -53q-4 -10 -15 -29q-10 -16 -25.5 -42t-37.5 -66l-10 -19q-6 -10 -34 -58t-73 -101.5t-105.5 -97.5t-129.5 -46h-13q-72 0 -112.5 23.5t-61 59.5t-27.5 77t-10 78q-6 66 -18 108.5t-57 69.5l-224 -389zM150 512 q24 -3 49 -3t51 3q51 6 99 22.5t88 41t65 55.5q16 20 22 36.5t5 29t-5 20.5l-6 12q-10 14 -31 16h-2q-29 0 -69.5 -20t-85.5 -54t-92 -75t-88 -84z" />
<glyph unicode="l" horiz-adv-x="460" d="M-102 234q2 52 17 102.5t34 85.5l598 1034l94 -55l-594 -1032q-25 -49 -33 -93q-6 -27 -6 -54q0 -10 1 -20q3 -38 36 -61q10 -7 41 -21q19 -8 41 -9q15 0 31 4q86 18 159 145q10 16 17.5 30.5t17.5 28.5l8 15q23 39 40.5 72.5t31.5 56.5q16 27 29 49l98 -53 q-12 -23 -29 -51q-14 -25 -33.5 -58t-41.5 -71l-9 -15l-32 -59q-102 -170 -234 -197q-25 -6 -49 -6q-57 0 -97 18.5t-54 28.5q-48 35 -66 84q-16 44 -16 91v10z" />
<glyph unicode="m" horiz-adv-x="1210" d="M-248 82l432 747l62 -36q59 45 121 59q26 6 51 6q57 0 104 -33q53 -37 76 -86q54 59 120 96q40 22 82 22q27 0 56 -9q53 -20 77.5 -51t35.5 -58q12 -31 12 -70q0 -44 -16 -97q-29 -99 -115 -244q-33 -54 -43 -108q-4 -21 -4 -38q0 -28 10 -45q4 -6 15.5 -16t45.5 -10 q31 0 68 27.5t71 65.5t63.5 81t45.5 73l11 19q47 78 62 105.5t15 29.5l97 -53q-4 -10 -15 -29q-10 -16 -25.5 -42t-37.5 -66l-10 -19q-6 -12 -37 -60t-77 -102.5t-106.5 -97.5t-124.5 -43q-72 0 -108.5 29.5t-48.5 52.5q-19 33 -23 72q-2 15 -1 29q1 25 5 51q8 40 22.5 79 t35.5 72q114 193 114 282q0 20 -6 35q-4 10 -12 20.5t-33 20.5q-25 8 -58.5 -11t-68.5 -56t-69.5 -84t-61.5 -96l-20 -39q-86 -147 -141.5 -243.5t-82.5 -143.5l-26 -45l-96 57l26 43q27 47 82 143.5t141 243.5q6 14 23 41q20 43 27.5 73.5t4.5 51t-13.5 34t-22.5 21.5 q-24 14 -50 14q-11 0 -22 -2q-43 -10 -89 -45.5t-86 -81t-71.5 -90.5t-48.5 -71l-248 -430z" />
<glyph unicode="n" horiz-adv-x="866" d="M-248 82l432 747l66 -38q60 41 126 59q28 8 57 8q39 0 79 -14q53 -20 77.5 -51t35.5 -58q12 -32 11 -71q0 -43 -14 -95q-28 -98 -114 -241q-33 -54 -43 -108q-4 -21 -4 -38q0 -28 10 -45q4 -6 15.5 -16t45.5 -10q31 0 68 27.5t71 65.5t63.5 81t45.5 73l11 19 q23 39 37 64.5t24 41.5l14 29l99 -53q-6 -10 -17 -29q-10 -16 -24.5 -42t-36.5 -66l-10 -19q-6 -12 -37 -60t-77 -102.5t-106.5 -97.5t-124.5 -43q-72 0 -108.5 29.5t-48.5 52.5q-19 33 -23 72q-2 15 -1 31q0 25 4 49q7 40 22.5 79t36.5 72q112 192 112 282q0 18 -4 31 q-4 10 -13 20.5t-34 20.5q-21 7 -43 7q-32 0 -68 -16q-58 -28 -110.5 -77t-94.5 -104t-63 -92l-248 -430z" />
<glyph unicode="o" horiz-adv-x="843" d="M-57 160q-14 43 -14 92q0 144 118 348q41 72 78 119t72.5 76.5t71.5 45t77 23.5q27 6 60.5 6t68.5 -8t69 -25.5t60 -45.5q18 -18 34 -47t24 -68q6 -29 6 -64q0 -12 -1 -26q-3 -51 -24 -117q-8 -25 -23.5 -69t-37.5 -95q29 -18 57 -18q20 0 54 11t63 62l10 19 q47 78 61.5 105.5t16.5 27.5l96 -51q0 -2 -15.5 -30t-62.5 -109l-10 -19q-37 -61 -91 -94t-118 -33h-10q-55 2 -103 29q-39 -66 -89 -121t-115 -84q-55 -25 -113 -25q-66 0 -125 29q-111 49 -145 156zM47 193q18 -58 86 -89q40 -19 79 -19q35 0 69 15q49 23 92 72t78 115 l-7 12q-16 37 -18 75v10q0 32 10 64q12 36 37 67.5t62 51.5l20 11q2 16 2 31q0 23 -4 43q-6 36 -29 63q-23 25 -54.5 35t-61.5 10q-10 0 -19.5 -1t-19.5 -3q-20 -4 -43 -11.5t-50.5 -29t-60.5 -61.5t-74 -109q-102 -180 -102 -293q0 -32 8 -59z" />
<glyph unicode="p" horiz-adv-x="858" d="M-571 -477l753 1306l72 -43q49 31 106.5 50.5t122.5 19.5q78 0 118 -28.5t58 -57.5q26 -46 26 -110q0 -132 -107 -341q16 -14 34.5 -23t40.5 -9q20 0 54 11t63 62l10 19q47 78 61.5 105.5t16.5 27.5l96 -51q0 -2 -15 -30t-62 -109l-11 -19q-37 -61 -91 -94t-118 -33h-10 q-72 4 -123 43l-4 -8q-68 -119 -152.5 -166t-162.5 -47q-16 0 -32.5 2t-33.5 6q-68 16 -121 62.5t-81 113.5l-412 -714zM14 317q8 -78 48 -133t104 -69q20 -5 40 -5q50 0 100 28q69 40 120 128l27 47q-14 35 -14 71q0 35 13 70q27 72 97 113l12 6q13 49 13 83q0 38 -11 59 q-4 6 -18.5 18t-61.5 12q-86 0 -157.5 -44t-121.5 -97t-79 -98t-29 -47z" />
<glyph unicode="q" horiz-adv-x="892" d="M-66 305q12 94 57.5 191.5t110 177.5t144.5 131t162 51q150 0 221 -92q10 -16 19 -33.5t14 -36.5l77 135l97 -55l-242 -418l2 -2q-4 -4 -4 -6l2 -2q12 -25 37.5 -41t56.5 -18q20 0 54 11t63 62l10 19q47 78 61.5 105.5t16.5 27.5l96 -51q0 -2 -15.5 -30t-62.5 -109 l-10 -19q-37 -61 -91 -94t-118 -33h-10q-90 4 -152 68l-448 -776l-96 55l286 495q-25 -10 -51 -15t-55 -5q-39 0 -82 12q-86 25 -126 102q-29 56 -29 130q0 30 5 63zM41 238.5q0 -27.5 7 -52t22.5 -43t44.5 -26.5q26 -8 52 -8q24 0 48 7q49 15 91 47t77 72.5t59 77.5l33 56 q-1 8 -1 16q0 44 20 86q22 49 69 84q2 20 2 41q0 16 -1 33q-3 39 -25 67q-37 49 -131 49q-57 0 -118 -43t-112 -109.5t-87 -147t-46 -154.5q-4 -25 -4 -52.5z" />
<glyph unicode="r" horiz-adv-x="692" d="M0 512l276 481l97 -55q-29 -61 -29 -105v-11q4 -48 28.5 -82.5t61.5 -57.5t68 -41l-158 -272q-8 -16 -21.5 -50t-21.5 -73q-5 -26 -5 -50q0 -12 1 -24q4 -35 31 -51t57 -8q12 2 29.5 10t39 24.5t45 44t48.5 68.5q31 53 56.5 98t45.5 80q23 39 43 74l96 -53 q-20 -35 -43 -74q-20 -35 -45.5 -81t-56.5 -99q-61 -104 -122.5 -147.5t-108.5 -53.5q-10 -2 -22.5 -3t-22.5 -1q-53 0 -99 27q-50 31 -68 82q-15 44 -15 91v16q3 56 21.5 110.5t41.5 95.5l100 176q-41 23 -76 70q-8 12 -15 24.5t-13 24.5l-164 -287z" />
<glyph unicode="s" horiz-adv-x="714" d="M0 512l70 123q20 39 56 84t83 80t105 51q26 7 52 7q33 0 68 -11q4 -2 8 -2q0 -2 2 -2l-16 -45l-18 -60q-12 2 -23 2q-10 0 -20.5 -2t-20.5 -8q-31 -18 -41 -82q-2 -10 -2 -21q1 -37 23 -74q28 -48 67 -97q41 -53 78 -112.5t39 -131.5q29 33 59.5 69.5t59.5 81.5l10 17 q23 39 36 64.5t23 41.5q10 18 17 27l96 -51q-4 -10 -14 -29q-10 -16 -25.5 -41.5t-38.5 -66.5l-10 -19q-111 -168 -232.5 -256t-240.5 -88h-25.5t-25.5 4q-76 10 -129 60q-50 53 -50 125q0 31 9 65l106 -31q-5 -16 -4 -30q0 -30 19 -52q24 -22 62 -28q12 -2 24 -2q27 0 55 8 q20 4 55 24.5t47 69.5q6 18 6 36q-1 34 -21 68q-30 52 -73 109q-39 51 -73.5 108.5t-38.5 127.5q-27 -41 -27 -43l-84 -150z" />
<glyph unicode="t" horiz-adv-x="460" d="M-102 234q2 52 17 102.5t34 85.5l313 543l51 90h-157v110h223l168 291l94 -55l-135 -236h131v-110h-195l-51 -90l-344 -596q-25 -49 -33 -93q-6 -27 -6 -54q0 -10 1 -20q3 -38 36 -61q10 -7 41 -21q19 -8 41 -9q15 0 31 4q86 18 159 145q10 16 18.5 30.5t16.5 31.5l8 12 q23 39 40.5 72.5t31.5 56.5q16 27 29 49l96 -53q-12 -23 -29 -51q-14 -25 -32.5 -58t-40.5 -71l-6 -13l-35 -61q-102 -170 -234 -197q-25 -6 -49 -6q-57 0 -97 18.5t-54 28.5q-48 35 -66 84q-16 44 -16 91v10z" />
<glyph unicode="u" horiz-adv-x="870" d="M-106 246q2 86 55 178q16 29 37 63q16 29 36.5 65t43.5 75q51 88 116 202l97 -55l-234 -405q-8 -14 -19.5 -39t-17.5 -53.5t-3 -59.5t24 -57q38 -49 87 -49h8q54 4 95 32q37 25 73 68t68 92q4 12 9 16q53 100 80.5 145.5t31.5 49.5l181 315l96 -55l-185 -319l-4 -6 l-30 -56l-27 -51q-10 -23 -20.5 -55.5t-15.5 -64.5t1 -59.5t29 -41.5q29 -18 59 -8q25 6 69 34.5t93 112.5q31 53 56.5 98t45.5 80q23 39 41 74l97 -53q-18 -35 -41 -74q-20 -35 -47 -81t-58 -99q-59 -104 -121.5 -147.5t-109.5 -53.5q-10 -2 -21.5 -3t-23.5 -1 q-25 0 -49.5 6t-46.5 21q-61 35 -78 104q-45 -51 -88 -80q-76 -51 -158 -51q-53 0 -101.5 23.5t-82.5 70.5q-47 63 -47 145v7z" />
<glyph unicode="v" horiz-adv-x="757" d="M-54 232q2 85 23 176.5t56.5 178.5t72.5 150l54 92l94 -55l-53 -92q-37 -66 -68 -144.5t-49 -153.5q-19 -74 -21 -140q0 -6 -1 -12q0 -58 20 -91q14 -29 49 -30h7q67 0 151 104q35 43 69 100q-12 33 -12 66q0 37 15 75q28 70 96 111l26 15q39 108 57 194q12 56 13 90 q0 18 -4 31l106 31q6 -22 6 -52q0 -26 -4 -56q-8 -68 -30.5 -152t-58.5 -175.5t-81 -175.5q30 -30 71 -30h3q20 0 54 11t63 62l10 19q47 78 61.5 105.5t16.5 27.5l96 -51q0 -2 -15.5 -30t-62.5 -109l-10 -19q-37 -61 -91 -94t-118 -33h-10q-70 2 -125 45q-25 -39 -55 -76 q-121 -145 -238 -145h-14q-96 6 -140 90q-30 54 -30 134q1 4 1 8z" />
<glyph unicode="w" horiz-adv-x="1138" d="M-60 259q6 87 32 175t63 169t67 134l54 92l96 -55l-53 -92q-37 -66 -70 -141.5t-52.5 -149.5t-24.5 -136q-1 -13 -1 -25q0 -45 15 -76q14 -33 51 -39q6 -1 12 -1q27 0 53 22q32 26 64.5 71t62 99t53.5 104q14 29 26.5 54t27.5 48l24 47l142 268l98 -51l-143 -270 q-83 -150 -103 -239q-10 -46 -11 -77q0 -29 9 -45q4 -6 17.5 -18t54.5 -16h7q67 0 151 104q35 43 69 100q-12 33 -12 66q0 37 15 75q28 70 95 111l27 15q40 108 58 194q12 56 12 90q0 18 -4 31l106 31q6 -22 6 -52q0 -26 -4 -56q-8 -68 -30.5 -152t-58.5 -175.5t-81 -175.5 q30 -30 71 -30h3q20 0 54 11t63 62l10 19q47 78 61.5 105.5t16.5 27.5l96 -51q0 -2 -15.5 -30t-62.5 -109l-10 -19q-37 -61 -91.5 -94t-117.5 -33h-10q-70 2 -125 45q-25 -39 -55 -76q-121 -145 -238 -145h-14q-72 4 -109 33.5t-53 58.5l-12 31q-41 -53 -88.5 -87 t-104.5 -34q-8 0 -16.5 1t-18.5 3q-90 18 -131 103q-24 51 -24 119q0 15 1 31z" />
<glyph unicode="x" horiz-adv-x="839" d="M-86 84q2 2 27.5 39t79 93t135.5 125t196 138q14 41 26.5 80t17.5 73t2 58.5t-21 36.5q-27 18 -52 18q-8 0 -16 -2q-35 -10 -62.5 -40.5t-35.5 -45.5l-129 -227l-82 82l115 201q2 4 14 22.5t33.5 41t52.5 43t68 30.5q21 5 42 5q57 0 111 -36q62 -41 70 -107q2 -20 3 -41 q0 -49 -13 -104q63 45 110 92.5t79 84t49 60.5l16 25l94 -57q-2 -4 -25.5 -40t-72 -89t-122 -115.5t-171.5 -117.5l-9 -7q-41 -119 -48 -193q-1 -8 -1 -14q0 -62 54 -87q19 -9 40 -9q44 0 96 40q77 60 156 198l23 39q47 78 61.5 105.5t14.5 29.5l98 -53q-6 -10 -16 -29 q-10 -16 -24.5 -42t-37.5 -66l-24 -39q-51 -88 -99.5 -145.5t-92.5 -90.5t-84 -45t-73 -12q-25 0 -46 5t-38 13q-49 23 -74.5 55.5t-35.5 72.5q-7 29 -7 60q0 12 1 25q4 45 14 92q-78 -55 -133 -106t-90 -91t-52 -64l-18 -25z" />
<glyph unicode="y" horiz-adv-x="831" d="M-266 -469q-6 21 -6 43q0 37 18 78q27 63 92 117q72 59 150 96t155 65l45 78q-30 -8 -65 -8q-53 0 -101.5 23.5t-82.5 70.5q-47 63 -47 145v7q2 86 55 178q16 29 37 63q16 29 36.5 65t42.5 75q51 88 117 202l96 -55l-233 -405q-8 -14 -19.5 -39t-17.5 -53.5t-3 -59.5 t24 -57q38 -49 87 -49h8q54 4 95 32q37 25 73 67t66 89l80 141l4 6q12 23 20.5 40.5t18.5 27.5l2 2l181 313l96 -55l-234 -403l-8 -15q-12 -23 -27.5 -49t-31.5 -53l-152 -264q59 25 116.5 53.5t113 71.5t108.5 101t102 142l11 19q23 39 37 64.5t24 41.5l14 29l99 -53 q-6 -10 -17 -29q-10 -16 -24.5 -42t-36.5 -66l-12 -19q-68 -115 -140.5 -189.5t-149.5 -123.5t-155 -82t-155 -60q-4 -2 -10.5 -3t-10.5 -5l-145 -250q-31 -51 -60.5 -81.5t-58.5 -47t-52.5 -21.5t-41.5 -5h-17q-41 4 -70.5 29.5t-39.5 66.5zM-160 -438q4 -10 9.5 -13.5 t9.5 -3.5q16 -4 49 15.5t69 85.5l74 127q-37 -18 -72.5 -40t-70.5 -50q-43 -35 -58.5 -68t-9.5 -53z" />
<glyph unicode="z" horiz-adv-x="815" d="M-190 -401q-6 22 -6 44q0 37 17 77q27 62 93 116q66 53 128 84t122 53v20q0 35 -5 66q-7 39 -18.5 67t-20.5 43l-9 15l2 23q57 23 116.5 66.5t109.5 98t84 114t44 110.5q3 16 3 30q0 53 -36 83q-47 41 -89 41q-9 0 -17 -2q-25 -4 -48.5 -20.5t-42 -37t-30.5 -41 t-19 -33.5l-106 -186l-82 82l90 158q2 6 17.5 31.5t43 56t66.5 59.5t88 39q14 2 31 3q25 0 57 -6q53 -9 113 -62q74 -65 75 -160q0 -25 -6 -53q-10 -59 -41.5 -119t-75.5 -116t-99.5 -105.5t-110.5 -85.5q10 -29 17 -65t9 -77q61 18 120 41t115 62t111.5 99t112.5 157l10 18 q23 39 37.5 63.5t22.5 38.5q8 16 12 23l98 -51q0 -2 -13 -25.5t-60 -103.5l-11 -19q-68 -115 -135 -185.5t-134.5 -114.5t-134.5 -68.5t-132 -44.5q-8 -4 -15.5 -5t-13.5 -4q-10 -47 -40.5 -113.5t-74 -128t-98.5 -104.5t-114 -43h-17q-41 6 -70.5 32t-39.5 65zM-84 -371 q4 -10 9 -13t9 -3h7q24 1 51 25q31 28 58.5 66t50 78t32.5 60q-39 -16 -76 -38.5t-73 -53.5q-43 -35 -58.5 -67.5t-9.5 -53.5z" />
<glyph unicode="{" horiz-adv-x="694" d="M8 -63q-27 88 25 174l260 452l-47 88q-8 10 -8 31q-2 23 13 38t38 17l104 4l262 453q25 41 62 68.5t80 37.5q23 6 51.5 6.5t59 -9t63.5 -32t65 -63.5l-86 -69q-61 76 -129 61q-43 -10 -69 -55l-279 -480q-14 -27 -45 -26l-45 -2l20 -43q14 -25 0 -53l-276 -480 q-26 -45 -12 -88q18 -63 116 -82l-16 -108q-51 8 -87 25.5t-60.5 40t-39 47t-20.5 47.5z" />
<glyph unicode="|" horiz-adv-x="1069" d="M0 -346l973 1685l96 -55l-973 -1685z" />
<glyph unicode="}" horiz-adv-x="892" d="M-207 -111l86 70q61 -78 129 -61q43 10 70 55l278 479q12 27 45 27l45 2l-20 43q-14 25 0 53l276 479q25 45 13 88q-18 63 -117 82l16 109q51 -8 87 -25.5t60.5 -40t39 -47t20.5 -47.5q27 -88 -24 -174l-260 -453l47 -88q8 -10 8 -30q2 -23 -13.5 -38.5t-37.5 -17.5 l-105 -4l-262 -452q-25 -41 -61.5 -69t-79.5 -38q-23 -6 -51.5 -6t-59.5 9t-63.5 31.5t-65.5 63.5z" />
<glyph unicode="~" horiz-adv-x="983" d="M166 311q25 31 62.5 63t83.5 50t96.5 18.5t99.5 -34.5q39 -27 84 -46.5t93 -25.5t95 6t88 49l74 -84q-100 -84 -225 -84q-66 0 -135.5 23.5t-137.5 70.5q-31 20 -64.5 12.5t-62 -27t-47.5 -40.5l-18 -20z" />
<glyph unicode="&#xa1;" horiz-adv-x="573" d="M-309 -508l639 1110l96 -55l-641 -1110zM371 750q0 35 25.5 60.5t60.5 25.5t60.5 -26t25.5 -60q0 -35 -25.5 -60.5t-60.5 -25.5t-60.5 25.5t-25.5 60.5z" />
<glyph unicode="&#xa2;" horiz-adv-x="671" d="M0 -82l96 166q-41 47 -57 98q-18 57 -14 115.5t18 107t28.5 79t16.5 34.5l111 191q33 57 110.5 99t163.5 46q12 0 28.5 -1t35.5 -5l118 205l97 -56l-117 -200q29 -27 51.5 -68t36.5 -104l-109 -21q-12 53 -30.5 82t-39 41t-39 14t-26.5 2q-66 -4 -117 -31.5t-67 -58.5 l-111 -190q-20 -41 -32 -84q-10 -37 -15.5 -80t8.5 -84q20 -63 97 -100l24 -5q25 -6 64 -5t89 16.5t103 56.5l68 -88q-74 -55 -145.5 -75.5t-129.5 -20.5q-41 0 -71.5 7t-46.5 13l-11 6l-90 -157z" />
<glyph unicode="&#xa3;" horiz-adv-x="1146" d="M0 -32.5q0 22.5 10 36.5q20 31 57 33t109 -12q37 35 82 92t86 121l148 254h-140v110h203l211 367q4 8 25.5 39.5t56.5 70.5t80 73t98 46q75 18 145 -27q66 -47 72 -125.5t-53 -171.5q-31 -47 -73 -84.5t-90 -60t-96 -23.5t-91 25l57 94q20 -12 47 -8t54.5 20.5t54 42 t45.5 56.5q4 6 13 24.5t15.5 40t4 43t-22.5 35.5q-27 18 -57 13q-29 -6 -58.5 -30t-55.5 -51.5t-46.5 -55t-28.5 -42.5l-180 -311h178v-110h-242l-178 -310q-16 -29 -52 -81t-83 -103q82 -16 181.5 -28.5t195.5 -4.5t179 45t136 119l95 -59q-41 -66 -95.5 -108t-117 -66.5 t-130 -35t-137.5 -10.5q-113 0 -219 19.5t-188 36.5q-23 -16 -45.5 -25.5t-44.5 -9.5q-57 -4 -92 43q-23 31 -23 53.5z" />
<glyph unicode="&#xa4;" horiz-adv-x="878" d="M6 209q2 2 35 32.5t104 53.5q-53 55 -80.5 129t-17.5 158q10 68 44 127t87 100l37 25q-63 37 -86 73.5t-27 44.5l103 41q0 -2 10 -16t34.5 -33.5t68.5 -38t114 -28.5t117 -3t75.5 19t41.5 25l14 12l90 -64q-4 -4 -36 -34.5t-103 -53.5l28 -30q86 -115 68 -254 q-10 -84 -55 -148.5t-113 -103.5q63 -39 87 -75t28 -44l-103 -41q0 2 -10 16.5t-34.5 33t-68.5 36.5t-114 29q-70 10 -117 3t-75.5 -19.5t-41.5 -24.5l-14 -11zM158 567q-6 -47 6 -92t39.5 -80t67.5 -58.5t87 -29.5t91.5 6.5t80 40t59 67.5t29.5 87q12 96 -47 172 q-29 35 -67.5 58.5t-85.5 29.5q-8 0 -15.5 1t-15.5 1q-80 0 -141 -49q-76 -57 -88 -154z" />
<glyph unicode="&#xa5;" horiz-adv-x="956" d="M111 -78l188 414h-170l-14 110h233l55 125h-194l-12 111h252l-207 633l104 22l191 -583l579 401l72 -94l-547 -379h137l13 -111h-259l-57 -125h221l15 -110h-285l-211 -469z" />
<glyph unicode="&#xa6;" horiz-adv-x="864" d="M-160 -346l379 661l96 -55l-378 -661zM326 502l379 661l96 -55l-379 -662z" />
<glyph unicode="&#xa7;" horiz-adv-x="1112" d="M6.5 -258q-14.5 74 3.5 152l2 8q29 98 107 158.5t188 68.5l8 -109q-74 -6 -126 -46t-70 -103l-2 -6q-12 -51 -3 -99.5t38 -82.5q16 -20 48.5 -40t86.5 -16q39 2 79 15.5t74.5 38t59 57.5t35.5 74q31 137 -66 317q-23 41 -42 85t-30.5 90t-11.5 94t16 98q10 33 37 65.5 t64 60t80 49t86 29.5q-14 51 -16.5 104.5t14.5 110.5q29 88 93 140.5t142 52.5h2q90 0 151.5 -44t78.5 -122q10 -41 5 -84t-22.5 -82t-47.5 -69.5t-67 -49.5l-49 99q41 20 61.5 67t10.5 95q-16 80 -121 79h-2q-51 0 -84 -37.5t-45 -78.5q-23 -66 -3.5 -132.5t62.5 -146.5 q117 -215 76 -395q-12 -49 -37.5 -91t-60.5 -74t-77 -55.5t-85 -35.5q12 -84 -6 -164q-14 -61 -50 -110.5t-85 -84t-105.5 -54t-109.5 -21.5h-15q-131 0 -210 96q-45 55 -59.5 129zM504 328.5q18 -66.5 63 -146.5q16 -33 29.5 -63.5t24.5 -59.5q61 18 112.5 62t65.5 110 q31 141 -64 318q-8 10 -13 22.5t-11 24.5q-29 -2 -63 -16.5t-63.5 -35t-51 -43t-27.5 -40.5q-20 -66 -2 -132.5z" />
<glyph unicode="&#xa8;" horiz-adv-x="403" d="M0 1112q0 29 19.5 48.5t48.5 19.5t48 -19.5t19 -48.5t-19 -48.5t-48 -19.5t-48.5 19.5t-19.5 48.5zM188 1112q0 29 19.5 48.5t48.5 19.5t48.5 -19.5t19.5 -48.5t-19.5 -48.5t-48.5 -19.5t-48.5 19.5t-19.5 48.5z" />
<glyph unicode="&#xa9;" horiz-adv-x="1374" d="M0 467q0 133 50 250t138 204t204 137t249 50t250 -50t205 -137t138 -204t50 -250t-50 -250t-138 -204t-205 -137t-250 -50t-249 50t-204 137t-138 204t-50 250zM111 467q0 -111 42 -207t113.5 -168t167.5 -113.5t207 -41.5t207 41.5t169 113.5t115 168t42 207t-42 207 t-115 167.5t-169 113.5t-207 42t-207 -42t-167.5 -113.5t-113.5 -167.5t-42 -207zM264 394q-12 75 6 153t65.5 138t110 99t137 51t152.5 -6q72 -18 131.5 -61t100.5 -104l-93 -60q-59 92 -165 117q-55 14 -108.5 5t-98.5 -36.5t-78 -71t-47 -98.5t-5 -108.5t36.5 -98.5 t70.5 -77.5t99 -47.5q94 -23 176 15l45 -101q-72 -33 -156 -32q-47 0 -92 12q-78 18 -138.5 65.5t-98.5 109.5t-50 137z" />
<glyph unicode="&#xaa;" horiz-adv-x="815" d="M4 774q10 78 48 159t91.5 147.5t120 108.5t135.5 42q78 0 122 -25.5t67 -54.5q10 -16 20 -39l54 92l94 -55l-191 -332q0 -2 -4 -10v-2q-10 -18 -18 -45t-12.5 -52.5t-1.5 -47t20 -29.5q16 -12 39 -6l26 -109q-10 -2 -19 -3t-20 -1q-47 0 -86 25q-47 29 -63 81 q-45 -43 -101.5 -74.5t-121.5 -31.5q-37 0 -70 8q-74 23 -108.5 89.5t-20.5 164.5zM113 758q-17 -113 51 -131q55 -16 106.5 12.5t91 71.5t65.5 86t32 55l10 20l41 70q2 12 5 29.5t3 38t-4 40t-16 35.5q-29 35 -99 35q-45 0 -92 -34.5t-88 -88t-69.5 -117t-36.5 -122.5z" />
<glyph unicode="&#xab;" horiz-adv-x="886" d="M123 539q-2 18 8 36l363 568l92 -60l-350 -551l88 -634l-109 -15zM387 539q-2 18 8 36l363 568l92 -60l-350 -551l88 -634l-109 -15z" />
<glyph unicode="&#xac;" horiz-adv-x="892" d="M147 430v111h547q33 0 47 -27q16 -29 0 -55l-123 -213l-126 2l106 182h-451z" />
<glyph unicode="&#xad;" horiz-adv-x="724" d="M166 430v111h512v-111h-512z" />
<glyph unicode="&#xae;" horiz-adv-x="1374" d="M0 467q0 133 50 250t138 204t204 137t249 50t250 -50t205 -137t138 -204t50 -250t-50 -250t-138 -204t-205 -137t-250 -50t-249 50t-204 137t-138 204t-50 250zM111 467q0 -111 42 -207t113.5 -168t167.5 -113.5t207 -41.5t207 41.5t169 113.5t115 168t42 207t-42 207 t-115 167.5t-169 113.5t-207 42t-207 -42t-167.5 -113.5t-113.5 -167.5t-42 -207zM463 129v674q0 23 16.5 38t38.5 17h123q72 0 127 -31.5t84 -89.5q29 -59 23.5 -125.5t-46.5 -119.5q-55 -76 -159 -99l192 -198l-80 -76l-209 215v-205h-110zM573 500q115 -13 168 57 q20 29 24.5 64.5t-11.5 64.5q-29 61 -113 62h-68v-248z" />
<glyph unicode="&#xb0;" horiz-adv-x="593" d="M0 897q0 55 21.5 104.5t58.5 86t87 58t105 21.5t104.5 -21.5t86.5 -58t58.5 -86t21.5 -104.5q0 -57 -21.5 -106.5t-58.5 -86t-86 -58t-105 -21.5q-55 0 -105 21.5t-87 58t-58.5 86t-21.5 106.5zM111 897q0 -68 46.5 -115t114.5 -47q66 0 113 47t47 115q0 66 -47 113 t-113 47q-68 0 -114.5 -47t-46.5 -113z" />
<glyph unicode="&#xb1;" horiz-adv-x="913" d="M150 2v111h702v-111h-702zM150 508v110h301v302h110v-302h301v-110h-301v-301h-110v301h-301z" />
<glyph unicode="&#xb2;" horiz-adv-x="786" d="M2 391q-10 39 21 62q61 45 147 110.5t169 130t150.5 118.5t92.5 79q18 18 32.5 45t21.5 56.5t6 59t-13 54.5q-23 43 -70 43q-35 2 -68.5 -15.5t-50.5 -46.5q-35 -57 -34.5 -90.5t0.5 -35.5l-107 -31q0 4 -3 21.5t-1 46t12 66.5t39 81q35 55 94.5 87t122.5 28 q53 -2 97 -30t67 -75q23 -43 26 -91t-8.5 -95t-34 -88t-51.5 -70q-23 -23 -72.5 -62.5t-112 -89t-130.5 -100.5t-123 -94h268v-111h-434q-39 0 -53 37z" />
<glyph unicode="&#xb3;" horiz-adv-x="714" d="M2 590q10 86 82 164l80 -76q-16 -18 -29.5 -39t-19.5 -44.5t-3 -46t19 -42.5q27 -31 57.5 -37t49.5 -4q45 4 83.5 27.5t61.5 62.5q18 33 20.5 71t-14.5 70q-8 18 -27.5 38t-54.5 26q-23 4 -36 22.5t-9 40.5q4 23 22.5 36t41.5 9q18 -4 50 -5t66.5 7.5t69.5 28t63 59.5 q20 27 23.5 61t-8.5 64q-8 16 -25.5 36t-56.5 26q-37 4 -79 -3t-64 -50q-29 -59 -23 -88t6 -31l-88 -66q-4 4 -13 21.5t-13.5 47.5t1 72t31.5 95q35 66 102.5 95t155.5 15q57 -8 100.5 -40.5t65.5 -86.5q25 -57 18.5 -118.5t-40.5 -112.5q-70 -98 -191 -129l12 -23 q29 -57 25 -122.5t-37 -120.5q-35 -61 -97.5 -100.5t-131.5 -45.5h-21q-115 0 -180 82q-55 68 -45 154z" />
<glyph unicode="&#xb4;" horiz-adv-x="389" d="M0 1059l291 213l65 -88l-290 -215z" />
<glyph unicode="&#xb5;" horiz-adv-x="753" d="M-319 -84l253 465q6 16 11.5 27.5t9.5 15.5l51 88l182 317l97 -55l-183 -315l-69 -127q-18 -45 -29.5 -98.5t4.5 -86.5q4 -10 15.5 -20t42.5 -14q39 -6 79.5 16.5t77.5 57t65.5 72.5t43.5 60q53 98 79.5 143.5t30.5 51.5l183 315l96 -55l-236 -405q-8 -14 -21 -49 t-21.5 -74t-4.5 -74t31 -51l-59 -94q-33 20 -51.5 48.5t-26.5 63.5q-47 -53 -111.5 -96t-138.5 -43h-18.5t-18.5 2q-61 10 -93 40t-44 56v2l-131 -237z" />
<glyph unicode="&#xb7;" horiz-adv-x="567" d="M293 512q0 35 25.5 60.5t60.5 25.5t60.5 -25.5t25.5 -60.5t-25.5 -60.5t-60.5 -25.5t-60.5 25.5t-25.5 60.5z" />
<glyph unicode="&#xb8;" horiz-adv-x="296" d="M0 -322l51 99q18 -10 47 -10t52 10q27 12 28 45q2 16 -9 25.5t-26 15.5q-16 8 -39 12q-27 2 -43 29q-12 25 0 51l60 123l100 -49l-31 -64q45 -23 75 -61.5t24 -96.5q-12 -88 -88 -129q-43 -23 -101 -22q-59 0 -100 22z" />
<glyph unicode="&#xb9;" horiz-adv-x="538" d="M0 436l352 611l-49 -31l-57 94l233 141q16 10 35 8t33 -14q12 -14 15 -32.5t-7 -34.5l-459 -797z" />
<glyph unicode="&#xba;" horiz-adv-x="686" d="M12 649q-47 141 86 367q33 59 64 99t61.5 64.5t60 38t64.5 19.5q47 10 110.5 -1t110.5 -62q14 -16 27.5 -40t21 -57t4 -76t-19.5 -98q-10 -35 -30.5 -90t-53.5 -113.5t-78 -108.5t-102 -77q-49 -22 -96 -22q-53 0 -105 24q-96 43 -125 133zM117 684q14 -43 65 -68 q57 -27 111 -2q35 14 65.5 49t56 79t47 94.5t36.5 97.5q6 20 10 42.5t4 44t-5 42t-20 35.5q-16 16 -39.5 24t-48.5 8q-20 0 -28 -2q-16 -4 -34 -10t-39.5 -22.5t-46.5 -48t-58 -86.5q-51 -90 -72 -161t-4 -116z" />
<glyph unicode="&#xbb;" horiz-adv-x="856" d="M8 -57l350 551l-88 634l109 15l92 -656q2 -18 -8 -36l-363 -568zM293 -57l350 551l-88 634l109 15l92 -656q2 -18 -8 -36l-363 -568z" />
<glyph unicode="&#xbc;" horiz-adv-x="1439" d="M0 436l352 611l-49 -31l-57 94l233 141q16 10 35 8t33 -14q12 -14 15 -32.5t-7 -34.5l-459 -797zM10 -100l1016 1466l96 -55l-1016 -1467zM672 205q-16 29 0 57l252 432l96 -55l-205 -350h217l238 405l96 -55l-467 -795l-96 56l164 278h-248q-35 0 -47 27z" />
<glyph unicode="&#xbd;" horiz-adv-x="1239" d="M0 436l352 611l-49 -31l-57 94l233 141q16 10 35 8t33 -14q12 -14 15 -32.5t-7 -34.5l-459 -797zM10 -100l1016 1466l96 -55l-1016 -1467zM463 -119q-10 39 20 62q61 45 147.5 110.5t169.5 130t150.5 118.5t91.5 79q18 18 33 45t22 56.5t6 59t-13 54.5q-23 43 -70 43 q-35 2 -68.5 -15.5t-50.5 -45.5q-35 -57 -35 -91v-36l-106 -31q0 4 -3 21.5t-1 46t12 66.5t39 81q35 55 94.5 87t122.5 28q53 -2 97 -30t67 -75q23 -43 26 -91t-8.5 -95t-34 -88t-51.5 -70q-23 -23 -73 -62.5t-112.5 -89t-130 -100.5t-122.5 -94h268v-111h-434q-39 0 -53 37 z" />
<glyph unicode="&#xbe;" horiz-adv-x="1566" d="M2 590q10 86 82 164l80 -76q-16 -18 -29.5 -39t-19.5 -44.5t-3 -46t19 -42.5q27 -31 57.5 -37t49.5 -4q45 4 83.5 27.5t61.5 62.5q18 33 20.5 71t-14.5 70q-8 18 -27.5 38t-54.5 26q-23 4 -36 22.5t-9 40.5q4 23 22.5 36t41.5 9q18 -4 50 -5t66.5 7.5t69.5 28t63 59.5 q20 27 23.5 61t-8.5 64q-8 16 -25.5 36t-56.5 26q-37 4 -79 -3t-64 -50q-29 -59 -23 -88t6 -31l-88 -66q-4 4 -13 21.5t-13.5 47.5t1 72t31.5 95q35 66 102.5 95t155.5 15q57 -8 100.5 -40.5t65.5 -86.5q25 -57 18.5 -118.5t-40.5 -112.5q-70 -98 -191 -129l12 -23 q29 -57 25 -122.5t-37 -120.5q-35 -61 -97.5 -100.5t-131.5 -45.5h-21q-115 0 -180 82q-55 68 -45 154zM242 -100l1015 1466l97 -55l-1016 -1467zM872 205q-16 29 0 57l252 432l97 -55l-205 -350h217l237 405l97 -55l-467 -795l-96 56l163 278h-247q-35 0 -48 27z" />
<glyph unicode="&#xbf;" horiz-adv-x="837" d="M-145.5 -224q6.5 85 51.5 165q25 43 62.5 80.5t80.5 71.5t90 63.5t92 56.5q66 39 121.5 76t85.5 76q35 43 67 90t54.5 87t36.5 66l14 25l99 -49q-2 -4 -16.5 -32t-39 -69t-57.5 -91t-72 -97q-41 -49 -102.5 -91t-132.5 -85q-86 -53 -166 -108.5t-121 -125.5 q-31 -55 -36 -114.5t20 -112.5q23 -49 57.5 -65.5t65.5 -18.5q63 -4 127.5 27.5t97.5 85.5l94 -60q-25 -39 -61.5 -70.5t-79.5 -53t-90 -33t-95 -7.5q-76 4 -133 44t-86 106q-35 78 -28.5 163zM647 743q0 35 25.5 60.5t60.5 25.5t60.5 -25.5t25.5 -60.5t-25.5 -60.5 t-60.5 -25.5t-60.5 26t-25.5 60z" />
<glyph unicode="&#xc0;" horiz-adv-x="1730" d="M12 -47q-33 94 17.5 205.5t173.5 222.5q61 55 130.5 80.5t143.5 30t153 -8t158 -32.5q115 209 225.5 351t212 233t191.5 138.5t164 67.5q66 16 119 16t93 -11t64.5 -30.5t34.5 -39.5l-417 -723q0 -2 -25 -48.5t-49 -113.5q92 -4 162.5 27.5t124.5 115.5l43 78l96 -53 l-45 -82q-78 -123 -184.5 -164t-229.5 -31q-16 -74 -8 -141.5t61 -106.5l-67 -90q-43 31 -66.5 72t-33 87t-7.5 95t13 99q-76 16 -152 38.5t-150 45.5q-29 10 -57.5 19t-56.5 17l-10 -18q-70 -137 -147 -231.5t-154.5 -152.5t-152.5 -84t-138 -26q-6 0 -11.5 1t-11.5 1 q-76 4 -130 43t-77 103zM117 -10q23 -66 110 -72q49 -4 110.5 16.5t129.5 70.5t136.5 134t131.5 209v2q-57 14 -111.5 23.5t-105.5 9.5q-70 0 -129 -19.5t-113 -64.5q-113 -102 -144.5 -182t-14.5 -127zM897 418l96 -31q84 -29 157 -49.5t138 -34.5q14 41 29.5 77t29 63.5 t22.5 44t11 20.5l367 637q-27 4 -61.5 2t-75.5 -14q-53 -14 -130 -52.5t-169 -119t-197.5 -212t-216.5 -331.5zM1683 1626l89 66l215 -291l-91 -66z" />
<glyph unicode="&#xc1;" horiz-adv-x="1730" d="M12 -47q-33 94 17.5 205.5t173.5 222.5q61 55 130.5 80.5t143.5 30t153 -8t158 -32.5q115 209 225.5 351t212 233t191.5 138.5t164 67.5q66 16 119 16t93 -11t64.5 -30.5t34.5 -39.5l-417 -723q0 -2 -25 -48.5t-49 -113.5q92 -4 162.5 27.5t124.5 115.5l43 78l96 -53 l-45 -82q-78 -123 -184.5 -164t-229.5 -31q-16 -74 -8 -141.5t61 -106.5l-67 -90q-43 31 -66.5 72t-33 87t-7.5 95t13 99q-76 16 -152 38.5t-150 45.5q-29 10 -57.5 19t-56.5 17l-10 -18q-70 -137 -147 -231.5t-154.5 -152.5t-152.5 -84t-138 -26q-6 0 -11.5 1t-11.5 1 q-76 4 -130 43t-77 103zM117 -10q23 -66 110 -72q49 -4 110.5 16.5t129.5 70.5t136.5 134t131.5 209v2q-57 14 -111.5 23.5t-105.5 9.5q-70 0 -129 -19.5t-113 -64.5q-113 -102 -144.5 -182t-14.5 -127zM897 418l96 -31q84 -29 157 -49.5t138 -34.5q14 41 29.5 77t29 63.5 t22.5 44t11 20.5l367 637q-27 4 -61.5 2t-75.5 -14q-53 -14 -130 -52.5t-169 -119t-197.5 -212t-216.5 -331.5zM1612 1446l291 213l65 -88l-291 -215z" />
<glyph unicode="&#xc2;" horiz-adv-x="1730" d="M12 -47q-33 94 17.5 205.5t173.5 222.5q61 55 130.5 80.5t143.5 30t153 -8t158 -32.5q115 209 225.5 351t212 233t191.5 138.5t164 67.5q66 16 119 16t93 -11t64.5 -30.5t34.5 -39.5l-417 -723q0 -2 -25 -48.5t-49 -113.5q92 -4 162.5 27.5t124.5 115.5l43 78l96 -53 l-45 -82q-78 -123 -184.5 -164t-229.5 -31q-16 -74 -8 -141.5t61 -106.5l-67 -90q-43 31 -66.5 72t-33 87t-7.5 95t13 99q-76 16 -152 38.5t-150 45.5q-29 10 -57.5 19t-56.5 17l-10 -18q-70 -137 -147 -231.5t-154.5 -152.5t-152.5 -84t-138 -26q-6 0 -11.5 1t-11.5 1 q-76 4 -130 43t-77 103zM117 -10q23 -66 110 -72q49 -4 110.5 16.5t129.5 70.5t136.5 134t131.5 209v2q-57 14 -111.5 23.5t-105.5 9.5q-70 0 -129 -19.5t-113 -64.5q-113 -102 -144.5 -182t-14.5 -127zM897 418l96 -31q84 -29 157 -49.5t138 -34.5q14 41 29.5 77t29 63.5 t22.5 44t11 20.5l367 637q-27 4 -61.5 2t-75.5 -14q-53 -14 -130 -52.5t-169 -119t-197.5 -212t-216.5 -331.5zM1569 1485l246 178q59 -20 75.5 -27.5t12.5 -7.5l47 -258l-109 -20l-33 172l-174 -127z" />
<glyph unicode="&#xc3;" horiz-adv-x="1730" d="M12 -47q-33 94 17.5 205.5t173.5 222.5q61 55 130.5 80.5t143.5 30t153 -8t158 -32.5q115 209 225.5 351t212 233t191.5 138.5t164 67.5q66 16 119 16t93 -11t64.5 -30.5t34.5 -39.5l-417 -723q0 -2 -25 -48.5t-49 -113.5q92 -4 162.5 27.5t124.5 115.5l43 78l96 -53 l-45 -82q-78 -123 -184.5 -164t-229.5 -31q-16 -74 -8 -141.5t61 -106.5l-67 -90q-43 31 -66.5 72t-33 87t-7.5 95t13 99q-76 16 -152 38.5t-150 45.5q-29 10 -57.5 19t-56.5 17l-10 -18q-70 -137 -147 -231.5t-154.5 -152.5t-152.5 -84t-138 -26q-6 0 -11.5 1t-11.5 1 q-76 4 -130 43t-77 103zM117 -10q23 -66 110 -72q49 -4 110.5 16.5t129.5 70.5t136.5 134t131.5 209v2q-57 14 -111.5 23.5t-105.5 9.5q-70 0 -129 -19.5t-113 -64.5q-113 -102 -144.5 -182t-14.5 -127zM897 418l96 -31q84 -29 157 -49.5t138 -34.5q14 41 29.5 77t29 63.5 t22.5 44t11 20.5l367 637q-27 4 -61.5 2t-75.5 -14q-53 -14 -130 -52.5t-169 -119t-197.5 -212t-216.5 -331.5zM1538 1413q8 18 28.5 40t51.5 37t72 20.5t92 -11.5q39 -12 63.5 -16t42 -2t29.5 9t25 15l18 13l57 -95l-14 -10q-20 -14 -43 -25.5t-52.5 -15.5t-68.5 0t-90 21 q-31 10 -52.5 7t-34.5 -10.5t-20 -16.5l-6 -9z" />
<glyph unicode="&#xc4;" horiz-adv-x="1730" d="M12 -47q-33 94 17.5 205.5t173.5 222.5q61 55 130.5 80.5t143.5 30t153 -8t158 -32.5q115 209 225.5 351t212 233t191.5 138.5t164 67.5q66 16 119 16t93 -11t64.5 -30.5t34.5 -39.5l-417 -723q0 -2 -25 -48.5t-49 -113.5q92 -4 162.5 27.5t124.5 115.5l43 78l96 -53 l-45 -82q-78 -123 -184.5 -164t-229.5 -31q-16 -74 -8 -141.5t61 -106.5l-67 -90q-43 31 -66.5 72t-33 87t-7.5 95t13 99q-76 16 -152 38.5t-150 45.5q-29 10 -57.5 19t-56.5 17l-10 -18q-70 -137 -147 -231.5t-154.5 -152.5t-152.5 -84t-138 -26q-6 0 -11.5 1t-11.5 1 q-76 4 -130 43t-77 103zM117 -10q23 -66 110 -72q49 -4 110.5 16.5t129.5 70.5t136.5 134t131.5 209v2q-57 14 -111.5 23.5t-105.5 9.5q-70 0 -129 -19.5t-113 -64.5q-113 -102 -144.5 -182t-14.5 -127zM897 418l96 -31q84 -29 157 -49.5t138 -34.5q14 41 29.5 77t29 63.5 t22.5 44t11 20.5l367 637q-27 4 -61.5 2t-75.5 -14q-53 -14 -130 -52.5t-169 -119t-197.5 -212t-216.5 -331.5zM1565 1450q0 29 19.5 48.5t47.5 19.5q29 0 48.5 -19.5t19.5 -48.5t-19.5 -48.5t-48.5 -19.5t-48 19.5t-19 48.5zM1753 1450q0 29 19.5 48.5t48.5 19.5t48 -19.5 t19 -48.5t-19.5 -48.5t-47.5 -19.5q-29 0 -48.5 19.5t-19.5 48.5z" />
<glyph unicode="&#xc5;" horiz-adv-x="1730" d="M12 -47q-33 94 17.5 205.5t173.5 222.5q61 55 130.5 80.5t143.5 30t153 -8t158 -32.5q115 209 225.5 351t212 233t191.5 138.5t164 67.5l49 10q-20 41 -20 84q0 72 51 123t125 51q72 0 123 -51t51 -123q0 -47 -20.5 -85t-55.5 -60q2 -4 4 -7t4 -7l-417 -723 q0 -2 -25 -48.5t-49 -113.5q92 -4 162.5 27.5t124.5 115.5l43 78l96 -53l-45 -82q-78 -123 -184.5 -164t-229.5 -31q-16 -74 -8 -141.5t61 -106.5l-67 -90q-43 31 -66.5 72t-33 87t-7.5 95t13 99q-76 16 -152 38.5t-150 45.5q-29 10 -57.5 19t-56.5 17l-10 -18 q-70 -137 -147 -231.5t-154.5 -152.5t-152.5 -84t-138 -26q-6 0 -11.5 1t-11.5 1q-76 4 -130 43t-77 103zM117 -10q23 -66 110 -72q49 -4 110.5 16.5t129.5 70.5t136.5 134t131.5 209v2q-57 14 -111.5 23.5t-105.5 9.5q-70 0 -129 -19.5t-113 -64.5q-113 -102 -144.5 -182 t-14.5 -127zM897 418l96 -31q84 -29 157 -49.5t138 -34.5q14 41 29.5 77t29 63.5t22.5 44t11 20.5l367 637q-27 4 -61.5 2t-75.5 -14q-53 -14 -130 -52.5t-169 -119t-197.5 -212t-216.5 -331.5zM1720 1335q0 -29 18.5 -47t47.5 -18q27 0 45 18.5t18 46.5q0 27 -18.5 45.5 t-44.5 18.5q-29 0 -47.5 -18.5t-18.5 -45.5z" />
<glyph unicode="&#xc6;" horiz-adv-x="2125" d="M12 -49q-33 94 17.5 205.5t173.5 222.5q80 70 158.5 101.5t155.5 37.5t150.5 -6t139.5 -31q125 223 249 370.5t234.5 239t204.5 136.5t162 63q39 10 88 14.5t101 0t102.5 -17.5t89.5 -38q61 -37 87.5 -98t12.5 -135q-8 -47 -28.5 -89t-50 -76t-66.5 -57.5t-78 -31.5 l-23 108q47 10 87 57.5t51 106.5q4 29 -2.5 64t-47.5 57q-27 18 -69 25l-4 -6q-4 4 -13 8q-53 4 -110.5 -12.5t-100.5 -59.5q-70 -66 -70.5 -167t64.5 -230q20 -4 27 -8l-39 -103q-16 6 -59 6t-98.5 -14t-112 -46t-95.5 -89l-34 -51q0 -2 -1 -3.5t-1 -3.5 q-57 -98 -68.5 -186t23.5 -158q29 -59 87 -93t136 -38q80 -4 162 27t159.5 89t151.5 144t137 197l74 129l96 -55l-74 -129q-70 -121 -151.5 -216.5t-170.5 -161t-183.5 -100t-188.5 -34.5h-16q-106 4 -191.5 55t-128.5 137q-63 129 -16 297q-57 -4 -119.5 10.5t-122.5 32.5 q-6 -12 -13 -24.5t-13 -26.5q-70 -137 -147 -230.5t-154.5 -151.5t-152.5 -84t-138 -26h-23q-76 6 -130 44t-77 102zM117 -12q23 -66 110 -72q49 -4 110.5 16.5t129.5 70.5t136.5 134t131.5 209l17 35q-47 12 -94.5 21.5t-94.5 9.5q-72 0 -143.5 -25t-143.5 -90 q-113 -102 -144.5 -182t-14.5 -127zM915 446q106 -33 164 -32.5t92 51.5q10 14 19.5 28.5t19.5 28.5q33 49 76 83t88 57.5t91 36t89 16.5q-33 78 -43 142.5t-6 116.5t20.5 92t35.5 69q-59 -29 -134 -80t-158 -133t-172.5 -199t-181.5 -277z" />
<glyph unicode="&#xc7;" horiz-adv-x="1015" d="M7.5 165q-17.5 95 6 214t101.5 254q90 156 170 272.5t151.5 196.5t137 126t128.5 62q117 29 228 -39q59 -37 85.5 -98t14.5 -137q-8 -47 -28.5 -88t-50 -75t-66.5 -57.5t-78 -31.5l-25 106q47 10 88 58.5t52 105.5q4 29 -3.5 64t-46.5 59q-72 43 -143 25 q-102 -25 -228 -172.5t-290 -431.5q-63 -111 -85 -206.5t-11.5 -172t46.5 -132t87 -83.5q61 -37 144 -37t175 46t189.5 141t187.5 251l72 127l96 -53l-72 -129q-78 -133 -160.5 -226.5t-167.5 -153t-167 -87t-158 -27.5h-2q41 -23 64.5 -59.5t19.5 -89.5q-12 -88 -88 -129 q-43 -23 -100 -23q-59 0 -101 23l51 98q18 -10 47 -10t52 10q27 12 28 45q2 16 -9 25.5t-25 15.5q-16 8 -39 12q-27 2 -43 29q-12 25 0 51l12 25q-16 6 -31.5 13t-29.5 15q-68 39 -118 111t-67.5 167z" />
<glyph unicode="&#xc8;" horiz-adv-x="1042" d="M6.5 252q22.5 133 120.5 272q70 96 165 139.5t179 53.5q-43 100 -48 180t10.5 138.5t42 97t48.5 59.5q43 41 98.5 65.5t114 32.5t115.5 -1t104 -38q59 -37 86 -98t15 -137q-8 -47 -28.5 -88t-50.5 -75t-67 -57.5t-77 -31.5l-25 106q47 10 88 58.5t51 105.5q4 29 -3 64 t-46 59q-29 16 -65.5 23.5t-77.5 2.5t-82 -22.5t-74 -48.5q-68 -66 -70 -167t64 -230q10 -2 16 -4t13 -4l-41 -103q-16 6 -59.5 5t-97.5 -14t-110.5 -45t-95.5 -89q-80 -113 -101.5 -218.5t17.5 -183.5q31 -59 89.5 -93t135.5 -38q80 -2 162 28t160 88t151.5 144t137.5 197 l71 127l97 -53l-72 -129q-72 -121 -154 -216.5t-171 -161t-183 -100t-186 -34.5h-17q-109 4 -192.5 54t-126.5 136q-53 111 -30.5 244zM639 1665l88 66l215 -291l-90 -66z" />
<glyph unicode="&#xc9;" horiz-adv-x="1042" d="M6.5 252q22.5 133 120.5 272q70 96 165 139.5t179 53.5q-43 100 -48 180t10.5 138.5t42 97t48.5 59.5q43 41 98.5 65.5t114 32.5t115.5 -1t104 -38q59 -37 86 -98t15 -137q-8 -47 -28.5 -88t-50.5 -75t-67 -57.5t-77 -31.5l-25 106q47 10 88 58.5t51 105.5q4 29 -3 64 t-46 59q-29 16 -65.5 23.5t-77.5 2.5t-82 -22.5t-74 -48.5q-68 -66 -70 -167t64 -230q10 -2 16 -4t13 -4l-41 -103q-16 6 -59.5 5t-97.5 -14t-110.5 -45t-95.5 -89q-80 -113 -101.5 -218.5t17.5 -183.5q31 -59 89.5 -93t135.5 -38q80 -2 162 28t160 88t151.5 144t137.5 197 l71 127l97 -53l-72 -129q-72 -121 -154 -216.5t-171 -161t-183 -100t-186 -34.5h-17q-109 4 -192.5 54t-126.5 136q-53 111 -30.5 244zM666 1462l290 213l66 -88l-291 -215z" />
<glyph unicode="&#xca;" horiz-adv-x="1042" d="M6.5 252q22.5 133 120.5 272q70 96 165 139.5t179 53.5q-43 100 -48 180t10.5 138.5t42 97t48.5 59.5q43 41 98.5 65.5t114 32.5t115.5 -1t104 -38q59 -37 86 -98t15 -137q-8 -47 -28.5 -88t-50.5 -75t-67 -57.5t-77 -31.5l-25 106q47 10 88 58.5t51 105.5q4 29 -3 64 t-46 59q-29 16 -65.5 23.5t-77.5 2.5t-82 -22.5t-74 -48.5q-68 -66 -70 -167t64 -230q10 -2 16 -4t13 -4l-41 -103q-16 6 -59.5 5t-97.5 -14t-110.5 -45t-95.5 -89q-80 -113 -101.5 -218.5t17.5 -183.5q31 -59 89.5 -93t135.5 -38q80 -2 162 28t160 88t151.5 144t137.5 197 l71 127l97 -53l-72 -129q-72 -121 -154 -216.5t-171 -161t-183 -100t-186 -34.5h-17q-109 4 -192.5 54t-126.5 136q-53 111 -30.5 244zM666 1481l245 178q59 -20 76 -27.5t12 -7.5l48 -258l-109 -20l-33 172l-174 -127z" />
<glyph unicode="&#xcb;" horiz-adv-x="1042" d="M6.5 252q22.5 133 120.5 272q70 96 165 139.5t179 53.5q-43 100 -48 180t10.5 138.5t42 97t48.5 59.5q43 41 98.5 65.5t114 32.5t115.5 -1t104 -38q59 -37 86 -98t15 -137q-8 -47 -28.5 -88t-50.5 -75t-67 -57.5t-77 -31.5l-25 106q47 10 88 58.5t51 105.5q4 29 -3 64 t-46 59q-29 16 -65.5 23.5t-77.5 2.5t-82 -22.5t-74 -48.5q-68 -66 -70 -167t64 -230q10 -2 16 -4t13 -4l-41 -103q-16 6 -59.5 5t-97.5 -14t-110.5 -45t-95.5 -89q-80 -113 -101.5 -218.5t17.5 -183.5q31 -59 89.5 -93t135.5 -38q80 -2 162 28t160 88t151.5 144t137.5 197 l71 127l97 -53l-72 -129q-72 -121 -154 -216.5t-171 -161t-183 -100t-186 -34.5h-17q-109 4 -192.5 54t-126.5 136q-53 111 -30.5 244zM635 1450q0 29 19.5 48.5t47.5 19.5q29 0 48.5 -19.5t19.5 -48.5t-19.5 -48.5t-48.5 -19.5t-48 19.5t-19 48.5zM823 1450q0 29 19.5 48.5 t48.5 19.5t48 -19.5t19 -48.5t-19 -48.5t-48 -19.5t-48.5 19.5t-19.5 48.5z" />
<glyph unicode="&#xcc;" horiz-adv-x="792" d="M0 -166l10 111q51 -6 99.5 22.5t88.5 71.5t70.5 89t44.5 75l523 903q-33 18 -87.5 35.5t-119.5 7.5q-160 -25 -271 -227q-35 -61 -45 -117.5t-7 -101t14.5 -73t21.5 -34.5l-45 -100q-55 27 -84 108q-29 86 -15.5 183.5t62.5 189.5q141 250 352 280q61 8 116.5 0 t100.5 -25.5t76 -36.5t43 -32l-6 -6l39 -20l-569 -987q-2 -4 -32 -54.5t-81 -109t-120.5 -106.5t-153.5 -48q-6 0 -12.5 1t-12.5 1zM635 1597l88 66l215 -291l-90 -65z" />
<glyph unicode="&#xcd;" horiz-adv-x="792" d="M0 -166l10 111q51 -6 99.5 22.5t88.5 71.5t70.5 89t44.5 75l523 903q-33 18 -87.5 35.5t-119.5 7.5q-160 -25 -271 -227q-35 -61 -45 -117.5t-7 -101t14.5 -73t21.5 -34.5l-45 -100q-55 27 -84 108q-29 86 -15.5 183.5t62.5 189.5q141 250 352 280q61 8 116.5 0 t100.5 -25.5t76 -36.5t43 -32l-6 -6l39 -20l-569 -987q-2 -4 -32 -54.5t-81 -109t-120.5 -106.5t-153.5 -48q-6 0 -12.5 1t-12.5 1zM690 1442l291 213l66 -88l-291 -215z" />
<glyph unicode="&#xce;" horiz-adv-x="792" d="M0 -166l10 111q51 -6 99.5 22.5t88.5 71.5t70.5 89t44.5 75l523 903q-33 18 -87.5 35.5t-119.5 7.5q-160 -25 -271 -227q-35 -61 -45 -117.5t-7 -101t14.5 -73t21.5 -34.5l-45 -100q-55 27 -84 108q-29 86 -15.5 183.5t62.5 189.5q141 250 352 280q61 8 116.5 0 t100.5 -25.5t76 -36.5t43 -32l-6 -6l39 -20l-569 -987q-2 -4 -32 -54.5t-81 -109t-120.5 -106.5t-153.5 -48q-6 0 -12.5 1t-12.5 1zM629 1442l245 178q59 -20 76 -27.5t13 -7.5l47 -258l-109 -20l-33 172l-174 -127z" />
<glyph unicode="&#xcf;" horiz-adv-x="792" d="M0 -166l10 111q51 -6 99.5 22.5t88.5 71.5t70.5 89t44.5 75l523 903q-33 18 -87.5 35.5t-119.5 7.5q-160 -25 -271 -227q-35 -61 -45 -117.5t-7 -101t14.5 -73t21.5 -34.5l-45 -100q-55 27 -84 108q-29 86 -15.5 183.5t62.5 189.5q141 250 352 280q61 8 116.5 0 t100.5 -25.5t76 -36.5t43 -32l-6 -6l39 -20l-569 -987q-2 -4 -32 -54.5t-81 -109t-120.5 -106.5t-153.5 -48q-6 0 -12.5 1t-12.5 1zM662 1419q0 29 19 48.5t48 19.5t48.5 -19.5t19.5 -48.5t-19.5 -48t-48.5 -19t-48 19.5t-19 47.5zM850 1419q0 29 19.5 48.5t48.5 19.5 t48 -19.5t19 -48.5t-19.5 -48t-47.5 -19q-29 0 -48.5 19.5t-19.5 47.5z" />
<glyph unicode="&#xd0;" horiz-adv-x="1376" d="M4 233q12 117 82 201t174 113q90 25 166 0l27 47h-174v111h237l160 274l96 -55l-127 -219h146v-111h-211l-60 -105q25 -25 46.5 -61.5t33.5 -91.5l-108 -25q-8 41 -29 76l-209 -360l-94 55l209 364q-18 2 -38 1t-42 -7q-72 -18 -119 -78.5t-57 -140.5 q-12 -113 27.5 -191.5t127.5 -117.5q61 -27 143.5 -28t169.5 26t175 84t162 149q100 119 152 250t73.5 245t19.5 197t-10 107q0 2 -1 3t-1 3q-20 102 -83.5 177t-158.5 106q-86 29 -170 11.5t-151 -79.5q-33 -29 -59.5 -67.5t-45 -80.5t-30 -84t-13.5 -75q0 -25 3 -36t6 -15 l-74 -82q-45 41 -45 125q0 43 12 96t36.5 107.5t58.5 104.5t77 89q90 80 203.5 104.5t226.5 -14.5q121 -41 205 -137t111 -225q14 -47 15 -147.5t-24.5 -226.5t-85 -264t-164.5 -261q-57 -72 -126.5 -127.5t-146.5 -93t-156.5 -58t-155.5 -20.5q-102 0 -191 37 q-123 51 -180 160.5t-41 260.5z" />
<glyph unicode="&#xd1;" horiz-adv-x="1343" d="M0 -84l254 442h2l240 418q72 141 70.5 228.5t-34.5 119.5q-20 23 -48.5 25t-59.5 -14q-94 -47 -180 -203q-53 -96 -62.5 -173t6.5 -124q12 -41 35 -49l-47 -101q-66 31 -94 117q-25 80 -7.5 181.5t72.5 203.5q104 186 226 246q63 33 127.5 24.5t109.5 -55.5 q45 -45 60.5 -111.5t-0.5 -150.5q74 84 152.5 154.5t156.5 114.5t154.5 54.5t144.5 -26.5q68 -39 88 -115q16 -61 4 -138t-43 -161t-75 -170t-87 -166l-20 -32q0 -2 -16.5 -32t-37 -78t-39 -106.5t-24.5 -115.5t6.5 -107.5t55.5 -81.5l-66 -90q-63 47 -87 114t-21.5 138.5 t22.5 143t44 130t44.5 96.5t22.5 42l20 35q14 25 35.5 65.5t46.5 90t48.5 104.5t39.5 107.5t23.5 100.5t-2.5 83q-8 31 -37 47q-53 29 -123 5t-148 -84.5t-160.5 -150.5t-161.5 -193.5t-151.5 -212t-128.5 -204.5v2l-254 -442zM709 1417q8 18 28.5 40t51 37t71.5 20.5 t92 -11.5q39 -12 63.5 -16t42 -2t30 9t24.5 15l18 13l58 -95l-14 -10q-20 -14 -43 -25.5t-52.5 -15.5t-68.5 0t-90 21q-31 10 -52.5 7t-35 -10.5t-19.5 -16.5l-6 -9z" />
<glyph unicode="&#xd2;" horiz-adv-x="1290" d="M0 326q0 129 66 245l73 129q31 53 66 113.5t63 108.5q12 23 25.5 47t30.5 47q66 113 179 178.5t245 65.5q135 0 247.5 -65t178.5 -181q66 -117 65.5 -246t-65.5 -246l-175 -301q147 59 246 213l45 78l96 -53l-47 -82q-80 -123 -186 -197t-231 -94l-4 -6 q-66 -115 -180.5 -180.5t-245.5 -65.5q-135 0 -247 64.5t-179 181.5q-66 117 -66 246zM111 325.5q0 -100.5 51 -190.5q53 -90 139.5 -140t190.5 -50q86 0 161.5 35.5t128.5 99.5q-84 6 -161.5 34.5t-145 73.5t-123 106.5t-90.5 135.5q-20 41 -33.5 83t-17.5 87 q-10 -18 -19.5 -34.5t-15.5 -26.5q-8 -12 -14 -23q-51 -90 -51 -190.5zM320.5 713.5q-13.5 -121.5 39.5 -236.5q31 -59 77 -110.5t103.5 -89t124 -60t134.5 -27.5h55l223 388q53 90 53 190t-53 190t-139 140.5t-190 50.5q-102 0 -190.5 -51t-139.5 -140l-2 -4 q-82 -119 -95.5 -240.5zM772 1589l88 66l215 -291l-90 -66z" />
<glyph unicode="&#xd3;" horiz-adv-x="1290" d="M0 326q0 129 66 245l73 129q31 53 66 113.5t63 108.5q12 23 25.5 47t30.5 47q66 113 179 178.5t245 65.5q135 0 247.5 -65t178.5 -181q66 -117 65.5 -246t-65.5 -246l-175 -301q147 59 246 213l45 78l96 -53l-47 -82q-80 -123 -186 -197t-231 -94l-4 -6 q-66 -115 -180.5 -180.5t-245.5 -65.5q-135 0 -247 64.5t-179 181.5q-66 117 -66 246zM111 325.5q0 -100.5 51 -190.5q53 -90 139.5 -140t190.5 -50q86 0 161.5 35.5t128.5 99.5q-84 6 -161.5 34.5t-145 73.5t-123 106.5t-90.5 135.5q-20 41 -33.5 83t-17.5 87 q-10 -18 -19.5 -34.5t-15.5 -26.5q-8 -12 -14 -23q-51 -90 -51 -190.5zM320.5 713.5q-13.5 -121.5 39.5 -236.5q31 -59 77 -110.5t103.5 -89t124 -60t134.5 -27.5h55l223 388q53 90 53 190t-53 190t-139 140.5t-190 50.5q-102 0 -190.5 -51t-139.5 -140l-2 -4 q-82 -119 -95.5 -240.5zM662 1409l290 213l66 -88l-291 -215z" />
<glyph unicode="&#xd4;" horiz-adv-x="1290" d="M0 326q0 129 66 245l73 129q31 53 66 113.5t63 108.5q12 23 25.5 47t30.5 47q66 113 179 178.5t245 65.5q135 0 247.5 -65t178.5 -181q66 -117 65.5 -246t-65.5 -246l-175 -301q147 59 246 213l45 78l96 -53l-47 -82q-80 -123 -186 -197t-231 -94l-4 -6 q-66 -115 -180.5 -180.5t-245.5 -65.5q-135 0 -247 64.5t-179 181.5q-66 117 -66 246zM111 325.5q0 -100.5 51 -190.5q53 -90 139.5 -140t190.5 -50q86 0 161.5 35.5t128.5 99.5q-84 6 -161.5 34.5t-145 73.5t-123 106.5t-90.5 135.5q-20 41 -33.5 83t-17.5 87 q-10 -18 -19.5 -34.5t-15.5 -26.5q-8 -12 -14 -23q-51 -90 -51 -190.5zM320.5 713.5q-13.5 -121.5 39.5 -236.5q31 -59 77 -110.5t103.5 -89t124 -60t134.5 -27.5h55l223 388q53 90 53 190t-53 190t-139 140.5t-190 50.5q-102 0 -190.5 -51t-139.5 -140l-2 -4 q-82 -119 -95.5 -240.5zM707 1473l245 178q59 -20 75.5 -27.5t12.5 -7.5l47 -258l-108 -21l-33 172l-174 -127z" />
<glyph unicode="&#xd5;" horiz-adv-x="1290" d="M0 326q0 129 66 245l73 129q31 53 66 113.5t63 108.5q12 23 25.5 47t30.5 47q66 113 179 178.5t245 65.5q135 0 247.5 -65t178.5 -181q66 -117 65.5 -246t-65.5 -246l-175 -301q147 59 246 213l45 78l96 -53l-47 -82q-80 -123 -186 -197t-231 -94l-4 -6 q-66 -115 -180.5 -180.5t-245.5 -65.5q-135 0 -247 64.5t-179 181.5q-66 117 -66 246zM111 325.5q0 -100.5 51 -190.5q53 -90 139.5 -140t190.5 -50q86 0 161.5 35.5t128.5 99.5q-84 6 -161.5 34.5t-145 73.5t-123 106.5t-90.5 135.5q-20 41 -33.5 83t-17.5 87 q-10 -18 -19.5 -34.5t-15.5 -26.5q-8 -12 -14 -23q-51 -90 -51 -190.5zM320.5 713.5q-13.5 -121.5 39.5 -236.5q31 -59 77 -110.5t103.5 -89t124 -60t134.5 -27.5h55l223 388q53 90 53 190t-53 190t-139 140.5t-190 50.5q-102 0 -190.5 -51t-139.5 -140l-2 -4 q-82 -119 -95.5 -240.5zM666 1403q8 18 28.5 39.5t51 37t71.5 20.5t92 -11q39 -12 63.5 -16.5t42 -2t30 9.5t24.5 15l18 12l58 -94l-15 -10q-20 -14 -42.5 -25.5t-52 -15.5t-68.5 0t-90 20q-31 10 -52.5 7t-35 -10t-19.5 -16l-6 -9z" />
<glyph unicode="&#xd6;" horiz-adv-x="1290" d="M0 326q0 129 66 245l73 129q31 53 66 113.5t63 108.5q12 23 25.5 47t30.5 47q66 113 179 178.5t245 65.5q135 0 247.5 -65t178.5 -181q66 -117 65.5 -246t-65.5 -246l-175 -301q147 59 246 213l45 78l96 -53l-47 -82q-80 -123 -186 -197t-231 -94l-4 -6 q-66 -115 -180.5 -180.5t-245.5 -65.5q-135 0 -247 64.5t-179 181.5q-66 117 -66 246zM111 325.5q0 -100.5 51 -190.5q53 -90 139.5 -140t190.5 -50q86 0 161.5 35.5t128.5 99.5q-84 6 -161.5 34.5t-145 73.5t-123 106.5t-90.5 135.5q-20 41 -33.5 83t-17.5 87 q-10 -18 -19.5 -34.5t-15.5 -26.5q-8 -12 -14 -23q-51 -90 -51 -190.5zM320.5 713.5q-13.5 -121.5 39.5 -236.5q31 -59 77 -110.5t103.5 -89t124 -60t134.5 -27.5h55l223 388q53 90 53 190t-53 190t-139 140.5t-190 50.5q-102 0 -190.5 -51t-139.5 -140l-2 -4 q-82 -119 -95.5 -240.5zM666 1432q0 29 19.5 48t47.5 19q29 0 48.5 -19.5t19.5 -47.5q0 -29 -19.5 -48.5t-48.5 -19.5t-48 19.5t-19 48.5zM854 1432q0 29 19.5 48t48.5 19t48 -19.5t19 -47.5q0 -29 -19.5 -48.5t-47.5 -19.5q-29 0 -48.5 19.5t-19.5 48.5z" />
<glyph unicode="&#xd7;" horiz-adv-x="849" d="M129 272l213 213l-213 213l78 78l213 -213l213 213l78 -78l-213 -213l213 -213l-78 -77l-213 213l-213 -213z" />
<glyph unicode="&#xd8;" horiz-adv-x="1290" d="M-47 -23l108 109q-63 117 -62 244t67 241l73 129q31 53 66 113.5t63 108.5q12 23 25.5 47t30.5 47q66 113 179 178.5t245 65.5q98 0 185 -36t154 -102l60 60l80 -78l-68 -68l15 -22q66 -117 65.5 -246t-65.5 -246l-175 -301q147 59 246 213l45 78l96 -53l-47 -82 q-80 -123 -186 -197t-231 -94l-4 -6q-66 -115 -180.5 -180.5t-245.5 -65.5q-109 0 -203 42t-164 120l-94 -96zM110.5 344q-4.5 -90 32.5 -174l170 172q-16 20 -28.5 43t-22.5 45q-20 41 -33.5 83t-17.5 87q-10 -18 -19.5 -34.5t-15.5 -26.5q-8 -13 -14 -23 q-47 -82 -51.5 -172zM205 74q53 -59 127 -94t160 -35t161.5 35.5t128.5 99.5q-113 10 -215 56t-180 122zM320.5 713.5q-13.5 -121.5 39.5 -236.5q6 -16 14.5 -28.5t18.5 -26.5l617 620q-53 51 -120 79t-142 28q-102 0 -190.5 -51t-139.5 -140l-2 -4q-82 -119 -95.5 -240.5z M465 336q68 -63 155 -102t179 -44h55l223 388q51 88 52 188t-50 188z" />
<glyph unicode="&#xd9;" horiz-adv-x="1206" d="M7 783.5q18 101.5 73 203.5q104 186 225 246q63 33 128 24.5t110 -55.5q72 -72 66.5 -198.5t-85.5 -280.5l-151 -266q-23 -37 -51.5 -96.5t-50 -126t-28.5 -129t13 -105.5q6 -14 23.5 -31.5t62.5 -23.5q53 -8 119.5 35t140.5 120.5t149.5 180t145.5 211.5q4 10 10 16 l418 723l94 -55l-231 -400q-6 -14 -23.5 -46t-42 -77t-57.5 -99.5t-70 -113.5q-10 -16 -27.5 -53t-36 -83t-31.5 -99t-16 -104.5t10 -94.5t52 -72l-65 -90q-72 53 -92.5 129t-12.5 158q-51 -61 -105.5 -116.5t-107.5 -95.5t-106.5 -63.5t-102.5 -23.5q-8 0 -15 1t-15 1 q-76 12 -114 49t-54 72q-25 49 -25 110.5t13.5 123t36 120t43 103.5t36.5 72.5t16 29.5l152 262q72 141 71 228.5t-34 119.5q-20 23 -49 25t-60 -14q-94 -47 -180 -203q-53 -96 -62.5 -173t7.5 -124q12 -41 35 -49l-47 -101q-66 31 -95 117q-25 80 -7 181.5zM639 1540l88 66 l215 -291l-90 -66z" />
<glyph unicode="&#xda;" horiz-adv-x="1206" d="M7 783.5q18 101.5 73 203.5q104 186 225 246q63 33 128 24.5t110 -55.5q72 -72 66.5 -198.5t-85.5 -280.5l-151 -266q-23 -37 -51.5 -96.5t-50 -126t-28.5 -129t13 -105.5q6 -14 23.5 -31.5t62.5 -23.5q53 -8 119.5 35t140.5 120.5t149.5 180t145.5 211.5q4 10 10 16 l418 723l94 -55l-231 -400q-6 -14 -23.5 -46t-42 -77t-57.5 -99.5t-70 -113.5q-10 -16 -27.5 -53t-36 -83t-31.5 -99t-16 -104.5t10 -94.5t52 -72l-65 -90q-72 53 -92.5 129t-12.5 158q-51 -61 -105.5 -116.5t-107.5 -95.5t-106.5 -63.5t-102.5 -23.5q-8 0 -15 1t-15 1 q-76 12 -114 49t-54 72q-25 49 -25 110.5t13.5 123t36 120t43 103.5t36.5 72.5t16 29.5l152 262q72 141 71 228.5t-34 119.5q-20 23 -49 25t-60 -14q-94 -47 -180 -203q-53 -96 -62.5 -173t7.5 -124q12 -41 35 -49l-47 -101q-66 31 -95 117q-25 80 -7 181.5zM758 1315 l291 213l65 -88l-291 -215z" />
<glyph unicode="&#xdb;" horiz-adv-x="1206" d="M7 783.5q18 101.5 73 203.5q104 186 225 246q63 33 128 24.5t110 -55.5q72 -72 66.5 -198.5t-85.5 -280.5l-151 -266q-23 -37 -51.5 -96.5t-50 -126t-28.5 -129t13 -105.5q6 -14 23.5 -31.5t62.5 -23.5q53 -8 119.5 35t140.5 120.5t149.5 180t145.5 211.5q4 10 10 16 l418 723l94 -55l-231 -400q-6 -14 -23.5 -46t-42 -77t-57.5 -99.5t-70 -113.5q-10 -16 -27.5 -53t-36 -83t-31.5 -99t-16 -104.5t10 -94.5t52 -72l-65 -90q-72 53 -92.5 129t-12.5 158q-51 -61 -105.5 -116.5t-107.5 -95.5t-106.5 -63.5t-102.5 -23.5q-8 0 -15 1t-15 1 q-76 12 -114 49t-54 72q-25 49 -25 110.5t13.5 123t36 120t43 103.5t36.5 72.5t16 29.5l152 262q72 141 71 228.5t-34 119.5q-20 23 -49 25t-60 -14q-94 -47 -180 -203q-53 -96 -62.5 -173t7.5 -124q12 -41 35 -49l-47 -101q-66 31 -95 117q-25 80 -7 181.5zM682 1409 l246 178q59 -20 75.5 -27.5t12.5 -7.5l47 -258l-109 -20l-32 172l-174 -127z" />
<glyph unicode="&#xdc;" horiz-adv-x="1206" d="M7 783.5q18 101.5 73 203.5q104 186 225 246q63 33 128 24.5t110 -55.5q72 -72 66.5 -198.5t-85.5 -280.5l-151 -266q-23 -37 -51.5 -96.5t-50 -126t-28.5 -129t13 -105.5q6 -14 23.5 -31.5t62.5 -23.5q53 -8 119.5 35t140.5 120.5t149.5 180t145.5 211.5q4 10 10 16 l418 723l94 -55l-231 -400q-6 -14 -23.5 -46t-42 -77t-57.5 -99.5t-70 -113.5q-10 -16 -27.5 -53t-36 -83t-31.5 -99t-16 -104.5t10 -94.5t52 -72l-65 -90q-72 53 -92.5 129t-12.5 158q-51 -61 -105.5 -116.5t-107.5 -95.5t-106.5 -63.5t-102.5 -23.5q-8 0 -15 1t-15 1 q-76 12 -114 49t-54 72q-25 49 -25 110.5t13.5 123t36 120t43 103.5t36.5 72.5t16 29.5l152 262q72 141 71 228.5t-34 119.5q-20 23 -49 25t-60 -14q-94 -47 -180 -203q-53 -96 -62.5 -173t7.5 -124q12 -41 35 -49l-47 -101q-66 31 -95 117q-25 80 -7 181.5zM717 1401 q0 29 19.5 48t47.5 19q29 0 48.5 -19t19.5 -48t-19.5 -48.5t-48.5 -19.5t-48 19.5t-19 48.5zM905 1401q0 29 19.5 48t48.5 19t48 -19t19 -48t-19.5 -48.5t-47.5 -19.5q-29 0 -48.5 19.5t-19.5 48.5z" />
<glyph unicode="&#xdd;" horiz-adv-x="1232" d="M7 783.5q18 101.5 73 203.5q104 186 225 246q63 33 128 24.5t110 -55.5q72 -72 66.5 -198.5t-85.5 -280.5l-151 -266q-29 -45 -47.5 -105.5t0.5 -105.5q23 -53 102 -74q63 -16 142 30t160 129t158 187.5t138 206.5l293 506l96 -55l-233 -402q-6 -10 -20.5 -36.5 t-37.5 -61.5l-467 -811q-6 -10 -26.5 -47t-54 -77t-82 -70.5t-107.5 -30.5q-25 0 -49 6l27 106q41 -10 75.5 13.5t61 56.5t40.5 62l15 28q0 2 2 4l137 238q-59 -45 -117.5 -71t-117.5 -26q-35 0 -60 9q-137 33 -178 139q-18 45 -17 91t13 88t28.5 76t28.5 54l152 262 q72 141 71 228.5t-34 119.5q-20 23 -49 25t-60 -14q-94 -47 -180 -203q-53 -96 -62.5 -173t7.5 -124q12 -41 35 -49l-47 -101q-66 31 -95 117q-25 80 -7 181.5zM758 1333l291 213l65 -88l-291 -215z" />
<glyph unicode="&#xde;" horiz-adv-x="1239" d="M0 -82l760 1315l94 -55l-158 -273q59 33 125 53.5t142 20.5q92 0 138 -33t66 -67q111 -193 -170 -680q-84 -143 -186 -199.5t-197 -56.5q-45 0 -75 8q-90 23 -155 84t-99 153l-189 -325zM367 330q8 -104 61 -178t135 -95q92 -23 182 30.5t156 166.5q117 205 162 354.5 t8 214.5q-4 8 -24.5 26.5t-83.5 18.5q-74 0 -139.5 -26.5t-120 -66.5t-97.5 -87t-73.5 -87t-46.5 -67l-17 -28v2z" />
<glyph unicode="&#xdf;" horiz-adv-x="1472" d="M0 -203q39 68 90 157t107.5 187.5t117 201.5t115.5 200q131 227 272 471q31 51 76 102t99.5 90t116 63.5t122.5 24.5h2q27 0 57.5 -6t62.5 -23.5t63.5 -47t58.5 -76.5q25 -45 32 -101.5t-3.5 -117t-36 -122t-66.5 -116.5q-92 -121 -215 -158q47 -39 94 -92t79 -118.5 t39 -142.5t-26 -163q-29 -74 -80 -124t-112 -78.5t-129 -37t-131 0.5q-152 20 -250 113t-113 233l109 12q6 -59 33.5 -103t65.5 -75t82 -48.5t87 -23.5q47 -6 98.5 0t97.5 26.5t83 56.5t57 89q27 68 16.5 128.5t-41 113.5t-73.5 96t-83 73t-68 47l-29 17q-18 10 -26.5 29.5 t-0.5 38.5q8 20 25.5 29.5t39.5 5.5q55 -12 100.5 -2t81.5 31.5t61.5 48t37.5 45.5q31 41 51.5 87t29.5 91t6 86t-19 69q-55 98 -148 99q-43 0 -89 -19.5t-89 -51.5t-79 -73t-60 -82q0 -2 -31 -54t-81 -138t-112.5 -195.5t-128.5 -222.5q-156 -266 -350 -606z" />
<glyph unicode="&#xe0;" d="M-66 305q12 94 57.5 191.5t110 177.5t144.5 131t162 51q150 0 221 -92q10 -16 19 -33.5t14 -36.5l77 135l97 -55l-234 -405l-6 -13v-2l-2 -4q-10 -23 -21.5 -55.5t-17.5 -66t-1 -63.5t30 -44t59 -8q25 6 69 34.5t93 112.5q31 53 56.5 98t45.5 80q23 39 41 74l96 -53 q-18 -35 -40 -74q-20 -35 -46 -81t-57 -99q-61 -104 -123.5 -147.5t-109.5 -53.5q-10 -2 -21.5 -3t-21.5 -1q-57 0 -99 27q-35 23 -53 51t-27 63q-53 -57 -123.5 -100t-156.5 -43q-39 0 -82 12q-86 25 -126 102.5t-24 192.5zM41 238.5q0 -27.5 7 -52t22.5 -43t44.5 -26.5 q49 -14 94 -2t85 38.5t73.5 63.5t59.5 73t42 65.5t23 41.5l14 25l51 88q2 14 6 37.5t3 50.5t-7 52.5t-20 45.5q-37 49 -131 49q-57 0 -118 -43t-112 -109.5t-87 -147t-46 -154.5q-4 -25 -4 -52.5zM322 1233l88 65l215 -290l-90 -66z" />
<glyph unicode="&#xe1;" d="M-66 305q12 94 57.5 191.5t110 177.5t144.5 131t162 51q150 0 221 -92q10 -16 19 -33.5t14 -36.5l77 135l97 -55l-234 -405l-6 -13v-2l-2 -4q-10 -23 -21.5 -55.5t-17.5 -66t-1 -63.5t30 -44t59 -8q25 6 69 34.5t93 112.5q31 53 56.5 98t45.5 80q23 39 41 74l96 -53 q-18 -35 -40 -74q-20 -35 -46 -81t-57 -99q-61 -104 -123.5 -147.5t-109.5 -53.5q-10 -2 -21.5 -3t-21.5 -1q-57 0 -99 27q-35 23 -53 51t-27 63q-53 -57 -123.5 -100t-156.5 -43q-39 0 -82 12q-86 25 -126 102.5t-24 192.5zM41 238.5q0 -27.5 7 -52t22.5 -43t44.5 -26.5 q49 -14 94 -2t85 38.5t73.5 63.5t59.5 73t42 65.5t23 41.5l14 25l51 88q2 14 6 37.5t3 50.5t-7 52.5t-20 45.5q-37 49 -131 49q-57 0 -118 -43t-112 -109.5t-87 -147t-46 -154.5q-4 -25 -4 -52.5zM328 1049l290 213l66 -88l-291 -216z" />
<glyph unicode="&#xe2;" d="M-66 305q12 94 57.5 191.5t110 177.5t144.5 131t162 51q150 0 221 -92q10 -16 19 -33.5t14 -36.5l77 135l97 -55l-234 -405l-6 -13v-2l-2 -4q-10 -23 -21.5 -55.5t-17.5 -66t-1 -63.5t30 -44t59 -8q25 6 69 34.5t93 112.5q31 53 56.5 98t45.5 80q23 39 41 74l96 -53 q-18 -35 -40 -74q-20 -35 -46 -81t-57 -99q-61 -104 -123.5 -147.5t-109.5 -53.5q-10 -2 -21.5 -3t-21.5 -1q-57 0 -99 27q-35 23 -53 51t-27 63q-53 -57 -123.5 -100t-156.5 -43q-39 0 -82 12q-86 25 -126 102.5t-24 192.5zM41 238.5q0 -27.5 7 -52t22.5 -43t44.5 -26.5 q49 -14 94 -2t85 38.5t73.5 63.5t59.5 73t42 65.5t23 41.5l14 25l51 88q2 14 6 37.5t3 50.5t-7 52.5t-20 45.5q-37 49 -131 49q-57 0 -118 -43t-112 -109.5t-87 -147t-46 -154.5q-4 -25 -4 -52.5zM332 1057l246 178q59 -20 75.5 -27.5t12.5 -7.5l47 -258l-109 -20l-33 172 l-174 -127z" />
<glyph unicode="&#xe3;" d="M-66 305q12 94 57.5 191.5t110 177.5t144.5 131t162 51q150 0 221 -92q10 -16 19 -33.5t14 -36.5l77 135l97 -55l-234 -405l-6 -13v-2l-2 -4q-10 -23 -21.5 -55.5t-17.5 -66t-1 -63.5t30 -44t59 -8q25 6 69 34.5t93 112.5q31 53 56.5 98t45.5 80q23 39 41 74l96 -53 q-18 -35 -40 -74q-20 -35 -46 -81t-57 -99q-61 -104 -123.5 -147.5t-109.5 -53.5q-10 -2 -21.5 -3t-21.5 -1q-57 0 -99 27q-35 23 -53 51t-27 63q-53 -57 -123.5 -100t-156.5 -43q-39 0 -82 12q-86 25 -126 102.5t-24 192.5zM41 238.5q0 -27.5 7 -52t22.5 -43t44.5 -26.5 q49 -14 94 -2t85 38.5t73.5 63.5t59.5 73t42 65.5t23 41.5l14 25l51 88q2 14 6 37.5t3 50.5t-7 52.5t-20 45.5q-37 49 -131 49q-57 0 -118 -43t-112 -109.5t-87 -147t-46 -154.5q-4 -25 -4 -52.5zM233 1014q8 18 29 39.5t51.5 37t71.5 20.5t92 -11q39 -12 63.5 -16.5 t42 -2.5t30 9.5t24.5 15.5l18 12l58 -94l-15 -10q-20 -14 -42.5 -25.5t-52.5 -15.5t-68.5 0t-90.5 20q-31 10 -52 7t-34.5 -10t-19.5 -16l-6 -9z" />
<glyph unicode="&#xe4;" d="M-66 305q12 94 57.5 191.5t110 177.5t144.5 131t162 51q150 0 221 -92q10 -16 19 -33.5t14 -36.5l77 135l97 -55l-234 -405l-6 -13v-2l-2 -4q-10 -23 -21.5 -55.5t-17.5 -66t-1 -63.5t30 -44t59 -8q25 6 69 34.5t93 112.5q31 53 56.5 98t45.5 80q23 39 41 74l96 -53 q-18 -35 -40 -74q-20 -35 -46 -81t-57 -99q-61 -104 -123.5 -147.5t-109.5 -53.5q-10 -2 -21.5 -3t-21.5 -1q-57 0 -99 27q-35 23 -53 51t-27 63q-53 -57 -123.5 -100t-156.5 -43q-39 0 -82 12q-86 25 -126 102.5t-24 192.5zM41 238.5q0 -27.5 7 -52t22.5 -43t44.5 -26.5 q49 -14 94 -2t85 38.5t73.5 63.5t59.5 73t42 65.5t23 41.5l14 25l51 88q2 14 6 37.5t3 50.5t-7 52.5t-20 45.5q-37 49 -131 49q-57 0 -118 -43t-112 -109.5t-87 -147t-46 -154.5q-4 -25 -4 -52.5zM328 1006q0 29 19.5 48t47.5 19q29 0 48.5 -19.5t19.5 -47.5 q0 -29 -19.5 -48.5t-48.5 -19.5t-48 19.5t-19 48.5zM516 1006q0 29 19.5 48t48.5 19t48 -19.5t19 -47.5q0 -29 -19.5 -48.5t-47.5 -19.5q-29 0 -48.5 19.5t-19.5 48.5z" />
<glyph unicode="&#xe5;" d="M-66 305q12 94 57.5 191.5t110 177.5t144.5 131t162 51q150 0 221 -92q10 -16 19 -33.5t14 -36.5l77 135l97 -55l-234 -405l-6 -13v-2l-2 -4q-10 -23 -21.5 -55.5t-17.5 -66t-1 -63.5t30 -44t59 -8q25 6 69 34.5t93 112.5q31 53 56.5 98t45.5 80q23 39 41 74l96 -53 q-18 -35 -40 -74q-20 -35 -46 -81t-57 -99q-61 -104 -123.5 -147.5t-109.5 -53.5q-10 -2 -21.5 -3t-21.5 -1q-57 0 -99 27q-35 23 -53 51t-27 63q-53 -57 -123.5 -100t-156.5 -43q-39 0 -82 12q-86 25 -126 102.5t-24 192.5zM41 238.5q0 -27.5 7 -52t22.5 -43t44.5 -26.5 q49 -14 94 -2t85 38.5t73.5 63.5t59.5 73t42 65.5t23 41.5l14 25l51 88q2 14 6 37.5t3 50.5t-7 52.5t-20 45.5q-37 49 -131 49q-57 0 -118 -43t-112 -109.5t-87 -147t-46 -154.5q-4 -25 -4 -52.5zM299 1085q0 72 51 123.5t125 51.5q72 0 123 -51.5t51 -123.5q0 -74 -51 -125 t-123 -51q-74 0 -125 51.5t-51 124.5zM410 1085q0 -29 18 -47t47 -18q27 0 45.5 18.5t18.5 46.5q0 27 -18.5 45.5t-45.5 18.5q-29 0 -47 -18.5t-18 -45.5z" />
<glyph unicode="&#xe6;" horiz-adv-x="1204" d="M-66 307q12 92 57.5 190.5t110 178.5t144.5 131t162 51q150 0 221 -94q8 -12 14 -24.5t12 -24.5q47 66 103.5 101.5t115.5 39.5q37 0 87.5 -20.5t99.5 -92.5q47 -78 28.5 -166t-94.5 -153q-31 -29 -73.5 -48.5t-93 -25.5t-106.5 5.5t-116 45.5l-12 -45h2l-4 -8 q-8 -33 -8 -66.5t10 -66.5q20 -63 98 -100l41 -7q41 -8 101.5 5.5t133 62.5t138.5 162l22 41q23 39 37.5 64.5t24.5 41.5q8 18 14 27l99 -51q0 -2 -15.5 -30t-62.5 -107l-23 -41q-51 -88 -109.5 -144.5t-115.5 -88.5t-112.5 -44t-100.5 -12q-41 0 -71.5 7t-47.5 13 q-121 55 -158 168v4q-29 -35 -63.5 -68.5t-74.5 -60t-86 -43t-97 -16.5q-39 0 -82 12q-86 25 -126 102.5t-24 194.5zM41 238.5q0 -27.5 7 -52t22.5 -43t44.5 -26.5q70 -20 131 10.5t110.5 79.5t84 102t46.5 78q14 55 31 91t19 40l28 49q4 33 -1 68t-25 63q-37 49 -131 50 q-57 0 -118 -43t-112 -111t-87 -148.5t-46 -154.5q-4 -25 -4 -52.5zM666 496q80 -47 147.5 -37t110.5 47q35 33 53 82t-10 96q-43 61 -88 61h-2q-37 -2 -80 -37.5t-78 -95.5l-47 -80z" />
<glyph unicode="&#xe7;" horiz-adv-x="671" d="M-59 296.5q4 59.5 18 108t28.5 79t16.5 34.5l111 191q29 49 85 92t128 49q43 4 100 -17.5t115 -95.5l-88 -67q-55 72 -119 69q-41 -4 -75 -30.5t-50 -55.5l-111 -190q-20 -41 -32 -84q-10 -37 -15.5 -80t8.5 -84q20 -68 97 -100l41 -7q41 -8 102 5.5t134 62.5t138 162 l23 39q23 39 37 64.5t24 41.5l15 29l98 -53q-6 -10 -16 -29q-10 -16 -24.5 -42t-37.5 -66l-24 -39q-49 -86 -104.5 -141.5t-112 -88.5t-110.5 -45t-99 -14l-11 -21q45 -23 75 -61.5t24 -95.5q-12 -88 -88 -129q-43 -23 -101 -23q-59 0 -100 23l51 98q18 -10 47 -10t51 10 q27 12 29 45q2 16 -9 25.5t-26 15.5q-16 8 -39 12q-27 2 -43 29q-12 25 0 51l23 45l-12 6q-121 55 -158 166q-18 57 -14 116.5z" />
<glyph unicode="&#xe8;" horiz-adv-x="669" d="M-61 296.5q4 59.5 18 108t28.5 79t16.5 34.5l86 150q51 86 117.5 135t132.5 51q39 2 89 -18.5t99 -92.5q23 -39 30 -82t-2 -86t-32.5 -81.5t-60.5 -71.5q-31 -27 -74 -46.5t-93 -25.5t-106.5 5.5t-115.5 45.5q-14 -39 -21.5 -89t8.5 -97q20 -68 97 -100l41 -7 q41 -8 102 5.5t134 62.5t138 162q31 53 50.5 87t31 53.5t14.5 26.5l3 7l98 -53l-100 -176q-51 -88 -109.5 -144.5t-116 -88.5t-113 -44t-100.5 -12q-41 0 -71.5 6t-46.5 14q-121 55 -158 166q-18 57 -14 116.5zM121 502q84 -53 153.5 -44t112.5 48q37 31 55.5 81t-10.5 97 q-39 59 -90 59q-37 0 -80 -35.5t-78 -95.5zM236 1208l88 66l215 -291l-90 -65z" />
<glyph unicode="&#xe9;" horiz-adv-x="669" d="M-61 296.5q4 59.5 18 108t28.5 79t16.5 34.5l86 150q51 86 117.5 135t132.5 51q39 2 89 -18.5t99 -92.5q23 -39 30 -82t-2 -86t-32.5 -81.5t-60.5 -71.5q-31 -27 -74 -46.5t-93 -25.5t-106.5 5.5t-115.5 45.5q-14 -39 -21.5 -89t8.5 -97q20 -68 97 -100l41 -7 q41 -8 102 5.5t134 62.5t138 162q31 53 50.5 87t31 53.5t14.5 26.5l3 7l98 -53l-100 -176q-51 -88 -109.5 -144.5t-116 -88.5t-113 -44t-100.5 -12q-41 0 -71.5 6t-46.5 14q-121 55 -158 166q-18 57 -14 116.5zM121 502q84 -53 153.5 -44t112.5 48q37 31 55.5 81t-10.5 97 q-39 59 -90 59q-37 0 -80 -35.5t-78 -95.5zM225 1001l291 213l66 -88l-291 -215z" />
<glyph unicode="&#xea;" horiz-adv-x="669" d="M-61 296.5q4 59.5 18 108t28.5 79t16.5 34.5l86 150q51 86 117.5 135t132.5 51q39 2 89 -18.5t99 -92.5q23 -39 30 -82t-2 -86t-32.5 -81.5t-60.5 -71.5q-31 -27 -74 -46.5t-93 -25.5t-106.5 5.5t-115.5 45.5q-14 -39 -21.5 -89t8.5 -97q20 -68 97 -100l41 -7 q41 -8 102 5.5t134 62.5t138 162q31 53 50.5 87t31 53.5t14.5 26.5l3 7l98 -53l-100 -176q-51 -88 -109.5 -144.5t-116 -88.5t-113 -44t-100.5 -12q-41 0 -71.5 6t-46.5 14q-121 55 -158 166q-18 57 -14 116.5zM121 502q84 -53 153.5 -44t112.5 48q37 31 55.5 81t-10.5 97 q-39 59 -90 59q-37 0 -80 -35.5t-78 -95.5zM231 1079l246 178q59 -20 75.5 -27t12.5 -7l47 -258l-108 -21l-33 172l-174 -127z" />
<glyph unicode="&#xeb;" horiz-adv-x="669" d="M-61 296.5q4 59.5 18 108t28.5 79t16.5 34.5l86 150q51 86 117.5 135t132.5 51q39 2 89 -18.5t99 -92.5q23 -39 30 -82t-2 -86t-32.5 -81.5t-60.5 -71.5q-31 -27 -74 -46.5t-93 -25.5t-106.5 5.5t-115.5 45.5q-14 -39 -21.5 -89t8.5 -97q20 -68 97 -100l41 -7 q41 -8 102 5.5t134 62.5t138 162q31 53 50.5 87t31 53.5t14.5 26.5l3 7l98 -53l-100 -176q-51 -88 -109.5 -144.5t-116 -88.5t-113 -44t-100.5 -12q-41 0 -71.5 6t-46.5 14q-121 55 -158 166q-18 57 -14 116.5zM121 502q84 -53 153.5 -44t112.5 48q37 31 55.5 81t-10.5 97 q-39 59 -90 59q-37 0 -80 -35.5t-78 -95.5zM215 1024q0 29 19.5 48.5t48.5 19.5t48 -19.5t19 -48.5t-19 -48.5t-48 -19.5t-48.5 19.5t-19.5 48.5zM403 1024q0 29 19.5 48.5t48.5 19.5t48.5 -19.5t19.5 -48.5t-19.5 -48.5t-48.5 -19.5t-48.5 19.5t-19.5 48.5z" />
<glyph unicode="&#xec;" horiz-adv-x="458" d="M-104 234.5q2 52.5 17 102.5t34 85l235 405l97 -55l-234 -403q-25 -49 -33 -93q-8 -37 -5 -74.5t36 -60.5q10 -8 41 -21.5t72 -4.5q86 18 159 145q10 16 18.5 30.5t16.5 31.5l8 12q23 39 40.5 72.5t31.5 56.5q16 27 29 49l96 -53q-12 -23 -29 -51q-14 -25 -32.5 -58 t-40.5 -71l-7 -13l-34 -61q-102 -170 -234 -197q-25 -6 -49 -6q-57 0 -97 18.5t-55 28.5q-49 35 -66 84t-15 101.5zM174 1126l88 66l215 -291l-90 -65z" />
<glyph unicode="&#xed;" horiz-adv-x="458" d="M-104 234.5q2 52.5 17 102.5t34 85l235 405l97 -55l-234 -403q-25 -49 -33 -93q-8 -37 -5 -74.5t36 -60.5q10 -8 41 -21.5t72 -4.5q86 18 159 145q10 16 18.5 30.5t16.5 31.5l8 12q23 39 40.5 72.5t31.5 56.5q16 27 29 49l96 -53q-12 -23 -29 -51q-14 -25 -32.5 -58 t-40.5 -71l-7 -13l-34 -61q-102 -170 -234 -197q-25 -6 -49 -6q-57 0 -97 18.5t-55 28.5q-49 35 -66 84t-15 101.5zM94 969l291 213l66 -88l-291 -215z" />
<glyph unicode="&#xee;" horiz-adv-x="458" d="M-104 234.5q2 52.5 17 102.5t34 85l235 405l97 -55l-234 -403q-25 -49 -33 -93q-8 -37 -5 -74.5t36 -60.5q10 -8 41 -21.5t72 -4.5q86 18 159 145q10 16 18.5 30.5t16.5 31.5l8 12q23 39 40.5 72.5t31.5 56.5q16 27 29 49l96 -53q-12 -23 -29 -51q-14 -25 -32.5 -58 t-40.5 -71l-7 -13l-34 -61q-102 -170 -234 -197q-25 -6 -49 -6q-57 0 -97 18.5t-55 28.5q-49 35 -66 84t-15 101.5zM109 1016l245 178q59 -20 75.5 -27.5t12.5 -7.5l47 -258l-108 -20l-33 172l-174 -127z" />
<glyph unicode="&#xef;" horiz-adv-x="458" d="M-104 234.5q2 52.5 17 102.5t34 85l235 405l97 -55l-234 -403q-25 -49 -33 -93q-8 -37 -5 -74.5t36 -60.5q10 -8 41 -21.5t72 -4.5q86 18 159 145q10 16 18.5 30.5t16.5 31.5l8 12q23 39 40.5 72.5t31.5 56.5q16 27 29 49l96 -53q-12 -23 -29 -51q-14 -25 -32.5 -58 t-40.5 -71l-7 -13l-34 -61q-102 -170 -234 -197q-25 -6 -49 -6q-57 0 -97 18.5t-55 28.5q-49 35 -66 84t-15 101.5zM106 967q0 29 19.5 48t48.5 19t48.5 -19.5t19.5 -47.5q0 -29 -19.5 -48.5t-48.5 -19.5t-48.5 19.5t-19.5 48.5zM295 967q0 29 19 48t48 19t48.5 -19.5 t19.5 -47.5q0 -29 -19.5 -48.5t-48.5 -19.5t-48 19.5t-19 48.5z" />
<glyph unicode="&#xf0;" horiz-adv-x="817" d="M-57 160q-55 166 104 440q41 72 78 119t72.5 76.5t71.5 45t77 23.5q27 6 60.5 6t68.5 -8t67.5 -24.5t61.5 -46.5q10 78 10 159.5t-14 167.5l-194 -90l-46 100l215 99q-14 45 -32.5 88t-44.5 84l94 59q29 -45 49.5 -91t36.5 -93l180 84l45 -101l-198 -92 q27 -139 18.5 -271t-30 -238.5t-45 -175t-27.5 -77.5q-16 -47 -42 -105t-63 -115.5t-85 -106.5t-105 -76q-55 -25 -113 -25q-57 0 -125 29q-111 49 -145 156zM47 195q18 -59 86 -91q80 -33 148 -4q39 18 73.5 53t65.5 82.5t55.5 100.5t42.5 108h2l19 58q16 51 18 111.5 t-33 101.5q-23 25 -54.5 35t-61.5 10q-10 0 -19.5 -1t-19.5 -3q-20 -4 -43 -11.5t-50.5 -29t-60.5 -61.5t-74 -109q-131 -231 -94 -350z" />
<glyph unicode="&#xf1;" horiz-adv-x="866" d="M-248 82l432 747l66 -38q59 41 125.5 59t136.5 -6q53 -20 77.5 -51t35.5 -58q25 -68 -3 -166t-114 -241q-33 -53 -43 -107.5t6 -83.5q4 -6 15.5 -16t45.5 -10q31 0 68 27.5t71 65.5t63.5 81t45.5 73l11 19q23 39 37 64.5t24 41.5l14 29l99 -53q-6 -10 -17 -29 q-10 -16 -24.5 -42t-36.5 -66l-10 -19q-6 -12 -37 -60t-77 -102.5t-106.5 -97.5t-124.5 -43q-72 0 -108.5 29.5t-48.5 52.5q-18 33 -22.5 72t2.5 79.5t22.5 79.5t36.5 72q135 231 108 313q-4 10 -13 20.5t-34 20.5q-53 18 -111.5 -9.5t-110.5 -76.5t-94 -104t-63 -92 l-248 -430zM180 991q8 18 28.5 40t51.5 37t72 20.5t92 -11.5q39 -12 63.5 -16t42 -2t29.5 9t25 15l18 13l57 -95l-14 -10q-20 -14 -42.5 -25.5t-52.5 -15.5t-69 0t-90 21q-31 10 -52.5 7t-34.5 -10t-19 -16l-6 -10z" />
<glyph unicode="&#xf2;" horiz-adv-x="843" d="M-57 160q-55 166 104 440q41 72 78 119t72.5 76.5t71.5 45t77 23.5q27 6 60.5 6t68.5 -8t69 -25.5t60 -45.5q18 -18 33.5 -47t24 -68t5.5 -90t-24 -117q-8 -25 -23.5 -69t-37.5 -95q29 -18 57 -18q20 0 54 11t63 62l10 19q47 78 61.5 105.5t16.5 27.5l96 -51 q0 -2 -15.5 -30t-62.5 -109l-10 -19q-37 -61 -91 -94t-118 -33h-10q-55 2 -103 29q-39 -66 -89 -121t-115 -84q-55 -25 -113 -25q-66 0 -125 29q-111 49 -145 156zM47 193q18 -58 86 -89q76 -35 148 -4q49 23 92 72t78 115l-7 12q-16 37 -18 75t10.5 74.5t37 67.5t61.5 51 l20 11q4 39 -2 74.5t-29 62.5q-23 25 -54.5 35t-61.5 10q-10 0 -19.5 -1t-19.5 -3q-20 -4 -43 -11.5t-50.5 -29t-60.5 -61.5t-74 -109q-131 -231 -94 -352zM315 1245l88 66l215 -291l-90 -66z" />
<glyph unicode="&#xf3;" horiz-adv-x="843" d="M-57 160q-55 166 104 440q41 72 78 119t72.5 76.5t71.5 45t77 23.5q27 6 60.5 6t68.5 -8t69 -25.5t60 -45.5q18 -18 33.5 -47t24 -68t5.5 -90t-24 -117q-8 -25 -23.5 -69t-37.5 -95q29 -18 57 -18q20 0 54 11t63 62l10 19q47 78 61.5 105.5t16.5 27.5l96 -51 q0 -2 -15.5 -30t-62.5 -109l-10 -19q-37 -61 -91 -94t-118 -33h-10q-55 2 -103 29q-39 -66 -89 -121t-115 -84q-55 -25 -113 -25q-66 0 -125 29q-111 49 -145 156zM47 193q18 -58 86 -89q76 -35 148 -4q49 23 92 72t78 115l-7 12q-16 37 -18 75t10.5 74.5t37 67.5t61.5 51 l20 11q4 39 -2 74.5t-29 62.5q-23 25 -54.5 35t-61.5 10q-10 0 -19.5 -1t-19.5 -3q-20 -4 -43 -11.5t-50.5 -29t-60.5 -61.5t-74 -109q-131 -231 -94 -352zM362 1047l291 213l66 -89l-291 -215z" />
<glyph unicode="&#xf4;" horiz-adv-x="843" d="M-57 160q-55 166 104 440q41 72 78 119t72.5 76.5t71.5 45t77 23.5q27 6 60.5 6t68.5 -8t69 -25.5t60 -45.5q18 -18 33.5 -47t24 -68t5.5 -90t-24 -117q-8 -25 -23.5 -69t-37.5 -95q29 -18 57 -18q20 0 54 11t63 62l10 19q47 78 61.5 105.5t16.5 27.5l96 -51 q0 -2 -15.5 -30t-62.5 -109l-10 -19q-37 -61 -91 -94t-118 -33h-10q-55 2 -103 29q-39 -66 -89 -121t-115 -84q-55 -25 -113 -25q-66 0 -125 29q-111 49 -145 156zM47 193q18 -58 86 -89q76 -35 148 -4q49 23 92 72t78 115l-7 12q-16 37 -18 75t10.5 74.5t37 67.5t61.5 51 l20 11q4 39 -2 74.5t-29 62.5q-23 25 -54.5 35t-61.5 10q-10 0 -19.5 -1t-19.5 -3q-20 -4 -43 -11.5t-50.5 -29t-60.5 -61.5t-74 -109q-131 -231 -94 -352zM313 1065l246 178q59 -20 75.5 -27.5t12.5 -7.5l47 -258l-108 -20l-33 172l-174 -127z" />
<glyph unicode="&#xf5;" horiz-adv-x="843" d="M-57 160q-55 166 104 440q41 72 78 119t72.5 76.5t71.5 45t77 23.5q27 6 60.5 6t68.5 -8t69 -25.5t60 -45.5q18 -18 33.5 -47t24 -68t5.5 -90t-24 -117q-8 -25 -23.5 -69t-37.5 -95q29 -18 57 -18q20 0 54 11t63 62l10 19q47 78 61.5 105.5t16.5 27.5l96 -51 q0 -2 -15.5 -30t-62.5 -109l-10 -19q-37 -61 -91 -94t-118 -33h-10q-55 2 -103 29q-39 -66 -89 -121t-115 -84q-55 -25 -113 -25q-66 0 -125 29q-111 49 -145 156zM47 193q18 -58 86 -89q76 -35 148 -4q49 23 92 72t78 115l-7 12q-16 37 -18 75t10.5 74.5t37 67.5t61.5 51 l20 11q4 39 -2 74.5t-29 62.5q-23 25 -54.5 35t-61.5 10q-10 0 -19.5 -1t-19.5 -3q-20 -4 -43 -11.5t-50.5 -29t-60.5 -61.5t-74 -109q-131 -231 -94 -352zM207 1001q8 18 28.5 40t51 37.5t71.5 20.5t93 -12q39 -12 63.5 -16t41.5 -2t29.5 9t24.5 16l19 12l57 -94l-14 -11 q-20 -14 -43 -25t-52.5 -15.5t-68.5 0t-90 20.5q-31 10 -52.5 7t-35 -10t-19.5 -16l-6 -10z" />
<glyph unicode="&#xf6;" horiz-adv-x="843" d="M-57 160q-55 166 104 440q41 72 78 119t72.5 76.5t71.5 45t77 23.5q27 6 60.5 6t68.5 -8t69 -25.5t60 -45.5q18 -18 33.5 -47t24 -68t5.5 -90t-24 -117q-8 -25 -23.5 -69t-37.5 -95q29 -18 57 -18q20 0 54 11t63 62l10 19q47 78 61.5 105.5t16.5 27.5l96 -51 q0 -2 -15.5 -30t-62.5 -109l-10 -19q-37 -61 -91 -94t-118 -33h-10q-55 2 -103 29q-39 -66 -89 -121t-115 -84q-55 -25 -113 -25q-66 0 -125 29q-111 49 -145 156zM47 193q18 -58 86 -89q76 -35 148 -4q49 23 92 72t78 115l-7 12q-16 37 -18 75t10.5 74.5t37 67.5t61.5 51 l20 11q4 39 -2 74.5t-29 62.5q-23 25 -54.5 35t-61.5 10q-10 0 -19.5 -1t-19.5 -3q-20 -4 -43 -11.5t-50.5 -29t-60.5 -61.5t-74 -109q-131 -231 -94 -352zM291 999q0 29 19.5 48.5t47.5 19.5q29 0 48.5 -19.5t19.5 -48.5t-19.5 -48t-48.5 -19t-48 19.5t-19 47.5zM479 999 q0 29 19.5 48.5t48.5 19.5t48 -19.5t19 -48.5t-19.5 -48t-47.5 -19q-29 0 -48.5 19.5t-19.5 47.5z" />
<glyph unicode="&#xf7;" horiz-adv-x="581" d="M-27 365v110h703v-110h-703zM164 84q0 35 25.5 60.5t60.5 25.5t60.5 -25.5t25.5 -60.5t-25.5 -60.5t-60.5 -25.5t-60.5 25.5t-25.5 60.5zM326 754q0 35 25.5 60.5t60.5 25.5t60.5 -26t25.5 -60q0 -35 -26 -60.5t-60 -25.5q-35 0 -60.5 25.5t-25.5 60.5z" />
<glyph unicode="&#xf8;" horiz-adv-x="843" d="M-330 -119l275 275q0 2 -1 2t-1 2q-55 166 104 440q41 72 78 119t72.5 76.5t71.5 45t77 23.5q51 8 120 -2t122 -55l276 278l80 -77l-293 -295q16 -43 16.5 -102.5t-24.5 -141.5q-8 -25 -23.5 -69t-37.5 -95q29 -18 57 -18q20 0 54 11t63 62l10 19q47 78 61.5 105.5 t16.5 27.5l96 -51q0 -2 -15.5 -30t-62.5 -109l-10 -19q-37 -61 -91 -94t-118 -33h-10q-55 2 -103 29q-39 -66 -89 -121t-115 -84q-55 -25 -113 -25q-66 0 -125 29q-27 10 -47.5 24.5t-38.5 30.5l-254 -256zM39 252l471 475q-45 33 -102 33q-10 0 -19.5 -1t-19.5 -3 q-20 -4 -43 -11.5t-50.5 -29t-60.5 -61t-74 -109.5q-102 -180 -102 -293zM80 137q24 -23 53 -33q76 -35 148 -4q49 23 92 72t78 115l-7 12q-16 37 -18 75t10.5 74.5t37 67.5t61.5 51l20 11q0 10 1 19t1 19z" />
<glyph unicode="&#xf9;" horiz-adv-x="870" d="M-106 246q2 86 55 178q16 29 37 63q16 29 36.5 65t43.5 75q51 88 116 202l97 -55l-234 -405q-8 -14 -19.5 -39t-17.5 -53.5t-3 -59.5t24 -57q41 -53 95 -49t95 32q37 25 73 68t68 92q4 12 9 16q53 100 80.5 145.5t31.5 49.5l181 315l96 -55l-185 -319l-4 -6l-30 -56 l-27 -51q-10 -23 -20.5 -55.5t-15.5 -64.5t1 -59.5t29 -41.5q29 -18 59 -8q25 6 69 34.5t93 112.5q31 53 56.5 98t45.5 80q23 39 41 74l97 -53q-18 -35 -41 -74q-20 -35 -47 -81t-58 -99q-59 -104 -121.5 -147.5t-109.5 -53.5q-10 -2 -21.5 -3t-23.5 -1q-25 0 -49.5 6 t-46.5 21q-61 35 -78 104q-45 -51 -88 -80q-76 -51 -158 -51q-53 0 -101.5 23.5t-82.5 70.5q-49 66 -47 152zM264 1157l88 66l215 -291l-90 -66z" />
<glyph unicode="&#xfa;" horiz-adv-x="870" d="M-106 246q2 86 55 178q16 29 37 63q16 29 36.5 65t43.5 75q51 88 116 202l97 -55l-234 -405q-8 -14 -19.5 -39t-17.5 -53.5t-3 -59.5t24 -57q41 -53 95 -49t95 32q37 25 73 68t68 92q4 12 9 16q53 100 80.5 145.5t31.5 49.5l181 315l96 -55l-185 -319l-4 -6l-30 -56 l-27 -51q-10 -23 -20.5 -55.5t-15.5 -64.5t1 -59.5t29 -41.5q29 -18 59 -8q25 6 69 34.5t93 112.5q31 53 56.5 98t45.5 80q23 39 41 74l97 -53q-18 -35 -41 -74q-20 -35 -47 -81t-58 -99q-59 -104 -121.5 -147.5t-109.5 -53.5q-10 -2 -21.5 -3t-23.5 -1q-25 0 -49.5 6 t-46.5 21q-61 35 -78 104q-45 -51 -88 -80q-76 -51 -158 -51q-53 0 -101.5 23.5t-82.5 70.5q-49 66 -47 152zM332 973l291 213l65 -88l-291 -215z" />
<glyph unicode="&#xfb;" horiz-adv-x="870" d="M-106 246q2 86 55 178q16 29 37 63q16 29 36.5 65t43.5 75q51 88 116 202l97 -55l-234 -405q-8 -14 -19.5 -39t-17.5 -53.5t-3 -59.5t24 -57q41 -53 95 -49t95 32q37 25 73 68t68 92q4 12 9 16q53 100 80.5 145.5t31.5 49.5l181 315l96 -55l-185 -319l-4 -6l-30 -56 l-27 -51q-10 -23 -20.5 -55.5t-15.5 -64.5t1 -59.5t29 -41.5q29 -18 59 -8q25 6 69 34.5t93 112.5q31 53 56.5 98t45.5 80q23 39 41 74l97 -53q-18 -35 -41 -74q-20 -35 -47 -81t-58 -99q-59 -104 -121.5 -147.5t-109.5 -53.5q-10 -2 -21.5 -3t-23.5 -1q-25 0 -49.5 6 t-46.5 21q-61 35 -78 104q-45 -51 -88 -80q-76 -51 -158 -51q-53 0 -101.5 23.5t-82.5 70.5q-49 66 -47 152zM332 1073l246 178q59 -20 75.5 -27t12.5 -7l47 -259l-109 -20l-33 172l-174 -127z" />
<glyph unicode="&#xfc;" horiz-adv-x="870" d="M-106 246q2 86 55 178q16 29 37 63q16 29 36.5 65t43.5 75q51 88 116 202l97 -55l-234 -405q-8 -14 -19.5 -39t-17.5 -53.5t-3 -59.5t24 -57q41 -53 95 -49t95 32q37 25 73 68t68 92q4 12 9 16q53 100 80.5 145.5t31.5 49.5l181 315l96 -55l-185 -319l-4 -6l-30 -56 l-27 -51q-10 -23 -20.5 -55.5t-15.5 -64.5t1 -59.5t29 -41.5q29 -18 59 -8q25 6 69 34.5t93 112.5q31 53 56.5 98t45.5 80q23 39 41 74l97 -53q-18 -35 -41 -74q-20 -35 -47 -81t-58 -99q-59 -104 -121.5 -147.5t-109.5 -53.5q-10 -2 -21.5 -3t-23.5 -1q-25 0 -49.5 6 t-46.5 21q-61 35 -78 104q-45 -51 -88 -80q-76 -51 -158 -51q-53 0 -101.5 23.5t-82.5 70.5q-49 66 -47 152zM348 991q0 29 19.5 48.5t48.5 19.5t48 -19.5t19 -48.5t-19 -48t-48 -19t-48.5 19.5t-19.5 47.5zM537 991q0 29 19 48.5t48 19.5t48.5 -19.5t19.5 -48.5t-19.5 -48 t-48.5 -19t-48 19.5t-19 47.5z" />
<glyph unicode="&#xfd;" horiz-adv-x="831" d="M-266 -469q-16 57 11.5 120.5t92.5 117.5q72 59 150 96t155 65l45 78q-30 -8 -65 -8q-53 0 -101.5 23.5t-82.5 70.5q-49 66 -47 152t55 178q16 29 37 63q16 29 36.5 65t42.5 75q51 88 117 202l96 -55l-233 -405q-8 -14 -19.5 -39t-17.5 -53.5t-3 -59.5t24 -57 q41 -53 95 -49t95 32q37 25 73 67t66 89l80 141l4 6q12 23 20.5 40.5t18.5 27.5l2 2l181 313l96 -55l-234 -403l-8 -15q-12 -23 -27.5 -49t-31.5 -53l-152 -264q59 25 116.5 53.5t113 71.5t108.5 101t102 142l11 19q23 39 37 64.5t24 41.5l14 29l99 -53q-6 -10 -17 -29 q-10 -16 -24.5 -42t-36.5 -66l-12 -19q-68 -115 -140.5 -189.5t-149.5 -123.5t-155 -82t-155 -60q-4 -2 -10.5 -3t-10.5 -5l-145 -250q-31 -51 -60.5 -81.5t-58.5 -47t-52.5 -21.5t-41.5 -5h-17q-41 4 -70.5 29.5t-39.5 66.5zM-160 -438q4 -10 9.5 -13.5t9.5 -3.5 q16 -4 49 15.5t69 85.5l74 127q-37 -18 -72.5 -40t-70.5 -50q-43 -35 -58.5 -68t-9.5 -53zM350 961l291 213l66 -89l-291 -215z" />
<glyph unicode="&#xfe;" horiz-adv-x="753" d="M-410 -203l871 1510l96 -56l-254 -438q41 20 87 32.5t97 12.5q78 0 118 -28.5t57 -59.5q92 -162 -138 -557q-68 -119 -153.5 -166t-163.5 -47q-33 0 -64 6q-70 16 -122 63.5t-80 112.5l-254 -440zM18 317q8 -78 48 -133t104 -69q70 -16 139.5 24.5t120.5 128.5 q55 94 87 169t47.5 130.5t14.5 92t-12 55.5q-4 6 -18 19.5t-62 13.5q-57 0 -108 -21.5t-94 -53.5t-77 -69t-57.5 -68.5t-36.5 -53.5l-14 -21z" />
<glyph unicode="&#xff;" horiz-adv-x="831" d="M-266 -469q-16 57 11.5 120.5t92.5 117.5q72 59 150 96t155 65l45 78q-30 -8 -65 -8q-53 0 -101.5 23.5t-82.5 70.5q-49 66 -47 152t55 178q16 29 37 63q16 29 36.5 65t42.5 75q51 88 117 202l96 -55l-233 -405q-8 -14 -19.5 -39t-17.5 -53.5t-3 -59.5t24 -57 q41 -53 95 -49t95 32q37 25 73 67t66 89l80 141l4 6q12 23 20.5 40.5t18.5 27.5l2 2l181 313l96 -55l-234 -403l-8 -15q-12 -23 -27.5 -49t-31.5 -53l-152 -264q59 25 116.5 53.5t113 71.5t108.5 101t102 142l11 19q23 39 37 64.5t24 41.5l14 29l99 -53q-6 -10 -17 -29 q-10 -16 -24.5 -42t-36.5 -66l-12 -19q-68 -115 -140.5 -189.5t-149.5 -123.5t-155 -82t-155 -60q-4 -2 -10.5 -3t-10.5 -5l-145 -250q-31 -51 -60.5 -81.5t-58.5 -47t-52.5 -21.5t-41.5 -5h-17q-41 4 -70.5 29.5t-39.5 66.5zM-160 -438q4 -10 9.5 -13.5t9.5 -3.5 q16 -4 49 15.5t69 85.5l74 127q-37 -18 -72.5 -40t-70.5 -50q-43 -35 -58.5 -68t-9.5 -53zM315 985q0 29 19.5 48.5t48.5 19.5t48.5 -19.5t19.5 -48.5t-19.5 -48t-48.5 -19t-48.5 19t-19.5 48zM504 985q0 29 19 48.5t48 19.5t48.5 -19.5t19.5 -48.5t-19.5 -48t-48.5 -19 t-48 19t-19 48z" />
<glyph unicode="&#x152;" horiz-adv-x="1685" d="M0 324q0 129 66 245l258 443q66 115 179 180t245 65q135 0 224 -38.5t140 -94.5q29 43 53 66q43 41 98.5 66.5t114 33.5t115.5 -2t104 -39q59 -37 86 -98t15 -135q-8 -47 -28.5 -89t-50.5 -76t-66.5 -57.5t-77.5 -31.5l-23 108q47 10 87 57.5t50 106.5q4 29 -3 64t-46 57 q-29 16 -65.5 23.5t-77.5 2.5t-82 -22.5t-74 -48.5q-47 -45 -63 -115q6 -35 -4 -65q0 -47 16 -102.5t45 -114.5q18 -4 29 -8l-41 -103q-16 6 -59.5 6t-97.5 -14t-110.5 -46t-95.5 -89q-80 -113 -101.5 -217.5t19.5 -184.5q29 -59 87.5 -93t135.5 -38q80 -4 162 27t160 89 t151.5 144t137.5 197l74 129l96 -55l-74 -129q-70 -121 -152.5 -216.5t-172 -161t-183.5 -100t-186 -34.5h-17q-150 6 -247 98q-41 -33 -104.5 -57.5t-153.5 -24.5q-135 0 -247 64.5t-179 181.5q-66 117 -66 246zM111 323.5q0 -100.5 51 -190.5q53 -90 139 -140t191 -50 q74 0 120.5 18.5t69.5 40.5l-4 6q-53 109 -30.5 243t120.5 271q35 49 77 83t88 57.5t92 36t89 16.5q-35 86 -45 153.5t-2 120.5q-4 10 -11 25.5t-24 32.5q-12 14 -34.5 31.5t-56.5 32.5t-82 25.5t-111 10.5q-102 0 -190.5 -50t-139.5 -141l-256 -442q-51 -90 -51 -190.5z " />
<glyph unicode="&#x153;" horiz-adv-x="1214" d="M-57 160q-55 166 104 440q41 72 78 119t72.5 76.5t71.5 45t77 23.5q66 14 130.5 -1t111.5 -56q49 -43 67 -105q49 72 109.5 111t120.5 43q37 2 88 -19.5t98 -93.5q47 -78 28.5 -166t-93.5 -153q-31 -29 -73 -48.5t-92 -25.5t-105.5 4.5t-114.5 44.5q-4 -12 -8.5 -23 t-8.5 -22q-8 -33 -9 -68.5t9 -70.5q20 -63 98 -100l41 -7q41 -8 101.5 5.5t133.5 62.5t138 162l23 41q23 39 37 64.5t24 41.5q8 18 14 27l99 -51q0 -2 -15.5 -30t-62.5 -107l-23 -41q-51 -88 -109.5 -144.5t-115.5 -88.5t-112.5 -44t-100.5 -12q-41 0 -71.5 7t-47.5 13 q-113 53 -151 152q-129 -190 -293 -191q-55 0 -123 29q-111 49 -145 156zM47 195q18 -60 86 -91q63 -29 118.5 -11t99.5 60t77 98t55 103l17 37q10 39 21 68.5t20 46.5q45 156 -27 219q-41 35 -106 35q-10 0 -19.5 -1t-19.5 -3q-20 -4 -43 -11.5t-50.5 -29t-60.5 -61.5 t-74 -109q-131 -231 -94 -350zM666 502q41 -27 79.5 -36t73.5 -6t63.5 15t51.5 31q35 33 53.5 82t-10.5 96q-43 61 -88 61h-2q-37 -2 -80 -37.5t-78 -95.5z" />
<glyph unicode="&#x178;" horiz-adv-x="1232" d="M7 783.5q18 101.5 73 203.5q104 186 225 246q63 33 128 24.5t110 -55.5q72 -72 66.5 -198.5t-85.5 -280.5l-151 -266q-29 -45 -47.5 -105.5t0.5 -105.5q23 -53 102 -74q63 -16 142 30t160 129t158 187.5t138 206.5l293 506l96 -55l-233 -402q-6 -10 -20.5 -36.5 t-37.5 -61.5l-467 -811q-6 -10 -26.5 -47t-54 -77t-82 -70.5t-107.5 -30.5q-25 0 -49 6l27 106q41 -10 75.5 13.5t61 56.5t40.5 62l15 28q0 2 2 4l137 238q-59 -45 -117.5 -71t-117.5 -26q-35 0 -60 9q-137 33 -178 139q-18 45 -17 91t13 88t28.5 76t28.5 54l152 262 q72 141 71 228.5t-34 119.5q-20 23 -49 25t-60 -14q-94 -47 -180 -203q-53 -96 -62.5 -173t7.5 -124q12 -41 35 -49l-47 -101q-66 31 -95 117q-25 80 -7 181.5zM727 1341q0 29 19.5 48.5t48.5 19.5t48 -19.5t19 -48.5t-19 -48t-48 -19t-48.5 19.5t-19.5 47.5zM915 1341 q0 29 19.5 48.5t48.5 19.5t48.5 -19.5t19.5 -48.5t-19.5 -48t-48.5 -19t-48.5 19.5t-19.5 47.5z" />
<glyph unicode="&#x2c6;" horiz-adv-x="442" d="M0 1085l246 179q59 -20 75.5 -27.5t12.5 -7.5l47 -258l-109 -21l-32 172l-174 -127z" />
<glyph unicode="&#x2dc;" horiz-adv-x="489" d="M0 1047q8 18 28.5 39.5t51.5 37t72 20.5t92 -11q39 -12 63.5 -16.5t42 -2.5t29.5 9t24 16l19 12l57 -94l-14 -10q-20 -14 -43 -25.5t-52.5 -16t-68.5 0t-90 20.5q-31 10 -52.5 7t-34.5 -10t-20 -17l-6 -9z" />
<glyph unicode="&#x2000;" horiz-adv-x="865" />
<glyph unicode="&#x2001;" horiz-adv-x="1731" />
<glyph unicode="&#x2002;" horiz-adv-x="865" />
<glyph unicode="&#x2003;" horiz-adv-x="1731" />
<glyph unicode="&#x2004;" horiz-adv-x="577" />
<glyph unicode="&#x2005;" horiz-adv-x="432" />
<glyph unicode="&#x2006;" horiz-adv-x="288" />
<glyph unicode="&#x2007;" horiz-adv-x="288" />
<glyph unicode="&#x2008;" horiz-adv-x="216" />
<glyph unicode="&#x2009;" horiz-adv-x="346" />
<glyph unicode="&#x200a;" horiz-adv-x="96" />
<glyph unicode="&#x2010;" horiz-adv-x="724" d="M166 430v111h512v-111h-512z" />
<glyph unicode="&#x2011;" horiz-adv-x="724" d="M166 430v111h512v-111h-512z" />
<glyph unicode="&#x2012;" horiz-adv-x="724" d="M166 430v111h512v-111h-512z" />
<glyph unicode="&#x2013;" horiz-adv-x="907" d="M166 430v111h661v-111h-661z" />
<glyph unicode="&#x2014;" horiz-adv-x="1478" d="M166 430v111h1243v-111h-1243z" />
<glyph unicode="&#x2018;" horiz-adv-x="200" d="M2 1026q2 16 16 33q23 35 45.5 63.5t38.5 44.5l72 -16q-4 -4 -20.5 -22.5t-34.5 -41.5q20 -8 39 -32q18 -29 12 -66q-6 -35 -35.5 -54t-64.5 -11q-35 6 -56 37q-18 29 -12 65z" />
<glyph unicode="&#x2019;" horiz-adv-x="178" d="M-2 930q4 4 20.5 22.5t34.5 40.5q-20 8 -39 33q-18 29 -12 66q6 35 35.5 54t64.5 11q35 -6 56 -37q18 -29 12 -65q-2 -16 -16 -33q-23 -35 -45.5 -63.5t-38.5 -45.5z" />
<glyph unicode="&#x201a;" horiz-adv-x="194" d="M-2 -61q4 4 20.5 22.5t34.5 40.5q-20 8 -39 33q-18 29 -12 65q6 35 35.5 54.5t64.5 11.5q35 -6 56 -37q18 -29 12 -66q-2 -16 -16 -32q-23 -35 -45.5 -63.5t-38.5 -45.5z" />
<glyph unicode="&#x201c;" horiz-adv-x="442" d="M2 1026q2 16 16 33q23 35 45.5 63.5t38.5 44.5l72 -16q-4 -4 -20.5 -22.5t-34.5 -41.5q20 -8 39 -32q18 -29 12 -66q-6 -35 -35.5 -54t-64.5 -11q-35 6 -56 37q-18 29 -12 65zM233 1026q2 16 17 33q23 35 45 63.5t39 44.5l72 -16q-4 -4 -20.5 -22.5t-35.5 -41.5 q20 -8 39 -32q18 -29 12 -66q-6 -35 -35.5 -54t-64.5 -11q-35 6 -55 37q-18 29 -13 65z" />
<glyph unicode="&#x201d;" horiz-adv-x="442" d="M-2 930q4 4 20.5 22.5t34.5 40.5q-20 8 -39 33q-18 29 -12 66q6 35 35.5 54t64.5 11q35 -6 56 -37q18 -29 12 -65q-2 -16 -16 -33q-23 -35 -45.5 -63.5t-38.5 -45.5zM229 930q4 4 20.5 22.5t35.5 40.5q-20 8 -39 33q-18 29 -13 66q6 35 36 54t65 11q35 -6 55 -37 q18 -29 12 -65q-2 -16 -16 -33q-23 -35 -45.5 -63.5t-38.5 -45.5z" />
<glyph unicode="&#x201e;" horiz-adv-x="442" d="M-2 -61q4 4 20.5 22.5t34.5 40.5q-20 8 -39 33q-18 29 -12 65q6 35 35.5 54.5t64.5 11.5q35 -6 56 -37q18 -29 12 -66q-2 -16 -16 -32q-23 -35 -45.5 -63.5t-38.5 -45.5zM227 -61q4 4 20.5 22.5t35.5 40.5q-20 8 -39 33q-18 29 -13 65q6 35 36 54.5t65 11.5q35 -6 55 -37 q18 -29 12 -66q-2 -16 -16 -32q-23 -35 -45.5 -63.5t-38.5 -45.5z" />
<glyph unicode="&#x2022;" horiz-adv-x="655" d="M190 584q0 78 55.5 133t133.5 55t133 -55t55 -133t-55 -133.5t-133 -55.5t-133.5 55.5t-55.5 133.5z" />
<glyph unicode="&#x2026;" horiz-adv-x="681" d="M18 84q0 35 25.5 60.5t60.5 25.5t60.5 -25.5t25.5 -60.5t-25.5 -60.5t-60.5 -25.5t-60.5 25.5t-25.5 60.5zM246 84q0 35 25.5 60.5t60.5 25.5t60.5 -25.5t25.5 -60.5t-25.5 -60.5t-60.5 -25.5t-60.5 25.5t-25.5 60.5zM473 84q0 35 25.5 60.5t60.5 25.5t60.5 -25.5 t25.5 -60.5t-25.5 -60.5t-60.5 -25.5t-60.5 25.5t-25.5 60.5z" />
<glyph unicode="&#x202f;" horiz-adv-x="346" />
<glyph unicode="&#x2039;" horiz-adv-x="630" d="M123 539q-2 18 8 36l363 568l92 -60l-350 -551l88 -634l-109 -15z" />
<glyph unicode="&#x203a;" horiz-adv-x="516" d="M8 -57l350 551l-88 634l109 15l92 -656q2 -18 -8 -36l-363 -568z" />
<glyph unicode="&#x205f;" horiz-adv-x="432" />
<glyph unicode="&#x20ac;" horiz-adv-x="919" d="M0 430v111h293q12 33 27.5 63.5t33.5 65.5l15 26h-263v111h332q86 127 175 200.5t172 109.5t157 44t129 2t87 -17t34 -11l-25 -50l-22 -51q-4 2 -55.5 16.5t-131 4t-180 -63.5t-205.5 -184h189v-111h-264q-12 -18 -23.5 -37.5t-23.5 -42.5l-37 -75h243v-111h-286 q-66 -197 -17 -328q16 -45 41 -75.5t47.5 -49t39.5 -27.5l18 -9l-39 -103q-2 0 -26.5 12.5t-57.5 38t-68 68.5t-59 106q-57 156 4 367h-254z" />
<glyph unicode="&#x2122;" horiz-adv-x="1314" d="M57 680l207 377h-174v110h506v-110h-205l-237 -432zM428 692l264 459q10 14 25.5 22.5t32.5 4.5q39 -6 45 -45l45 -230l301 252q14 12 32.5 12t34.5 -10t21.5 -27.5t-0.5 -35.5l-225 -506l-105 37l160 317l-221 -182q-23 -20 -54 -10t-36 41l-33 176l-191 -330z" />
<glyph unicode="&#x25fc;" horiz-adv-x="849" d="M0 0v850h850v-850h-850z" />
<glyph unicode="&#xfb01;" horiz-adv-x="845" d="M-361.5 -339q-7.5 38 1.5 87q16 104 47.5 190.5t85.5 180.5l571 991l96 -55l-327 -570q2 -16 6 -63t6 -115q6 -6 8 -6q37 -20 85 -11t83 68l10 19l4 8l19 37l235 405l97 -55l-183 -313h2q-6 -8 -14 -23q-8 -12 -19.5 -33.5t-27.5 -50.5q-6 -16 -16.5 -43.5t-13.5 -59.5 t3 -60.5t33 -47.5q10 -8 41 -21.5t72 -4.5q86 18 159 145q10 16 18.5 30.5t16.5 31.5l8 12q23 39 40.5 72.5t31.5 56.5q16 27 29 49l96 -53q-12 -23 -29 -51q-14 -25 -32.5 -58t-40.5 -71l-6 -13l-35 -61q-102 -170 -234 -197q-25 -6 -49 -6q-57 0 -97 18.5t-54 28.5 q-41 29 -59.5 67t-22.5 81q-43 -20 -95 -21q-29 0 -65 10q-4 -113 -24.5 -240.5t-73.5 -248.5q-39 -92 -102.5 -134t-125.5 -42q-29 0 -47 8q-25 6 -48.5 22.5t-39.5 44t-23.5 65.5zM-253 -290.5q-1 -14.5 1 -30t9 -28.5t24 -18q27 -8 69.5 15.5t73.5 93.5q55 127 72.5 266 t17.5 252l-18 25l-129 -222q-49 -86 -77 -162.5t-42 -170.5q0 -6 -1 -20.5zM625 946q0 33 22 55.5t55 22.5q31 0 53.5 -22.5t22.5 -55.5q0 -31 -22.5 -53.5t-53.5 -22.5q-33 0 -55 22.5t-22 53.5z" />
<glyph unicode="&#xfb02;" horiz-adv-x="847" d="M-361.5 -339q-7.5 38 1.5 87q16 104 47.5 190.5t85.5 180.5l571 991l96 -55l-327 -570q2 -16 6 -63t6 -115q6 -6 8 -6q37 -20 85 -11t83 68l10 19l13 20l12 25l51 88v2l547 944l94 -55l-543 -942l-18 -31q0 -4 -4 -8l-29 -51l-2 -2l-24 -45l-13 -19q-45 -76 -110 -106 q-4 53 8 106t31 94q35 59 48 84t15 29v2l98 -53q-2 -2 -4 -8q-4 -4 -7 -10.5t-7 -12.5l-4 -8l-31 -53q-2 -4 -14 -33t-19.5 -65t-2.5 -71.5t36 -56.5q10 -8 41 -21.5t72 -4.5q86 18 160 145q10 16 17 30.5t17 28.5l9 15q23 39 40 72.5t31 56.5q16 27 29 49l98 -53 q-12 -23 -28 -51q-14 -25 -34 -58t-42 -71l-8 -15l-33 -59q-102 -170 -234 -197q-25 -6 -49 -6q-57 0 -97 18.5t-54 28.5q-41 29 -59.5 68t-22.5 80q-43 -20 -97 -21q-29 0 -65 10q-4 -113 -24.5 -240.5t-73.5 -248.5q-39 -92 -102.5 -134t-125.5 -42q-29 0 -47 8 q-25 6 -48.5 22.5t-39.5 44t-23.5 65.5zM-253 -290.5q-1 -14.5 1 -30t9 -28.5t24 -18q27 -8 69.5 15.5t73.5 93.5q55 127 72.5 266t17.5 252l-18 25l-129 -222q-49 -86 -77 -162.5t-42 -170.5q0 -6 -1 -20.5z" />
</font>
</defs>
</svg>
