<?xml version="1.0" encoding="UTF-8"?>
<svg width="193px" height="224px" viewBox="0 0 193 224" version="1.1" xmlns="http://www.w3.org/2000/svg" xmlns:xlink="http://www.w3.org/1999/xlink">
    <!-- Generator: Sketch 51.3 (57544) - http://www.bohemiancoding.com/sketch -->
    <title>Shape</title>
    <desc>Created with Sketch.</desc>
    <defs></defs>
    <g id="Page-1" stroke="none" stroke-width="1" fill="none" fill-rule="evenodd">
        <g id="Homepage" transform="translate(-587.000000, -2117.000000)" stroke="#FFFFFF" stroke-width="4.79999971">
            <g id="Image-Fold" transform="translate(0.000000, 1777.000000)">
                <g id="Flower" transform="translate(590.000000, 344.000000)">
                    <g id="Group" transform="translate(0.131826, 0.185235)">
                        <path d="M27.8000934,108 C27.8000934,144.218447 56.9901915,173.57767 93,173.57767 C129.009809,173.57767 158.199907,144.218447 158.199907,108 C158.199907,71.7815534 129.009809,42.4223301 93,42.4223301 C56.9901915,42.4223301 27.8000934,71.7815534 27.8000934,108 Z M47.3470341,88.3398058 C47.3470341,113.679612 67.8061653,134.213592 93,134.213592 C118.193835,134.213592 138.652966,113.635922 138.652966,88.2961165 C138.652966,62.9563107 118.237272,42.3786408 93,42.3786408 C67.8061653,42.4223301 47.3470341,62.9563107 47.3470341,88.3398058 Z M125.578234,51.2038835 C141.215787,23.9417476 99.993461,7.0776699 93,0 C85.9631014,7.0776699 44.784213,23.9417476 60.4217655,51.2038835 L125.578234,51.2038835 Z M60.4217655,164.796117 C44.784213,192.058252 86.006539,208.92233 93,216 C100.036899,208.92233 141.215787,192.058252 125.578234,164.796117 L60.4217655,164.796117 Z M158.199907,108 C189.518449,108 183.437179,63.6553398 186,54 C176.40028,51.4223301 141.259225,23.9854369 125.621672,51.2038835 L158.199907,108 Z M27.8000934,108 C-3.51844932,108 2.56282111,152.34466 0,162 C9.59971976,164.57767 44.7407753,192.014563 60.3783279,164.796117 L27.8000934,108 Z M125.578234,164.796117 C141.215787,192.058252 176.356843,164.57767 185.956562,162 C183.393741,152.34466 189.431574,108 158.156469,108 L125.578234,164.796117 Z M60.4217655,51.2038835 C44.7407753,23.9417476 9.59971976,51.4223301 0.043437646,54 C2.60625876,63.6553398 -3.43157403,107.956311 27.8435311,108 L60.4217655,51.2038835 Z" id="Shape"></path>
                    </g>
                </g>
            </g>
        </g>
    </g>
</svg>