<?xml version="1.0" encoding="UTF-8"?>
<svg width="32px" height="40px" viewBox="0 0 32 40" version="1.1" xmlns="http://www.w3.org/2000/svg" xmlns:xlink="http://www.w3.org/1999/xlink">
    <!-- Generator: Sketch 51.3 (57544) - http://www.bohemiancoding.com/sketch -->
    <title>DESTINATION BROCHURE</title>
    <desc>Created with Sketch.</desc>
    <defs></defs>
    <g id="Page-1" stroke="none" stroke-width="1" fill="none" fill-rule="evenodd">
        <g id="Destinations-Page" transform="translate(-722.000000, -4158.000000)" fill="#FFFFFF" fill-rule="nonzero">
            <g id="BOX3" transform="translate(700.000000, 4140.000000)">
                <path d="M53.9917249,19.0092308 C53.9917249,18.4512821 53.5365917,18 52.9738816,18 L28.2808379,18 C24.8135506,18 22,20.7979487 22,24.2276923 L22,51.7723077 C22,55.2102564 24.8218257,58 28.2808379,58 L52.9821567,58 C53.5448668,58 54,57.5487179 54,56.9907692 L54,29.454359 C54,28.8964103 53.5448668,28.4451282 52.9821567,28.4451282 L28.2808379,28.4451282 C25.9389708,28.4451282 24.0274114,26.5497436 24.0274114,24.2276923 C24.0274114,21.905641 25.9389708,20.0102564 28.2808379,20.0102564 L52.9821567,20.0102564 C53.5365917,20.0102564 53.9917249,19.5589744 53.9917249,19.0092308 Z M28.2808379,30.4553846 L51.9643134,30.4553846 L51.9643134,55.9897436 L28.2808379,55.9897436 C25.9389708,55.9897436 24.0274114,54.094359 24.0274114,51.7723077 L24.0274114,28.8061538 C25.1445565,29.8317949 26.6423584,30.4553846 28.2808379,30.4553846 Z M28.6283941,23.3169231 L51.8070856,23.3169231 C52.3697957,23.3169231 52.8249289,23.7682051 52.8249289,24.3261538 C52.8249289,24.8841026 52.3697957,25.3353846 51.8070856,25.3353846 L28.6283941,25.3353846 C28.065684,25.3353846 27.6105508,24.8841026 27.6105508,24.3261538 C27.6105508,23.7682051 28.065684,23.3169231 28.6283941,23.3169231 Z M32.5590897,50.6317949 C33.0804241,50.8287179 33.6679597,50.574359 33.8665632,50.0492308 L35.3478148,46.2092308 L40.5363331,46.2092308 C40.5777088,46.2092308 40.6108094,46.2010256 40.64391,46.2010256 L42.1251616,50.0492308 C42.2823894,50.4512821 42.6630463,50.6974359 43.0685286,50.6974359 C43.1926558,50.6974359 43.3085079,50.6728205 43.4326351,50.6317949 C43.9539695,50.4348718 44.2187742,49.8523077 44.0201707,49.3353846 L39.5515904,37.7497436 C39.3033359,37.1015385 38.6909749,36.6830769 37.9958624,36.6830769 C37.3007499,36.6830769 36.6883889,37.1015385 36.4401345,37.7497436 L31.9715542,49.3353846 C31.7729506,49.8523077 32.0377554,50.4266667 32.5590897,50.6317949 Z M37.9958624,39.3333333 L39.8743212,44.1989744 L36.1256788,44.1989744 L37.9958624,39.3333333 Z" id="DESTINATION-BROCHURE"></path>
            </g>
        </g>
    </g>
</svg>