<?xml version="1.0" encoding="UTF-8"?>
<svg width="34px" height="34px" viewBox="0 0 34 34" version="1.1" xmlns="http://www.w3.org/2000/svg" xmlns:xlink="http://www.w3.org/1999/xlink">
    <!-- Generator: Sketch 51.3 (57544) - http://www.bohemiancoding.com/sketch -->
    <title>Location Best</title>
    <desc>Created with Sketch.</desc>
    <defs></defs>
    <g id="Page-1" stroke="none" stroke-width="1" fill="none" fill-rule="evenodd">
        <g id="Destinations-Page" transform="translate(-112.000000, -4163.000000)" fill="#FFFFFF" fill-rule="nonzero">
            <g id="BOX1" transform="translate(90.000000, 4140.000000)">
                <g id="Location-Best" transform="translate(22.000000, 23.000000)">
                    <path d="M17,0.0380236686 C10.4219,0.0380236686 5.0703,5.42139053 5.0703,12.0383136 C5.0703,14.7687751 5.9599,17.3403018 7.6429,19.474858 C9.7893,22.1971716 16.0188,28.6482189 16.283,28.9215266 L16.9999,29.6633905 L17.7169,28.9216272 C17.9812,28.6482189 24.2127,22.1956627 26.3593,19.4725444 C28.0408,17.3395976 28.9296,14.7688757 28.9296,12.0383136 C28.9297,5.42139053 23.5781,0.0380236686 17,0.0380236686 Z M24.7923,18.2225917 C23.1275,20.3345148 18.7332,24.9625385 17,26.7728876 C15.2673,24.9629408 10.8746,20.3361243 9.2099,18.2248047 C7.8101,16.4494615 7.0703,14.3102781 7.0703,12.0384142 C7.0703,6.53071598 11.5247,2.04995858 17,2.04995858 C22.4753,2.04995858 26.9297,6.53071598 26.9297,12.0384142 C26.9297,14.3103787 26.1906,16.448858 24.7923,18.2225917 Z" id="Shape"></path>
                    <path d="M17,4.71573964 C13.0578,4.71573964 9.8505,7.94191716 9.8505,11.9074438 C9.8505,15.8729704 13.0577,19.0992485 17,19.0992485 C20.9423,19.0992485 24.1495,15.873071 24.1495,11.9074438 C24.1495,7.94201775 20.9422,4.71573964 17,4.71573964 Z M17,17.0874142 C14.1606,17.0874142 11.8505,14.763645 11.8505,11.9074438 C11.8505,9.0512426 14.1606,6.72757396 17,6.72757396 C19.8394,6.72757396 22.1495,9.0512426 22.1495,11.9074438 C22.1495,14.763645 19.8394,17.0874142 17,17.0874142 Z" id="Shape"></path>
                    <path d="M31.3094,4.47985207 L29.761,5.75314201 C31.2048,7.52989349 32,9.77117751 32,12.0639645 C32,14.3360296 31.2609,16.4745089 29.8626,18.2482426 L31.4297,19.4982959 C33.1112,17.3652485 34,14.7945266 34,12.0639645 C34,9.30835503 33.0445,6.61491124 31.3094,4.47985207 Z" id="Shape"></path>
                    <path d="M2.6906,4.47985207 C0.9555,6.61491124 0,9.30835503 0,12.0639645 C0,14.7945266 0.8888,17.3652485 2.5703,19.4981953 L4.1374,18.248142 C2.7391,16.4744083 2,14.3360296 2,12.0639645 C2,9.77117751 2.7952,7.52989349 4.239,5.75314201 L2.6906,4.47985207 Z" id="Shape"></path>
                    <rect id="Rectangle-path" x="11" y="31.950142" width="12" height="2.01183432"></rect>
                </g>
            </g>
        </g>
    </g>
</svg>