<?xml version="1.0" encoding="UTF-8"?>
<svg width="60px" height="57px" viewBox="0 0 60 57" version="1.1" xmlns="http://www.w3.org/2000/svg" xmlns:xlink="http://www.w3.org/1999/xlink">
    <!-- Generator: Sketch 51.3 (57544) - http://www.bohemiancoding.com/sketch -->
    <title>Hotel</title>
    <desc>Created with Sketch.</desc>
    <defs></defs>
    <g id="Page-1" stroke="none" stroke-width="1" fill="none" fill-rule="evenodd">
        <g id="Accomodations" transform="translate(-751.000000, -330.000000)">
            <g id="Box1-WIDE" transform="translate(694.000000, 251.000000)">
                <g id="Hotel" transform="translate(57.000000, 79.000000)">
                    <path d="M54.9502326,8.74444355 C54.9502326,9.38017742 54.4283721,9.89455645 53.7851163,9.89455645 C53.1418605,9.89455645 52.6213953,9.38017742 52.6213953,8.74444355 C52.6213953,8.10870968 53.1418605,7.59433065 53.7851163,7.59433065 C54.4283721,7.59433065 54.9502326,8.10870968 54.9502326,8.74444355" id="Fill-26" fill="#FFFFFF"></path>
                    <path d="M8.96651163,35.1584274 C8.96651163,35.7017661 8.52139535,36.1416774 7.97162791,36.1416774 C7.42325581,36.1416774 6.97674419,35.7017661 6.97674419,35.1584274 C6.97674419,34.6164677 7.42325581,34.1765565 7.97162791,34.1765565 C8.52139535,34.1765565 8.96651163,34.6164677 8.96651163,35.1584274" id="Fill-27" fill="#FFFFFF"></path>
                    <path d="M59.8939535,22.3361855 C59.8939535,23.0477661 59.3106977,23.6242016 58.592093,23.6242016 C57.872093,23.6242016 57.2888372,23.0477661 57.2888372,22.3361855 C57.2888372,21.6246048 57.872093,21.0481694 58.592093,21.0481694 C59.3106977,21.0481694 59.8939535,21.6246048 59.8939535,22.3361855" id="Fill-28" fill="#FFFFFF"></path>
                    <path d="M7.39116279,18.9313548 C7.39116279,19.7904919 6.68651163,20.4869032 5.8172093,20.4869032 C4.94651163,20.4869032 4.24186047,19.7904919 4.24186047,18.9313548 C4.24186047,18.0708387 4.94651163,17.3744274 5.8172093,17.3744274 C6.68651163,17.3744274 7.39116279,18.0708387 7.39116279,18.9313548" id="Fill-29" fill="#FFFFFF"></path>
                    <path d="M53.7851163,35.6590161 C53.7851163,36.0658306 53.4516279,36.3967984 53.0386047,36.3967984 C52.6269767,36.3967984 52.292093,36.0658306 52.292093,35.6590161 C52.292093,35.2508226 52.6269767,34.9212339 53.0386047,34.9212339 C53.4516279,34.9212339 53.7851163,35.2508226 53.7851163,35.6590161" id="Fill-30" fill="#FFFFFF"></path>
                    <path d="M3.65162791,30.2876855 C3.65162791,31.2350806 2.8744186,32.0045806 1.9144186,32.0045806 C0.954418605,32.0045806 0.175813953,31.2350806 0.175813953,30.2876855 C0.175813953,29.3389113 0.954418605,28.5694113 1.9144186,28.5694113 C2.8744186,28.5694113 3.65162791,29.3389113 3.65162791,30.2876855" id="Fill-31" fill="#FFFFFF"></path>
                    <path d="M13.8851163,54.8647984 L47.4725581,54.8647984 L47.4725581,14.4963871 L13.8851163,14.4963871 L13.8851163,54.8647984 Z M11.792093,56.9333468 L49.5655814,56.9333468 L49.5655814,12.4278387 L11.792093,12.4278387 L11.792093,56.9333468 Z" id="Fill-33" fill="#FFFFFF"></path>
                    <polygon id="Fill-34" fill="#FFFFFF" points="2.66790698 56.9333468 59.2409302 56.9333468 59.2409302 54.8647984 2.66790698 54.8647984"></polygon>
                    <path d="M27.4967442,54.6207097 L33.8595349,54.6207097 L33.8595349,44.33175 L27.4967442,44.33175 L27.4967442,54.6207097 Z M25.4037209,56.6892581 L35.9525581,56.6892581 L35.9525581,42.2632016 L25.4037209,42.2632016 L25.4037209,56.6892581 Z" id="Fill-36" fill="#FFFFFF"></path>
                    <polygon id="Fill-37" fill="#FFFFFF" points="29.6316279 54.7682661 31.7246512 54.7682661 31.7246512 44.1841935 29.6316279 44.1841935"></polygon>
                    <polygon id="Fill-38" fill="#FFFFFF" points="16.6381395 23.5304274 20.7865116 23.5304274 20.7865116 19.4305645 16.6381395 19.4305645"></polygon>
                    <polygon id="Fill-39" fill="#FFFFFF" points="24.4674419 23.5304274 28.615814 23.5304274 28.615814 19.4305645 24.4674419 19.4305645"></polygon>
                    <polygon id="Fill-40" fill="#FFFFFF" points="32.2953488 23.5304274 36.4437209 23.5304274 36.4437209 19.4305645 32.2953488 19.4305645"></polygon>
                    <polygon id="Fill-41" fill="#FFFFFF" points="40.1246512 23.5304274 44.2730233 23.5304274 44.2730233 19.4305645 40.1246512 19.4305645"></polygon>
                    <polygon id="Fill-42" fill="#FFFFFF" points="16.6381395 30.6186532 20.7865116 30.6186532 20.7865116 26.5201694 16.6381395 26.5201694"></polygon>
                    <polygon id="Fill-43" fill="#FFFFFF" points="24.4674419 30.6186532 28.615814 30.6186532 28.615814 26.5201694 24.4674419 26.5201694"></polygon>
                    <polygon id="Fill-44" fill="#FFFFFF" points="32.2953488 30.6186532 36.4437209 30.6186532 36.4437209 26.5201694 32.2953488 26.5201694"></polygon>
                    <polygon id="Fill-45" fill="#FFFFFF" points="40.1246512 30.6186532 44.2730233 30.6186532 44.2730233 26.5201694 40.1246512 26.5201694"></polygon>
                    <polygon id="Fill-46" fill="#FFFFFF" points="16.6381395 37.7082581 20.7865116 37.7082581 20.7865116 33.6097742 16.6381395 33.6097742"></polygon>
                    <polygon id="Fill-47" fill="#FFFFFF" points="24.4674419 37.7082581 28.615814 37.7082581 28.615814 33.6097742 24.4674419 33.6097742"></polygon>
                    <polygon id="Fill-48" fill="#FFFFFF" points="32.2953488 37.7082581 36.4437209 37.7082581 36.4437209 33.6097742 32.2953488 33.6097742"></polygon>
                    <polygon id="Fill-49" fill="#FFFFFF" points="40.1246512 37.7082581 44.2730233 37.7082581 44.2730233 33.6097742 40.1246512 33.6097742"></polygon>
                    <polygon id="Fill-59" fill="#FFFFFF" points="16.6381395 52.3659919 20.7865116 52.3659919 20.7865116 43.263 16.6381395 43.263"></polygon>
                    <polygon id="Fill-60" fill="#FFFFFF" points="40.1246512 52.3659919 44.2730233 52.3659919 44.2730233 43.263 40.1246512 43.263"></polygon>
                    <polygon id="Fill-66" fill="#2B0806" points="11.3944186 14.8411452 49.9618605 14.8411452 49.9618605 9.78009677 11.3944186 9.78009677"></polygon>
                    <path d="M12.4409302,13.806871 L48.9153488,13.806871 L48.9153488,10.814371 L12.4409302,10.814371 L12.4409302,13.806871 Z M49.264186,15.8754194 L12.092093,15.8754194 C11.1306977,15.8754194 10.347907,15.1031613 10.347907,14.151629 L10.347907,10.4696129 C10.347907,9.51808065 11.1306977,8.74582258 12.092093,8.74582258 L49.264186,8.74582258 C50.2269767,8.74582258 51.0083721,9.51808065 51.0083721,10.4696129 L51.0083721,14.151629 C51.0083721,15.1031613 50.2269767,15.8754194 49.264186,15.8754194 Z" id="Fill-67" fill="#FFFFFF"></path>
                    <path d="M17.5311628,5.41132258 L18.2065116,5.76573387 L18.0809302,5.01967742 L18.6306977,4.49426613 L17.8744186,4.38256452 L17.5381395,3.70270161 L17.1976744,4.37980645 L16.44,4.48599194 L16.9855814,5.01554032 L16.8530233,5.76021774 L17.5311628,5.41132258 Z M15.5093023,8.78443548 L14.8995349,8.39830645 C14.5493023,8.14732258 14.3790698,7.72809677 14.4530233,7.3061129 L14.7334884,5.7285 L13.1148837,4.15916129 L13.2962791,3.46550806 C13.4316279,3.05869355 13.7804651,2.76771774 14.2116279,2.70704032 L15.8134884,2.4836371 L16.827907,0.474387097 L17.5548837,0.433016129 C17.9902326,0.437153226 18.3767442,0.679862903 18.5637209,1.06737097 L19.2711628,2.49604839 L21.5148837,2.82839516 L21.78,3.49446774 C21.9139535,3.90404032 21.8009302,4.34395161 21.4869767,4.64182258 L20.3260465,5.75056452 L20.7013953,7.96253226 L20.1418605,8.41623387 C19.7930233,8.66445968 19.3395349,8.69893548 18.9572093,8.50173387 L17.5213953,7.74740323 L15.5093023,8.78443548 Z" id="Fill-68" fill="#FFFFFF"></path>
                    <path d="M26.1544186,5.41132258 L26.8297674,5.76573387 L26.704186,5.01967742 L27.2539535,4.49426613 L26.4976744,4.38256452 L26.1613953,3.70270161 L25.8195349,4.37980645 L25.0618605,4.48599194 L25.6074419,5.01554032 L25.4748837,5.76021774 L26.1544186,5.41132258 Z M24.1283721,8.78581452 L23.515814,8.39416935 C23.1683721,8.13904839 22.9995349,7.71844355 23.0776744,7.29783871 L23.3567442,5.7285 L21.7367442,4.15640323 L21.9209302,3.46275 C22.0562791,3.05731452 22.4051163,2.76771774 22.832093,2.70704032 L24.4367442,2.4836371 L25.4497674,0.474387097 L26.1767442,0.433016129 C26.607907,0.437153226 26.9944186,0.677104839 27.1827907,1.05909677 L27.8944186,2.49604839 L30.1367442,2.82839516 L30.4018605,3.49170968 C30.535814,3.89990323 30.4269767,4.33705645 30.115814,4.63630645 L28.9493023,5.75056452 L29.3246512,7.96253226 L28.7651163,8.41623387 C28.4176744,8.66445968 27.9627907,8.69893548 27.5804651,8.50173387 L26.1446512,7.74740323 L24.1283721,8.78581452 Z" id="Fill-69" fill="#FFFFFF"></path>
                    <path d="M34.7776744,5.41132258 L35.4530233,5.76573387 L35.3260465,5.01967742 L35.875814,4.49426613 L35.1195349,4.38256452 L34.7846512,3.70270161 L34.4427907,4.37980645 L33.6865116,4.48599194 L34.232093,5.01554032 L34.0981395,5.76021774 L34.7776744,5.41132258 Z M32.755814,8.78443548 L32.1460465,8.39830645 C31.795814,8.14732258 31.6255814,7.72809677 31.6995349,7.3061129 L31.9786047,5.7285 L30.36,4.15640323 L30.544186,3.46275 C30.6795349,3.05593548 31.0297674,2.76771774 31.4567442,2.70704032 L33.06,2.4836371 L34.0730233,0.477145161 L34.7944186,0.433016129 C35.2283721,0.434395161 35.6148837,0.674346774 35.8060465,1.05909677 L36.5176744,2.49604839 L38.7613953,2.82839516 L39.0265116,3.49446774 C39.1590698,3.90404032 39.0474419,4.34395161 38.7334884,4.64182258 L37.5725581,5.75056452 L37.9465116,7.95839516 L37.3925581,8.41347581 C37.0423256,8.66721774 36.5874419,8.69893548 36.2037209,8.50173387 L34.767907,7.74740323 L32.755814,8.78443548 Z" id="Fill-70" fill="#FFFFFF"></path>
                    <path d="M43.3995349,5.41132258 L44.0762791,5.76573387 L43.9506977,5.01967742 L44.5004651,4.49426613 L43.7427907,4.38256452 L43.4065116,3.70270161 L43.0660465,4.37980645 L42.3083721,4.48599194 L42.8539535,5.01554032 L42.7213953,5.76021774 L43.3995349,5.41132258 Z M41.3790698,8.78443548 L40.7693023,8.39830645 C40.4190698,8.14732258 40.2474419,7.72809677 40.3213953,7.3061129 L40.6018605,5.7285 L38.9846512,4.15916129 L39.1646512,3.46550806 C39.3,3.05869355 39.6502326,2.76771774 40.08,2.70704032 L41.6832558,2.4836371 L42.6948837,0.477145161 L43.4176744,0.433016129 C43.8516279,0.434395161 44.2395349,0.674346774 44.4293023,1.05909677 L45.1409302,2.49604839 L47.3846512,2.82839516 L47.6483721,3.49446774 C47.7823256,3.90404032 47.6706977,4.34395161 47.3553488,4.64182258 L46.195814,5.75056452 L46.5711628,7.96253226 L46.0116279,8.41623387 C45.6627907,8.66445968 45.2093023,8.69893548 44.8269767,8.50173387 L43.3911628,7.74740323 L41.3790698,8.78443548 Z" id="Fill-71" fill="#FFFFFF"></path>
                    <path d="M5.81581395,44.4655161 C4.65627907,44.4655161 3.7144186,45.3977419 3.7144186,46.5437177 C3.7144186,47.6896935 4.65627907,48.6219194 5.81581395,48.6219194 C6.97534884,48.6219194 7.92,47.6896935 7.92,46.5437177 C7.92,45.3977419 6.97534884,44.4655161 5.81581395,44.4655161 Z M5.81581395,50.6904677 C3.50232558,50.6904677 1.62139535,48.8301532 1.62139535,46.5437177 C1.62139535,44.2572823 3.50232558,42.3969677 5.81581395,42.3969677 C8.13069767,42.3969677 10.0130233,44.2572823 10.0130233,46.5437177 C10.0130233,48.8301532 8.13069767,50.6904677 5.81581395,50.6904677 Z" id="Fill-73" fill="#FFFFFF"></path>
                    <polygon id="Fill-74" fill="#FFFFFF" points="4.76930233 55.5212177 6.86232558 55.5212177 6.86232558 49.7872016 4.76930233 49.7872016"></polygon>
                    <path d="M55.4413953,44.4655161 C54.2818605,44.4655161 53.34,45.3977419 53.34,46.5437177 C53.34,47.6896935 54.2818605,48.6219194 55.4413953,48.6219194 C56.6009302,48.6219194 57.5455814,47.6896935 57.5455814,46.5437177 C57.5455814,45.3977419 56.6009302,44.4655161 55.4413953,44.4655161 Z M55.4413953,50.6904677 C53.127907,50.6904677 51.2469767,48.8301532 51.2469767,46.5437177 C51.2469767,44.2572823 53.127907,42.3969677 55.4413953,42.3969677 C57.7562791,42.3969677 59.6386047,44.2572823 59.6386047,46.5437177 C59.6386047,48.8301532 57.7562791,50.6904677 55.4413953,50.6904677 Z" id="Fill-76" fill="#FFFFFF"></path>
                    <polygon id="Fill-77" fill="#FFFFFF" points="54.3948837 55.5212177 56.487907 55.5212177 56.487907 49.7872016 54.3948837 49.7872016"></polygon>
                </g>
            </g>
        </g>
    </g>
</svg>